<svg width="25" height="24" viewBox="0 0 25 24" fill="none" xmlns="http://www.w3.org/2000/svg">
<g id="google" clip-path="url(#clip0_351_4387)">
<path id="Path 168" d="M24.26 12.2661C24.2742 11.4411 24.189 10.6174 24.0064 9.81281H12.74V14.2661H19.3532C19.228 15.0469 18.9461 15.7943 18.5245 16.4634C18.1029 17.1324 17.5503 17.7093 16.9 18.1593L16.8769 18.3085L20.4394 21.0681L20.686 21.0928C22.9526 18.9994 24.2595 15.9193 24.2595 12.2661" fill="#4285F4"/>
<path id="Path 169" d="M12.74 24C15.9799 24 18.6999 22.9332 20.6867 21.0932L16.9 18.1597C15.8867 18.8666 14.5267 19.36 12.74 19.36C11.2225 19.3511 9.74638 18.8646 8.521 17.9695C7.29561 17.0744 6.38321 15.8161 5.91325 14.3732L5.77261 14.3852L2.0684 17.2518L2.01999 17.3865C3.01762 19.3747 4.54866 21.0463 6.4419 22.2142C8.33514 23.3822 10.5159 24.0005 12.7404 24" fill="#34A853"/>
<path id="Path 170" d="M5.91323 14.3733C5.65076 13.6094 5.51532 12.8077 5.51231 12C5.51715 11.1936 5.64759 10.393 5.89894 9.62675L5.89225 9.46767L2.14263 6.55493L2.01998 6.61326C1.17839 8.28416 0.740021 10.129 0.740021 11.9999C0.740021 13.8708 1.17839 15.7156 2.01998 17.3865L5.91323 14.3733Z" fill="#FBBC05"/>
<path id="Path 171" d="M12.74 4.63998C14.4595 4.61328 16.1225 5.25366 17.38 6.42672L20.7667 3.11998C18.5946 1.08224 15.7181 -0.0358382 12.74 -1.97267e-05C10.5155 -0.000548987 8.33472 0.617703 6.44148 1.78561C4.54825 2.95351 3.0172 4.62502 2.01953 6.61324L5.89988 9.62672C6.37447 8.18409 7.2899 6.9268 8.51709 6.03212C9.74428 5.13745 11.2213 4.65051 12.74 4.63998Z" fill="#EB4335"/>
</g>
<defs>
<clipPath id="clip0_351_4387">
<rect width="23.52" height="24" fill="white" transform="translate(0.73999)"/>
</clipPath>
</defs>
</svg>
