<svg width="16" height="16" viewBox="0 0 16 16" fill="none" xmlns="http://www.w3.org/2000/svg">
<g id="Bold Duotone / Security / Key">
<path id="Vector" opacity="0.5" fill-rule="evenodd" clip-rule="evenodd" d="M14.6667 5.529C14.6667 7.84618 12.7805 9.72462 10.4538 9.72462C10.0293 9.72462 9.06263 9.62705 8.59236 9.23676L8.00449 9.82222C7.65887 10.1664 7.75221 10.2678 7.90595 10.4347C7.97011 10.5044 8.04478 10.5854 8.10247 10.7003C8.10247 10.7003 8.59233 11.3834 8.10247 12.0664C7.80855 12.4567 6.98558 13.0031 6.04504 12.0664L5.84909 12.2615C5.84909 12.2615 6.43693 12.9445 5.94706 13.6275C5.65314 14.0178 4.86936 14.4081 4.18355 13.7251L3.49774 14.4081C3.02747 14.8765 2.45271 14.6033 2.22412 14.4081L1.63628 13.8227C1.08763 13.2763 1.40768 12.6843 1.63628 12.4567L6.73087 7.38288C6.73087 7.38288 6.24101 6.6023 6.24101 5.529C6.24101 3.21182 8.12716 1.33337 10.4538 1.33337C12.7805 1.33337 14.6667 3.21182 14.6667 5.529Z" fill="#0766FF"/>
<path id="Vector_2" d="M11.9236 5.52902C11.9236 6.33734 11.2656 6.99261 10.454 6.99261C9.64233 6.99261 8.98438 6.33734 8.98438 5.52902C8.98438 4.7207 9.64233 4.06543 10.454 4.06543C11.2656 4.06543 11.9236 4.7207 11.9236 5.52902Z" fill="#0766FF"/>
</g>
</svg>
