<svg width="16" height="16" viewBox="0 0 16 16" fill="none" xmlns="http://www.w3.org/2000/svg">
<g id="Bold Duotone / Call / Phone Rounded">
<path id="Vector" fill-rule="evenodd" clip-rule="evenodd" d="M7.12439 4.31936L6.69172 3.54407C6.10211 2.48758 4.62049 2.36281 3.69186 3.29145C3.13386 3.84945 2.69967 4.53303 2.67102 5.28868C2.6339 6.26806 2.81618 7.77392 3.89095 9.404L6.74313 6.55183C7.35811 5.93684 7.51486 5.01902 7.12439 4.31936ZM9.44812 9.25682L6.59594 12.109C8.22603 13.1838 9.73189 13.3661 10.7113 13.3289C11.4669 13.3003 12.1505 12.8661 12.7085 12.3081C13.6371 11.3795 13.5124 9.89784 12.4559 9.30823L11.6806 8.87556C10.9809 8.48509 10.0631 8.64184 9.44812 9.25682Z" fill="#0766FF"/>
<path id="Vector_2" opacity="0.5" d="M7.34967 8.65033C5.99718 7.29784 6.74314 6.55188 6.74314 6.55188L3.89096 9.40406C4.21219 9.89126 4.61315 10.3896 5.1118 10.8882C5.61045 11.3869 6.10875 11.7878 6.59595 12.109L9.44813 9.25687C9.44813 9.25687 8.70215 10.0028 7.34967 8.65033Z" fill="#0766FF"/>
</g>
</svg>
