<svg width="40" height="40" viewBox="0 0 40 40" fill="none" xmlns="http://www.w3.org/2000/svg">
<path d="M24.907 7.90332L24.907 31.1821L5.05807 31.1821C3.62939 31.1821 2.63 29.7799 3.10576 28.4428L6.27216 19.5427L3.10576 10.6427C2.63 9.30554 3.62939 7.90332 5.05807 7.90332L24.907 7.90332Z" fill="#FFC800"/>
<path d="M14.9297 7.90332L14.9297 31.1821L34.7786 31.1821C36.2073 31.1821 37.2067 29.7799 36.7309 28.4428L33.5645 19.5427L36.7309 10.6427C37.2067 9.30554 36.2073 7.90332 34.7786 7.90332L14.9297 7.90332Z" fill="#FFC800"/>
<path d="M11.6485 31.412C18.0817 35.99 27.036 34.5251 31.6485 28.14C36.261 21.7549 34.7851 12.8674 28.3519 8.28934C21.9187 3.71126 12.9644 5.17618 8.35191 11.5613C3.7394 17.9465 5.21533 26.8339 11.6485 31.412Z" fill="#FFD900"/>
<path d="M11.6484 31.4122C18.0816 35.9902 27.0358 34.5254 31.6483 28.1402L8.35177 11.5615C3.73925 17.9467 5.21519 26.8341 11.6484 31.4122Z" fill="#FEEA66"/>
<path d="M21.151 26H18.669V17.143H16.221V15.443C16.5837 15.443 16.918 15.4147 17.224 15.358C17.5413 15.29 17.836 15.188 18.108 15.052C18.346 14.9273 18.5727 14.7743 18.788 14.593C19.0033 14.4003 19.1733 14.1907 19.298 13.964H21.151V26Z" fill="#B58E00"/>
<path d="M12.5183 30.2079C18.2814 34.3091 26.303 32.9967 30.4351 27.2767C34.5671 21.5567 33.2449 13.595 27.4818 9.49376C21.7188 5.39255 13.6972 6.70488 9.56512 12.4249C5.43306 18.145 6.75526 26.1067 12.5183 30.2079Z" stroke="#FFC800" stroke-width="3"/>
</svg>
