<svg width="40" height="40" viewBox="0 0 40 40" fill="none" xmlns="http://www.w3.org/2000/svg">
<path d="M24.907 7.90332L24.907 31.1821L5.05807 31.1821C3.62939 31.1821 2.63 29.7799 3.10576 28.4428L6.27216 19.5427L3.10576 10.6427C2.63 9.30554 3.62939 7.90332 5.05807 7.90332L24.907 7.90332Z" fill="#B1BED2"/>
<path d="M14.9297 7.90332L14.9297 31.1821L34.7786 31.1821C36.2073 31.1821 37.2067 29.7799 36.7309 28.4428L33.5645 19.5427L36.7309 10.6427C37.2067 9.30554 36.2073 7.90332 34.7786 7.90332L14.9297 7.90332Z" fill="#B1BED2"/>
<path d="M11.6485 31.412C18.0817 35.99 27.036 34.5251 31.6485 28.14C36.261 21.7549 34.7851 12.8674 28.3519 8.28934C21.9187 3.71126 12.9644 5.17618 8.35191 11.5613C3.7394 17.9465 5.21533 26.8339 11.6485 31.412Z" fill="#B1BED2"/>
<path d="M11.6484 31.4122C18.0816 35.9902 27.0358 34.5254 31.6483 28.1402L8.35177 11.5615C3.73925 17.9467 5.21519 26.8341 11.6484 31.4122Z" fill="#CCD9EC"/>
<path d="M19.621 21.206C19.893 20.9793 20.165 20.7357 20.437 20.475C20.7203 20.2143 20.9923 19.9423 21.253 19.659C21.5137 19.3983 21.7347 19.115 21.916 18.809C22.1087 18.503 22.2107 18.163 22.222 17.789C22.2447 17.1883 22.086 16.7407 21.746 16.446C21.406 16.1513 20.9527 16.0097 20.386 16.021C19.876 16.0323 19.4623 16.1513 19.145 16.378C18.839 16.6047 18.6577 16.9333 18.601 17.364H16.306C16.3287 16.6953 16.4873 16.1173 16.782 15.63C17.088 15.1313 17.4903 14.7347 17.989 14.44C18.3517 14.2247 18.7483 14.0717 19.179 13.981C19.6097 13.879 20.063 13.828 20.539 13.828C21.8197 13.8053 22.8283 14.1453 23.565 14.848C23.8823 15.1427 24.1373 15.511 24.33 15.953C24.5227 16.3837 24.619 16.8937 24.619 17.483C24.619 17.9137 24.5737 18.3217 24.483 18.707C24.3923 19.0923 24.2393 19.4493 24.024 19.778C23.888 20.0047 23.7407 20.2143 23.582 20.407C23.4347 20.5883 23.2817 20.7583 23.123 20.917C22.9757 21.0757 22.8113 21.2343 22.63 21.393C22.46 21.5517 22.2673 21.7273 22.052 21.92C21.6327 22.2827 21.2303 22.617 20.845 22.923C20.471 23.229 20.114 23.5293 19.774 23.824H24.483V26H16.391V23.994L19.621 21.206Z" fill="#4A5C78"/>
<path d="M12.5183 30.2079C18.2814 34.3091 26.303 32.9967 30.4351 27.2767C34.5671 21.5567 33.2449 13.595 27.4818 9.49376C21.7188 5.39255 13.6972 6.70488 9.56512 12.4249C5.43306 18.145 6.75526 26.1067 12.5183 30.2079Z" stroke="#8CA0BD" stroke-width="3"/>
</svg>
