<svg width="40" height="40" viewBox="0 0 40 40" fill="none" xmlns="http://www.w3.org/2000/svg">
<path d="M24.907 7.90332L24.907 31.1821L5.05807 31.1821C3.62939 31.1821 2.63 29.7799 3.10576 28.4428L6.27216 19.5427L3.10576 10.6427C2.63 9.30554 3.62939 7.90332 5.05807 7.90332L24.907 7.90332Z" fill="#D8B29D"/>
<path d="M14.9297 7.90332L14.9297 31.1821L34.7786 31.1821C36.2073 31.1821 37.2067 29.7799 36.7309 28.4428L33.5645 19.5427L36.7309 10.6427C37.2067 9.30554 36.2073 7.90332 34.7786 7.90332L14.9297 7.90332Z" fill="#D8B29D"/>
<path d="M11.6485 31.412C18.0817 35.99 27.036 34.5251 31.6485 28.14C36.261 21.7549 34.7851 12.8674 28.3519 8.28934C21.9187 3.71126 12.9644 5.17618 8.35191 11.5613C3.7394 17.9465 5.21533 26.8339 11.6485 31.412Z" fill="#D8B29D"/>
<path d="M11.6484 31.4122C18.0816 35.9902 27.0358 34.5254 31.6483 28.1402L8.35177 11.5615C3.73925 17.9467 5.21519 26.8341 11.6484 31.4122Z" fill="#E9CFC0"/>
<path d="M15.697 17.364C15.7537 16.752 15.8953 16.2307 16.122 15.8C16.3487 15.3693 16.649 15.001 17.023 14.695C17.4083 14.389 17.8503 14.168 18.349 14.032C18.859 13.8847 19.4313 13.811 20.066 13.811C20.576 13.811 21.0577 13.8677 21.511 13.981C21.9757 14.083 22.395 14.2587 22.769 14.508C23.1543 14.7573 23.4603 15.086 23.687 15.494C23.925 15.902 24.044 16.4007 24.044 16.99C24.044 17.4887 23.9193 17.9647 23.67 18.418C23.4207 18.8713 23.058 19.2283 22.582 19.489C23.2733 19.7157 23.772 20.0953 24.078 20.628C24.384 21.1607 24.5257 21.784 24.503 22.498C24.4803 23.1553 24.3387 23.7107 24.078 24.164C23.8173 24.6173 23.483 24.9913 23.075 25.286C22.667 25.5693 22.1967 25.779 21.664 25.915C21.1313 26.051 20.576 26.119 19.998 26.119C18.7173 26.119 17.669 25.83 16.853 25.252C16.037 24.674 15.5383 23.756 15.357 22.498H17.788C17.8673 22.7813 17.9807 23.0137 18.128 23.195C18.2867 23.3763 18.4623 23.5237 18.655 23.637C18.859 23.739 19.0743 23.8127 19.301 23.858C19.5277 23.892 19.76 23.909 19.998 23.909C20.27 23.909 20.5307 23.8807 20.78 23.824C21.0293 23.7673 21.2503 23.6767 21.443 23.552C21.6357 23.4273 21.7887 23.263 21.902 23.059C22.0153 22.8437 22.072 22.583 22.072 22.277C22.072 22.0503 22.021 21.8407 21.919 21.648C21.8283 21.4553 21.7037 21.3137 21.545 21.223C21.341 21.087 21.1143 21.002 20.865 20.968C20.627 20.9227 20.3777 20.9 20.117 20.9H18.91V18.894H19.726C20.0207 18.894 20.287 18.86 20.525 18.792C20.763 18.7127 20.9783 18.5937 21.171 18.435C21.307 18.3103 21.4203 18.1687 21.511 18.01C21.6017 17.84 21.647 17.6417 21.647 17.415C21.647 17.143 21.6017 16.9163 21.511 16.735C21.4203 16.5423 21.2957 16.395 21.137 16.293C20.9783 16.1797 20.7913 16.1003 20.576 16.055C20.3607 16.0097 20.134 15.987 19.896 15.987C19.4653 15.987 19.0857 16.1003 18.757 16.327C18.4283 16.5423 18.213 16.888 18.111 17.364H15.697Z" fill="#83573F"/>
<path d="M12.5183 30.2079C18.2814 34.3091 26.303 32.9967 30.4351 27.2767C34.5671 21.5567 33.2449 13.595 27.4818 9.49376C21.7188 5.39255 13.6972 6.70488 9.56512 12.4249C5.43306 18.145 6.75526 26.1067 12.5183 30.2079Z" stroke="#A67C66" stroke-width="3"/>
</svg>
