<svg width="20" height="20" viewBox="0 0 20 20" fill="none" xmlns="http://www.w3.org/2000/svg">
<g id="Bold Duotone / Essentional, UI / Add Circle">
<path id="Vector" opacity="0.5" d="M18.3333 10.0001C18.3333 14.6025 14.6023 18.3334 9.99996 18.3334C5.39759 18.3334 1.66663 14.6025 1.66663 10.0001C1.66663 5.39771 5.39759 1.66675 9.99996 1.66675C14.6023 1.66675 18.3333 5.39771 18.3333 10.0001Z" fill="#0766FF"/>
<path id="Vector_2" d="M10.625 7.5C10.625 7.15482 10.3452 6.875 10 6.875C9.65482 6.875 9.375 7.15482 9.375 7.5L9.375 9.37502H7.5C7.15482 9.37502 6.875 9.65484 6.875 10C6.875 10.3452 7.15482 10.625 7.5 10.625H9.375V12.5C9.375 12.8452 9.65482 13.125 10 13.125C10.3452 13.125 10.625 12.8452 10.625 12.5L10.625 10.625H12.5C12.8452 10.625 13.125 10.3452 13.125 10C13.125 9.65484 12.8452 9.37502 12.5 9.37502H10.625V7.5Z" fill="#0766FF"/>
</g>
</svg>
