<svg width="32" height="32" viewBox="0 0 32 32" fill="none" xmlns="http://www.w3.org/2000/svg">
<path opacity="0.5" d="M29.3333 15.9998C29.3333 23.3636 23.3638 29.3332 16 29.3332C8.63616 29.3332 2.66663 23.3636 2.66663 15.9998C2.66663 8.63604 8.63616 2.6665 16 2.6665C23.3638 2.6665 29.3333 8.63604 29.3333 15.9998Z" fill="#7D7D88"/>
<path d="M11.9595 11.9594C12.35 11.5689 12.9832 11.5689 13.3737 11.9594L16 14.5856L18.6262 11.9594C19.0167 11.5689 19.6499 11.5689 20.0404 11.9594C20.4309 12.3499 20.4309 12.9831 20.0404 13.3736L17.4142 15.9999L20.0404 18.626C20.4309 19.0166 20.4309 19.6497 20.0404 20.0402C19.6498 20.4308 19.0167 20.4308 18.6262 20.0402L16 17.4141L13.3738 20.0403C12.9832 20.4308 12.3501 20.4308 11.9595 20.0403C11.569 19.6498 11.569 19.0166 11.9595 18.6261L14.5858 15.9999L11.9595 13.3736C11.569 12.9831 11.569 12.3499 11.9595 11.9594Z" fill="#7D7D88"/>
</svg>
