<svg width="24" height="24" viewBox="0 0 24 24" fill="none" xmlns="http://www.w3.org/2000/svg">
<ellipse cx="11.9999" cy="11.9999" rx="3.61707" ry="3.61707" fill="#0766FF"/>
<path d="M17.1245 12C17.1245 9.63916 15.5281 7.65118 13.3559 7.05666L18.2772 4.21533C20.5477 6.04848 21.9998 8.85465 21.9998 12C21.9998 15.1524 20.5411 17.9642 18.2618 19.7971L13.3308 16.9501C15.5158 16.3641 17.1245 14.3699 17.1245 12Z" fill="#0766FF"/>
<path opacity="0.5" d="M9.46171 7.63326C6.09201 9.57876 6.09201 14.4425 9.46172 16.388L16.9321 20.7011C15.4767 21.5279 13.7935 22 12 22C6.47715 22 2 17.5228 2 12C2 6.47715 6.47715 2 12 2C13.8011 2 15.491 2.47617 16.9507 3.30949L9.46171 7.63326Z" fill="#0766FF"/>
</svg>
