<svg width="92" height="92" viewBox="0 0 92 92" fill="none" xmlns="http://www.w3.org/2000/svg">
<g clip-path="url(#clip0_172_30647)">
<path style="mix-blend-mode:screen" opacity="0.54" d="M45.8069 91.2592C71.0031 91.2592 91.4286 70.8355 91.4286 45.6416C91.4286 20.4476 71.0031 0.0239258 45.8069 0.0239258C20.6108 0.0239258 0.185303 20.4476 0.185303 45.6416C0.185303 70.8355 20.6108 91.2592 45.8069 91.2592Z" fill="url(#paint0_radial_172_30647)"/>
<path style="mix-blend-mode:multiply" opacity="0.68" d="M45.8308 73.6952C61.3226 73.6952 73.8812 61.1353 73.8812 45.6418C73.8812 30.1483 61.3226 17.5884 45.8308 17.5884C30.339 17.5884 17.7804 30.1483 17.7804 45.6418C17.7804 61.1353 30.339 73.6952 45.8308 73.6952Z" fill="url(#paint1_linear_172_30647)"/>
<path d="M45.8308 73.6952C61.3226 73.6952 73.8812 61.1353 73.8812 45.6418C73.8812 30.1483 61.3226 17.5884 45.8308 17.5884C30.339 17.5884 17.7804 30.1483 17.7804 45.6418C17.7804 61.1353 30.339 73.6952 45.8308 73.6952Z" fill="#DDC3A3"/>
<g opacity="0.89">
<path d="M71.3527 43.2859C71.3209 42.8323 71.1698 42.2036 70.9154 41.6385C70.7246 41.0416 70.4066 40.5721 69.9216 40.4049C69.5161 40.1901 69.0231 40.2219 68.4586 40.6914C67.7828 41.2485 67.433 42.3468 67.3932 43.4291C67.0752 44.806 67.258 47.0025 69.047 47.1298C71.0108 47.2651 71.464 44.7423 71.3606 43.2859H71.3527Z" fill="#D8B58C"/>
<path d="M64.2209 34.4043C64.1573 34.4281 64.0937 34.452 64.038 34.4838C63.394 34.5395 62.6546 34.9056 62.2889 35.4229C61.8595 36.0357 61.9947 36.8077 62.5353 37.3011C63.2191 37.9298 64.0221 37.8264 64.6582 37.3807C64.682 37.3648 64.698 37.3489 64.7218 37.333C65.175 36.9907 65.5407 36.4734 65.6918 35.9323C65.9621 34.9932 65.2068 34.0939 64.2289 34.4043H64.2209Z" fill="#D8B58C"/>
<path d="M42.4914 49.3505C41.5135 49.9155 40.7025 50.8785 40.3924 51.9768C39.6609 54.619 43.2626 54.6747 44.813 53.8788C46.6258 52.9557 48.2875 49.8041 45.8148 48.5546C44.813 48.0533 43.6681 48.4591 42.714 49.2232C42.6345 49.2629 42.555 49.3027 42.4914 49.3425V49.3505Z" fill="#D8B58C"/>
<path d="M49.4721 52.6692C50.0844 52.4623 50.3547 51.8575 50.4183 51.2526C50.4978 50.99 50.4819 50.7035 50.3785 50.4568C50.3547 50.3295 50.3149 50.2181 50.2593 50.1066C50.3229 49.852 50.2752 49.5814 50.0605 49.3665C49.7822 49.088 49.2018 49.0322 48.9315 49.3665C48.7963 49.5336 48.685 49.7008 48.5817 49.8758C48.2477 50.1623 48.1046 50.616 48.1682 51.0378C48.1523 51.1571 48.1285 51.2686 48.1205 51.3959C48.0728 52.1838 48.6055 52.9637 49.4721 52.6692Z" fill="#D8B58C"/>
<path d="M27.1384 46.6363C28.8797 45.1879 29.0784 41.4315 28.2515 39.4976C27.8938 38.662 27.1702 37.7149 26.1525 37.8264C25.596 37.89 25.1666 38.2482 24.8168 38.7097C23.2266 39.0599 22.5588 42.7845 22.7178 43.9782C22.9722 45.9837 25.1348 48.3076 27.1464 46.6363H27.1384Z" fill="#D8B58C"/>
<path d="M41.0284 31.1017C41.6088 31.229 42.0859 31.0539 42.4516 30.7197C42.7299 30.5128 42.9525 30.2422 43.0797 29.9238C43.4455 29.0166 43.5091 27.3931 42.4039 26.9872C40.2015 26.1754 38.7863 30.6083 41.0284 31.1017Z" fill="#D8B58C"/>
<path d="M28.3231 51.9131C27.1544 51.0615 25.914 51.0297 25.2303 52.1359C24.4113 52.5418 24.4034 54.6985 24.467 55.3591C24.626 57.0622 25.7153 58.5902 27.5121 58.7334C27.7268 58.7493 27.9415 58.7494 28.1482 58.7175C28.7525 58.8528 29.3488 58.7653 29.7543 58.2241C29.8656 58.0808 29.9371 57.9137 29.9848 57.7307C30.3188 57.3089 30.5255 56.7677 30.5255 56.1469C30.5255 54.5791 29.5794 52.8203 28.3231 51.9051V51.9131Z" fill="#D8B58C"/>
<path d="M47.9138 38.4714C48.7486 39.9517 50.6727 40.7634 52.3185 40.2939C53.368 39.9914 54.1551 39.3866 54.8071 38.5351C55.3001 37.8984 55.7374 37.2378 55.9679 36.45C56.3575 35.0731 56.0633 33.386 54.982 32.3832C54.2267 31.6749 53.2806 31.2531 52.239 31.2213C51.436 31.1974 50.6966 31.4521 49.9889 31.8102C48.8758 32.3832 48.0807 33.4496 47.7866 34.6593C47.7309 34.8901 47.7071 35.1209 47.6912 35.3517C47.3175 36.3624 47.3572 37.4925 47.9138 38.4794V38.4714Z" fill="#D8B58C"/>
<path d="M59.0449 53.2183C57.7012 53.2183 57.7012 55.3034 59.0449 55.3034C60.3886 55.3034 60.3886 53.2183 59.0449 53.2183Z" fill="#D8B58C"/>
<path d="M52.6684 63.6039C52.0165 63.0866 51.3725 62.6329 50.5376 62.4578C50.156 62.3783 49.7346 62.3066 49.3291 62.3225C49.0349 62.3385 48.4466 62.4101 48.3273 62.4499C47.7787 62.625 47.3971 62.9115 46.9439 63.2776C46.1567 63.9142 45.9341 65.2115 46.1885 66.1346C46.443 67.0578 47.254 67.9969 48.2399 68.1879C48.2955 68.1959 48.3432 68.2038 48.3989 68.2118C48.6135 68.2993 48.8362 68.3789 49.0588 68.4267C49.8777 68.6177 50.5774 68.5619 51.3963 68.4267C52.3584 68.2754 53.1693 67.2966 53.4079 66.4132C53.6543 65.5059 53.4476 64.2246 52.6684 63.6039Z" fill="#D8B58C"/>
<path d="M44.4473 65.6731C44.4234 65.5776 44.3916 65.4821 44.3518 65.3866C44.3518 65.3707 44.3359 65.3628 44.328 65.3468C44.3121 65.315 44.2962 65.2832 44.2803 65.2513C44.2326 65.1638 44.1849 65.0762 44.1292 64.9967C44.1054 64.9569 44.0736 64.9171 44.0418 64.8773C44.0179 64.8534 44.002 64.8295 43.9782 64.8057C43.4375 64.169 42.5947 63.8188 41.7281 63.9382C40.2651 64.1372 39.3906 65.6174 39.7722 67.0181C40.122 68.2914 41.5452 68.96 42.7537 68.4506C42.8968 68.387 43.0241 68.3233 43.1433 68.2357C43.525 68.1004 43.8668 67.8219 44.0974 67.5274C44.495 67.0101 44.6222 66.3973 44.4632 65.7607C44.4632 65.7368 44.4473 65.7129 44.4393 65.689L44.4473 65.6731Z" fill="#D8B58C"/>
<path d="M44.6063 61.0889C43.9305 61.0889 43.2785 61.6857 43.3103 62.3781C43.3421 63.0785 43.8748 63.6674 44.6063 63.6674C45.2821 63.6674 45.9341 63.0705 45.9023 62.3781C45.8705 61.6778 45.3378 61.0889 44.6063 61.0889Z" fill="#D8B58C"/>
<path d="M65.159 52.0962C63.1395 52.0962 63.1395 55.2318 65.159 55.2318C67.1785 55.2318 67.1785 52.0962 65.159 52.0962Z" fill="#D8B58C"/>
<path d="M64.5548 56.2822C62.6387 56.2822 62.6307 59.2666 64.5548 59.2666C66.4789 59.2666 66.4789 56.2822 64.5548 56.2822Z" fill="#D8B58C"/>
<path d="M59.6412 59.5771C58.6155 59.5771 58.6155 61.1688 59.6412 61.1688C60.6668 61.1688 60.6668 59.5771 59.6412 59.5771Z" fill="#D8B58C"/>
<path d="M62.249 51.9131C61.0326 51.9131 61.0326 53.7992 62.249 53.7992C63.4655 53.7992 63.4655 51.9131 62.249 51.9131Z" fill="#D8B58C"/>
<path d="M61.6449 55.6216C61.0486 55.6216 60.4761 56.1468 60.5 56.7676C60.5238 57.3884 61.0009 57.9136 61.6449 57.9136C62.2412 57.9136 62.8137 57.3884 62.7898 56.7676C62.766 56.1468 62.2889 55.6216 61.6449 55.6216Z" fill="#D8B58C"/>
<path d="M55.0298 56.481C54.2983 56.481 53.6066 57.1176 53.6384 57.8737C53.6702 58.6297 54.2506 59.2664 55.0298 59.2664C55.7612 59.2664 56.453 58.6297 56.4212 57.8737C56.3894 57.1176 55.809 56.481 55.0298 56.481Z" fill="#D8B58C"/>
<path d="M61.9469 42.4585C61.0803 42.4585 60.1659 42.8325 59.5537 43.4453C58.9653 44.0343 58.5281 44.9972 58.5599 45.8329C58.5996 46.7083 58.8858 47.6156 59.5537 48.2204C60.2136 48.8252 61.0246 49.2072 61.9469 49.2072C62.8135 49.2072 63.7279 48.8332 64.3401 48.2204C64.9284 47.6315 65.3657 46.6685 65.3339 45.8329C65.2942 44.9574 65.0079 44.0502 64.3401 43.4453C63.6802 42.8405 62.8692 42.4585 61.9469 42.4585Z" fill="#D8B58C"/>
<path d="M56.4371 44.7824C57.5263 44.7824 57.5263 43.0952 56.4371 43.0952C55.3478 43.0952 55.3478 44.7824 56.4371 44.7824Z" fill="#D8B58C"/>
<path d="M56.0315 46.1831C53.5032 46.1831 53.5032 50.1146 56.0315 50.1146C58.5599 50.1146 58.5599 46.1831 56.0315 46.1831Z" fill="#D8B58C"/>
<path d="M61.947 32.0489C62.583 32.423 63.3225 32.216 63.8234 31.7306C63.9983 31.5555 64.1652 31.3645 64.3004 31.1576C64.3561 31.078 64.4038 30.9904 64.4435 30.9029C64.4912 30.7994 64.5389 30.696 64.5707 30.5846C64.5787 30.5527 64.5866 30.5289 64.5866 30.5129C64.7298 30.2344 64.7616 29.924 64.6264 29.6057C64.4594 29.2157 64.0698 28.9292 63.6325 28.9372C63.1157 28.9451 62.6148 29.0884 62.2809 29.5102C62.2253 29.5818 62.1696 29.6614 62.1219 29.741C62.0344 29.7967 61.947 29.8603 61.8595 29.932C61.5335 30.1946 61.3109 30.5209 61.3109 30.9586C61.3109 31.3963 61.5653 31.8261 61.947 32.0489Z" fill="#D8B58C"/>
<path d="M58.5837 27.9184C58.9495 28.3163 59.6491 28.3402 59.9354 27.8149C60.4442 26.8519 60.2614 25.7139 59.506 24.934C58.9177 24.3291 58.0272 24.6873 57.7569 25.3956C57.6376 25.7139 57.566 26.072 57.566 26.4142C57.566 26.9315 57.7807 27.2897 58.1226 27.6557C58.2578 27.799 58.4168 27.8786 58.5837 27.9263V27.9184Z" fill="#D8B58C"/>
<path d="M40.4003 71.7215C41.4896 71.7215 41.4896 70.0264 40.4003 70.0264C39.3111 70.0264 39.3111 71.7215 40.4003 71.7215Z" fill="#D8B58C"/>
<path d="M36.1865 70.1458C37.2757 70.1458 37.2757 68.4507 36.1865 68.4507C35.0972 68.4507 35.0972 70.1458 36.1865 70.1458Z" fill="#D8B58C"/>
<path d="M32.8789 55.2795C33.9999 55.2795 33.9999 53.5366 32.8789 53.5366C31.7578 53.5366 31.7578 55.2795 32.8789 55.2795Z" fill="#D8B58C"/>
<path d="M21.1514 46.4854C22.0817 46.4854 22.0817 45.0449 21.1514 45.0449C20.2212 45.0449 20.2212 46.4854 21.1514 46.4854Z" fill="#D8B58C"/>
<path d="M68.7369 33.6008C69.373 33.6008 69.9852 33.0437 69.9534 32.3832C69.9216 31.7226 69.4207 31.1655 68.7369 31.1655C68.1009 31.1655 67.4887 31.7226 67.5205 32.3832C67.5523 33.0437 68.0532 33.6008 68.7369 33.6008Z" fill="#D8B58C"/>
<path d="M66.7094 35.9644C67.6396 35.9644 67.6396 34.5239 66.7094 34.5239C65.7792 34.5239 65.7792 35.9644 66.7094 35.9644Z" fill="#D8B58C"/>
<path d="M66.3357 39.3945C67.3296 39.3945 67.3296 37.8506 66.3357 37.8506C65.3419 37.8506 65.3419 39.3945 66.3357 39.3945Z" fill="#D8B58C"/>
<path d="M60.2456 43.1825C61.2712 43.1825 61.2712 41.5908 60.2456 41.5908C59.2199 41.5908 59.2199 43.1825 60.2456 43.1825Z" fill="#D8B58C"/>
<path d="M52.9546 49.4382C53.694 49.4382 54.4017 48.7856 54.3698 48.0216C54.338 47.2496 53.7497 46.605 52.9546 46.605C52.2152 46.605 51.5076 47.2576 51.5394 48.0216C51.5712 48.7935 52.1595 49.4382 52.9546 49.4382Z" fill="#D8B58C"/>
<path d="M50.8477 52.8442C51.7222 52.8442 52.5491 52.0802 52.5094 51.1809C52.4696 50.2816 51.7779 49.5176 50.8477 49.5176C49.9731 49.5176 49.1462 50.2816 49.1859 51.1809C49.2257 52.0802 49.9174 52.8442 50.8477 52.8442Z" fill="#D8B58C"/>
<path d="M47.6912 55.2714C48.7725 55.2714 49.8061 54.3243 49.7504 53.2102C49.7027 52.088 48.844 51.1489 47.6912 51.1489C46.6099 51.1489 45.5763 52.096 45.6319 53.2102C45.6796 54.3323 46.5383 55.2714 47.6912 55.2714Z" fill="#D8B58C"/>
<path d="M46.4906 71.9604C47.5719 71.9604 48.6055 71.0133 48.5499 69.8991C48.5022 68.777 47.6435 67.8379 46.4906 67.8379C45.4093 67.8379 44.3757 68.7849 44.4313 69.8991C44.4791 71.0213 45.3377 71.9604 46.4906 71.9604Z" fill="#D8B58C"/>
<path d="M46.8643 65.299C47.6434 65.299 48.3908 64.6146 48.359 63.8028C48.3193 62.9911 47.707 62.3066 46.8643 62.3066C46.0851 62.3066 45.3377 62.9911 45.3695 63.8028C45.4093 64.6146 46.0215 65.299 46.8643 65.299Z" fill="#D8B58C"/>
<path d="M40.7025 63.0469C41.3624 63.0469 41.9984 62.4659 41.9666 61.7815C41.9348 61.0971 41.4101 60.5161 40.7025 60.5161C40.0425 60.5161 39.4065 61.0971 39.4383 61.7815C39.4701 62.4659 39.9948 63.0469 40.7025 63.0469Z" fill="#D8B58C"/>
<path d="M36.5601 60.2934C38.508 60.2934 38.516 57.2612 36.5601 57.2612C34.6042 57.2612 34.6042 60.2934 36.5601 60.2934Z" fill="#D8B58C"/>
<path d="M59.7924 59.9829C60.8975 59.9829 61.955 59.012 61.9073 57.866C61.8596 56.72 60.977 55.749 59.7924 55.749C58.6872 55.749 57.6298 56.72 57.6775 57.866C57.7252 59.012 58.6077 59.9829 59.7924 59.9829Z" fill="#D8B58C"/>
<path d="M54.6799 55.2793C55.4829 55.2793 56.2541 54.571 56.2223 53.7353C56.1826 52.8997 55.5465 52.1914 54.6799 52.1914C53.8769 52.1914 53.1056 52.8997 53.1374 53.7353C53.1772 54.571 53.8132 55.2793 54.6799 55.2793Z" fill="#D8B58C"/>
<path d="M31.6783 41.5988C32.3302 41.5988 32.9504 41.0257 32.9186 40.3572C32.8868 39.6808 32.37 39.1157 31.6783 39.1157C31.0263 39.1157 30.4061 39.6887 30.4379 40.3572C30.4697 41.0337 30.9865 41.5988 31.6783 41.5988Z" fill="#D8B58C"/>
<path d="M20.6267 40.5244C21.6206 40.5244 21.6206 38.9805 20.6267 38.9805C19.6329 38.9805 19.6329 40.5244 20.6267 40.5244Z" fill="#D8B58C"/>
<path d="M32.5051 49.9153C33.1412 49.9153 33.7534 49.3582 33.7216 48.6976C33.6898 48.0371 33.1889 47.48 32.5051 47.48C31.8691 47.48 31.2569 48.0371 31.2887 48.6976C31.3205 49.3582 31.8214 49.9153 32.5051 49.9153Z" fill="#D8B58C"/>
<path d="M36.0831 54.6427C36.9259 54.6427 37.7368 53.9026 37.6971 53.0272C37.6573 52.1518 36.9895 51.4116 36.0831 51.4116C35.2403 51.4116 34.4293 52.1518 34.4691 53.0272C34.5088 53.9026 35.1767 54.6427 36.0831 54.6427Z" fill="#D8B58C"/>
</g>
<g style="mix-blend-mode:multiply" opacity="0.44">
<path d="M51.2453 40.7232C50.0527 40.9858 49.2178 42.4342 49.6074 43.5723C49.679 43.7712 49.7664 44.0418 49.8857 44.2169C50.1719 44.6387 50.5059 44.9491 50.9749 45.1481C51.4281 45.3391 51.9767 45.4186 52.4538 45.2595C53.2886 44.9889 53.869 44.3443 54.0599 43.5245C54.0599 43.5564 54.0519 43.5882 54.044 43.62C54.044 43.6041 54.0519 43.5882 54.0599 43.5723C54.2984 42.8322 54.0519 41.8453 53.4635 41.328C52.8275 40.755 52.0801 40.5401 51.2453 40.7311V40.7232Z" fill="#CE9B78"/>
<path d="M38.1981 58.5105C37.3871 58.5026 36.6954 58.9005 36.282 59.6008C35.956 60.15 35.9401 60.7946 36.1786 61.3676C36.2581 61.6143 36.3933 61.8292 36.5921 62.0043C36.8385 62.251 37.1327 62.4181 37.4666 62.5136C37.9834 62.7205 38.7706 62.6171 39.2158 62.2749C39.5816 61.9963 39.8598 61.7417 40.0427 61.3039C40.2097 60.8981 40.2812 60.4126 40.1461 59.9828C39.8678 59.1233 39.1125 58.5105 38.1981 58.4946V58.5105Z" fill="#CE9B78"/>
<path d="M33.9921 60.1736C33.9444 59.0833 33.1096 58.1602 31.9806 58.1602C30.9231 58.1602 29.9213 59.0833 29.969 60.1736C30.0168 61.2639 30.8516 62.1871 31.9806 62.1871C33.0301 62.1871 34.0399 61.2639 33.9921 60.1736Z" fill="#CE9B78"/>
<path d="M24.1569 53.0988C25.5006 53.0988 25.5006 51.0137 24.1569 51.0137C22.8132 51.0137 22.8132 53.0988 24.1569 53.0988Z" fill="#CE9B78"/>
<path d="M28.7684 61.5425C26.2719 61.5425 26.2719 65.4182 28.7684 65.4182C31.265 65.4182 31.265 61.5425 28.7684 61.5425Z" fill="#CE9B78"/>
<path d="M33.1811 63.9619C32.2508 63.9619 32.2508 65.4024 33.1811 65.4024C34.1113 65.4024 34.1113 63.9619 33.1811 63.9619Z" fill="#CE9B78"/>
<path d="M52.1676 55.55C51.8972 55.343 51.6428 55.2873 51.3089 55.2476C51.0306 55.2157 50.7523 55.2475 50.482 55.3271C50.4263 55.3431 50.3866 55.3749 50.3389 55.3908C49.2894 55.5579 48.5023 56.688 48.8044 57.7704C49.186 59.1472 50.9511 59.6008 51.9609 58.606C52.2789 58.2956 52.5651 57.9136 52.6844 57.4839C52.8036 57.07 52.7559 56.7119 52.6844 56.2981C52.6367 56.0036 52.3981 55.733 52.1755 55.5579L52.1676 55.55Z" fill="#CE9B78"/>
<path d="M65.5329 41.8535C65.7157 41.4555 65.7793 41.0019 65.6442 40.5801C65.342 39.649 64.3164 38.9168 63.3146 39.259C62.925 39.3943 62.5513 39.5774 62.2651 39.8877C61.3189 40.9064 61.5972 42.5458 62.9011 43.095C63.4736 43.3417 64.1097 43.3178 64.6583 42.9915C65.1194 42.7209 65.3897 42.323 65.5329 41.8535Z" fill="#CE9B78"/>
<path d="M59.7448 34.3008C57.924 34.3008 57.9161 37.134 59.7448 37.134C61.5734 37.134 61.5734 34.3008 59.7448 34.3008Z" fill="#CE9B78"/>
<path d="M54.9662 33.1231C55.9919 33.1231 56.9778 32.2238 56.9301 31.1653C56.8824 30.0989 56.0714 29.2075 54.9662 29.2075C53.9406 29.2075 52.9547 30.1068 53.0024 31.1653C53.0501 32.2317 53.8611 33.1231 54.9662 33.1231Z" fill="#CE9B78"/>
<path d="M34.7076 49.9631C33.9762 49.3822 33.189 49.0479 32.2429 49.3105C31.416 49.5413 30.6766 50.2258 30.4699 51.0773C30.1757 52.3109 30.3268 53.5524 30.9469 54.6745C31.2729 55.2555 31.7579 55.7807 32.3383 56.1548C33.5866 57.3485 35.6617 57.6907 36.8305 56.1787C38.4604 54.0697 36.4012 51.324 34.6997 49.9631H34.7076Z" fill="#CE9B78"/>
<path d="M37.9515 66.3652C37.9515 66.3652 37.9118 66.3333 37.88 66.3174C37.4665 65.6967 36.5919 65.3306 35.8923 65.3306C35.0018 65.3306 34.2465 65.8081 33.7774 66.5402C33.3003 67.2804 33.2924 68.1876 33.6263 68.9755C34.0477 69.9703 34.9461 70.4717 35.9877 70.5195C36.099 70.5195 36.2183 70.5195 36.3296 70.4956C36.9418 70.8139 37.6414 70.8855 38.3252 70.4956C39.4463 69.8589 39.5973 68.4503 38.9931 67.4077C38.7387 66.978 38.3491 66.6437 37.9515 66.3572V66.3652Z" fill="#CE9B78"/>
<path d="M26.7966 31.3086C27.0431 31.0857 27.1703 30.8231 27.2339 30.5127C27.3134 30.2501 27.2896 29.9397 27.1544 29.7328C26.9159 29.3667 26.5263 29.2155 26.1049 29.303C25.771 29.3747 25.4927 29.494 25.2542 29.7646C24.8805 30.1944 24.801 30.8868 25.2542 31.3006C25.3496 31.3881 25.4529 31.4518 25.5642 31.4996C25.7551 31.7144 26.0651 31.8338 26.3196 31.6428C26.3832 31.5951 26.4388 31.5473 26.4945 31.4916C26.5978 31.4438 26.7012 31.3802 26.7887 31.3006L26.7966 31.3086Z" fill="#CE9B78"/>
<path d="M20.3088 37.2695C20.3724 37.7231 20.6189 38.0892 20.9608 38.3439C21.088 38.4633 21.2231 38.5667 21.3742 38.6622C22.5827 39.3705 23.9582 38.7736 24.6897 37.7072C24.8487 37.4844 24.968 37.2377 25.0634 36.991C25.4291 36.4737 25.6597 35.8688 25.5722 35.2322C25.3894 33.8951 23.8708 33.2823 22.6861 33.728C21.8115 34.0543 21.088 34.6989 20.5871 35.4868C20.2213 36.0519 20.1498 36.6965 20.3009 37.2775C20.3009 37.2775 20.3009 37.2775 20.3009 37.2854L20.3088 37.2695Z" fill="#CE9B78"/>
<path d="M27.7667 36.9907C29.2694 36.9907 29.2694 34.6509 27.7667 34.6509C26.264 34.6509 26.264 36.9907 27.7667 36.9907Z" fill="#CE9B78"/>
<path d="M30.5812 46.509C30.947 47.1855 31.6466 47.7267 32.394 47.8858C33.0857 48.037 33.7854 47.9813 34.4056 47.6152C34.819 47.3685 35.2245 46.9786 35.471 46.5568C35.9003 45.8326 36.0196 45.0049 35.8049 44.1931C35.5902 43.3575 34.9065 42.6969 34.1352 42.3707C33.3878 42.0523 32.5848 42.0444 31.8295 42.3707C31.0026 42.7208 30.5256 43.4689 30.454 44.2807C30.1678 45.0049 30.1996 45.8007 30.5892 46.517L30.5812 46.509Z" fill="#CE9B78"/>
<path d="M35.1688 48.8487C35.2006 49.6127 35.789 50.2653 36.5841 50.2653C37.3235 50.2653 38.0391 49.6127 37.9993 48.8487C37.9675 48.0847 37.3791 47.4321 36.5841 47.4321C35.8446 47.4321 35.1291 48.0847 35.1688 48.8487Z" fill="#CE9B78"/>
<path d="M38.5956 52.8757C39.9075 52.8757 39.9075 50.8384 38.5956 50.8384C37.2837 50.8384 37.2837 52.8757 38.5956 52.8757Z" fill="#CE9B78"/>
<path d="M22.6225 49.4458C23.1711 48.4351 22.9007 47.0503 22.1375 46.2226C21.6684 45.7133 20.9051 45.5462 20.2611 45.769C19.3944 46.0714 18.973 46.8195 18.9174 47.7029C18.8935 48.0769 19.0287 48.4192 19.2513 48.6897C19.2513 48.825 19.2752 48.9683 19.307 49.1036C19.6966 50.6714 21.891 50.7987 22.6225 49.4458Z" fill="#CE9B78"/>
<path d="M29.3727 49.9709C30.939 49.9709 30.947 47.5356 29.3727 47.5356C27.7985 47.5356 27.7985 49.9709 29.3727 49.9709Z" fill="#CE9B78"/>
<path d="M25.127 57.7702C24.4751 57.4359 23.6561 57.42 23.0678 57.8816C22.7736 58.1124 22.543 58.4307 22.4397 58.7968C22.2806 59.1231 22.2329 59.4972 22.3602 59.8712C22.5271 60.3726 22.7736 60.8183 23.2586 61.0888C23.513 61.2321 23.7913 61.3515 24.0855 61.3992C24.4751 61.4549 24.801 61.4708 25.1747 61.3117C25.4928 61.1764 25.8187 60.9456 25.9778 60.6273C26.2242 60.1179 26.3435 59.5608 26.1527 59.0117C25.9778 58.4944 25.6359 58.0328 25.1429 57.7861L25.127 57.7702Z" fill="#CE9B78"/>
<path d="M70.1682 51.4754C70.9712 51.4754 70.9712 50.2339 70.1682 50.2339C69.3652 50.2339 69.3652 51.4754 70.1682 51.4754Z" fill="#CE9B78"/>
<path d="M69.4686 39.6093C72.6648 39.6093 72.6727 34.6353 69.4686 34.6353C66.2644 34.6353 66.2644 39.6093 69.4686 39.6093Z" fill="#CE9B78"/>
<path d="M69.8899 41.559C69.9217 42.2912 70.4862 42.9119 71.2494 42.9119C71.9571 42.9119 72.6408 42.2912 72.609 41.559C72.5772 40.8268 72.0127 40.2061 71.2494 40.2061C70.5418 40.2061 69.8581 40.8268 69.8899 41.559Z" fill="#CE9B78"/>
<path d="M67.1627 34.6272C68.7291 34.6272 68.737 32.1919 67.1627 32.1919C65.5885 32.1919 65.5885 34.6272 67.1627 34.6272Z" fill="#CE9B78"/>
<path d="M54.5131 35.7254C54.4972 35.6776 54.4734 35.6378 54.4574 35.5981C54.4574 35.5821 54.4415 35.5662 54.4336 35.5583C54.3779 35.4548 54.3143 35.3593 54.2269 35.2797C53.9247 35.0012 53.6147 34.9136 53.2092 34.8659C52.7003 34.8022 52.2312 35.1842 51.9768 35.5742C51.7144 35.9641 51.6985 36.4655 51.8019 36.9112C51.9927 37.7707 53.0104 38.1845 53.7737 37.8582C54.1394 37.707 54.3938 37.4524 54.5449 37.0863C54.6006 36.951 54.6324 36.8316 54.6483 36.7043C54.7357 36.3859 54.6801 36.0358 54.5131 35.7333V35.7254Z" fill="#CE9B78"/>
<path d="M55.2366 57.2769C54.3381 57.2769 54.3381 58.6696 55.2366 58.6696C56.135 58.6696 56.135 57.2769 55.2366 57.2769Z" fill="#CE9B78"/>
<path d="M65.2546 53.3931C64.388 53.3931 64.388 54.738 65.2546 54.738C66.1212 54.738 66.1212 53.3931 65.2546 53.3931Z" fill="#CE9B78"/>
<path d="M61.5496 45.8247C59.7288 45.8247 59.7209 48.6579 61.5496 48.6579C63.3782 48.6579 63.3782 45.8247 61.5496 45.8247Z" fill="#CE9B78"/>
<path d="M60.7465 45.7608C61.6768 45.7608 61.6768 44.3203 60.7465 44.3203C59.8163 44.3203 59.8163 45.7608 60.7465 45.7608Z" fill="#CE9B78"/>
<path d="M56.4372 47.7983C55.6023 47.7983 55.6023 49.0876 56.4372 49.0876C57.272 49.0876 57.272 47.7983 56.4372 47.7983Z" fill="#CE9B78"/>
<path d="M72.8158 48.1564C72.7681 48.0131 72.7124 47.8858 72.617 47.7664C72.1558 47.1695 71.1938 47.0502 70.6531 47.6311C70.6452 47.647 70.6293 47.655 70.6213 47.6709C70.2636 48.0609 70.1443 48.61 70.3431 49.0955C70.3828 49.1989 70.4226 49.2944 70.4703 49.3899C70.5339 49.5014 70.6134 49.6048 70.7009 49.7003C70.8837 49.8834 71.1222 50.0266 71.3767 50.0823C72.1161 50.2494 72.8794 49.7799 72.9827 49.0079C73.0225 48.7135 72.9668 48.4111 72.8237 48.1484L72.8158 48.1564Z" fill="#CE9B78"/>
<path d="M68.6178 51.4038C69.1584 50.7114 69.2618 49.7643 68.8325 48.9764C68.3793 48.1408 67.4649 47.7588 66.5506 48.0135C66.3518 48.0692 66.1769 48.1567 66.0258 48.2681C65.7793 48.3636 65.5567 48.5069 65.3659 48.7059C64.4595 49.629 64.7378 51.2605 65.8509 51.8972C66.7891 52.4304 67.942 52.2871 68.6178 51.4117V51.4038Z" fill="#CE9B78"/>
<path d="M69.6832 53.7831C69.2379 53.6797 68.8324 53.7433 68.419 53.9503C68.1646 54.0776 67.942 54.3004 67.7829 54.5471C67.5365 54.8655 67.4331 55.1997 67.3854 55.6136C67.3297 56.1309 67.608 56.7118 67.9738 57.062C68.3713 57.4361 68.8563 57.5952 69.397 57.5236C69.9456 57.452 70.3272 57.1655 70.6293 56.7198C70.836 56.4174 70.9633 55.9956 70.9474 55.6295C70.9394 55.1997 70.836 54.9292 70.6691 54.5392C70.526 54.2049 70.033 53.8627 69.6911 53.7831H69.6832Z" fill="#CE9B78"/>
</g>
<g style="mix-blend-mode:multiply" opacity="0.23">
<mask id="mask0_172_30647" style="mask-type:luminance" maskUnits="userSpaceOnUse" x="17" y="17" width="57" height="57">
<path d="M45.8308 73.6952C61.3226 73.6952 73.8812 61.1353 73.8812 45.6418C73.8812 30.1483 61.3226 17.5884 45.8308 17.5884C30.339 17.5884 17.7804 30.1483 17.7804 45.6418C17.7804 61.1353 30.339 73.6952 45.8308 73.6952Z" fill="white"/>
</mask>
<g mask="url(#mask0_172_30647)">
<path d="M40.1143 69.1746C40.0427 69.3178 39.995 69.469 39.9632 69.6203C39.8757 69.5088 39.7803 69.3974 39.669 69.286C38.9296 68.6095 38.0311 68.1877 37.0055 68.1877C36.767 68.1877 36.5205 68.2116 36.282 68.2673C36.2263 67.8455 35.9321 67.4556 35.3835 67.4556C34.493 67.4556 34.2545 68.4663 34.6759 69.0154C34.5646 69.103 34.4533 69.1985 34.3579 69.294C33.8888 69.7635 33.5708 70.3206 33.3879 70.9573C33.205 71.6258 33.205 72.2943 33.3879 72.9548C33.3879 72.9867 33.3958 73.0185 33.4038 73.0424C33.531 73.3448 33.6582 73.6393 33.7854 73.9337C34.0239 74.3714 34.342 74.7216 34.7475 74.9842C34.978 75.215 35.2563 75.3742 35.5744 75.4697C36.0196 75.7005 36.5046 75.8119 37.0214 75.796C37.6893 75.7642 38.3253 75.597 38.9137 75.2866C39.351 75.0479 39.7008 74.7296 39.9632 74.3237C40.2971 73.9655 40.5197 73.5358 40.6311 73.0503C40.6311 73.0185 40.639 72.9867 40.647 72.9628C40.7901 72.4296 40.8139 71.8884 40.7265 71.3552C40.7742 71.387 40.8219 71.4189 40.8775 71.4427C41.291 71.6178 41.6965 71.6178 42.1019 71.4427C42.5074 71.3313 42.8573 71.0926 43.0401 70.7424C43.382 70.0978 43.2628 69.3099 42.738 68.8005C41.9906 68.0763 40.5993 68.2275 40.1143 69.1905V69.1746Z" fill="#C87E56"/>
<path d="M25.9221 40.1505C25.5643 40.055 25.1429 40.039 24.7852 40.1505C23.8947 40.4131 23.4494 41.1771 23.4097 42.0127C23.3222 42.2754 23.2666 42.5459 23.2666 42.8006C23.2586 43.7158 23.8549 44.5913 24.7613 44.838C25.5961 45.0608 26.4628 44.8141 26.9955 44.1217C27.3771 43.6283 27.4328 43.0632 27.4248 42.4664C27.4248 41.8138 27.3374 41.1691 26.8365 40.6916C26.7172 40.6041 26.6059 40.5086 26.4866 40.421C26.8047 40.6757 26.8285 40.6996 26.5661 40.4927C26.3515 40.3255 26.2163 40.23 25.9221 40.1584V40.1505Z" fill="#C87E56"/>
<path d="M36.1866 24.3846C36.7034 24.3846 37.2043 23.931 37.1804 23.3898C37.1566 22.8486 36.7431 22.395 36.1866 22.395C35.6698 22.395 35.1689 22.8486 35.1927 23.3898C35.2166 23.931 35.63 24.3846 36.1866 24.3846Z" fill="#C87E56"/>
<path d="M31.8693 28.348C31.9886 28.4037 32.1078 28.4514 32.235 28.4753C32.9029 28.6186 33.5549 28.4196 34.1035 28.0217C34.7157 27.5681 35.2325 26.9712 35.2325 26.1594C35.2325 25.1248 34.3976 24.3529 33.3958 24.2972C33.0142 24.2733 32.6246 24.3847 32.2907 24.5598C32.076 24.6712 31.8375 24.8383 31.6546 25.0214C31.4797 25.1407 31.3127 25.2601 31.1776 25.3954C30.7005 25.865 30.5574 26.5414 30.7005 27.1861C30.8198 27.7113 31.3207 28.1968 31.8693 28.348Z" fill="#C87E56"/>
<path d="M36.0832 25.4194C36.0117 25.8571 36.0832 26.2312 36.4569 26.5177C36.9499 26.8997 37.6734 26.7644 37.9914 26.2232C38.2856 25.7218 38.0948 25.1011 37.6177 24.7907C37.093 24.4485 36.1945 24.7589 36.0832 25.4114V25.4194Z" fill="#C87E56"/>
<path d="M54.2826 26.6688C55.0697 26.8757 55.8648 26.8678 56.5883 26.4301C57.2959 26.0003 57.7809 25.1328 57.6617 24.2972C57.6776 23.5332 57.3198 22.8169 56.7314 22.1882C56.1431 21.5595 55.356 21.0422 54.5132 20.8273C54.1633 20.7398 53.7976 20.7557 53.4478 20.8592C51.5316 20.9945 50.1959 22.9761 51.2851 24.727C51.9451 25.7934 53.1138 26.3584 54.2905 26.6609L54.2826 26.6688Z" fill="#C87E56"/>
<path d="M61.3587 27.8146C61.5973 27.9738 61.8914 28.1171 62.1618 28.1967C62.8376 28.3956 63.3544 28.1967 63.8871 27.7749C64.2926 27.4486 64.4039 26.7801 64.2767 26.3105C64.2449 26.1832 64.1892 26.0638 64.1256 25.9524C63.9984 25.65 63.7599 25.459 63.4896 25.3077C63.3942 25.1963 63.2987 25.0849 63.1874 24.9894C63.0284 24.8541 62.8614 24.7188 62.6786 24.6154C62.6468 24.5915 62.6309 24.5835 62.6229 24.5835C62.5832 24.5517 62.5514 24.5278 62.4957 24.488C62.4321 24.4403 62.3764 24.4005 62.3049 24.3607C61.6927 23.9787 60.9056 24.2254 60.5239 24.7905C60.1741 25.1088 59.9992 25.7693 60.1661 26.207C60.4126 26.8676 60.7545 27.4326 61.3587 27.8385V27.8146Z" fill="#C87E56"/>
<path d="M60.4206 29.8285C60.7068 30.1547 61.2554 30.0433 61.4542 29.6932C61.6609 29.335 61.478 28.8177 61.0566 28.7222C60.9692 28.6984 60.8738 28.6824 60.7863 28.6586C60.2139 28.5233 59.8561 29.1838 60.2298 29.6136C60.2934 29.6852 60.357 29.7568 60.4206 29.8285Z" fill="#C87E56"/>
<path d="M68.1407 50.1621C68.8404 49.8438 69.3015 49.0638 69.5559 48.3715C69.7626 47.7905 69.7785 47.0424 69.5877 46.4614C69.2697 45.4826 68.4905 44.7106 67.4013 44.7026C66.5505 44.7026 65.6203 45.212 65.2705 46.0078C65.0796 46.4535 64.9842 46.8594 65.0558 47.3289C64.9524 47.8542 64.9763 48.3953 65.0955 48.9206C65.2386 49.5414 65.7316 50.0268 66.2961 50.2656C66.9481 50.5441 67.5205 50.4486 68.1407 50.1621Z" fill="#C87E56"/>
<path d="M57.7332 39.3786C57.4629 40.3734 57.7411 41.4716 58.6793 42.0128C59.8242 42.6733 61.2633 42.0287 61.5655 40.7554C61.6052 40.5803 61.6291 40.3893 61.6211 40.2062C61.6529 40.0709 61.6768 39.9277 61.6847 39.7844C61.8994 39.3945 61.9233 38.7896 61.6529 38.4235C61.2236 37.8426 60.6829 37.4447 59.9038 37.5481C59.5937 37.5879 59.2995 37.7232 59.053 37.9142C58.4329 38.2087 57.9081 38.6464 57.7173 39.3626L57.7332 39.3786Z" fill="#C87E56"/>
<path d="M61.3509 32.5659C59.88 32.5659 59.88 34.85 61.3509 34.85C62.8217 34.85 62.8217 32.5659 61.3509 32.5659Z" fill="#C87E56"/>
<path d="M32.0521 52.6612C31.5114 52.4065 30.8754 52.1518 30.2711 52.1916C29.325 52.2553 28.4027 52.8442 28.1721 53.8151C27.9972 54.5632 28.2675 55.3193 28.8638 55.749C28.9672 55.9719 29.1023 56.1868 29.3011 56.3618C30.3904 57.3646 32.3463 57.5079 33.2209 56.1151C34.008 54.8497 33.3401 53.266 32.06 52.6532L32.0521 52.6612Z" fill="#C87E56"/>
<path d="M27.8382 54.396C27.7587 54.1652 27.6474 54.022 27.5122 53.8389C27.4883 53.8071 27.4724 53.7832 27.4565 53.7593C27.4327 53.7355 27.4247 53.7275 27.4088 53.7116C27.1703 53.4888 26.8602 53.3376 26.5263 53.3455C26.2242 53.3455 26.0174 53.4251 25.7551 53.5524C25.1508 53.8469 25.0077 54.5631 25.1031 55.1521C25.1031 55.1919 25.119 55.2317 25.1349 55.2715C25.3496 55.94 25.9618 56.3618 26.6615 56.2663C27.3611 56.1708 27.8382 55.5977 27.87 54.8974C27.8302 55.2078 27.8223 55.2317 27.862 54.9611C27.9018 54.7701 27.8938 54.587 27.8382 54.396Z" fill="#C87E56"/>
<path d="M22.4794 56.7836C22.9008 56.6005 23.1711 56.2822 23.3142 55.8524C23.4494 55.4386 23.4494 54.9929 23.3619 54.5632C23.2745 54.1334 23.0359 53.7912 22.7656 53.457C22.5509 53.1864 22.0739 53.0352 21.7479 53.0352C21.3981 53.0352 20.9687 53.1943 20.7302 53.457C20.4837 53.7275 20.3009 54.0857 20.3088 54.4597C20.3009 54.4915 20.285 54.5234 20.277 54.5632C20.1896 54.977 20.1975 55.3749 20.3645 55.7729C20.5394 56.1946 20.8415 56.4493 21.1993 56.7199C21.5571 56.9905 22.0977 56.9587 22.4794 56.7915V56.7836Z" fill="#C87E56"/>
<path d="M41.2592 60.7387C41.3466 60.7626 41.4182 60.7864 41.4898 60.8024C42.6267 61.1048 43.6603 60.2851 43.6603 59.1231C43.6603 58.3432 43.2787 57.5872 42.8096 56.9823C42.42 56.4809 41.9588 56.0512 41.4977 55.6135C40.4482 54.6107 38.7706 55.1917 38.3969 56.5366C38.1584 57.3882 38.4446 58.375 38.858 59.1311C39.3033 59.9508 40.2494 60.8581 41.2671 60.7387H41.2592Z" fill="#C87E56"/>
<path d="M44.2646 57.6669C44.8529 57.7862 45.33 57.3167 45.2027 56.7278C45.1391 56.4094 44.9245 56.1866 44.6541 56.0274C43.9624 55.6295 43.1753 56.4254 43.5649 57.1098C43.7239 57.3804 43.9465 57.5952 44.2646 57.6589V57.6669Z" fill="#C87E56"/>
<path d="M45.4094 57.603C44.0339 57.603 44.0339 59.7438 45.4094 59.7438C46.7849 59.7438 46.7849 57.603 45.4094 57.603Z" fill="#C87E56"/>
<path d="M66.988 59.9907C65.6045 58.9959 63.8713 60.5319 63.2352 61.6859C63.108 61.9167 63.0444 62.1793 63.0285 62.4419C62.5912 63.0786 62.4401 63.8665 63.0841 64.5111C64.7061 66.1346 66.7733 63.0388 67.473 61.8291C67.8625 61.1527 67.5843 60.4205 66.988 59.9907Z" fill="#C87E56"/>
<path d="M45.4094 23.1832C46.5623 23.1832 46.5623 21.3926 45.4094 21.3926C44.2566 21.3926 44.2566 23.1832 45.4094 23.1832Z" fill="#C87E56"/>
<path d="M46.0137 24.5915C46.6497 24.5915 46.6577 23.5967 46.0137 23.5967C45.3696 23.5967 45.3696 24.5915 46.0137 24.5915Z" fill="#C87E56"/>
<path d="M47.3176 23.6367C48.2796 23.6367 48.2796 22.1484 47.3176 22.1484C46.3556 22.1484 46.3556 23.6367 47.3176 23.6367Z" fill="#C87E56"/>
<path d="M44.4872 70.1534C44.2089 70.1056 43.9624 70.1534 43.7796 70.3921C43.5331 70.7104 43.6205 71.172 43.9704 71.379C44.2805 71.562 44.7018 71.4506 44.8927 71.1402C45.0914 70.798 44.9245 70.225 44.4951 70.1534H44.4872Z" fill="#C87E56"/>
<path d="M44.2089 67.7979C43.6921 67.7979 43.1912 68.2515 43.2151 68.7927C43.2389 69.3338 43.6523 69.7875 44.2089 69.7875C44.7257 69.7875 45.2266 69.3338 45.2027 68.7927C45.1789 68.2515 44.7655 67.7979 44.2089 67.7979Z" fill="#C87E56"/>
<path d="M46.7611 70.297C46.7611 69.9389 46.4112 69.6842 46.0693 69.7717C46.0375 69.7797 46.0057 69.7876 45.9739 69.7956C45.473 69.9229 45.473 70.679 45.9739 70.8063C46.0057 70.8143 46.0375 70.8222 46.0693 70.8302C46.4112 70.9177 46.7611 70.6631 46.7611 70.3049V70.297Z" fill="#C87E56"/>
<path d="M20.2134 42.8243C21.1198 43.7714 22.535 43.0711 22.7894 41.9091C22.8371 41.6704 22.8689 41.4237 22.8769 41.1849C22.8769 41.0814 22.8769 40.978 22.861 40.8745C22.853 40.7711 22.8053 40.3731 22.8292 40.596C22.7974 40.214 22.7338 39.9275 22.4714 39.6251C22.2408 39.3624 21.8671 39.2033 21.5173 39.1953C20.8892 39.1794 20.3326 39.5614 20.0225 40.0866C19.7045 40.6199 19.6807 41.2088 19.8556 41.7738C19.8317 42.1479 19.9351 42.514 20.2293 42.8164L20.2134 42.8243Z" fill="#C87E56"/>
<path d="M23.9264 37.0627C23.9264 37.0627 23.8946 37.0627 23.8787 37.0627C23.7436 37.0866 23.6243 37.1423 23.513 37.2139C23.3222 37.3094 23.1552 37.4527 23.0598 37.6516C22.8769 38.0337 22.8213 38.4077 22.9882 38.7977C23.1472 39.1797 23.4335 39.3786 23.8072 39.5298C24.1808 39.6731 24.6022 39.498 24.8805 39.2433C24.9521 39.1797 25.0236 39.116 25.0872 39.0523C25.4609 38.7101 25.5484 38.0257 25.2781 37.6039C24.968 37.1184 24.475 36.9672 23.9264 37.0548V37.0627Z" fill="#C87E56"/>
<path d="M22.3522 35.7969C21.422 35.7969 21.422 37.2373 22.3522 37.2373C23.2825 37.2373 23.2825 35.7969 22.3522 35.7969Z" fill="#C87E56"/>
<path d="M58.9656 44.8218C57.8445 44.8218 57.8445 46.5647 58.9656 46.5647C60.0866 46.5647 60.0866 44.8218 58.9656 44.8218Z" fill="#C87E56"/>
<path d="M65.2785 35.7734C63.9348 35.7734 63.9348 37.8585 65.2785 37.8585C66.6222 37.8585 66.6222 35.7734 65.2785 35.7734Z" fill="#C87E56"/>
<path d="M65.4295 35.0412C68.9517 35.0412 68.9517 29.5737 65.4295 29.5737C61.9073 29.5737 61.9073 35.0412 65.4295 35.0412Z" fill="#C87E56"/>
<path d="M57.7412 30.7834C56.6837 31.1574 56.8189 33.0038 58.1387 33.0038C59.5698 33.0038 59.6096 30.855 58.258 30.7277C59.546 30.3218 59.4108 28.1094 57.8366 28.1094C56.143 28.1094 56.1112 30.6799 57.7412 30.7834Z" fill="#C87E56"/>
<path d="M63.0284 56.5365C67.4093 56.5365 67.4173 49.7241 63.0284 49.7241C58.6396 49.7241 58.6396 56.5365 63.0284 56.5365Z" fill="#C87E56"/>
<path d="M61.0725 58.2082C60.3092 58.2082 59.8481 58.6618 59.6652 59.2189C59.4187 58.996 59.0928 58.8528 58.6634 58.8528C56.6439 58.8528 56.6439 61.9884 58.6634 61.9884C59.4426 61.9884 59.9196 61.5189 60.0946 60.9379C60.3331 61.1448 60.6591 61.2801 61.0646 61.2801C63.0523 61.2801 63.0523 58.2002 61.0646 58.2002L61.0725 58.2082Z" fill="#C87E56"/>
<path d="M67.8386 56.083C65.342 56.083 65.342 59.9588 67.8386 59.9588C70.3351 59.9588 70.3351 56.083 67.8386 56.083Z" fill="#C87E56"/>
<path d="M73.6269 47.2891C70.6533 47.2891 70.6453 51.9129 73.6269 51.9129C76.6084 51.9129 76.6084 47.2891 73.6269 47.2891Z" fill="#C87E56"/>
<path d="M70.5419 51.8174C68.0772 51.8174 68.0772 55.6454 70.5419 55.6454C73.0067 55.6454 73.0067 51.8174 70.5419 51.8174Z" fill="#C87E56"/>
<path d="M50.8478 69.2782C50.3549 69.2782 49.854 69.3737 49.3849 69.5488C50.2038 68.9041 50.0607 67.3522 48.9635 67.018C49.6155 66.8429 50.1641 66.2301 50.1323 65.5298C50.0925 64.6941 49.4564 63.9858 48.5898 63.9858C47.7868 63.9858 47.0076 64.6941 47.0474 65.5298C47.0792 66.2062 47.5085 66.7952 48.1366 66.9941C46.6737 67.3602 46.7929 69.8273 48.5183 69.8273C48.6216 69.8273 48.717 69.8114 48.8045 69.7955C48.4308 69.9944 48.0969 70.2412 47.8027 70.5277C47.3813 70.9176 47.0871 71.3792 46.9122 71.9124C46.6419 72.4218 46.5226 72.9789 46.5385 73.5678C46.5862 74.682 46.952 75.8359 47.7947 76.6079C48.6375 77.3799 49.6711 77.8653 50.8399 77.8653C51.945 77.8653 53.0979 77.3878 53.885 76.6079C54.3064 76.2179 54.6006 75.7563 54.7755 75.2231C55.0459 74.7138 55.1651 74.1567 55.1492 73.5678C55.1015 72.4536 54.7358 71.2996 53.893 70.5277C53.0502 69.7557 52.0166 69.2702 50.8478 69.2702V69.2782Z" fill="#C87E56"/>
<path d="M28.4425 62.6646C28.3948 62.6646 28.355 62.6646 28.3073 62.6646C28.84 62.1314 29.2217 61.2958 29.1899 60.5636C29.1581 59.8076 28.9037 59.0197 28.3312 58.4865C27.7587 57.9612 27.0511 57.627 26.256 57.627C25.5007 57.627 24.7136 57.9532 24.1809 58.4865C23.672 58.9958 23.2904 59.8314 23.3222 60.5636C23.3222 60.6114 23.3222 60.6591 23.3302 60.7069C21.0801 60.7069 21.0801 64.1847 23.3222 64.1847C24.1332 64.1847 24.65 63.7231 24.8726 63.1421C25.1588 63.2933 25.461 63.4048 25.779 63.4605C22.6146 65.7207 23.4892 72.0078 28.4346 72.0078C34.4533 72.0078 34.4613 62.6567 28.4346 62.6567L28.4425 62.6646Z" fill="#C87E56"/>
<path d="M20.8336 52.2313C21.0085 52.5815 21.3424 52.8521 21.8513 52.8521C23.3858 52.8521 23.3858 50.4646 21.8513 50.4646C21.8354 50.4646 21.8195 50.4646 21.8036 50.4646C21.9228 50.0905 21.9864 49.7085 21.9705 49.2947C21.9705 49.1673 21.9546 49.0479 21.9387 48.9206C22.1613 49.1992 22.4953 49.3822 22.9564 49.3822C24.7135 49.3822 24.7215 46.6445 22.9564 46.6445C22.2011 46.6445 21.7718 47.1459 21.6684 47.7189C21.4617 47.1538 21.1516 46.6286 20.6984 46.2148C19.8477 45.4348 18.7982 44.9414 17.6214 44.9414C16.5083 44.9414 15.3316 45.4269 14.5445 46.2148C14.1231 46.6127 13.821 47.0743 13.646 47.6154C13.3757 48.1327 13.2485 48.6898 13.2724 49.2947C13.3201 50.4168 13.6938 51.5867 14.5445 52.3746C15.3952 53.1545 16.4447 53.6479 17.6214 53.6479C18.7346 53.6479 19.9113 53.1625 20.6984 52.3746C20.7461 52.3268 20.7938 52.2791 20.8336 52.2313Z" fill="#C87E56"/>
<path d="M27.2817 50.6556C27.2419 49.7802 26.574 49.04 25.6677 49.04C24.8249 49.04 24.0139 49.7802 24.0536 50.6556C24.0934 51.531 24.7613 52.2712 25.6677 52.2712C26.5104 52.2712 27.3214 51.531 27.2817 50.6556Z" fill="#C87E56"/>
<path d="M21.7558 58.001C20.4758 58.001 20.4758 59.9906 21.7558 59.9906C23.0359 59.9906 23.0359 58.001 21.7558 58.001Z" fill="#C87E56"/>
<path d="M17.9156 43.0075C18.3609 43.0075 18.7823 42.6175 18.7584 42.1639C18.7346 41.7023 18.3847 41.3203 17.9156 41.3203C17.4704 41.3203 17.049 41.7103 17.0729 42.1639C17.0967 42.6255 17.4466 43.0075 17.9156 43.0075Z" fill="#C87E56"/>
<path d="M27.8779 40.27C28.7525 40.7793 29.7702 40.5724 30.5017 39.9278C30.5176 39.9198 30.5255 39.9039 30.5414 39.8959C30.9151 39.5696 31.1854 38.8932 31.1616 38.3997C31.1377 37.8586 30.9628 37.2776 30.5414 36.9036C30.5255 36.8956 30.5176 36.8797 30.5017 36.8717C29.8338 36.2908 28.9751 36.0759 28.1403 36.4261C27.385 36.7444 26.7727 37.5482 26.8125 38.3997C26.8443 39.1558 27.218 39.88 27.8859 40.27H27.8779Z" fill="#C87E56"/>
<path d="M22.7179 34.0383C23.7356 34.0383 24.7136 33.139 24.6659 32.0885C24.6182 31.03 23.8072 30.1387 22.7179 30.1387C21.7002 30.1387 20.7223 31.038 20.77 32.0885C20.8177 33.147 21.6287 34.0383 22.7179 34.0383Z" fill="#C87E56"/>
<path d="M70.5896 37.8822C69.2698 38.487 68.5939 39.824 68.5542 41.1929C68.3395 41.0576 68.0851 40.9621 67.7671 40.9621C65.8827 40.9621 65.8748 43.8987 67.7671 43.8987C68.3634 43.8987 68.7689 43.6043 68.9915 43.2063C69.5401 44.2966 70.6134 45.1084 72.2036 45.1084C76.4573 45.1084 76.9979 39.3306 73.8097 37.8822C76.1392 36.4815 75.6065 32.0327 72.2036 32.0327C68.8007 32.0327 68.268 36.4815 70.5975 37.8822H70.5896Z" fill="#C87E56"/>
<path d="M69.564 31.4757C70.7169 31.4757 70.7169 29.6851 69.564 29.6851C68.4111 29.6851 68.4111 31.4757 69.564 31.4757Z" fill="#C87E56"/>
<path d="M60.8896 45.992C60.9373 47.0664 61.7642 47.9817 62.8773 47.9817C63.9188 47.9817 64.9127 47.0664 64.865 45.992C64.8173 44.9177 63.9904 44.0024 62.8773 44.0024C61.8357 44.0024 60.8419 44.9177 60.8896 45.992Z" fill="#C87E56"/>
<path d="M44.1532 67.7423C47.9616 67.7423 47.9696 61.8213 44.1532 61.8213C40.3368 61.8213 40.3368 67.7423 44.1532 67.7423Z" fill="#C87E56"/>
<path d="M52.4299 68.1322C54.7039 68.1322 54.7039 64.5986 52.4299 64.5986C50.156 64.5986 50.156 68.1322 52.4299 68.1322Z" fill="#C87E56"/>
<path d="M57.3118 67.1851C55.0697 67.1851 55.0697 70.6629 57.3118 70.6629C59.554 70.6629 59.554 67.1851 57.3118 67.1851Z" fill="#C87E56"/>
<path d="M35.8129 60.6196C32.5849 60.6196 32.5769 65.6414 35.8129 65.6414C39.0489 65.6414 39.0489 60.6196 35.8129 60.6196Z" fill="#C87E56"/>
<path d="M54.9663 51.0293C54.2349 51.0293 53.4636 51.3476 52.9468 51.8649C52.4539 52.3584 52.0802 53.1701 52.112 53.8864C52.1438 54.6265 52.3903 55.3905 52.9468 55.9078C53.5034 56.4171 54.1951 56.7434 54.9663 56.7434C55.6978 56.7434 56.469 56.4251 56.9858 55.9078C57.4788 55.4144 57.8525 54.6026 57.8207 53.8864C57.7889 53.1462 57.5424 52.3822 56.9858 51.8649C56.4293 51.3556 55.7376 51.0293 54.9663 51.0293Z" fill="#C87E56"/>
<path d="M47.1427 59.6006C47.1904 60.5954 47.5164 61.6299 48.2717 62.3223C49.0271 63.0147 49.9494 63.4524 50.9989 63.4524C51.9848 63.4524 53.0263 63.0227 53.726 62.3223C54.0997 61.9722 54.37 61.5583 54.5211 61.0808C54.7596 60.6192 54.8709 60.1258 54.855 59.5926C54.8073 58.5978 54.4813 57.5632 53.726 56.8708C52.9706 56.1784 52.0484 55.7407 50.9989 55.7407C50.013 55.7407 48.9714 56.1705 48.2717 56.8708C47.898 57.221 47.6277 57.6348 47.4767 58.1123C47.2381 58.5739 47.1268 59.0673 47.1427 59.6006Z" fill="#C87E56"/>
<path d="M55.3559 61.7178C53.1455 61.7178 53.1455 65.1479 55.3559 65.1479C57.5662 65.1479 57.5662 61.7178 55.3559 61.7178Z" fill="#C87E56"/>
</g>
</g>
<g style="mix-blend-mode:multiply" opacity="0.6">
<path d="M65.8111 25.9604C68.2282 30.1068 69.6275 34.9296 69.6275 40.0787C69.6275 55.5737 57.0653 68.1321 41.5771 68.1321C33.7536 68.1321 26.6853 64.9249 21.5968 59.7598C26.4627 68.0923 35.4948 73.695 45.8388 73.695C61.3348 73.695 73.8891 61.1367 73.8891 45.6416C73.8891 37.9697 70.8042 31.022 65.8191 25.9604H65.8111Z" fill="#DDC3A3"/>
</g>
<g style="mix-blend-mode:multiply" opacity="0.25">
<path d="M63.9823 24.2651C65.3181 27.536 66.0575 31.1094 66.0575 34.8578C66.0575 50.3528 53.4953 62.9112 38.0071 62.9112C31.082 62.9112 24.7452 60.3963 19.8555 56.2341C24.0376 66.4766 34.0874 73.6949 45.8307 73.6949C61.3268 73.6949 73.8811 61.1365 73.8811 45.6414C73.8811 37.0702 70.0329 29.4063 63.9823 24.2651Z" fill="#DDC3A3"/>
</g>
<g style="mix-blend-mode:screen" opacity="0.27">
<path d="M69.3253 30.3217C64.3401 22.6975 55.7533 17.6439 45.9738 17.5962C45.9261 17.5962 45.8784 17.5962 45.8228 17.5962C45.3934 17.5962 44.9641 17.6121 44.5427 17.628C44.4314 17.628 44.3201 17.636 44.2088 17.6439C43.8112 17.6678 43.4137 17.6917 43.0241 17.7315C42.9923 17.7315 42.9684 17.7315 42.9366 17.7315C42.5232 17.7713 42.1098 17.827 41.7043 17.8907C41.5929 17.9066 41.4816 17.9225 41.3703 17.9464C41.0125 18.0021 40.6627 18.0657 40.3129 18.1374C40.2493 18.1533 40.1936 18.1612 40.13 18.1692C39.7404 18.2488 39.3508 18.3443 38.9692 18.4398C38.8499 18.4716 38.7227 18.5035 38.6035 18.5353C38.2934 18.6149 37.9912 18.7024 37.6891 18.7979C37.5937 18.8297 37.5062 18.8536 37.4108 18.8775C37.053 18.9889 36.6953 19.1162 36.3375 19.2356C36.2023 19.2834 36.0672 19.3391 35.932 19.3868C35.6776 19.4823 35.4231 19.5858 35.1767 19.6893C35.0494 19.737 34.9222 19.7927 34.803 19.8405C34.477 19.9758 34.159 20.127 33.8409 20.2782C33.6819 20.3498 33.5308 20.4294 33.3798 20.501C33.181 20.5965 32.9822 20.7 32.7835 20.8034C32.6245 20.883 32.4734 20.9626 32.3144 21.0501C32.0282 21.2093 31.7419 21.3685 31.4636 21.5356C31.2887 21.6391 31.1138 21.7505 30.9389 21.8539C30.7958 21.9415 30.6527 22.037 30.5016 22.1325C30.12 22.3792 29.7463 22.6339 29.3805 22.9045C29.3249 22.9442 29.2772 22.9761 29.2215 23.0159C29.0228 23.1591 28.8319 23.3103 28.6411 23.4536C28.5457 23.5252 28.4503 23.6048 28.3549 23.6764C27.7188 24.1778 27.1146 24.711 26.5262 25.2681C26.4706 25.3159 26.4149 25.3716 26.3672 25.4193C25.755 26.0082 25.1666 26.629 24.6021 27.2736C24.5783 27.2975 24.5544 27.3293 24.5306 27.3532C23.9502 28.0297 23.4015 28.73 22.8927 29.4542C19.6488 34.0462 17.7485 39.6171 17.7485 45.6337C17.7485 51.6503 19.8316 57.7623 23.3459 62.4419C20.4677 58.0329 18.7901 52.7804 18.7901 47.1219C18.7901 42.1718 20.0781 37.532 22.3202 33.4892C24.8327 37.5479 29.3249 40.2618 34.4452 40.2618C42.3165 40.2618 48.701 33.8791 48.701 26.0082C48.701 23.4854 48.0331 21.1297 46.8882 19.0685C56.0554 19.0844 64.1811 23.4934 69.2935 30.3058L69.3253 30.3217Z" fill="#DDC3A3"/>
</g>
<g style="mix-blend-mode:screen" opacity="0.68">
<path d="M68.7211 29.4385C71.7106 33.9031 73.4598 39.2671 73.4598 45.0449C73.4598 60.54 60.8975 73.0984 45.4094 73.0984C35.9559 73.0984 27.5996 68.4188 22.519 61.2562C27.5519 68.761 36.1149 73.7032 45.8308 73.7032C61.3268 73.7032 73.8811 61.1448 73.8811 45.6498C73.8811 39.6093 71.965 34.0225 68.7211 29.4464V29.4385Z" fill="#DDC3A3"/>
</g>
<g style="mix-blend-mode:overlay" opacity="0.46">
<path d="M17.8122 44.2172C21.9148 50.0587 28.6968 53.8788 36.3693 53.8788C48.8918 53.8788 59.037 43.7318 59.037 31.2132C59.037 26.8759 57.8205 22.833 55.7056 19.387C52.6287 18.233 49.3052 17.5884 45.8228 17.5884C30.8037 17.5884 18.5436 29.3907 17.8042 44.2172H17.8122Z" fill="#DDC3A3"/>
</g>
<path style="mix-blend-mode:color-dodge" opacity="0.68" d="M38.5955 43.3656C45.3095 43.3656 50.7522 37.9247 50.7522 31.213C50.7522 24.5014 45.3095 19.0605 38.5955 19.0605C31.8815 19.0605 26.4387 24.5014 26.4387 31.213C26.4387 37.9247 31.8815 43.3656 38.5955 43.3656Z" fill="url(#paint2_radial_172_30647)"/>
<g style="mix-blend-mode:multiply" opacity="0.42">
<path d="M47.7867 34.6509C49.52 39.6249 54.3302 39.1872 53.9327 44.3204C53.5351 49.4535 51.1658 54.8891 55.9045 56.2819C60.6432 57.6746 65.4295 57.6427 70.6214 53.8864C71.6391 53.1462 72.6488 51.5705 73.6109 49.5252C73.7858 48.2598 73.8812 46.9705 73.8812 45.6494C73.8812 32.2474 64.4834 21.0499 51.9211 18.2725C48.7806 23.4454 46.4112 30.7353 47.7788 34.6668L47.7867 34.6509Z" fill="url(#paint3_linear_172_30647)"/>
<path d="M47.0711 62.6247C45.0277 54.0455 34.7871 51.857 29.2693 52.995C24.7612 53.9262 20.9687 50.7428 17.844 47.4878C18.7981 62.1233 30.9548 73.6949 45.8308 73.6949C53.0819 73.6949 59.681 70.9492 64.6662 66.4368C58.5123 67.5908 48.4784 68.5219 47.0711 62.6327V62.6247Z" fill="url(#paint4_linear_172_30647)"/>
</g>
<path style="mix-blend-mode:screen" opacity="0.49" d="M71.3847 33.9586C71.4642 37.2853 70.9553 40.6755 69.7786 43.9942C64.5947 58.6059 48.55 66.2539 33.9364 61.073C26.3991 58.3989 20.7302 52.836 17.7009 46.0714C17.9633 57.3803 25.0952 67.8695 36.3853 71.8725C50.9988 77.0535 67.0435 69.4054 72.2274 54.7938C74.7399 47.7187 74.231 40.3095 71.3847 33.9507V33.9586Z" fill="url(#paint5_linear_172_30647)"/>
<path style="mix-blend-mode:screen" opacity="0.49" d="M57.2004 19.8166C59.4823 22.2359 61.3745 25.1009 62.7182 28.348C68.6416 42.6731 61.8277 59.0913 47.4925 65.0124C40.1062 68.0684 32.1634 67.7262 25.3893 64.7179C33.1493 72.9469 45.465 75.9791 56.5405 71.403C70.8678 65.482 77.6816 49.0637 71.7662 34.7386C68.896 27.7988 63.561 22.6259 57.2004 19.8086V19.8166Z" fill="url(#paint6_linear_172_30647)"/>
</g>
<defs>
<radialGradient id="paint0_radial_172_30647" cx="0" cy="0" r="1" gradientUnits="userSpaceOnUse" gradientTransform="translate(45.7592 45.6416) scale(45.5739 45.6176)">
<stop stop-color="#ACFFFB"/>
<stop offset="0.17" stop-color="#7FBCB9"/>
<stop offset="0.33" stop-color="#588381"/>
<stop offset="0.49" stop-color="#385452"/>
<stop offset="0.64" stop-color="#202F2E"/>
<stop offset="0.78" stop-color="#0E1515"/>
<stop offset="0.9" stop-color="#030505"/>
<stop offset="1"/>
</radialGradient>
<linearGradient id="paint1_linear_172_30647" x1="26.0015" y1="25.7935" x2="65.6981" y2="65.452" gradientUnits="userSpaceOnUse">
<stop stop-color="#FF0000"/>
<stop offset="1" stop-color="#957635"/>
</linearGradient>
<radialGradient id="paint2_radial_172_30647" cx="0" cy="0" r="1" gradientUnits="userSpaceOnUse" gradientTransform="translate(38.5557 31.213) scale(12.1409 12.1525)">
<stop stop-color="#ECECEC"/>
<stop offset="0.47" stop-color="#F1F1F1"/>
<stop offset="1" stop-color="white"/>
</radialGradient>
<linearGradient id="paint3_linear_172_30647" x1="47.3892" y1="37.691" x2="73.8812" y2="37.691" gradientUnits="userSpaceOnUse">
<stop stop-color="#FF0000"/>
<stop offset="1" stop-color="#957635"/>
</linearGradient>
<linearGradient id="paint4_linear_172_30647" x1="17.844" y1="60.5873" x2="64.6662" y2="60.5873" gradientUnits="userSpaceOnUse">
<stop stop-color="#FF0000"/>
<stop offset="1" stop-color="#957635"/>
</linearGradient>
<linearGradient id="paint5_linear_172_30647" x1="43.134" y1="34.3934" x2="52.3685" y2="72.8621" gradientUnits="userSpaceOnUse">
<stop offset="0.24" stop-color="white"/>
<stop offset="0.92" stop-color="white"/>
<stop offset="1" stop-color="white"/>
</linearGradient>
<linearGradient id="paint6_linear_172_30647" x1="36.4763" y1="39.0259" x2="69.0772" y2="61.4468" gradientUnits="userSpaceOnUse">
<stop offset="0.24" stop-color="white"/>
<stop offset="0.92" stop-color="white"/>
<stop offset="1" stop-color="white"/>
</linearGradient>
<clipPath id="clip0_172_30647">
<rect width="91.2353" height="91.2353" fill="white" transform="translate(0.185303 0.0239258)"/>
</clipPath>
</defs>
</svg>
