<svg width="92" height="92" viewBox="0 0 92 92" fill="none" xmlns="http://www.w3.org/2000/svg">
<g clip-path="url(#clip0_172_30502)">
<path style="mix-blend-mode:screen" opacity="0.54" d="M56.8641 89.9734C81.3474 84.0322 96.3788 59.3681 90.4376 34.8848C84.4963 10.4014 59.8323 -4.62998 35.3489 1.31127C10.8655 7.25251 -4.16584 31.9165 1.7754 56.3999C7.71665 80.8833 32.3807 95.9147 56.8641 89.9734Z" fill="url(#paint0_radial_172_30502)"/>
<path d="M70.8857 54.8732C75.9829 41.2547 69.075 26.0826 55.4565 20.9854C41.8379 15.8882 26.6658 22.7961 21.5686 36.4147C16.4714 50.0332 23.3794 65.2053 36.9979 70.3025C50.6165 75.3997 65.7886 68.4918 70.8857 54.8732Z" fill="#D8C34E"/>
<g style="mix-blend-mode:multiply" opacity="0.13">
<path d="M50.7769 19.7104C51.393 20.8376 51.7837 22.0849 51.8063 23.5276C51.8664 27.8481 47.9666 31.3346 44.7431 33.6565C40.9185 36.4066 36.6881 38.1574 32.1045 39.1943C29.7977 39.7203 27.3481 40.2538 24.9662 40.0058C23.1929 39.818 22.0057 39.1342 21.0063 38.0747C20.4578 39.9157 20.1046 41.8393 19.9694 43.823C22.7796 45.6188 26.6794 46.4078 29.4746 46.3702C36.643 46.28 43.9015 43.6652 49.7474 39.555C55.3153 35.6402 60.1393 30.2376 60.0041 23.2045C57.2239 21.4988 54.1056 20.2965 50.7769 19.7104Z" fill="#D83F3F"/>
</g>
<g style="mix-blend-mode:multiply" opacity="0.13">
<path d="M66.9019 33.4235C66.4736 35.6928 65.5569 38.1048 64.2795 40.4566C61.7172 45.1755 57.8175 49.6613 53.3091 53.3207C48.8382 56.9349 43.5108 59.655 37.6498 60.9399C33.6298 61.834 29.3769 62.0219 25.1465 61.4208C25.8603 62.3675 26.6343 63.2692 27.4683 64.1108C30.8797 65.0876 34.4789 65.6061 38.1232 65.5986C44.8783 65.6211 51.7612 63.9004 58.0053 60.7896C61.1086 59.2492 64.0691 57.4233 66.8794 55.3269C68.6602 53.9894 70.3809 52.5392 72.0265 50.9537C72.3796 49.2405 72.56 47.4672 72.56 45.6488C72.56 39.6376 70.5387 34.0998 67.1499 29.6665C67.225 30.8462 67.1499 32.101 66.8944 33.4235H66.9019Z" fill="#D83F3F"/>
</g>
<g style="mix-blend-mode:multiply" opacity="0.25">
<path d="M47.4031 26.9618C46.9071 27.315 46.5089 27.6756 46.0956 28.1265C45.6899 28.5698 45.4043 29.0733 45.0887 29.5917C44.8182 30.035 45.4043 30.4107 45.7725 30.1177C46.2309 29.742 46.6742 29.3964 47.0499 28.9455C47.4256 28.5022 47.7187 28.0739 47.9967 27.5554C48.1845 27.2023 47.7788 26.6913 47.4031 26.9618Z" fill="#D83F3F"/>
</g>
<g style="mix-blend-mode:multiply" opacity="0.25">
<path d="M54.0004 39.0366C54.1432 39.1418 54.3987 39.1869 54.7594 39.1644C56.0593 39.0892 56.6829 37.8269 57.4794 37.0154C58.9897 35.475 60.3047 33.5739 60.7029 31.4174C60.7706 31.0642 60.3498 30.8989 60.1469 31.1845C59.0949 32.5896 58.4262 34.2352 57.3742 35.6553C56.6078 36.6923 55.2703 37.1055 54.3611 37.9772C53.8577 38.458 53.7375 38.8488 54.008 39.0366H54.0004Z" fill="#D83F3F"/>
</g>
<g style="mix-blend-mode:multiply" opacity="0.25">
<path d="M37.9054 32.124C35.7939 32.3344 24.5003 36.0689 23.2004 32.8679C22.6744 33.8147 22.201 34.799 21.7953 35.8209C22.3438 36.3544 23.0126 36.7677 23.7339 37.0006C28.1822 38.4133 34.6969 36.6249 38.4464 34.1303C39.2429 33.5968 39.0475 32.0188 37.9054 32.1315V32.124Z" fill="#D83F3F"/>
</g>
<g style="mix-blend-mode:multiply" opacity="0.25">
<path d="M48.425 21.7169C48.5076 23.107 48.162 24.407 48.0342 25.7745C47.9741 26.4132 48.8758 26.5635 49.1764 26.0826C50.2133 24.422 50.3861 21.6418 49.6047 19.5304C49.0862 19.4627 48.5602 19.4101 48.0267 19.3726C48.192 20.139 48.3724 20.9054 48.4175 21.7094L48.425 21.7169Z" fill="#D83F3F"/>
</g>
<g style="mix-blend-mode:multiply" opacity="0.25">
<path d="M65.0535 27.2394C64.8281 28.5243 64.6327 29.8168 64.3021 31.0716C63.6409 33.5587 62.6791 35.9707 61.4994 38.255C59.1851 42.7709 55.8038 46.2499 52.2571 49.8041C51.7387 50.3225 52.3999 51.1566 53.0311 50.8034C57.6973 48.2411 61.2138 43.6576 63.5733 38.9764C64.9784 36.1811 66.3534 32.6195 66.7592 29.163C66.2182 28.4943 65.6471 27.8481 65.0535 27.2319V27.2394Z" fill="#D83F3F"/>
</g>
<g style="mix-blend-mode:multiply" opacity="0.25">
<path d="M51.9115 40.8102C46.5014 43.1245 41.3317 45.8446 35.4558 46.844C30.2335 47.7306 24.8309 47.3549 19.9017 45.4614C19.9017 45.5215 19.9017 45.5816 19.9017 45.6417C19.9017 45.9273 19.9168 46.2053 19.9243 46.4908C30.3237 50.8339 43.1802 47.4601 52.1745 41.2535C52.4525 41.0657 52.212 40.6825 51.919 40.8102H51.9115Z" fill="#D83F3F"/>
</g>
<g style="mix-blend-mode:multiply" opacity="0.25">
<path d="M58.2834 63.7653C53.4519 65.6814 48.5603 67.3946 43.3455 67.8605C39.3406 68.2136 35.2003 67.9582 31.2029 67.2594C32.2548 67.9882 33.3594 68.6495 34.5166 69.2205C42.7595 70.573 51.7763 69.1078 58.584 64.4641C58.9146 64.2387 58.7192 63.5925 58.2909 63.7653H58.2834Z" fill="#D83F3F"/>
</g>
<g style="mix-blend-mode:multiply" opacity="0.13">
<path d="M45.487 47.9332C37.3568 48.0234 28.7006 53.7115 20.4578 51.044C20.8861 53.1029 21.5548 55.064 22.434 56.9125C24.7483 57.6939 27.3331 57.8893 29.9179 57.6639C33.0588 57.3859 36.1846 56.7697 39.1527 55.7178C42.534 54.5155 44.7882 53.3358 46.9222 50.4279C47.6811 49.3909 46.6517 47.9182 45.487 47.9332Z" fill="#D83F3F"/>
</g>
<g style="mix-blend-mode:multiply" opacity="0.13">
<path d="M34.2762 26.5483C31.774 27.5777 29.4521 27.7129 26.98 27.6829C26.0333 28.6973 25.1692 29.7793 24.3877 30.9289C30.9324 36.3992 46.3963 27.6754 44.4351 19.3799C43.6987 19.4325 42.9624 19.5001 42.241 19.6128C42.1884 23.2421 37.2742 25.316 34.2762 26.5558V26.5483Z" fill="#D83F3F"/>
</g>
<g style="mix-blend-mode:screen" opacity="0.85">
<g style="mix-blend-mode:multiply" opacity="0.25">
<path d="M41.6098 39.645C43.1501 39.645 43.1577 37.248 41.6098 37.248C40.0619 37.248 40.0619 39.645 41.6098 39.645Z" fill="#E5B55E"/>
</g>
<g style="mix-blend-mode:multiply" opacity="0.25">
<path d="M44.1494 38.9238C45.9528 38.9238 45.9603 36.1211 44.1494 36.1211C42.3385 36.1211 42.3385 38.9238 44.1494 38.9238Z" fill="#E5B55E"/>
</g>
<g style="mix-blend-mode:multiply" opacity="0.25">
<path d="M45.9303 37.1053C46.4864 37.1053 46.4864 36.2412 45.9303 36.2412C45.3743 36.2412 45.3743 37.1053 45.9303 37.1053Z" fill="#E5B55E"/>
</g>
<g style="mix-blend-mode:multiply" opacity="0.25">
<path d="M47.2377 36.4292C48.3197 36.4292 48.3197 34.7461 47.2377 34.7461C46.1556 34.7461 46.1556 36.4292 47.2377 36.4292Z" fill="#E5B55E"/>
</g>
<g style="mix-blend-mode:multiply" opacity="0.25">
<path d="M49.8676 34.7687C49.9127 34.7386 49.9578 34.7161 50.0029 34.686C50.3335 34.4831 50.5439 34.0473 50.4161 33.6641C50.3034 33.3034 49.9503 32.9653 49.5445 33.0029C49.4919 33.0029 49.4393 33.0104 49.3867 33.0179C48.7856 33.0705 48.3047 33.589 48.4775 34.2126C48.6353 34.7837 49.3416 35.0993 49.8676 34.7762V34.7687Z" fill="#E5B55E"/>
</g>
<g style="mix-blend-mode:multiply" opacity="0.25">
<path d="M52.5051 32.1314C52.5051 32.1314 52.5201 32.0938 52.5276 32.0788C52.7606 31.4927 52.2722 30.7939 51.7161 30.6436C51.6936 30.6436 51.6786 30.6361 51.656 30.6286C50.6567 30.3581 49.6798 31.5077 50.2734 32.4244C50.5064 32.7851 50.8971 33.0331 51.3329 33.0331C51.919 33.0331 52.3097 32.6423 52.5126 32.1314H52.5051Z" fill="#E5B55E"/>
</g>
<g style="mix-blend-mode:multiply" opacity="0.25">
<path d="M52.7155 30.568C53.1288 30.568 53.482 30.2149 53.482 29.8016C53.482 29.3883 53.1288 29.0352 52.7155 29.0352C52.3023 29.0352 51.9491 29.3883 51.9491 29.8016C51.9491 30.2149 52.3023 30.568 52.7155 30.568Z" fill="#E5B55E"/>
</g>
<g style="mix-blend-mode:multiply" opacity="0.25">
<path d="M53.5645 28.1561C54.316 28.1561 54.3235 26.9839 53.5645 26.9839C52.8056 26.9839 52.8056 28.1561 53.5645 28.1561Z" fill="#E5B55E"/>
</g>
<g style="mix-blend-mode:multiply" opacity="0.25">
<path d="M39.8515 39.66C39.8515 39.66 39.8665 39.6149 39.874 39.5924C40.0544 39.0664 39.581 38.5254 39.0625 38.5254C38.544 38.5254 38.0707 39.0664 38.251 39.5924C38.2585 39.6149 38.266 39.6375 38.2735 39.66C38.544 40.434 39.5735 40.434 39.844 39.66H39.8515Z" fill="#E5B55E"/>
</g>
<g style="mix-blend-mode:multiply" opacity="0.25">
<path d="M24.7934 54.3802C25.3494 54.3802 25.3494 53.5161 24.7934 53.5161C24.2373 53.5161 24.2373 54.3802 24.7934 54.3802Z" fill="#E5B55E"/>
</g>
<g style="mix-blend-mode:multiply" opacity="0.25">
<path d="M26.9499 54.8158C27.8666 54.8158 27.8741 53.3882 26.9499 53.3882C26.0257 53.3882 26.0257 54.8158 26.9499 54.8158Z" fill="#E5B55E"/>
</g>
<g style="mix-blend-mode:multiply" opacity="0.25">
<path d="M29.6548 55.4023C30.4138 55.4023 31.1426 54.7335 31.1051 53.9445C31.0675 53.1556 30.4664 52.4868 29.6548 52.4868C28.8959 52.4868 28.1671 53.1556 28.2046 53.9445C28.2422 54.7335 28.8433 55.4023 29.6548 55.4023Z" fill="#E5B55E"/>
</g>
<g style="mix-blend-mode:multiply" opacity="0.25">
<path d="M32.2773 55.2142C33.1865 55.2142 34.0506 54.4177 34.0131 53.4784C33.968 52.5392 33.2541 51.7427 32.2773 51.7427C31.3681 51.7427 30.504 52.5392 30.5416 53.4784C30.5867 54.4177 31.3005 55.2142 32.2773 55.2142Z" fill="#E5B55E"/>
</g>
<g style="mix-blend-mode:multiply" opacity="0.25">
<path d="M35.4257 53.5539C35.4257 53.5539 35.4483 53.5238 35.4633 53.5163C35.8089 53.1406 35.8089 52.5996 35.4633 52.2239C35.4483 52.2089 35.4408 52.1938 35.4257 52.1863C34.8622 51.5777 33.7351 52.0436 33.7726 52.8701C33.7877 53.2082 33.953 53.5313 34.2535 53.7042C34.6142 53.9145 35.1402 53.8695 35.4257 53.5539Z" fill="#E5B55E"/>
</g>
<g style="mix-blend-mode:multiply" opacity="0.25">
<path d="M36.9811 52.9676C37.4094 52.9676 37.7701 52.6069 37.7701 52.1786C37.7701 51.7503 37.4094 51.3896 36.9811 51.3896C36.5528 51.3896 36.1921 51.7503 36.1921 52.1786C36.1921 52.6069 36.5528 52.9676 36.9811 52.9676Z" fill="#E5B55E"/>
</g>
<g style="mix-blend-mode:multiply" opacity="0.25">
<path d="M39.0625 52.5245C40.4075 52.5245 40.4075 50.4355 39.0625 50.4355C37.7175 50.4355 37.7175 52.5245 39.0625 52.5245Z" fill="#E5B55E"/>
</g>
<g style="mix-blend-mode:multiply" opacity="0.25">
<path d="M69.2163 40.1033C71.4479 40.1033 71.4554 36.6318 69.2163 36.6318C66.9771 36.6318 66.9771 40.1033 69.2163 40.1033Z" fill="#E5B55E"/>
</g>
<g style="mix-blend-mode:multiply" opacity="0.25">
<path d="M68.3672 42.4177C68.9908 42.4177 69.5919 41.8691 69.5694 41.2154C69.5394 40.5692 69.0434 40.0132 68.3672 40.0132C67.7435 40.0132 67.1424 40.5617 67.1649 41.2154C67.195 41.8616 67.6909 42.4177 68.3672 42.4177Z" fill="#E5B55E"/>
</g>
<g style="mix-blend-mode:multiply" opacity="0.25">
<path d="M67.1348 44.2212C68.4122 44.2212 68.4197 42.23 67.1348 42.23C65.8499 42.23 65.8499 44.2212 67.1348 44.2212Z" fill="#E5B55E"/>
</g>
<g style="mix-blend-mode:multiply" opacity="0.25">
<path d="M65.4367 45.8443C66.3234 45.8443 66.3234 44.4692 65.4367 44.4692C64.5501 44.4692 64.5501 45.8443 65.4367 45.8443Z" fill="#E5B55E"/>
</g>
<g style="mix-blend-mode:multiply" opacity="0.25">
<path d="M63.3553 49.5639C65.354 49.5639 65.3615 46.4531 63.3553 46.4531C61.349 46.4531 61.349 49.5639 63.3553 49.5639Z" fill="#E5B55E"/>
</g>
<g style="mix-blend-mode:multiply" opacity="0.25">
<path d="M61.6571 52.1633C63.3327 52.1633 63.3327 49.5635 61.6571 49.5635C59.9815 49.5635 59.9815 52.1633 61.6571 52.1633Z" fill="#E5B55E"/>
</g>
<g style="mix-blend-mode:multiply" opacity="0.25">
<path d="M59.8087 53.2982C60.237 53.2982 60.6427 52.9225 60.6277 52.4792C60.6052 52.0359 60.2671 51.6602 59.8087 51.6602C59.3804 51.6602 58.9746 52.0359 58.9897 52.4792C59.0122 52.9225 59.3503 53.2982 59.8087 53.2982Z" fill="#E5B55E"/>
</g>
<g style="mix-blend-mode:multiply" opacity="0.25">
<path d="M57.4944 54.7636C58.351 54.7636 58.351 53.4336 57.4944 53.4336C56.6378 53.4336 56.6378 54.7636 57.4944 54.7636Z" fill="#E5B55E"/>
</g>
<g style="mix-blend-mode:multiply" opacity="0.25">
<path d="M60.4248 64.3514C62.0027 64.3514 62.0027 61.9019 60.4248 61.9019C58.8468 61.9019 58.8468 64.3514 60.4248 64.3514Z" fill="#E5B55E"/>
</g>
<g style="mix-blend-mode:multiply" opacity="0.25">
<path d="M62.7392 62.7058C63.8888 62.7058 63.8888 60.9175 62.7392 60.9175C61.5895 60.9175 61.5895 62.7058 62.7392 62.7058Z" fill="#E5B55E"/>
</g>
<g style="mix-blend-mode:multiply" opacity="0.25">
<path d="M64.9032 58.4829H64.8281C64.0541 58.4829 63.3102 59.1667 63.3478 59.9632C63.3854 60.7672 64.0015 61.4434 64.8281 61.4434H64.9032C65.6771 61.4434 66.421 60.7597 66.3835 59.9632C66.3459 59.1592 65.7297 58.4829 64.9032 58.4829Z" fill="#E5B55E"/>
</g>
<g style="mix-blend-mode:multiply" opacity="0.25">
<path d="M67.21 59.4373C67.7811 59.4373 68.3296 58.9338 68.3071 58.3402C68.277 57.7466 67.8262 57.2432 67.21 57.2432C66.639 57.2432 66.0829 57.7466 66.113 58.3402C66.143 58.9338 66.5939 59.4373 67.21 59.4373Z" fill="#E5B55E"/>
</g>
<g style="mix-blend-mode:multiply" opacity="0.25">
<path d="M68.6002 56.8976C69.0285 56.8976 69.0285 56.2363 68.6002 56.2363C68.1719 56.2363 68.1719 56.8976 68.6002 56.8976Z" fill="#E5B55E"/>
</g>
<g style="mix-blend-mode:multiply" opacity="0.25">
<path d="M69.4492 55.9207C70.2006 55.9207 70.2081 54.7485 69.4492 54.7485C68.6903 54.7485 68.6903 55.9207 69.4492 55.9207Z" fill="#E5B55E"/>
</g>
<g style="mix-blend-mode:multiply" opacity="0.25">
<path d="M33.2016 60.6244C33.7576 60.6244 33.7576 59.7603 33.2016 59.7603C32.6455 59.7603 32.6455 60.6244 33.2016 60.6244Z" fill="#E5B55E"/>
</g>
<g style="mix-blend-mode:multiply" opacity="0.25">
<path d="M35.0499 60.6995C36.0042 60.6995 36.0042 59.2192 35.0499 59.2192C34.0957 59.2192 34.0957 60.6995 35.0499 60.6995Z" fill="#E5B55E"/>
</g>
<g style="mix-blend-mode:multiply" opacity="0.25">
<path d="M37.214 60.5941C37.7475 60.5941 38.2585 60.1282 38.2359 59.5722C38.2134 59.0162 37.7851 58.5503 37.214 58.5503C36.6805 58.5503 36.1696 59.0162 36.1921 59.5722C36.2147 60.1282 36.643 60.5941 37.214 60.5941Z" fill="#E5B55E"/>
</g>
<g style="mix-blend-mode:multiply" opacity="0.25">
<path d="M39.7538 59.7C40.7081 59.7 40.7081 58.2197 39.7538 58.2197C38.7995 58.2197 38.7995 59.7 39.7538 59.7Z" fill="#E5B55E"/>
</g>
<g style="mix-blend-mode:multiply" opacity="0.25">
<path d="M41.4519 59.1292C42.4662 59.1292 42.4738 57.5513 41.4519 57.5513C40.4299 57.5513 40.4299 59.1292 41.4519 59.1292Z" fill="#E5B55E"/>
</g>
<g style="mix-blend-mode:multiply" opacity="0.25">
<path d="M42.9923 57.9792C43.5182 57.9792 43.5182 57.1602 42.9923 57.1602C42.4663 57.1602 42.4663 57.9792 42.9923 57.9792Z" fill="#E5B55E"/>
</g>
<g style="mix-blend-mode:multiply" opacity="0.25">
<path d="M28.4151 31.2897C29.9254 31.2897 29.9254 28.9453 28.4151 28.9453C26.9048 28.9453 26.9048 31.2897 28.4151 31.2897Z" fill="#E5B55E"/>
</g>
<g style="mix-blend-mode:multiply" opacity="0.25">
<path d="M31.0375 30.7263C31.8265 30.7263 31.8265 29.5015 31.0375 29.5015C30.2486 29.5015 30.2486 30.7263 31.0375 30.7263Z" fill="#E5B55E"/>
</g>
<g style="mix-blend-mode:multiply" opacity="0.25">
<path d="M33.3518 30.8012C34.832 30.8012 34.832 28.502 33.3518 28.502C31.8715 28.502 31.8715 30.8012 33.3518 30.8012Z" fill="#E5B55E"/>
</g>
<g style="mix-blend-mode:multiply" opacity="0.25">
<path d="M36.132 29.3059C37.2817 29.3059 37.2817 27.5176 36.132 27.5176C34.9824 27.5176 34.9824 29.3059 36.132 29.3059Z" fill="#E5B55E"/>
</g>
<g style="mix-blend-mode:multiply" opacity="0.25">
<path d="M37.7474 28.0512C38.4688 28.0512 38.4688 26.9316 37.7474 26.9316C37.0261 26.9316 37.0261 28.0512 37.7474 28.0512Z" fill="#E5B55E"/>
</g>
<g style="mix-blend-mode:multiply" opacity="0.25">
<path d="M39.2203 26.9466C39.5133 26.9466 39.5133 26.4883 39.2203 26.4883C38.9272 26.4883 38.9272 26.9466 39.2203 26.9466Z" fill="#E5B55E"/>
</g>
<g style="mix-blend-mode:multiply" opacity="0.25">
<path d="M40.2948 26.4806C41.2791 26.4806 41.2791 24.9478 40.2948 24.9478C39.3104 24.9478 39.3104 26.4806 40.2948 26.4806Z" fill="#E5B55E"/>
</g>
<g style="mix-blend-mode:multiply" opacity="0.25">
<path d="M22.0206 50.7959C23.824 50.7959 23.8315 47.9932 22.0206 47.9932C20.2098 47.9932 20.2098 50.7959 22.0206 50.7959Z" fill="#E5B55E"/>
</g>
<g style="mix-blend-mode:multiply" opacity="0.25">
<path d="M24.921 49.4207C24.921 49.4207 24.8985 49.3907 24.8834 49.3832C24.6956 49.1652 24.2823 49.1652 24.087 49.3832C24.0719 49.3982 24.0644 49.4132 24.0494 49.4207C23.7113 49.8115 23.9292 50.4652 24.4852 50.4652C25.0412 50.4652 25.2591 49.8115 24.921 49.4207Z" fill="#E5B55E"/>
</g>
<g style="mix-blend-mode:multiply" opacity="0.25">
<path d="M26.4915 50.6231C27.3782 50.6231 27.3782 49.248 26.4915 49.248C25.6049 49.248 25.6049 50.6231 26.4915 50.6231Z" fill="#E5B55E"/>
</g>
<g style="mix-blend-mode:multiply" opacity="0.25">
<path d="M62.123 28.8402C62.8669 28.8402 63.5883 28.1865 63.5507 27.4125C63.5131 26.6386 62.9195 25.9849 62.123 25.9849C61.3791 25.9849 60.6578 26.6386 60.6954 27.4125C60.7329 28.1865 61.3265 28.8402 62.123 28.8402Z" fill="#E5B55E"/>
</g>
<g style="mix-blend-mode:multiply" opacity="0.25">
<path d="M62.5063 31.1845C63.686 31.1845 63.6935 29.3511 62.5063 29.3511C61.319 29.3511 61.319 31.1845 62.5063 31.1845Z" fill="#E5B55E"/>
</g>
<g style="mix-blend-mode:multiply" opacity="0.25">
<path d="M62.2808 32.7851C63.1374 32.7851 63.1374 31.4551 62.2808 31.4551C61.4242 31.4551 61.4242 32.7851 62.2808 32.7851Z" fill="#E5B55E"/>
</g>
<g style="mix-blend-mode:multiply" opacity="0.25">
<path d="M61.8149 33.9419C62.0779 33.9419 62.0779 33.5361 61.8149 33.5361C61.5519 33.5361 61.5519 33.9419 61.8149 33.9419Z" fill="#E5B55E"/>
</g>
<g style="mix-blend-mode:multiply" opacity="0.25">
<path d="M51.0924 48.8949C51.8363 48.8949 52.5576 48.2412 52.5201 47.4672C52.4825 46.6933 51.8889 46.0396 51.0924 46.0396C50.3485 46.0396 49.6272 46.6933 49.6647 47.4672C49.7023 48.2412 50.2959 48.8949 51.0924 48.8949Z" fill="#E5B55E"/>
</g>
<g style="mix-blend-mode:multiply" opacity="0.25">
<path d="M53.5645 46.6032C55.4355 46.6032 55.4355 43.6953 53.5645 43.6953C51.6935 43.6953 51.6935 46.6032 53.5645 46.6032Z" fill="#E5B55E"/>
</g>
<g style="mix-blend-mode:multiply" opacity="0.25">
<path d="M55.7211 44.1985C56.6754 44.1985 56.6754 42.7183 55.7211 42.7183C54.7668 42.7183 54.7668 44.1985 55.7211 44.1985Z" fill="#E5B55E"/>
</g>
<g style="mix-blend-mode:multiply" opacity="0.25">
<path d="M56.9534 42.5232C57.547 42.5232 57.547 41.6064 56.9534 41.6064C56.3598 41.6064 56.3598 42.5232 56.9534 42.5232Z" fill="#E5B55E"/>
</g>
<g style="mix-blend-mode:multiply" opacity="0.25">
<path d="M50.0179 50.6232C50.8068 50.6232 50.8068 49.3984 50.0179 49.3984C49.2289 49.3984 49.2289 50.6232 50.0179 50.6232Z" fill="#E5B55E"/>
</g>
<g style="mix-blend-mode:multiply" opacity="0.25">
<path d="M48.7781 52.0356C49.4994 52.0356 49.4994 50.916 48.7781 50.916C48.0567 50.916 48.0567 52.0356 48.7781 52.0356Z" fill="#E5B55E"/>
</g>
</g>
<g style="mix-blend-mode:multiply" opacity="0.17">
<path d="M50.7618 19.7033C50.6491 19.8912 50.5364 20.079 50.4387 20.2669C49.2064 22.6714 48.44 25.3088 48.1845 27.9913C47.9891 30.0276 48.1544 32.2592 49.4694 33.8222C50.574 35.1371 52.3022 35.7458 53.9853 36.1139C56.9083 36.7526 59.9214 36.8353 62.8519 37.4364C65.7824 38.0375 68.7429 39.2623 70.5538 41.6368C71.771 43.2297 72.3346 45.1608 72.5149 47.1671C72.545 46.6636 72.56 46.1527 72.56 45.6342C72.56 32.635 63.1449 21.8448 50.7618 19.6958V19.7033Z" fill="#CE9C5F"/>
</g>
<g style="mix-blend-mode:multiply" opacity="0.17">
<path d="M72.0716 50.7437C70.4035 52.3968 68.7279 54.0574 66.7517 55.3272C64.7755 56.5971 62.4687 57.4537 60.1243 57.311C57.78 57.1682 55.4431 55.9058 54.3986 53.8019C53.1964 51.3674 53.7975 48.1814 52.0843 46.085C51.0399 44.8076 49.3116 44.2365 47.6586 44.1915C45.0136 44.1238 42.4739 45.2134 40.2197 46.596C37.9655 47.9785 35.9141 49.6767 33.6299 51.0067C31.3456 52.3367 28.7382 53.3135 26.1008 53.058C24.9587 52.9453 23.8391 52.5621 22.8698 51.9535C21.7577 51.2546 21.397 50.2327 20.5329 49.3837C20.0445 48.9028 20.1347 49.0981 20.1723 49.7669C20.2098 50.3755 20.4052 51.0292 20.548 51.6228C20.8335 52.8025 21.2092 53.9597 21.6525 55.0868C23.4409 59.6027 26.4615 63.6302 30.3237 66.5757C31.2479 67.2821 32.2248 67.9283 33.2391 68.4993C40.4601 72.5719 49.6348 72.9627 57.1788 69.5062C64.7154 66.0573 70.4261 58.8588 72.0566 50.7287L72.0716 50.7437Z" fill="#CE9C5F"/>
</g>
<g style="mix-blend-mode:multiply" opacity="0.19">
<path d="M64.4373 26.631C66.0904 30.08 67.0221 33.9347 67.0221 38.0148C67.0221 52.5544 55.2326 64.3439 40.693 64.3439C33.6223 64.3439 27.2128 61.5562 22.479 57.0178C26.7244 65.8618 35.7638 71.9632 46.2308 71.9632C60.7705 71.9632 72.56 60.1737 72.56 45.634C72.56 38.1576 69.4417 31.4175 64.4373 26.6235V26.631Z" fill="#CE5F5F"/>
</g>
<g style="mix-blend-mode:multiply" opacity="0.17">
<path d="M58.6966 22.4455C59.2377 24.5494 59.5307 26.7586 59.5307 29.0353C59.5307 43.5749 47.7412 55.3644 33.2016 55.3644C28.6856 55.3644 24.4402 54.2298 20.7283 52.2236C23.6512 63.5773 33.9605 71.9629 46.2309 71.9629C60.7705 71.9629 72.56 60.1734 72.56 45.6338C72.56 35.6026 66.9546 26.8863 58.7042 22.438L58.6966 22.4455Z" fill="#CE9C5F"/>
</g>
<g style="mix-blend-mode:screen" opacity="0.44">
<path d="M65.4743 27.6753C60.6653 22.5282 53.8276 19.3047 46.2309 19.3047C45.517 19.3047 44.8107 19.3423 44.1194 19.3949C39.2654 19.7781 34.7795 21.4838 31.03 24.1437C29.6099 25.1506 28.3099 26.2777 27.1302 27.525C25.1465 29.6139 23.516 32.0259 22.2987 34.6634C20.7658 37.9996 19.9017 41.7115 19.9017 45.6338C19.9017 53.3583 23.2304 60.3087 28.5353 65.1252C24.1396 60.4214 21.4496 54.1097 21.4496 47.1592C21.4496 43.2218 22.3212 39.4949 23.8616 36.1436C26.1609 38.0071 29.0914 39.1192 32.2848 39.1192C39.6937 39.1192 45.6974 33.1155 45.6974 25.7066C45.6974 24.046 45.3893 22.4606 44.8408 20.9953C45.8026 20.8901 46.7869 20.83 47.7788 20.83C54.594 20.83 60.8006 23.4224 65.4818 27.6678L65.4743 27.6753Z" fill="#CEC35F"/>
</g>
<g style="mix-blend-mode:screen" opacity="0.32">
<path d="M46.6442 29.5013C46.6442 31.4925 48.2597 33.108 50.2509 33.108C52.2421 33.108 53.8576 31.4925 53.8576 29.5013C53.8576 27.51 52.2421 25.8945 50.2509 25.8945C48.2597 25.8945 46.6442 27.51 46.6442 29.5013Z" fill="#CEC35F"/>
</g>
<g style="mix-blend-mode:screen" opacity="0.32">
<path d="M45.9304 36.5573C46.9305 36.5573 47.7413 35.7465 47.7413 34.7464C47.7413 33.7463 46.9305 32.9355 45.9304 32.9355C44.9303 32.9355 44.1195 33.7463 44.1195 34.7464C44.1195 35.7465 44.9303 36.5573 45.9304 36.5573Z" fill="#CEC35F"/>
</g>
<g style="mix-blend-mode:screen" opacity="0.44">
<path d="M24.5078 30.7636C26.191 32.83 28.7608 34.1525 31.6386 34.1525C36.7181 34.1525 40.8358 30.0348 40.8358 24.9553C40.8358 23.2045 40.3399 21.5815 39.4908 20.1914C33.3143 21.8219 28.0244 25.6391 24.5078 30.7712V30.7636Z" fill="#CEC35F"/>
</g>
<path style="mix-blend-mode:multiply" opacity="0.45" d="M70.8857 54.8727C75.9829 41.2542 69.075 26.0821 55.4565 20.9849C41.8379 15.8877 26.6658 22.7956 21.5686 36.4142C16.4714 50.0327 23.3794 65.2048 36.9979 70.302C50.6165 75.3992 65.7886 68.4913 70.8857 54.8727Z" fill="url(#paint1_linear_172_30502)"/>
<path style="mix-blend-mode:screen" opacity="0.32" d="M70.2683 34.5959C70.3434 37.7368 69.8625 40.9377 68.7504 44.0711C63.8588 57.8668 48.7105 65.0878 34.9148 60.1962C27.799 57.6715 22.4415 52.4192 19.5862 46.0322C19.8341 56.7097 26.5667 66.6132 37.2291 70.3927C51.0249 75.2843 66.1731 68.0634 71.0648 54.2676C73.4317 47.5876 72.9583 40.5921 70.2683 34.5884V34.5959Z" fill="url(#paint2_linear_172_30502)"/>
<path style="mix-blend-mode:screen" opacity="0.13" d="M56.8707 21.2434C59.0272 23.5276 60.8081 26.2327 62.0779 29.2984C67.6684 42.8236 61.2364 58.3251 47.7036 63.9155C40.7306 66.8009 33.2316 66.4778 26.8372 63.6375C34.1633 71.407 45.7875 74.2698 56.2471 69.9493C69.7723 64.3588 76.2118 48.8574 70.6214 35.3322C67.9163 28.7799 62.8744 23.8958 56.8707 21.2358V21.2434Z" fill="url(#paint3_linear_172_30502)"/>
</g>
<defs>
<radialGradient id="paint0_radial_172_30502" cx="0" cy="0" r="1" gradientUnits="userSpaceOnUse" gradientTransform="translate(46.1063 45.6381) scale(45.6176)">
<stop stop-color="#ACFFFB"/>
<stop offset="0.17" stop-color="#7FBCB9"/>
<stop offset="0.33" stop-color="#588381"/>
<stop offset="0.49" stop-color="#385452"/>
<stop offset="0.64" stop-color="#202F2E"/>
<stop offset="0.78" stop-color="#0E1515"/>
<stop offset="0.9" stop-color="#030505"/>
<stop offset="1"/>
</radialGradient>
<linearGradient id="paint1_linear_172_30502" x1="27.6133" y1="27.0267" x2="64.8453" y2="64.2662" gradientUnits="userSpaceOnUse">
<stop stop-color="#FF0000"/>
<stop offset="1" stop-color="#930000"/>
</linearGradient>
<linearGradient id="paint2_linear_172_30502" x1="43.5885" y1="35.0134" x2="52.2978" y2="71.3213" gradientUnits="userSpaceOnUse">
<stop offset="0.24" stop-color="white"/>
<stop offset="0.92" stop-color="white"/>
<stop offset="1" stop-color="white"/>
</linearGradient>
<linearGradient id="paint3_linear_172_30502" x1="37.3201" y1="39.4016" x2="68.0788" y2="60.579" gradientUnits="userSpaceOnUse">
<stop offset="0.24" stop-color="white"/>
<stop offset="0.36" stop-color="#FEFBFB"/>
<stop offset="0.47" stop-color="#FBF0F0"/>
<stop offset="0.57" stop-color="#F6DEDE"/>
<stop offset="0.67" stop-color="#EFC4C4"/>
<stop offset="0.77" stop-color="#E6A3A3"/>
<stop offset="0.86" stop-color="#DB7B7B"/>
<stop offset="0.96" stop-color="#CE4C4C"/>
<stop offset="1" stop-color="#C83333"/>
</linearGradient>
<clipPath id="clip0_172_30502">
<rect width="91.2353" height="91.2353" fill="white" transform="translate(0.493042 0.0239258)"/>
</clipPath>
</defs>
</svg>
