<svg width="92" height="92" viewBox="0 0 92 92" fill="none" xmlns="http://www.w3.org/2000/svg">
<g clip-path="url(#clip0_172_30404)">
<path style="mix-blend-mode:screen" opacity="0.54" d="M53.1553 90.6441C78.0102 86.5383 94.8306 63.0611 90.7249 38.2062C86.6191 13.3513 63.1418 -3.46917 38.2869 0.63662C13.4321 4.7424 -3.3884 28.2197 0.717384 53.0745C4.82317 77.9294 28.3004 94.7499 53.1553 90.6441Z" fill="url(#paint0_radial_172_30404)"/>
<path d="M45.6979 74.1922C61.5704 74.1922 74.4375 61.325 74.4375 45.4525C74.4375 29.5801 61.5704 16.7129 45.6979 16.7129C29.8254 16.7129 16.9583 29.5801 16.9583 45.4525C16.9583 61.325 29.8254 74.1922 45.6979 74.1922Z" fill="#00B0CB"/>
<path d="M45.6978 74.2003C61.575 74.2003 74.4375 61.3298 74.4375 45.4607C74.4375 43.9092 74.3088 42.3898 74.0757 40.9025C73.1432 40.7176 72.2348 40.4443 71.3826 40.0102C69.5417 39.0777 68.0946 37.5261 66.6798 36.0228C65.2569 34.5195 63.7777 33.0002 61.8885 32.1561C59.9993 31.3119 57.6037 31.2878 56.0361 32.6304C54.2996 34.1095 54.0906 36.7946 54.798 38.9571C55.0955 39.8816 55.4974 40.999 54.8543 41.7225C54.2514 42.4058 53.1661 42.221 52.2657 42.3496C50.7383 42.5666 49.5646 43.8046 48.7205 45.0989C47.3378 47.2132 46.4857 49.842 47.1449 52.2859C47.5468 53.765 48.4793 55.2925 47.9086 56.7154C47.3056 58.2267 45.4084 58.6287 43.9614 59.3763C41.9355 60.4133 40.4403 62.8331 41.1718 64.9956C41.4612 65.8477 42.0561 66.5713 42.2973 67.4395C42.8922 69.6181 41.1075 71.5635 40.1509 73.6698C41.9436 74.0235 43.8006 74.2084 45.6978 74.2084V74.2003Z" fill="#0B93C1"/>
<path d="M49.3556 30.7012C49.2511 29.6963 49.4843 28.6753 49.3637 27.6704C49.1949 26.2475 48.3266 25.0175 47.4102 23.9162C46.4937 22.8148 45.4889 21.7456 44.9342 20.4272C44.5804 19.5912 44.492 18.6908 44.6608 17.7985C44.7251 17.4608 44.8699 17.0991 44.9261 16.7373C29.4027 17.1473 16.9502 29.841 16.9502 45.4609C16.9502 50.2361 18.1239 54.7379 20.1819 58.7012C21.3717 58.4359 22.5052 57.7767 23.5663 57.1336C24.8044 56.3779 26.0424 55.6222 27.2723 54.8666C29.1374 53.725 31.1874 52.3343 31.5813 50.1798C32.0717 47.4947 29.7484 44.6891 30.8015 42.1729C31.2035 41.2243 32.0234 40.5168 32.8917 39.9621C34.2583 39.0859 35.9143 38.4669 37.5061 38.8126C39.7811 39.2949 41.2282 41.5137 43.2299 42.7035C44.5242 43.4752 46.0677 43.7968 47.5629 43.6199C48.399 43.5235 49.227 43.2662 49.9103 42.7839C51.1162 41.9398 51.7834 40.4606 51.8799 38.9975C51.9764 37.5263 51.5584 36.0632 50.9313 34.7368C50.3203 33.4264 49.4843 32.1643 49.3396 30.7253L49.3556 30.7012Z" fill="#00C3DF"/>
<path d="M74.3089 42.7113C74.325 42.9203 71.1013 42.7515 70.7637 42.7032C66.6155 42.036 64.5897 38.1371 60.7631 36.9714C59.8868 36.7061 58.8659 36.6579 58.1102 37.1804C55.3287 39.0937 61.2133 43.0489 57.2018 44.2628C56.1728 44.5763 55.1277 44.2869 54.1228 44.504C53.2144 44.705 52.2336 45.332 51.5342 45.9189C50.0631 47.1569 49.0743 49.0219 49.0823 50.9674C49.0984 55.1156 52.5552 59.3682 56.5747 60.2364C57.4912 60.4374 58.4478 60.4937 59.308 60.8635C61.2615 61.7076 61.4625 64.1756 60.5541 65.8879C59.5894 67.7128 57.0731 67.5279 56.2853 69.4733C56.0683 70.0039 55.8593 71.1856 56.2853 71.6841C56.7837 72.2709 57.7886 71.9654 58.4639 71.6439C59.8145 70.9927 61.1409 70.2531 62.3709 69.401C64.7665 67.7369 67.0014 65.5904 68.7861 63.2913C72.3233 58.7251 74.2767 53.0013 74.6144 47.2292C74.7028 45.7581 74.9038 44.303 74.3009 42.7193L74.3089 42.7113Z" fill="#1EB400"/>
<path d="M49.4843 32.9119C48.9617 31.0227 49.1788 28.9406 48.3668 27.1559C47.5468 25.3391 45.7943 24.1252 44.6287 22.5013C43.463 20.8774 42.9244 18.8274 43.1093 16.8418C28.446 18.1441 16.9421 30.46 16.9421 45.4608C16.9421 48.5318 17.4245 51.4821 18.3168 54.2556C19.2493 53.8376 20.1015 53.2507 20.6321 52.5915C21.7977 51.1284 21.854 49.1106 22.0309 47.2536C22.2881 44.5444 22.9473 41.8192 24.4265 39.5441C25.9057 37.269 28.2933 35.4683 30.9944 35.1709C32.3369 35.0262 33.6955 35.2432 35.0139 35.5567C36.4208 35.8944 37.8196 36.3526 39.0496 37.1083C40.4001 37.9443 41.5095 39.11 42.6912 40.1711C43.873 41.2323 45.2075 42.2131 46.759 42.5507C48.3106 42.8884 50.1274 42.414 50.9876 41.0796C51.7673 39.8657 51.5985 38.2659 51.1081 36.9153C50.6178 35.5567 49.8541 34.3107 49.4682 32.9199L49.4843 32.9119Z" fill="#0B93C1"/>
<path d="M50.3846 39.3511C50.7222 37.6307 49.9665 35.83 49.1144 34.2704C48.5034 33.1449 47.8121 32.0436 47.4021 30.8217C47.0001 29.6238 47.386 28.3296 47.0403 27.1157C46.6223 25.6606 45.3923 24.6235 44.6206 23.3695C43.68 21.842 42.8761 20.2423 42.3696 18.5219C42.2571 18.136 42.2089 17.5331 42.1204 16.9462C40.4322 16.5121 37.7552 17.2839 35.7615 17.9913C23.2527 22.4289 14.9564 34.9618 17.0386 47.6555C17.6576 46.7229 18.164 45.71 18.5419 44.6569C18.984 43.443 19.2573 42.1728 19.6754 40.9509C20.3828 38.909 20.841 36.8027 22.5614 35.3316C23.5582 34.4714 24.5229 34.4392 25.7529 34.0775C27.1276 33.6675 28.4299 33.0565 29.6116 32.2446C30.303 31.7703 30.9702 31.2236 31.7581 30.9262C33.6794 30.1866 34.5476 31.5934 35.5284 32.9279C37.2648 35.2994 39.5801 36.2319 42.2169 37.2609C43.3584 37.7031 44.4839 38.2899 45.2959 39.2225C46.0596 40.0987 46.5339 41.5538 47.8523 41.7146C48.9697 41.8513 49.9424 40.8544 50.272 39.7772C50.3122 39.6405 50.3524 39.4958 50.3765 39.3591L50.3846 39.3511Z" fill="#1EB400"/>
<path d="M49.7254 59.6016C49.653 59.6016 49.5807 59.6016 49.5083 59.6016C47.9166 59.7221 44.8618 61.5631 44.3875 63.0986C44.098 64.0311 44.1784 65.036 44.2508 66.0167C44.3231 66.9653 44.4437 68.3079 45.5049 68.6535C46.0837 68.8384 46.7107 68.7339 47.3056 68.6214C48.7768 68.34 50.2801 68.7179 51.7593 68.6214C52.4587 68.5732 53.1902 68.4767 53.7932 68.0988C54.6373 67.5683 55.1919 66.7322 56.0682 66.2418C56.84 65.7997 57.7644 65.7354 57.5876 64.5697C57.4429 63.6452 56.7194 63.6291 55.9637 63.3478C54.3157 62.7368 53.1179 61.4184 51.6548 60.5019C51.1403 60.1804 50.3685 59.6659 49.7093 59.6096L49.7254 59.6016Z" fill="#00BE1B"/>
<path d="M45.3039 65.6148C45.521 66.5152 46.3731 67.2789 47.2976 67.2387C47.8764 67.2065 48.4231 66.885 49.0019 66.901C49.3717 66.9091 49.7174 67.0538 50.0791 67.1101C50.4409 67.1663 50.8589 67.1101 51.092 66.8287C51.3413 66.5071 51.2528 66.0489 51.1162 65.6711C50.883 65.036 50.867 64.7466 51.0518 64.1195C51.2126 63.5729 51.486 63.2915 51.1242 62.7288C50.7142 62.0937 49.3717 61.5953 48.6321 61.5229C46.7108 61.338 44.8698 63.8301 45.3039 65.6148Z" fill="#00CE1D"/>
<path d="M53.2787 66.0164C53.5601 65.9762 53.8174 65.8556 54.0987 65.7993C54.4926 65.727 54.9911 65.7511 55.192 65.3974C55.385 65.0597 55.1036 64.6256 54.774 64.4247C54.1711 64.0629 53.0938 62.9535 52.5954 63.6529C52.1533 64.28 52.2176 66.1611 53.2868 66.0084L53.2787 66.0164Z" fill="#00CE1D"/>
<path d="M53.0375 48.789C51.1 51.8277 56.5505 50.8309 57.8287 50.7183C59.5813 50.5656 61.7759 50.5013 61.7036 48.2021C61.6232 45.4286 58.4558 45.509 56.5264 46.1119C55.1035 46.5541 53.8333 47.5349 53.0375 48.789Z" fill="#00CE1D"/>
<path d="M61.961 43.7241C62.162 43.8044 62.3951 43.8688 62.5881 43.7723C62.7167 43.708 62.7971 43.5874 62.8694 43.4668C62.9579 43.306 63.0222 43.1372 63.0624 42.9603C63.2151 42.3413 63.1187 41.6661 63.0222 41.0229C62.9981 40.8702 62.9739 40.7094 62.8775 40.5888C61.8887 39.3508 58.9303 42.47 61.9691 43.7241H61.961Z" fill="#00CE1D"/>
<path d="M63.4964 68.5727C65.3614 67.1177 67.3471 65.1481 68.7941 63.275C72.3313 58.7088 74.2848 52.985 74.6224 47.213C74.6707 46.3769 74.7511 45.4604 74.7269 44.6324C73.513 44.5681 71.9937 44.6967 70.7717 44.6324C69.3006 44.552 68.2233 44.0215 66.9773 43.2979C66.5351 43.0407 66.0448 42.8236 65.5303 42.8397C65.0158 42.8477 64.4852 43.1452 64.3244 43.6275C64.1958 44.0215 64.3244 44.4556 64.4369 44.8575C64.9997 47.0039 64.9514 50.3401 62.9095 51.747C61.2776 52.8805 59.6537 51.7309 57.9012 51.755C56.9767 51.7711 56.02 52.0766 55.4091 52.7599C54.0987 54.223 55.1599 55.5655 56.6712 56.0961C58.1022 56.5945 59.6055 56.9402 60.948 57.6477C62.0413 58.2265 63.006 59.0465 63.7617 60.0353C64.244 60.6623 64.6379 61.3778 64.7263 62.1656C64.8067 62.8811 64.6138 63.6046 64.4289 64.296C64.0913 65.5581 63.8421 67.3026 63.5044 68.5647L63.4964 68.5727Z" fill="#00CE1D"/>
<path d="M43.037 24.8406C42.4742 23.8116 41.8633 22.8067 41.4131 21.7295C40.8584 20.4111 40.4886 18.2888 40.7458 16.8096C39.1139 16.8337 37.2971 17.4447 35.7697 17.9833C26.9749 21.1024 20.2382 28.008 17.738 36.7062C18.0596 36.6259 18.968 36.5133 19.2333 36.3204C19.8041 35.9023 20.0533 35.1869 20.5115 34.6563C21.5405 33.4665 23.3332 33.3781 24.724 32.6465C25.7851 32.0838 26.5971 31.1513 27.61 30.5162C29.6841 29.2219 33.4062 28.6993 35.6651 29.7123C36.6057 30.1303 37.3855 30.8377 38.0126 31.6416C38.5994 32.3973 38.921 33.5067 39.8535 33.9247C41.4854 34.6563 43.3183 33.4906 44.2428 32.1481C45.2316 30.7171 44.5644 28.3537 43.9856 26.8423C43.7203 26.1429 43.3826 25.4837 43.0289 24.8406H43.037Z" fill="#00CE1D"/>
<path d="M45.3844 32.8713C44.7332 33.9405 42.2974 34.9615 43.5434 35.894C44.7895 36.8265 47.5469 39.7447 48.1498 38.9891C48.7527 38.2334 47.2173 29.8486 45.3763 32.8713H45.3844Z" fill="#00CE1D"/>
<path d="M49.3879 16.9541C49.3718 17.131 49.3638 17.2998 49.3477 17.4606C49.1789 18.8594 49.0262 20.2501 49.0985 21.657C49.1307 22.3162 49.2191 22.9914 49.5085 23.5944C49.9265 24.4385 50.7224 25.0414 51.5745 25.4353C53.8657 26.4884 56.607 26.191 58.874 27.3004C60.0075 27.8551 60.9561 28.7313 62.0655 29.3343C63.8823 30.3231 66.077 30.5642 67.7732 31.754C69.6061 33.0403 70.611 35.2751 72.4761 36.5212C72.6851 36.6659 72.9102 36.7865 73.1433 36.891C69.8473 26.3357 60.6346 18.4011 49.3879 16.9621V16.9541Z" fill="#00C3DF"/>
<path d="M45.6818 44.6888C45.2718 44.3994 44.701 44.5119 44.2508 44.7531C43.8006 44.9943 43.4148 45.3319 42.9405 45.4847C41.7828 45.8705 40.585 45.0827 39.3711 44.9621C37.6186 44.7853 35.9947 46.0554 35.1104 47.5748C34.2261 49.0942 33.8804 50.8628 33.3499 52.543C31.8064 57.4307 28.5023 61.7316 24.2014 64.5292C27.4331 68.1709 31.5813 70.9765 36.2761 72.6084C36.5816 70.4218 36.4529 68.0744 36.9192 65.8958C37.2649 64.2719 37.9643 62.7284 38.9531 61.394C39.6284 60.4775 40.4323 59.6656 41.0674 58.725C41.7025 57.7844 42.1607 56.659 42.024 55.5335C41.9275 54.7537 41.5497 54.0221 41.4613 53.2423C41.3407 52.1973 41.7426 51.1522 42.2813 50.2438C42.9003 49.1907 43.7122 48.2421 44.6608 47.4703C45.111 47.1005 45.6014 46.7548 45.8828 46.2484C46.1641 45.7419 46.1481 45.0104 45.6818 44.6727V44.6888Z" fill="#00C3DF"/>
<g style="mix-blend-mode:multiply" opacity="0.13">
<path d="M74.6225 47.2212C74.6546 46.6263 74.7109 46.0314 74.7189 45.4285C74.727 45.1632 74.735 44.8979 74.7189 44.6407C74.6627 44.0136 74.5501 43.3785 74.3009 42.7113C74.2768 42.5425 74.2607 42.3736 74.2446 42.2048C74.2205 42.0119 74.1964 41.8189 74.1723 41.626C73.9552 40.0021 73.6096 38.4104 73.1353 36.883C73.0147 36.489 72.878 36.1032 72.7413 35.7173C72.6931 35.5887 72.6449 35.46 72.5966 35.3314C72.4921 35.0581 72.3876 34.7848 72.2751 34.5114C72.2268 34.3828 72.1706 34.2622 72.1223 34.1336C71.9616 33.7638 71.8008 33.402 71.6239 33.0403C71.5837 32.9599 71.5435 32.8715 71.4953 32.7911C71.3506 32.5017 71.2059 32.2203 71.0612 31.9389C70.9969 31.8264 70.9325 31.7058 70.8682 31.5933C70.1688 34.1256 69.4212 36.6418 68.3601 39.0455C66.495 43.266 63.4482 47.2292 59.1473 48.8933C55.2162 50.4127 50.7706 49.85 46.7269 51.0237C41.4855 52.5431 37.3856 56.844 32.136 58.3473C28.4059 59.4245 24.4266 58.9904 20.5518 59.3521C21.5808 61.2092 22.8027 62.9536 24.2015 64.5293C24.9974 65.4297 25.8495 66.2738 26.7579 67.0616C26.7901 67.0857 26.8142 67.1098 26.8463 67.1339C27.2885 67.5198 27.7387 67.8896 28.2049 68.2514C29.1696 68.991 30.1745 69.6663 31.2276 70.2853C31.2437 70.2853 31.2517 70.3013 31.2678 70.3094C34.7407 72.3272 38.6718 73.6456 42.8682 74.0556C42.9325 74.0556 43.0049 74.0636 43.0692 74.0717C43.4631 74.1038 43.857 74.144 44.2589 74.1601C44.7333 74.1842 45.2076 74.2003 45.6899 74.2003C49.629 74.2003 53.3752 73.4044 56.7918 71.9735C57.3063 72.094 57.9736 71.869 58.464 71.6358C59.8145 70.9847 61.141 70.2451 62.3709 69.3929C62.7488 69.1276 63.1186 68.8543 63.4884 68.5729C63.5527 68.5247 63.617 68.4684 63.6894 68.4202C65.3454 67.1179 66.8809 65.6065 68.2154 63.9987C68.4163 63.7575 68.6093 63.5244 68.7861 63.2832C72.3233 58.7171 74.2768 52.9932 74.6144 47.2212H74.6225Z" fill="#00C3DF"/>
</g>
<g style="mix-blend-mode:multiply" opacity="0.33">
<path d="M74.7269 45.4287C74.7349 45.1634 74.743 44.8981 74.7269 44.6409C74.6706 44.0138 74.5581 43.3788 74.3088 42.7115C74.2847 42.5427 74.2687 42.3739 74.2526 42.2051C74.2285 42.0121 74.2043 41.8192 74.1802 41.6262C73.9632 40.0023 73.6175 38.4106 73.1432 36.8832C73.0226 36.4893 72.8859 36.1034 72.7493 35.7175C72.701 35.5889 72.6528 35.4603 72.6046 35.3317C72.5001 35.0583 72.3955 34.785 72.283 34.5117C72.2348 34.383 72.1785 34.2625 72.1303 34.1338C71.9695 33.764 71.8087 33.4023 71.6318 33.0405C71.5916 32.9601 71.5514 32.8717 71.5032 32.7913C71.3585 32.5019 71.2138 32.2205 71.0691 31.9392C71.0048 31.8186 70.9405 31.698 70.8762 31.5854C71.5193 34.1419 72.1544 36.7304 72.0981 39.3592C71.9775 44.5766 69.0433 49.4804 64.9514 52.7201C63.7938 53.6366 62.5155 54.4485 61.0926 54.8585C59.1874 55.3971 57.1696 55.1801 55.192 55.2283C52.2818 55.3087 49.3878 56.0001 46.7509 57.2461C44.0498 58.5243 41.6301 60.3814 38.8566 61.4988C33.0845 63.8301 26.4362 62.6645 20.833 59.8428C21.8057 61.5229 22.9312 63.0986 24.2175 64.5376C25.0133 65.4379 25.8655 66.282 26.7739 67.0699C26.806 67.094 26.8301 67.1181 26.8623 67.1422C27.3045 67.5281 27.7546 67.8979 28.2209 68.2596C29.1856 68.9992 30.1905 69.6745 31.2436 70.2935C31.2597 70.2935 31.2677 70.3096 31.2838 70.3176C34.7567 72.3355 38.6878 73.6539 42.8841 74.0638C42.9485 74.0638 43.0208 74.0719 43.0851 74.0799C43.479 74.1121 43.873 74.1523 44.2749 74.1684C44.7492 74.1925 45.2235 74.2085 45.7059 74.2085C49.645 74.2085 53.3912 73.4127 56.8078 71.9817C57.3223 72.1023 57.9895 71.8772 58.4799 71.6441C59.8305 70.9929 61.1569 70.2533 62.3869 69.4012C62.7648 69.1359 63.1345 68.8626 63.5043 68.5812C63.5687 68.533 63.633 68.4767 63.7053 68.4285C65.3614 67.1261 66.8968 65.6148 68.2313 64.007C68.4323 63.7658 68.6252 63.5327 68.8021 63.2915C72.3393 58.7253 74.2928 53.0015 74.6304 47.2295C74.6626 46.6346 74.7188 46.0397 74.7269 45.4368V45.4287Z" fill="#00C3DF"/>
</g>
<g style="mix-blend-mode:screen" opacity="0.56">
<path d="M74.711 44.6326C74.6708 44.0056 74.5663 43.3705 74.3171 42.7032C74.2929 42.5344 74.2769 42.3656 74.2608 42.1968C74.2367 42.0038 74.2126 41.8109 74.1884 41.618C73.9714 39.9941 73.6257 38.4023 73.1514 36.8749C73.0308 36.481 72.8941 36.0951 72.7575 35.7093C72.7092 35.5806 72.661 35.452 72.6128 35.3234C72.5083 35.0501 72.4038 34.7767 72.2912 34.5034C72.243 34.3748 72.1867 34.2542 72.1385 34.1256C71.9777 33.7558 71.8169 33.394 71.6401 33.0322C71.5999 32.9519 71.5597 32.8634 71.5114 32.783C71.3667 32.4936 71.222 32.2123 71.0773 31.9309C71.005 31.7942 70.9326 31.6576 70.8522 31.5289C70.7156 31.2878 70.5789 31.0466 70.4422 30.8135C70.3699 30.6929 70.2975 30.5643 70.2252 30.4437C70.0242 30.1141 69.8152 29.7925 69.6062 29.479C69.5177 29.3504 69.4293 29.2298 69.3489 29.1011C69.2042 28.8921 69.0595 28.6831 68.9068 28.4821C68.8023 28.3374 68.6897 28.1927 68.5852 28.048C68.4405 27.8551 68.2958 27.6702 68.1431 27.4853C68.0305 27.3406 67.9099 27.1959 67.7893 27.0512C67.5723 26.7859 67.3472 26.5286 67.1141 26.2714C66.9774 26.1187 66.8327 25.9659 66.688 25.8132C66.5594 25.6765 66.4307 25.5398 66.2941 25.4032C66.1413 25.2424 65.9886 25.0897 65.8278 24.9289C65.7072 24.8083 65.5866 24.6957 65.4661 24.5832C65.3776 24.4948 65.2812 24.4144 65.1927 24.334C65.2329 24.3742 65.2812 24.4224 65.3214 24.4626C65.45 24.5993 65.5866 24.7359 65.7153 24.8726C65.86 25.0253 65.9966 25.1781 66.1413 25.3308C66.3745 25.5881 66.5996 25.8453 66.8166 26.1106C66.9372 26.2553 67.0497 26.4 67.1703 26.5447C67.3231 26.7296 67.4678 26.9145 67.6125 27.1075C67.725 27.2522 67.8295 27.3969 67.934 27.5416C68.0868 27.7425 68.2315 27.9516 68.3762 28.1606C68.4646 28.2892 68.5531 28.4098 68.6334 28.5384C68.8505 28.86 69.0515 29.1815 69.2525 29.5031C69.3248 29.6237 69.3972 29.7523 69.4695 29.8729C69.6062 30.106 69.7509 30.3472 69.8795 30.5884C69.9519 30.725 70.0242 30.8537 70.1046 30.9903C70.2573 31.2717 70.402 31.5531 70.5387 31.8425C70.5789 31.9229 70.6271 32.0113 70.6673 32.0917C70.8442 32.4534 71.005 32.8152 71.1657 33.185C71.222 33.3136 71.2703 33.4342 71.3185 33.5628C71.431 33.8362 71.5355 34.1095 71.6401 34.3828C71.6883 34.5114 71.7365 34.6401 71.7848 34.7687C71.9214 35.1546 72.0581 35.5404 72.1787 35.9343C72.653 37.4618 72.9987 39.0535 73.2157 40.6774C73.2398 40.8703 73.2639 41.0633 73.2881 41.2562C73.3041 41.425 73.3283 41.5938 73.3443 41.7627C73.6016 42.4219 73.7061 43.057 73.7463 43.684C73.7704 43.9413 73.7704 44.2065 73.7624 44.4718C73.7543 45.0748 73.6981 45.6697 73.6659 46.2645C73.3283 52.0366 71.3828 57.7524 67.8376 62.3266C67.6527 62.5597 67.4597 62.8009 67.2668 63.0421C65.9323 64.6579 64.3888 66.1612 62.7408 67.4635C62.6765 67.5198 62.6042 67.5761 62.5398 67.6243C62.17 67.9057 61.8002 68.179 61.4224 68.4443C60.1924 69.2965 58.8579 70.036 57.5154 70.6872C57.025 70.9203 56.3658 71.1454 55.8433 71.0249C52.4267 72.4558 48.6805 73.2517 44.7414 73.2517C44.259 73.2517 43.7847 73.2356 43.3104 73.2115C42.9085 73.1954 42.5145 73.1552 42.1206 73.123C42.0563 73.123 41.984 73.115 41.9196 73.107C37.7233 72.697 33.7922 71.3786 30.3193 69.3608C30.3032 69.3608 30.2952 69.3447 30.2791 69.3367C29.226 68.7257 28.2211 68.0424 27.2564 67.3108C26.7901 66.949 26.3399 66.5793 25.8978 66.1934C25.8656 66.1693 25.8415 66.1451 25.8094 66.121C25.6245 65.9602 25.4476 65.7834 25.2708 65.6146C25.7611 66.113 26.2676 66.5953 26.7901 67.0536C26.8223 67.0777 26.8464 67.1018 26.8786 67.1259C27.3207 67.5118 27.7709 67.8816 28.2372 68.2433C29.2019 68.9829 30.2067 69.6582 31.2599 70.2772C31.2759 70.2772 31.284 70.2933 31.3 70.3013C34.7729 72.3191 38.704 73.6375 42.9004 74.0475C42.9647 74.0475 43.0371 74.0556 43.1014 74.0636C43.4953 74.0958 43.8892 74.136 44.2912 74.152C44.7655 74.1762 45.2398 74.1922 45.7221 74.1922C49.6613 74.1922 53.4075 73.3964 56.8241 71.9654C57.3386 72.086 58.0058 71.8609 58.4962 71.6278C59.8467 70.9766 61.1732 70.237 62.4032 69.3849C62.781 69.1196 63.1508 68.8463 63.5206 68.5649C63.5849 68.5167 63.6492 68.4604 63.7216 68.4122C65.3776 67.1098 66.9131 65.5985 68.2476 63.9907C68.4485 63.7495 68.6415 63.5164 68.8183 63.2752C72.3555 58.709 74.309 52.9852 74.6467 47.2132C74.6788 46.6183 74.7351 46.0234 74.7431 45.4204C74.7512 45.1552 74.7592 44.8899 74.7431 44.6326C74.7431 44.6326 74.7271 44.6326 74.719 44.6326H74.711Z" fill="#00C3DF"/>
</g>
<g style="mix-blend-mode:overlay" opacity="0.41">
<path d="M42.1286 16.938C41.7186 16.8254 41.2443 16.7933 40.7459 16.8174C39.114 16.8335 37.2971 17.4444 35.7697 17.9831C35.2954 18.1519 34.8372 18.3368 34.3709 18.5217C34.178 18.6021 33.985 18.6905 33.7841 18.7709C33.567 18.8674 33.3419 18.9638 33.1249 19.0683C25.9862 22.3885 20.5196 28.3133 18.0757 35.6288C17.9793 35.9021 17.8908 36.1835 17.8104 36.4568C17.7863 36.5372 17.7542 36.6256 17.7301 36.706C17.3201 38.1289 17.0307 39.5921 16.8699 41.0793C20.4794 46.4655 26.6213 50.0107 33.5911 50.0107C44.7011 50.0107 53.7129 40.9989 53.7129 29.8889C53.7129 24.9369 51.9202 20.4028 48.9538 16.8978C47.8846 16.7772 46.7993 16.7129 45.6979 16.7129C44.484 16.7129 43.2943 16.7933 42.1206 16.938H42.1286Z" fill="#98F1FF"/>
</g>
<g style="mix-blend-mode:screen" opacity="0.42">
<path d="M68.1267 27.4852C68.0142 27.3405 67.8936 27.1958 67.773 27.0511C67.556 26.7858 67.3309 26.5285 67.0977 26.2713C66.9611 26.1186 66.8164 25.9658 66.6717 25.8131C66.5431 25.6764 66.4144 25.5397 66.2778 25.4031C66.125 25.2423 65.9723 25.0896 65.8115 24.9288C65.6909 24.8082 65.5703 24.6956 65.4497 24.5831C65.1362 24.2856 64.8147 23.9882 64.4851 23.7068C64.3886 23.6264 64.3002 23.538 64.2037 23.4576C64.0027 23.2888 63.8017 23.128 63.6008 22.9672C63.5043 22.8869 63.4078 22.8145 63.3114 22.7341C63.0943 22.5653 62.8772 22.4045 62.6602 22.2437C62.1296 21.8579 61.6071 21.5041 61.0765 21.1665C61.0363 21.1424 60.9881 21.1102 60.9479 21.0861C60.6906 20.9253 60.4334 20.7645 60.1681 20.6118C60.1198 20.5796 60.0716 20.5555 60.0153 20.5234C59.1712 20.033 58.295 19.5908 57.4026 19.1889C53.8092 17.5891 49.862 16.6968 45.6978 16.6968C44.4839 16.6968 43.2941 16.7772 42.1204 16.9219C41.7104 16.8093 41.2361 16.7772 40.7377 16.8013C39.1057 16.8174 37.2889 17.4283 35.7615 17.9669C35.2872 18.1358 34.829 18.3207 34.3627 18.5056C34.1698 18.586 33.9768 18.6744 33.7758 18.7548C33.5588 18.8512 33.3337 18.9477 33.1166 19.0522C32.6986 19.2452 32.2806 19.4542 31.8706 19.6632C31.7339 19.7355 31.6053 19.8079 31.4767 19.8802C31.2033 20.0249 30.93 20.1777 30.6647 20.3304C30.512 20.4189 30.3592 20.5153 30.2065 20.6038C29.9653 20.7485 29.7242 20.9012 29.491 21.0539C29.3383 21.1585 29.1775 21.2549 29.0248 21.3594C28.7997 21.5122 28.5746 21.6649 28.3495 21.8257C28.1967 21.9302 28.052 22.0428 27.8993 22.1553C27.6742 22.3241 27.4571 22.4929 27.2401 22.6618C27.1034 22.7743 26.9587 22.8788 26.8221 22.9914C26.5889 23.1843 26.3638 23.3772 26.1307 23.5782C26.0181 23.6747 25.8976 23.7712 25.7931 23.8757C25.4715 24.1651 25.158 24.4625 24.8525 24.76C24.8364 24.776 24.8203 24.7841 24.8123 24.8001C24.4907 25.1137 24.1852 25.4352 23.8798 25.7648C23.7753 25.8774 23.6788 25.9899 23.5823 26.1025C23.3813 26.3276 23.1884 26.5527 22.9955 26.7778C22.8829 26.9144 22.7704 27.0511 22.6659 27.1878C22.497 27.3968 22.3282 27.6138 22.1594 27.8309C22.0469 27.9756 21.9423 28.1283 21.8298 28.273C21.6771 28.4901 21.5243 28.7071 21.3716 28.9242C21.2671 29.0769 21.1626 29.2297 21.0661 29.3905C20.9214 29.6155 20.7767 29.8487 20.632 30.0738C20.5355 30.2265 20.4471 30.3793 20.3506 30.532C20.2059 30.7812 20.0612 31.0385 19.9245 31.2957C19.8522 31.4324 19.7718 31.569 19.6994 31.7137C19.5146 32.0755 19.3297 32.4453 19.1608 32.8151C18.7428 33.7155 18.373 34.64 18.0595 35.5886C17.963 35.8619 17.8746 36.1433 17.7942 36.4166C17.7701 36.497 17.7379 36.5854 17.7138 36.6658C16.6928 40.1628 16.4034 43.8768 17.0144 47.5989C17.0305 47.7517 17.0466 47.9044 17.0546 48.0572C17.0707 48.234 17.0868 48.4109 17.1028 48.5797C17.1109 48.6762 17.1189 48.7726 17.135 48.8691C17.143 48.9495 17.1591 49.0299 17.1671 49.1103C17.1752 49.1987 17.1913 49.2791 17.1993 49.3595C17.2234 49.5363 17.2475 49.7212 17.2717 49.8981C17.2958 50.0669 17.336 50.2357 17.3601 50.4126C17.3842 50.5412 17.4083 50.6698 17.4324 50.7985C17.4485 50.8708 17.4566 50.9512 17.4726 51.0236C17.5209 51.2728 17.5771 51.522 17.6334 51.7632C17.6656 51.9159 17.6977 52.0686 17.7379 52.2133C17.746 52.2616 17.762 52.3098 17.7701 52.358C17.8263 52.5751 17.8826 52.7841 17.9389 53.0012C17.9711 53.1218 18.0112 53.2504 18.0434 53.371C18.4132 54.6572 18.8714 55.9033 19.41 57.1091C19.41 57.1252 19.4261 57.1413 19.4342 57.1654C19.6593 57.6638 19.9004 58.1623 20.1496 58.6446C21.251 60.7589 22.6015 62.7204 24.1692 64.489C24.4184 64.7704 24.6837 65.0437 24.949 65.309C23.8556 63.9182 22.891 62.4149 22.071 60.8312C21.8218 60.3489 21.5806 59.8505 21.3555 59.352C21.3555 59.336 21.3394 59.3199 21.3314 59.2958C20.7928 58.0899 20.3345 56.8438 19.9647 55.5576C19.9326 55.437 19.8924 55.3084 19.8602 55.1878C19.804 54.9707 19.7396 54.7617 19.6914 54.5447C19.6834 54.4964 19.6673 54.4482 19.6593 54.4C19.6191 54.2472 19.5869 54.0945 19.5547 53.9498C19.4985 53.7006 19.4422 53.4594 19.394 53.2102C19.3779 53.1378 19.3698 53.0574 19.3538 52.9851C19.3297 52.8565 19.3055 52.7278 19.2814 52.5992C19.2493 52.4304 19.2171 52.2616 19.193 52.0847C19.1689 51.9079 19.1448 51.731 19.1206 51.5461C19.1126 51.4657 19.0965 51.3773 19.0885 51.2969C19.0804 51.2165 19.0644 51.1361 19.0563 51.0557C19.0483 50.9593 19.0322 50.8628 19.0242 50.7663C19.0081 50.5895 18.992 50.4206 18.9759 50.2438C18.9599 50.091 18.9438 49.9383 18.9357 49.7775C18.3248 46.0554 18.6142 42.3414 19.6351 38.8444C19.6512 38.764 19.6834 38.6836 19.7075 38.5952C19.7879 38.3138 19.8843 38.0405 19.9728 37.7672C20.2139 37.0517 20.4873 36.3603 20.7767 35.669C23.51 39.2383 27.8109 41.5536 32.6584 41.5536C40.9145 41.5536 47.6111 34.857 47.6111 26.6009C47.6111 23.7953 46.8393 21.1826 45.4968 18.9397C46.1882 18.8914 46.8795 18.8593 47.587 18.8593C51.7431 18.8593 55.6903 19.7516 59.2597 21.3353C60.1842 21.7453 61.0604 22.1955 61.9045 22.6778C61.9528 22.71 62.001 22.7341 62.0573 22.7663C62.3225 22.919 62.5798 23.0798 62.837 23.2406C62.8772 23.2647 62.9255 23.2968 62.9657 23.321C63.4963 23.6586 64.0188 24.0123 64.5252 24.3821C64.7745 24.567 64.9915 24.7278 65.2005 24.8966C65.297 24.969 65.3935 25.0494 65.4899 25.1298C65.6909 25.2905 65.8919 25.4513 66.0929 25.6201C66.1893 25.7005 66.2858 25.7809 66.3742 25.8693C66.7038 26.1507 67.0254 26.4482 67.3389 26.7456C67.4595 26.8582 67.5801 26.9787 67.7007 27.0913C67.8615 27.244 68.0142 27.4048 68.1669 27.5656C68.175 27.5736 68.1911 27.5897 68.1991 27.5977C68.1589 27.5495 68.1267 27.5013 68.0866 27.453L68.1267 27.4852Z" fill="#00DF16"/>
</g>
<path style="mix-blend-mode:multiply" opacity="0.63" d="M74.7268 44.6408C74.6706 44.0138 74.558 43.3787 74.3088 42.7114C74.2847 42.5426 74.2686 42.3738 74.2525 42.205C74.2284 42.012 74.2043 41.8191 74.1802 41.6262C73.9631 40.0023 73.6175 38.4105 73.1432 36.8831C73.0226 36.4892 72.8859 36.1033 72.7492 35.7175C72.701 35.5888 72.6528 35.4602 72.6045 35.3316C72.5 35.0583 72.3955 34.7849 72.283 34.5116C72.2347 34.383 72.1785 34.2624 72.1302 34.1338C71.9694 33.764 71.8087 33.4022 71.6318 33.0404C71.5916 32.9601 71.5514 32.8716 71.5032 32.7912C71.3585 32.5018 71.2138 32.2205 71.0691 31.9391C70.9967 31.8024 70.9244 31.6658 70.844 31.5371C70.7073 31.296 70.5707 31.0548 70.434 30.8217C70.3616 30.7011 70.2893 30.5725 70.2169 30.4519C70.016 30.1223 69.8069 29.8007 69.5979 29.4872C69.5095 29.3586 69.4211 29.238 69.3407 29.1093C69.196 28.9003 69.0513 28.6913 68.8985 28.4903C68.794 28.3456 68.6815 28.2009 68.577 28.0562C68.4323 27.8633 68.2876 27.6784 68.1348 27.4935C68.0223 27.3488 67.9017 27.2041 67.7811 27.0594C67.564 26.7941 67.3389 26.5368 67.1058 26.2796C66.9692 26.1269 66.8244 25.9741 66.6797 25.8214C66.5511 25.6847 66.4225 25.548 66.2858 25.4114C66.1331 25.2506 65.9803 25.0979 65.8196 24.9371C65.699 24.8165 65.5784 24.7039 65.4578 24.5914C65.1443 24.294 64.8227 23.9965 64.4931 23.7151C64.3967 23.6347 64.3082 23.5463 64.2118 23.4659C64.0108 23.2971 63.8098 23.1363 63.6088 22.9755C63.5124 22.8952 63.4159 22.8228 63.3194 22.7424C63.1024 22.5736 62.8853 22.4128 62.6683 22.252C62.1377 21.8662 61.6151 21.5124 61.0846 21.1748C61.0444 21.1507 60.9961 21.1185 60.9559 21.0944C60.6987 20.9336 60.4414 20.7728 60.1762 20.6201C60.1279 20.5879 60.0797 20.5638 60.0234 20.5317C59.1793 20.0413 58.303 19.5991 57.4107 19.1972C53.8173 17.5974 49.8701 16.7051 45.7058 16.7051C44.4919 16.7051 43.3022 16.7855 42.1285 16.9302C41.7185 16.8176 41.2442 16.7855 40.7457 16.8096C39.1138 16.8257 37.297 17.4366 35.7696 17.9752C35.2953 18.1441 34.837 18.329 34.3708 18.5139C34.1778 18.5943 33.9849 18.6827 33.7839 18.7631C33.5669 18.8595 33.3418 18.956 33.1247 19.0605C25.986 22.3807 20.5195 28.3054 18.0756 35.621C17.9791 35.8943 17.8907 36.1757 17.8103 36.449C17.7862 36.5294 17.754 36.6178 17.7299 36.6982C16.709 40.1952 16.4195 43.9093 17.0305 47.6313C17.0466 47.7841 17.0627 47.9368 17.0707 48.0896C17.0868 48.2664 17.1029 48.4433 17.1189 48.6121C17.127 48.7086 17.135 48.805 17.1511 48.9015C17.1591 48.9819 17.1752 49.0623 17.1833 49.1427C17.1913 49.2311 17.2074 49.3115 17.2154 49.3919C17.2395 49.5688 17.2636 49.7537 17.2878 49.9305C17.3119 50.0993 17.3521 50.2682 17.3762 50.445C17.4003 50.5736 17.4244 50.7023 17.4485 50.8309C17.4646 50.9032 17.4727 50.9836 17.4887 51.056C17.537 51.3052 17.5932 51.5544 17.6495 51.7956C17.6817 51.9483 17.7138 52.1011 17.754 52.2458C17.7621 52.294 17.7781 52.3422 17.7862 52.3905C17.8425 52.6075 17.8987 52.8165 17.955 53.0336C17.9872 53.1542 18.0274 53.2828 18.0595 53.4034C18.4293 54.6896 18.8875 55.9357 19.4262 57.1416C19.4262 57.1576 19.4422 57.1737 19.4503 57.1978C19.6754 57.6963 19.9165 58.1947 20.1658 58.677C21.2671 60.7913 22.6177 62.7528 24.1853 64.5214C24.9811 65.4218 25.8333 66.2659 26.7417 67.0537C26.7739 67.0778 26.798 67.102 26.8301 67.1261C27.2723 67.5119 27.7225 67.8817 28.1887 68.2435C29.1534 68.9831 30.1583 69.6584 31.2114 70.2774C31.2275 70.2774 31.2355 70.2935 31.2516 70.3015C34.7245 72.3193 38.6556 73.6377 42.852 74.0477C42.9163 74.0477 42.9886 74.0557 43.0529 74.0638C43.4469 74.0959 43.8408 74.1361 44.2427 74.1522C44.717 74.1763 45.1913 74.1924 45.6737 74.1924C49.6128 74.1924 53.359 73.3965 56.7756 71.9656C57.2901 72.0862 57.9574 71.8611 58.4478 71.6279C59.7983 70.9768 61.1248 70.2372 62.3547 69.385C62.7326 69.1198 63.1024 68.8464 63.4722 68.5651C63.5365 68.5168 63.6008 68.4606 63.6731 68.4123C65.3292 67.11 66.8646 65.5986 68.1991 63.9908C68.4001 63.7497 68.593 63.5165 68.7699 63.2754C72.3071 58.7092 74.2606 52.9854 74.5982 47.2133C74.6304 46.6184 74.6866 46.0235 74.6947 45.4206C74.7027 45.1553 74.7108 44.89 74.6947 44.6328L74.7268 44.6408Z" fill="url(#paint1_linear_172_30404)"/>
<path style="mix-blend-mode:overlay" opacity="0.37" d="M48.1402 38.1173C52.661 33.5965 52.661 26.2668 48.1402 21.746C43.6194 17.2252 36.2897 17.2252 31.7689 21.746C27.2481 26.2668 27.2481 33.5965 31.7689 38.1173C36.2897 42.6381 43.6194 42.6381 48.1402 38.1173Z" fill="url(#paint2_radial_172_30404)"/>
<path style="mix-blend-mode:screen" opacity="0.49" d="M71.5435 34.5837C71.6239 37.9441 71.1094 41.3687 69.9196 44.721C64.6862 59.4807 48.4795 67.2062 33.7198 61.9728C26.1068 59.2717 20.3749 53.6524 17.3201 46.8192C17.5854 58.2427 24.7884 68.8382 36.1958 72.8818C50.9555 78.1152 67.1622 70.3897 72.3957 55.63C74.928 48.4833 74.4215 40.9989 71.5435 34.5757V34.5837Z" fill="url(#paint3_linear_172_30404)"/>
<path style="mix-blend-mode:screen" opacity="0.25" d="M57.2178 20.2986C59.525 22.7424 61.4303 25.6365 62.7889 28.9164C68.77 43.3867 61.8885 59.9713 47.4102 65.9524C39.9499 69.0394 31.9269 68.6937 25.0857 65.6549C32.9238 73.9673 45.3602 77.0302 56.5506 72.4078C71.0209 66.4267 77.9104 49.8421 71.9293 35.3718C69.0352 28.3617 63.641 23.1364 57.2178 20.2905V20.2986Z" fill="url(#paint4_linear_172_30404)"/>
</g>
<defs>
<radialGradient id="paint0_radial_172_30404" cx="0" cy="0" r="1" gradientUnits="userSpaceOnUse" gradientTransform="translate(45.724 45.639) scale(45.6136)">
<stop stop-color="#ACFFFB"/>
<stop offset="0.2" stop-color="#86C7C4"/>
<stop offset="0.59" stop-color="#3E5D5B"/>
<stop offset="0.87" stop-color="#111A19"/>
<stop offset="1"/>
</radialGradient>
<linearGradient id="paint1_linear_172_30404" x1="24.949" y1="24.7039" x2="66.326" y2="66.081" gradientUnits="userSpaceOnUse">
<stop stop-color="white"/>
<stop offset="1" stop-color="#1876E7"/>
</linearGradient>
<radialGradient id="paint2_radial_172_30404" cx="0" cy="0" r="1" gradientUnits="userSpaceOnUse" gradientTransform="translate(39.956 29.9252) scale(11.5762)">
<stop stop-color="#ECECEC"/>
<stop offset="0.47" stop-color="#F1F1F1"/>
<stop offset="1" stop-color="white"/>
</radialGradient>
<linearGradient id="paint3_linear_172_30404" x1="42.9916" y1="35.0175" x2="52.3143" y2="73.8725" gradientUnits="userSpaceOnUse">
<stop offset="0.24" stop-color="white"/>
<stop offset="0.92" stop-color="white"/>
<stop offset="1" stop-color="white"/>
</linearGradient>
<linearGradient id="paint4_linear_172_30404" x1="36.2875" y1="39.7181" x2="69.1954" y2="62.3752" gradientUnits="userSpaceOnUse">
<stop offset="0.24" stop-color="white"/>
<stop offset="0.92" stop-color="white"/>
<stop offset="1" stop-color="white"/>
</linearGradient>
<clipPath id="clip0_172_30404">
<rect width="91.2353" height="91.2353" fill="white" transform="translate(0.108398 0.0239258)"/>
</clipPath>
</defs>
</svg>
