<svg width="92" height="92" viewBox="0 0 92 92" fill="none" xmlns="http://www.w3.org/2000/svg">
<g clip-path="url(#clip0_172_30179)">
<path style="mix-blend-mode:screen" opacity="0.54" d="M78.4449 77.8981C96.2597 60.0833 96.2597 31.1999 78.4449 13.3851C60.6301 -4.42974 31.7466 -4.42974 13.9318 13.3851C-3.88296 31.1999 -3.88296 60.0833 13.9318 77.8981C31.7466 95.7129 60.6301 95.7129 78.4449 77.8981Z" fill="url(#paint0_radial_172_30179)"/>
<path d="M46.4323 73.6546C61.9037 73.6546 74.4457 61.1126 74.4457 45.6413C74.4457 30.1699 61.9037 17.6279 46.4323 17.6279C30.961 17.6279 18.4189 30.1699 18.4189 45.6413C18.4189 61.1126 30.961 73.6546 46.4323 73.6546Z" fill="#005DC6"/>
<path opacity="0.63" d="M46.4322 17.6279C45.5368 17.6279 44.6574 17.6759 43.778 17.7558C43.3463 17.7958 42.243 21.4974 42.0831 21.985C41.2916 24.3435 40.684 26.8458 40.7 29.3481C40.716 31.8265 41.7473 34.1609 43.8419 35.568C45.7287 36.8312 47.8792 36.6473 50.0698 36.6553C53.0518 36.6553 56.0498 36.1276 58.9918 36.6073C61.2863 36.9751 63.5408 37.6866 65.5955 38.7659C68.0658 40.069 70.2244 42.0437 71.5595 44.514C72.3749 46.025 72.6627 47.7359 72.8067 49.4228C72.8786 50.2782 72.9026 51.1336 72.9586 51.9811C72.9905 52.4128 73.3183 53.524 73.2144 53.8678C74.0139 51.2695 74.4456 48.5034 74.4456 45.6413C74.4456 30.1716 61.9019 17.6279 46.4322 17.6279Z" fill="#247EE2"/>
<path opacity="0.63" d="M19.0343 51.4776C21.6726 63.8533 32.0976 72.5595 44.0897 73.5589C45.5607 73.6788 43.0743 65.2364 42.6666 64.4769C40.2202 59.848 35.9671 56.5622 32.7612 52.5089C31.8258 51.3257 31.0663 49.9106 31.1143 48.4076C31.3062 42.1238 42.7865 45.2657 42.3788 38.6221C42.2909 37.1991 41.4994 35.8879 40.4201 34.9526C38.2056 33.0258 35.3035 32.2584 32.6013 31.275C31.3302 30.8113 30.115 30.3236 29.0037 29.5402C28.6759 29.3083 25.6859 26.814 26.0697 26.4062C19.9697 32.8739 17.0437 42.1238 19.0343 51.4776Z" fill="#247EE2"/>
<path opacity="0.47" d="M34.3522 48.9432C34.4162 50.782 36.6068 52.1091 38.1977 52.6368C38.7333 52.8127 39.3489 52.8127 39.8126 52.5009C40.668 51.9252 40.3962 51.0139 40.4442 50.1744C40.4922 49.319 40.812 48.1118 40.2763 47.3523C39.1331 45.7054 35.1117 46.1131 34.4722 48.0718C34.3762 48.3756 34.3363 48.6634 34.3443 48.9432H34.3522Z" fill="#154B86"/>
<path opacity="0.63" d="M27.7166 24.7994C28.508 25.7268 29.8511 26.3184 30.9064 26.5583C32.0257 26.8141 33.4168 26.7901 34.0803 25.8468C34.6959 24.9673 34.3841 23.7282 34.8238 22.7448C35.2395 21.8254 36.2309 21.3218 37.1982 21.034C38.1656 20.7461 39.1889 20.5942 40.0523 20.0666C40.8038 19.6109 41.3555 18.8754 41.6353 18.0439C36.3428 18.9553 31.554 21.3537 27.7245 24.7994H27.7166Z" fill="#247EE2"/>
<path opacity="0.25" d="M61.3823 40.6768C60.8547 40.6768 60.319 40.7408 59.8074 40.8527C58.1605 41.2205 55.7461 42.6435 57.1931 44.6822C57.7368 45.4497 58.6482 45.8414 59.5276 46.1612C60.407 46.489 61.3344 46.8008 61.9739 47.4883C63.1252 48.7195 62.9413 50.7102 62.2138 52.2291C61.4783 53.7481 60.3031 55.0033 59.5356 56.4983C58.7681 57.9933 58.4883 59.96 59.5516 61.2631C60.5509 62.4943 62.4456 62.6862 63.9007 62.0706C65.3557 61.455 66.443 60.1918 67.3144 58.8727C69.0333 56.2744 70.1605 53.2125 70.0646 50.1026C69.9686 46.9926 68.5456 43.8587 65.9873 42.0759C64.6522 41.1485 63.0133 40.6528 61.3823 40.6688V40.6768Z" fill="#154B86"/>
<path opacity="0.47" d="M31.89 54.9795C30.7148 54.0041 29.4516 53.0927 28.5002 51.8935C27.5489 50.6943 26.9173 49.1274 27.2451 47.6323C27.7567 45.3059 30.2031 44.0747 32.2178 42.8036C33.1052 42.2439 33.9686 41.5884 34.5122 40.693C35.0559 39.7976 35.2158 38.6064 34.6801 37.703C33.9686 36.5197 32.4096 36.2559 31.0905 35.8482C28.2364 34.9688 25.838 32.8342 24.5109 30.172C24.295 29.7482 24.1511 29.3005 23.9992 28.8608C20.4976 33.5377 18.4189 39.3499 18.4189 45.6417C18.4189 58.3292 26.8533 69.0421 38.4216 72.4878C38.9013 71.6484 39.325 70.777 39.5409 69.8336C39.8527 68.4345 39.6688 66.9715 39.2931 65.5884C38.1418 61.3592 35.2637 57.7776 31.89 54.9795Z" fill="#368BEA"/>
<path opacity="0.47" d="M47.0079 17.644C46.4403 18.7793 46.0006 19.9945 45.7128 20.69C44.7135 23.0884 44.0339 25.6147 43.6901 28.189C43.5622 29.1804 43.4823 30.2197 43.866 31.1391C44.3457 32.2983 45.4969 33.0738 46.7121 33.4016C47.9273 33.7293 49.1985 33.6654 50.4536 33.5615C53.2038 33.3296 55.946 32.9219 58.7041 32.9219C61.4623 32.9219 64.2924 33.3776 66.6828 34.7527C68.7615 35.9439 70.4004 37.7746 71.7675 39.7493C72.7988 41.2363 73.6862 42.8193 74.4217 44.4742C73.8141 29.74 61.8221 17.9478 47.0079 17.652V17.644Z" fill="#368BEA"/>
<path opacity="0.47" d="M62.2696 45.9375C64.1403 47.4245 64.5481 50.1827 63.9804 52.5011C63.5167 54.3799 62.5094 56.1707 62.5254 58.1054C62.5254 58.3212 62.5414 58.5371 62.6533 58.721C62.9491 59.2007 63.6766 59.1047 64.1883 58.8729C66.7386 57.7056 68.0337 54.7316 68.1137 51.9335C68.1776 49.7829 67.626 47.5764 66.3389 45.8495C65.2676 44.4185 63.4208 43.0914 61.574 42.9874C60.7986 42.9475 60.2309 43.1953 60.4228 44.1147C60.6067 44.9941 61.63 45.4338 62.2696 45.9455V45.9375Z" fill="#368BEA"/>
<g opacity="0.32">
<path d="M58.3923 49.4631C58.2804 51.3818 56.3777 51.9174 55.6901 53.4604C55.3463 54.2279 55.7221 55.4271 56.7614 55.3311C59.4396 55.0753 61.7021 51.6856 60.7907 49.1353C60.327 47.8401 58.4723 48.048 58.3923 49.4631Z" fill="#368BEA"/>
</g>
<g opacity="0.32">
<path d="M55.4981 57.1936C53.6993 58.7606 53.7712 61.8545 54.9864 63.7972C56.0177 65.4521 58.5281 67.3149 60.3349 65.7319C60.8225 65.3082 60.7186 64.5647 60.3349 64.117C59.4954 63.1416 58.1203 63.1496 57.4728 61.8865C56.7772 60.5354 57.105 58.9764 56.8172 57.5374C56.6893 56.9138 55.9138 56.8338 55.4981 57.1936Z" fill="#368BEA"/>
</g>
<g opacity="0.32">
<path d="M51.3249 59.6644C51.077 59.8563 50.9091 60.16 50.8452 60.4638C50.6373 61.4872 50.7013 63.262 51.8845 63.6537C52.1723 63.7497 52.4921 63.5898 52.652 63.3419C53.1636 62.5345 52.7639 61.679 52.652 60.8396C52.572 60.272 52.588 59.3126 51.7006 59.4885C51.5647 59.5125 51.4368 59.5764 51.3249 59.6644Z" fill="#368BEA"/>
</g>
<g opacity="0.47">
<path d="M37.4622 23.5524C36.9905 23.9761 36.5588 24.7596 36.5028 25.1993C36.247 27.166 36.0152 27.8935 33.9286 28.1813C33.5128 28.2373 33.225 28.8129 33.3609 29.1806C33.9765 30.8915 36.4949 29.9481 37.5422 29.1327C38.6614 28.2533 38.8373 26.9661 38.7813 25.631C38.7494 24.9754 38.7014 22.4251 37.4622 23.5524Z" fill="#154B86"/>
</g>
<path opacity="0.47" d="M39.2531 48.9353C39.1172 48.2797 38.7734 47.6481 38.2857 47.3284C37.6142 46.8806 36.6868 47.1205 36.1591 47.6641C33.6488 50.2464 40.1005 52.9406 39.2531 48.9353Z" fill="#368BEA"/>
<g opacity="0.47">
<path d="M32.7213 40.1972C31.3782 39.5816 29.6114 40.2531 28.4602 41.0686C27.3409 41.8601 25.9179 43.2511 26.3815 44.7381C26.5015 45.1139 26.9811 45.3617 27.3569 45.3058C28.4602 45.1379 29.1557 43.9866 30.0431 43.387C31.5861 42.3317 31.9219 42.5716 32.9052 41.6842C33.3849 41.2445 33.3609 40.485 32.7293 40.1972H32.7213Z" fill="#154B86"/>
</g>
<g opacity="0.47">
<path d="M24.0072 47.8798C22.6801 50.8698 24.383 54.1237 26.7974 56.0184C28.5642 57.4095 30.2031 58.3289 31.4343 60.2796C32.6495 62.1983 32.7854 64.5167 34.1445 66.3235C34.5442 66.8512 35.2477 66.8992 35.6475 66.3235C37.6062 63.4375 35.4156 59.4161 33.321 57.2096C32.0019 55.8265 30.4509 55.027 28.836 54.0597C26.3656 52.5807 25.854 50.59 25.0465 48.0157C24.9106 47.592 24.2151 47.4001 24.0072 47.8798Z" fill="#154B86"/>
</g>
<g opacity="0.47">
<path d="M27.8765 61.375C28.1803 62.0386 28.5321 62.7021 28.8119 63.3657C29.1557 64.1891 29.2356 64.9406 30.0031 65.4923C30.4268 65.7961 31.1783 65.6762 31.5221 65.3004C32.3775 64.341 32.0258 63.0619 31.3222 62.1105C30.6667 61.2231 29.9312 60.7514 28.9478 60.2957C28.2123 59.952 27.5407 60.6395 27.8685 61.375H27.8765Z" fill="#154B86"/>
</g>
<g opacity="0.47">
<path d="M49.1744 20.4904C48.4549 20.8022 47.7114 21.8255 47.3196 22.3452C45.9285 24.176 45.201 26.5904 45.8486 28.8528C46.672 31.7549 50.4136 32.9941 52.764 31.1473C53.4116 30.6437 53.1477 29.8042 52.4842 29.4285C52.0045 29.1646 51.4369 29.1327 50.8932 29.1007C50.3496 29.0687 49.774 29.0047 49.3263 28.693C48.8306 28.3492 48.5748 27.7336 48.5188 27.126C48.3589 25.2313 49.4622 23.3125 50.4375 21.7696C50.8293 21.154 50.2297 20.3385 49.5022 20.4025C49.3902 20.4105 49.2783 20.4424 49.1664 20.4904H49.1744Z" fill="#005DC6"/>
</g>
<g opacity="0.47">
<path d="M52.3562 23.5123C51.8206 23.6163 51.277 24 51.0131 24.4877C50.6374 25.1672 50.7573 26.2705 51.3649 26.7902C52.1004 27.4217 53.5634 27.1419 53.6354 26.0387C53.6114 26.1666 53.5794 26.2945 53.5554 26.4224C53.7313 25.567 53.7393 23.2565 52.3562 23.5123Z" fill="#005DC6"/>
</g>
<g style="mix-blend-mode:screen" opacity="0.38">
<path d="M55.762 49.7348C57.8566 49.7348 57.8646 46.481 55.762 46.481C53.6594 46.481 53.6594 49.7348 55.762 49.7348Z" fill="#59A7FF"/>
<path d="M52.4842 52.2291C53.6754 52.2291 53.6754 50.3823 52.4842 50.3823C51.293 50.3823 51.293 52.2291 52.4842 52.2291Z" fill="#59A7FF"/>
<path d="M50.8453 56.3623C51.9646 56.3623 51.9646 54.6274 50.8453 54.6274C49.726 54.6274 49.726 56.3623 50.8453 56.3623Z" fill="#59A7FF"/>
<path d="M47.3118 58.4973C47.7995 58.4973 47.7995 57.7378 47.3118 57.7378C46.8241 57.7378 46.8241 58.4973 47.3118 58.4973Z" fill="#59A7FF"/>
<path d="M55.4343 69.8972C56.9693 69.8972 56.9773 67.5068 55.4343 67.5068C53.8914 67.5068 53.8914 69.8972 55.4343 69.8972Z" fill="#59A7FF"/>
<path d="M58.6402 69.8497C59.6875 69.8497 59.6875 68.2188 58.6402 68.2188C57.5929 68.2188 57.5929 69.8497 58.6402 69.8497Z" fill="#59A7FF"/>
<path d="M51.8286 71.3843C52.2123 71.3843 52.2123 70.7847 51.8286 70.7847C51.4448 70.7847 51.4448 71.3843 51.8286 71.3843Z" fill="#59A7FF"/>
<path d="M58.8002 39.3259C59.5357 39.3259 59.5357 38.1826 58.8002 38.1826C58.0647 38.1826 58.0647 39.3259 58.8002 39.3259Z" fill="#59A7FF"/>
<path d="M61.4304 39.5178C62.3018 39.5178 62.3018 38.1587 61.4304 38.1587C60.559 38.1587 60.559 39.5178 61.4304 39.5178Z" fill="#59A7FF"/>
<path d="M42.3871 28.0533C43.1866 28.0533 43.1946 26.8062 42.3871 26.8062C41.5796 26.8062 41.5796 28.0533 42.3871 28.0533Z" fill="#59A7FF"/>
<path d="M41.9792 30.4919C42.8507 30.4919 42.8507 29.1328 41.9792 29.1328C41.1078 29.1328 41.1078 30.4919 41.9792 30.4919Z" fill="#59A7FF"/>
<path d="M42.8028 33.4099C43.2745 33.4099 43.7222 32.9942 43.6982 32.5145C43.6742 32.0269 43.3065 31.6191 42.8028 31.6191C42.3311 31.6191 41.8834 32.0349 41.9074 32.5145C41.9314 33.0022 42.2992 33.4099 42.8028 33.4099Z" fill="#59A7FF"/>
<path d="M45.2811 33.2336C45.2811 33.2336 45.2571 33.2017 45.2411 33.1937C44.9693 32.8899 44.3937 32.8899 44.1299 33.1937C44.1139 33.2097 44.1059 33.2256 44.0899 33.2336C43.6182 33.7693 43.922 34.6727 44.6815 34.6727C45.441 34.6727 45.7448 33.7693 45.2731 33.2336H45.2811Z" fill="#59A7FF"/>
</g>
<path style="mix-blend-mode:multiply" opacity="0.51" d="M46.4323 73.6546C61.9037 73.6546 74.4457 61.1126 74.4457 45.6413C74.4457 30.1699 61.9037 17.6279 46.4323 17.6279C30.961 17.6279 18.4189 30.1699 18.4189 45.6413C18.4189 61.1126 30.961 73.6546 46.4323 73.6546Z" fill="url(#paint1_linear_172_30179)"/>
<g style="mix-blend-mode:multiply" opacity="0.07">
<path d="M46.4321 73.6546C61.9018 73.6546 74.4454 61.111 74.4454 45.6413C74.4454 30.1716 61.9018 17.6279 46.4321 17.6279C44.4974 17.6279 42.6106 17.8198 40.7878 18.1956C41.8511 18.3155 42.9144 18.4914 43.9537 18.7232C47.8631 19.6026 51.5966 21.2575 54.8425 23.6079C56.6973 24.9431 58.3921 26.502 59.8552 28.2609C62.2536 31.1229 64.1163 34.5687 64.4441 38.2862C64.7719 42.0037 63.3568 45.9931 60.3029 48.1436C56.4974 50.8218 50.6053 50.574 48.1669 54.5394C46.6799 56.9618 47.1116 60.1596 45.7925 62.67C44.1696 65.7639 40.4201 67.0031 36.9744 67.6107C34.6 68.0264 32.1376 68.2582 29.7312 68.1383C34.3921 71.608 40.1723 73.6546 46.4241 73.6546H46.4321Z" fill="#005DC6"/>
</g>
<g style="mix-blend-mode:multiply" opacity="0.21">
<path d="M46.4321 73.6547C61.9018 73.6547 74.4455 61.1111 74.4455 45.6414C74.4455 32.3062 65.1317 21.1617 52.652 18.3315C52.7959 18.4595 53.0037 18.5954 53.3315 18.7473C58.8558 21.3695 63.4448 25.8625 66.3149 31.243C67.9138 34.233 68.9771 37.5108 69.3689 40.8845C69.5767 42.6913 69.6007 44.5861 68.8412 46.233C67.1943 49.8146 62.7413 50.8699 59.4155 52.9885C58.7759 53.3962 58.1443 53.8839 57.7766 54.5474C57.073 55.8186 57.4648 57.3936 57.3289 58.8406C57.073 61.4309 55.0904 63.5255 52.9158 64.9565C46.1043 69.4495 36.9025 69.1457 29.4914 65.724C27.6286 64.8606 25.8618 63.8293 24.1909 62.662C29.3075 69.3376 37.3661 73.6467 46.4321 73.6467V73.6547Z" fill="#005DC6"/>
</g>
<g style="mix-blend-mode:overlay" opacity="0.28">
<path d="M46.4322 17.6683C36.0791 17.7003 25.9898 23.8082 21.4088 33.1221C19.61 36.7836 18.5867 40.8369 18.4908 44.9142C18.3389 50.8782 20.1457 56.8742 23.5674 61.767C22.5761 57.6577 21.7206 53.4125 22.2963 49.2153C22.8719 45.0261 25.1264 40.8449 28.9238 38.9981C33.6567 36.6877 39.4209 38.4465 44.4975 37.0235C47.3756 36.216 50.1257 34.3772 53.0918 34.8009C53.9072 34.9129 54.6987 35.2007 55.5222 35.2087C56.3456 35.2087 57.257 34.8409 57.5288 34.0654C57.9126 32.9702 56.8573 31.8829 56.8253 30.7157C56.7853 29.0288 58.792 28.1014 60.4709 27.9255C63.7247 27.5897 67.0825 28.4372 69.7847 30.268C64.9479 22.8809 56.4255 18.0441 47.6074 17.6763C47.2157 17.6603 46.8319 17.6523 46.4402 17.6523L46.4322 17.6683Z" fill="#70B2FF"/>
</g>
<g style="mix-blend-mode:screen" opacity="0.58">
<path d="M46.4323 17.6281C30.9626 17.6281 18.4189 30.1718 18.4189 45.6415C18.4189 52.9246 21.2011 59.5602 25.7581 64.5409C21.9366 59.7521 19.6501 53.6921 19.6501 47.0885C19.6501 40.4849 21.7048 35.0405 25.1824 30.3796C27.0292 33.3616 30.323 35.3443 34.0885 35.3443C39.8847 35.3443 44.5855 30.6435 44.5855 24.8473C44.5855 22.8726 44.0339 21.0259 43.0905 19.4509C44.5855 19.2031 46.1125 19.0751 47.6715 19.0751C55.858 19.0751 63.2291 22.5928 68.3457 28.1891C63.2131 21.7534 55.3064 17.6201 46.4403 17.6201L46.4323 17.6281Z" fill="#005DC6"/>
</g>
<path style="mix-blend-mode:screen" opacity="0.32" d="M71.8633 33.8893C71.9433 37.2311 71.4316 40.6369 70.2484 43.9706C65.0439 58.6489 48.9266 66.3318 34.2484 61.1272C26.6774 58.441 20.9772 52.8527 17.9392 46.0572C18.203 57.4177 25.3663 67.9547 36.7107 71.976C51.389 77.1805 67.5062 69.4977 72.7108 54.8194C75.2291 47.7121 74.7254 40.2691 71.8633 33.8813V33.8893Z" fill="url(#paint2_linear_172_30179)"/>
<path style="mix-blend-mode:screen" opacity="0.32" d="M57.6168 19.6826C59.9113 22.113 61.8061 24.9831 63.1572 28.2529C69.1052 42.6433 62.2618 59.1364 47.8633 65.0844C40.4443 68.1544 32.4656 67.8106 25.6621 64.7966C33.4569 73.0631 45.8247 76.1091 56.9533 71.5121C71.3437 65.5641 78.1952 49.0711 72.2471 34.6806C69.369 27.7093 64.0046 22.5127 57.6168 19.6826Z" fill="url(#paint3_linear_172_30179)"/>
<path style="mix-blend-mode:overlay" opacity="0.43" d="M39.3329 44.2263C46.0751 44.2263 51.5408 38.7606 51.5408 32.0184C51.5408 25.2762 46.0751 19.8105 39.3329 19.8105C32.5907 19.8105 27.125 25.2762 27.125 32.0184C27.125 38.7606 32.5907 44.2263 39.3329 44.2263Z" fill="url(#paint4_radial_172_30179)"/>
<path opacity="0.78" d="M20.5374 55.6191C20.3855 55.3233 20.2575 55.0195 20.1216 54.7157C8.6013 61.8629 3.55665 66.4359 2.96505 68.4825C2.91708 68.6504 2.90908 68.7863 2.94106 68.8503L2.98104 68.9222C3.02101 69.0102 3.21288 69.0821 3.29283 69.1061C4.74786 69.5858 12.2629 69.7057 47.7113 51.0781C69.0491 39.8696 83.5994 29.1087 87.5488 24.6797C88.0364 24.136 87.5648 23.2806 86.8452 23.4005C83.9192 23.8802 78.147 25.647 69.8006 29.0848C69.9285 29.3006 70.0564 29.5085 70.1763 29.7323C77.0597 26.9342 81.5687 25.695 82.0884 26.6784C83.1277 28.653 67.682 38.8223 47.5834 49.3992C27.4927 59.9762 10.3601 66.9476 9.32082 64.9729C8.75319 63.8936 13.1423 60.344 20.5374 55.6191Z" fill="url(#paint5_linear_172_30179)"/>
</g>
<defs>
<radialGradient id="paint0_radial_172_30179" cx="0" cy="0" r="1" gradientUnits="userSpaceOnUse" gradientTransform="translate(46.1856 45.6388) scale(45.6176)">
<stop stop-color="#ACFFFB"/>
<stop offset="0.17" stop-color="#7FBCB9"/>
<stop offset="0.33" stop-color="#588381"/>
<stop offset="0.49" stop-color="#385452"/>
<stop offset="0.64" stop-color="#202F2E"/>
<stop offset="0.78" stop-color="#0E1515"/>
<stop offset="0.9" stop-color="#030505"/>
<stop offset="1"/>
</radialGradient>
<linearGradient id="paint1_linear_172_30179" x1="26.6215" y1="25.8305" x2="66.2431" y2="65.4521" gradientUnits="userSpaceOnUse">
<stop stop-color="white"/>
<stop offset="0.09" stop-color="#EAEBF6"/>
<stop offset="0.54" stop-color="#8B8ECD"/>
<stop offset="0.85" stop-color="#4F54B3"/>
<stop offset="1" stop-color="#383EAA"/>
</linearGradient>
<linearGradient id="paint2_linear_172_30179" x1="43.47" y1="34.3276" x2="52.7412" y2="72.9682" gradientUnits="userSpaceOnUse">
<stop offset="0.24" stop-color="white"/>
<stop offset="0.92" stop-color="white"/>
<stop offset="1" stop-color="white"/>
</linearGradient>
<linearGradient id="paint3_linear_172_30179" x1="36.8065" y1="39.0007" x2="69.5401" y2="61.5297" gradientUnits="userSpaceOnUse">
<stop offset="0.24" stop-color="white"/>
<stop offset="0.39" stop-color="#FBFEFF"/>
<stop offset="0.5" stop-color="#F2FEFF"/>
<stop offset="0.6" stop-color="#E2FDFF"/>
<stop offset="0.7" stop-color="#CBFDFF"/>
<stop offset="0.78" stop-color="#ADFCFF"/>
<stop offset="0.87" stop-color="#89FAFF"/>
<stop offset="0.95" stop-color="#5FF9FF"/>
<stop offset="1" stop-color="#40F8FF"/>
</linearGradient>
<radialGradient id="paint4_radial_172_30179" cx="0" cy="0" r="1" gradientUnits="userSpaceOnUse" gradientTransform="translate(39.3329 32.0184) scale(12.2079)">
<stop stop-color="#ECECEC"/>
<stop offset="0.47" stop-color="#F1F1F1"/>
<stop offset="1" stop-color="white"/>
</radialGradient>
<linearGradient id="paint5_linear_172_30179" x1="2.3609" y1="67.6488" x2="88.5889" y2="25.7415" gradientUnits="userSpaceOnUse">
<stop stop-color="#77EDF6"/>
<stop offset="0.16" stop-color="#6BE0F0"/>
<stop offset="0.44" stop-color="#4BC0E0"/>
<stop offset="0.82" stop-color="#198BC7"/>
<stop offset="0.99" stop-color="#0071BB"/>
</linearGradient>
<clipPath id="clip0_172_30179">
<rect width="91.2353" height="91.2353" fill="white" transform="translate(0.574707 0.0239258)"/>
</clipPath>
</defs>
</svg>
