<svg width="93" height="92" viewBox="0 0 93 92" fill="none" xmlns="http://www.w3.org/2000/svg">
<g clip-path="url(#clip0_172_30809)">
<path style="mix-blend-mode:screen" opacity="0.9" d="M78.7562 77.8998C96.5719 60.0841 96.5719 31.1991 78.7562 13.3834C60.9405 -4.43233 32.0555 -4.43232 14.2398 13.3834C-3.57594 31.1991 -3.57594 60.0841 14.2398 77.8998C32.0555 95.7155 60.9405 95.7155 78.7562 77.8998Z" fill="url(#paint0_radial_172_30809)"/>
<path style="mix-blend-mode:screen" opacity="0.9" d="M71.8267 70.9704C85.8155 56.9817 85.8155 34.3015 71.8267 20.3128C57.838 6.32409 35.1578 6.32408 21.1691 20.3128C7.18042 34.3015 7.18042 56.9817 21.1691 70.9704C35.1578 84.9591 57.838 84.9591 71.8267 70.9704Z" fill="url(#paint1_radial_172_30809)"/>
<path d="M50.7435 72.8178C65.7542 70.4134 75.9738 56.2957 73.5694 41.285C71.1651 26.2743 57.0474 16.0547 42.0367 18.4591C27.0259 20.8634 16.8064 34.9811 19.2107 49.9919C21.6151 65.0026 35.7328 75.2221 50.7435 72.8178Z" fill="#FFB817"/>
<path d="M46.3859 18.1155C43.9146 18.1155 41.5222 18.4441 39.2481 19.0553C39.3204 19.0553 39.3993 19.0619 39.4716 19.0685C44.1184 19.4825 48.6731 21.1191 52.4195 23.9256C53.4645 24.7077 54.4898 25.6279 54.9433 26.8504C55.9489 29.5517 53.8654 32.3384 51.9265 34.4679C49.8759 36.7223 47.8253 38.9833 45.7746 41.2377C44.4141 42.7362 42.9747 44.4253 42.9616 46.4497C42.9419 48.6186 44.585 50.4326 46.2939 51.7669C48.0027 53.1077 49.9482 54.2841 51.0195 56.1705C52.4261 58.6549 51.9463 61.9017 50.3557 64.2678C48.7652 66.6405 46.2413 68.2376 43.6123 69.3418C41.2725 70.3277 38.7946 70.9521 36.2708 71.2347C39.4059 72.4769 42.817 73.1605 46.3925 73.1605C61.5947 73.1605 73.9183 60.837 73.9183 45.6347C73.9183 30.4324 61.5947 18.1089 46.3925 18.1089L46.3859 18.1155Z" fill="#FFA917"/>
<path d="M43.1916 26.7717C41.2593 27.5933 39.4519 28.7369 37.4209 29.2693C36.5862 29.4862 35.5478 29.5388 35.0154 28.8618C34.4502 28.152 34.7985 27.0938 35.2651 26.3182C35.7318 25.5427 36.3299 24.7211 36.1984 23.8207C35.9947 22.4273 34.3581 22.0592 33.1159 21.5269C24.6176 26.2131 18.8535 35.2569 18.8535 45.6481C18.8535 56.0393 24.0721 64.2089 31.9066 69.0595C32.0972 69.0003 32.2878 68.9346 32.4784 68.882C35.8041 67.8633 39.3073 67.0614 42.0809 64.9648C43.1653 64.1432 44.1315 63.1113 44.6244 61.8428C45.1174 60.5743 45.0845 59.0561 44.309 57.9387C43.3625 56.5848 41.4236 55.8355 41.2002 54.199C41.0293 52.9239 42.0414 51.7342 41.956 50.446C41.8048 48.2179 38.8209 47.5344 37.4472 45.773C36.4482 44.4913 36.4153 42.6313 37.0857 41.1525C37.7561 39.6736 39.0509 38.5497 40.4706 37.7676C42.0677 36.8803 43.8489 36.3808 45.538 35.6841C47.2272 34.9874 48.8966 34.041 49.9285 32.5359C50.9604 31.0242 51.1838 28.8421 50.0402 27.4159C48.4957 25.4901 45.4592 25.8187 43.1851 26.7783L43.1916 26.7717Z" fill="#FFA917"/>
<path d="M68.5814 29.3745C67.1683 29.8806 65.8012 30.5707 64.7562 31.1557C62.9356 32.1744 61.1676 33.6795 60.8061 35.7302C60.7075 36.2954 60.7338 36.9198 61.0756 37.3799C61.6145 38.1028 62.6661 38.1226 63.5666 38.2014C65.1374 38.3395 66.6688 38.8718 67.9899 39.7263C68.1871 39.8577 68.3974 40.0089 68.4763 40.2323C68.6077 40.6136 68.3317 41.0079 68.0491 41.2971C66.4519 42.9402 64.1844 43.9064 61.8972 43.9261C60.4249 43.9393 58.9132 43.5843 57.5133 44.0378C56.3696 44.4059 55.4561 45.2801 54.7265 46.2331C53.7735 47.4687 53.0439 49.0001 53.2543 50.5512C53.5303 52.5887 55.3509 54.0741 57.2175 54.9417C57.9931 55.3032 58.8146 55.5989 59.6691 55.5989C60.7732 55.5989 61.8117 55.1126 62.7845 54.5933C63.9018 53.9952 64.9862 53.3314 66.0313 52.615C67.0106 51.9446 67.9899 51.2085 69.1401 50.9193C70.5203 50.571 71.9597 50.9061 73.3794 51.0442C73.7277 49.2959 73.9118 47.4884 73.9118 45.6415C73.9118 39.5554 71.9334 33.9293 68.588 29.3745H68.5814Z" fill="#FFB817"/>
<path d="M73.8853 44.7937C70.954 46.0753 67.7269 46.5946 64.526 46.7786C63.205 46.8575 61.851 46.8903 60.6285 47.403C59.406 47.9156 58.3413 49.0395 58.3347 50.3606C58.3347 50.7353 58.4202 51.1165 58.6371 51.4188C59.2812 52.3258 60.6745 52.1812 61.6999 51.7606C63.2313 51.1428 64.5918 50.1569 66.0903 49.447C68.4827 48.31 71.138 47.9091 73.8065 47.9091C73.8656 47.1598 73.9051 46.404 73.9051 45.635C73.9051 45.3523 73.8919 45.0697 73.8853 44.7871V44.7937Z" fill="#FFA917"/>
<path d="M65.2491 36.3678C65.4725 37.1499 66.1955 37.702 66.9579 37.9583C67.7269 38.2212 68.5485 38.2409 69.3569 38.3067C70.6122 38.4052 71.861 38.6287 73.0835 38.9376C72.3934 36.1771 71.2892 33.581 69.8367 31.228C68.7982 31.7538 67.8189 32.3782 66.9119 33.1012C65.8997 33.9096 64.8941 35.119 65.2491 36.3678Z" fill="#FFA917"/>
<g style="mix-blend-mode:overlay" opacity="0.66">
<path opacity="0.43" d="M58.8408 30.1169C59.2023 32.0558 63.4942 29.9525 64.2369 29.0127C64.9796 28.0794 64.7364 26.9095 63.5994 26.456C61.9759 25.8118 60.5826 27.0672 59.5507 28.2174C59.2352 28.5723 58.9329 28.9732 58.854 29.4399C58.808 29.7094 58.808 29.9328 58.8408 30.1234V30.1169Z" fill="#FFCB24"/>
<path opacity="0.43" d="M58.762 33.1403C58.6042 32.8709 58.2625 32.6343 57.9404 32.6671C57.8024 32.6803 57.6644 32.6934 57.5263 32.7329C57.1123 32.8512 56.7442 33.2784 56.7705 33.7253C56.7705 33.745 56.7705 33.7582 56.7705 33.7779C56.7705 33.8896 56.7968 33.9948 56.8296 34.0868C56.8296 34.1131 56.8165 34.1394 56.8165 34.1722C56.7902 34.7046 57.3226 34.9872 57.7761 34.9084C58.1179 34.8492 58.4071 34.6323 58.6108 34.3563C58.6371 34.3234 58.67 34.284 58.6897 34.2445C58.7094 34.2117 58.7225 34.1722 58.7357 34.1394C58.7423 34.1262 58.7554 34.1131 58.762 34.0999C58.7751 34.0802 58.7751 34.0539 58.7883 34.0342C58.808 33.9816 58.8408 33.9291 58.8606 33.8765C58.9131 33.6333 58.9066 33.3835 58.762 33.1403Z" fill="#FFCB24"/>
<path d="M59.2615 39.3254C59.2023 37.9517 58.223 36.4663 56.6588 36.7424C54.2138 37.1762 55.1076 41.1854 57.2043 41.4155C58.6962 41.5798 59.3075 40.4953 59.2549 39.3188L59.2615 39.3254Z" fill="#FFCB24"/>
<path d="M57.0268 30.6954C57.8155 30.6954 57.8155 29.4663 57.0268 29.4663C56.2381 29.4663 56.2381 30.6954 57.0268 30.6954Z" fill="#FFCB24"/>
<path d="M57.4606 28.3226C57.9009 28.4212 58.5319 28.1846 58.6108 27.6719C58.6108 27.6456 58.6173 27.6193 58.6239 27.593C58.8342 27.3564 59.0248 27.0935 59.1892 26.8306C59.5572 26.2325 58.946 25.457 58.2821 25.6476C57.6052 25.8447 56.9216 26.4428 56.8165 27.179C56.7442 27.6588 56.9348 28.2043 57.4672 28.3292L57.4606 28.3226Z" fill="#FFCB24"/>
<path opacity="0.43" d="M60.1422 26.2327C60.7272 26.2327 60.7272 25.3257 60.1422 25.3257C59.5573 25.3257 59.5573 26.2327 60.1422 26.2327Z" fill="#FFCB24"/>
<path d="M61.6473 25.6412C62.436 25.6412 62.436 24.4121 61.6473 24.4121C60.8586 24.4121 60.8586 25.6412 61.6473 25.6412Z" fill="#FFCB24"/>
<path d="M69.1335 54.9023C69.048 54.7577 68.91 54.6394 68.7194 54.5737C66.9054 53.9558 64.697 55.1783 63.468 56.4994C62.6924 57.3341 62.3506 58.5829 62.9816 59.6148C63.6651 60.7453 64.9796 60.857 66.1298 60.5021C67.8453 59.9697 70.1062 58.5829 70.0734 56.5257C70.0602 55.7962 69.679 55.2441 69.1401 54.8957L69.1335 54.9023Z" fill="#FFCB24"/>
<path d="M58.946 58.241C58.9789 58.9509 59.5178 59.549 60.2539 59.549C60.9375 59.549 61.5947 58.9509 61.5619 58.241C61.529 57.5312 60.9901 56.9331 60.2539 56.9331C59.5704 56.9331 58.9131 57.5312 58.946 58.241Z" fill="#FFCB24"/>
<path opacity="0.43" d="M61.3252 61.0408C60.898 60.7647 60.2868 60.6267 59.7873 60.6859C58.6831 60.8108 56.8625 62.3882 58.0784 63.4924C59.1431 64.4651 60.8323 63.5778 61.5684 62.6248C62.1008 61.9347 61.851 61.376 61.3252 61.0408Z" fill="#FFCB24"/>
<path d="M64.1186 61.5796C63.021 61.5796 63.021 63.2884 64.1186 63.2884C65.2162 63.2884 65.2162 61.5796 64.1186 61.5796Z" fill="#FFCB24"/>
<path d="M62.2914 64.4258C61.8116 64.4258 61.8116 65.1751 62.2914 65.1751C62.7712 65.1751 62.7712 64.4258 62.2914 64.4258Z" fill="#FFCB24"/>
<path d="M66.5898 60.9883C65.696 60.9883 65.696 62.3751 66.5898 62.3751C67.4837 62.3751 67.4837 60.9883 66.5898 60.9883Z" fill="#FFCB24"/>
</g>
<g style="mix-blend-mode:overlay" opacity="0.39">
<path d="M18.8601 45.6415C18.8601 52.2338 21.1802 58.2871 25.0449 63.0259C25.0054 62.0926 25.0843 61.1593 25.3078 60.2457C25.919 57.781 27.5359 55.6975 29.2907 53.8637C29.6719 53.4628 30.0729 53.0553 30.2306 52.5229C30.5527 51.4253 29.6588 50.3146 28.6466 49.7888C27.6344 49.263 26.458 49.0921 25.4589 48.54C23.2046 47.2978 22.3961 44.0181 23.8027 41.8623C24.0196 41.5271 24.289 41.2182 24.6505 41.0473C25.6035 40.6069 26.6551 41.3299 27.6016 41.7834C29.5799 42.7167 32.0775 42.421 33.7798 41.0407C35.4755 39.6671 36.2905 37.2812 35.7844 35.1517C35.5215 34.0278 34.7985 32.9039 33.6812 32.6279C32.1038 32.2335 30.6644 33.64 29.0673 33.9555C28.7189 34.0212 28.3377 34.0344 28.0157 33.8701C27.6673 33.6926 27.4504 33.3377 27.2795 32.9894C26.1293 30.7021 26.1688 28.2834 26.9903 26.1079C21.9689 31.0965 18.8601 37.9976 18.8601 45.6349V45.6415Z" fill="#FFCB24"/>
</g>
<g style="mix-blend-mode:overlay" opacity="0.64">
<path d="M33.4446 52.3257C32.8005 52.3257 32.1893 52.8909 32.2155 53.5547C32.2484 54.2186 32.7545 54.7838 33.4446 54.7838C34.0887 54.7838 34.7 54.2186 34.6737 53.5547C34.6408 52.8909 34.1347 52.3257 33.4446 52.3257Z" fill="#FFCB24"/>
<path opacity="0.63" d="M37.1777 48.8683C36.9871 48.1716 36.5205 47.5209 35.8632 47.1988C35.206 46.8768 34.3844 46.7256 33.6746 46.9951C33.1553 47.1923 32.6427 47.4815 32.3732 48.0007C32.0906 48.5331 32.0249 49.0852 32.1563 49.6833C32.1958 49.8542 32.2615 50.0053 32.3469 50.1499C32.4258 50.5377 32.6361 50.886 32.9319 51.1621C32.9056 51.1424 32.8793 51.1227 32.853 51.0964C33.0042 51.2278 33.1553 51.3658 33.3328 51.471C33.5826 51.6156 33.7929 51.6682 34.0295 51.7076C33.9901 51.7076 33.9441 51.6945 33.9046 51.6879C34.4961 51.7865 35.0088 51.8785 35.6003 51.6879C36.7637 51.3133 37.5261 50.0776 37.1843 48.8683H37.1777Z" fill="#FFCB24"/>
<path d="M31.1836 48.152C31.9066 48.152 31.9066 47.0347 31.1836 47.0347C30.4606 47.0347 30.4606 48.152 31.1836 48.152Z" fill="#FFCB24"/>
<path d="M28.6072 46.8571C29.7377 46.8571 29.7442 45.0957 28.6072 45.0957C27.4701 45.0957 27.4701 46.8571 28.6072 46.8571Z" fill="#FFCB24"/>
<path d="M28.8503 57.6162C27.9565 57.6162 27.9565 59.003 28.8503 59.003C29.7442 59.003 29.7442 57.6162 28.8503 57.6162Z" fill="#FFCB24"/>
<path d="M29.133 61.0537C29.1067 60.4162 28.6203 59.8838 27.9631 59.8838C27.3518 59.8838 26.7603 60.4227 26.7932 61.0537C26.8195 61.6912 27.3058 62.2236 27.9631 62.2236C28.5743 62.2236 29.1659 61.6847 29.133 61.0537Z" fill="#FFCB24"/>
<path opacity="0.63" d="M29.087 62.2437C27.8185 62.2437 27.8185 64.2154 29.087 64.2154C30.3555 64.2154 30.3555 62.2437 29.087 62.2437Z" fill="#FFCB24"/>
<path opacity="0.63" d="M33.793 59.0162C33.793 59.0162 33.8061 58.9964 33.8258 58.9373C33.8981 58.7335 33.9113 58.4772 33.8981 58.2669C33.8653 57.7345 33.6221 57.2087 33.1291 56.9852C32.6625 56.4134 31.8278 56.5778 31.2822 56.8801C30.7236 57.189 30.3161 57.6622 30.1123 58.2735C29.9086 58.8847 29.948 59.588 30.2964 60.1401C30.7499 60.8565 31.6503 61.2771 32.485 61.0274C33.3526 60.7645 33.6747 60.0152 33.7732 59.2002C33.7732 59.141 33.7798 59.0819 33.7864 59.0227L33.793 59.0162Z" fill="#FFCB24"/>
<path d="M35.1338 58.1161C36.3365 58.1161 36.3365 56.2495 35.1338 56.2495C33.931 56.2495 33.931 58.1161 35.1338 58.1161Z" fill="#FFCB24"/>
<path d="M34.884 59.1608C34.884 59.1608 34.838 59.1805 34.8117 59.1871C33.931 59.496 33.9244 60.679 34.8117 60.9879C34.838 60.9945 34.8577 61.0077 34.884 61.0142C35.4821 61.2245 36.0999 60.679 36.0999 60.0875C36.0999 59.496 35.4821 58.9504 34.884 59.1608Z" fill="#FFCB24"/>
<path d="M33.9244 61.376C33.3066 61.376 33.3066 62.3356 33.9244 62.3356C34.5422 62.3356 34.5422 61.376 33.9244 61.376Z" fill="#FFCB24"/>
<path d="M31.9132 62.4536C31.5386 62.4536 31.532 63.0386 31.9132 63.0386C32.2944 63.0386 32.2944 62.4536 31.9132 62.4536Z" fill="#FFCB24"/>
</g>
<g style="mix-blend-mode:overlay" opacity="0.36">
<path d="M29.1395 28.9209C28.2456 28.9209 27.3912 29.703 27.4306 30.6298C27.4701 31.5565 28.1799 32.3386 29.1395 32.3386C30.0334 32.3386 30.8878 31.5565 30.8484 30.6298C30.8089 29.703 30.0991 28.9209 29.1395 28.9209Z" fill="#FFCB24"/>
<path d="M28.3706 28.2436C28.6335 28.4737 28.9753 28.5591 29.3039 28.4211C29.6062 28.2962 29.8428 27.9807 29.8297 27.639C29.7968 26.8831 28.9358 26.5414 28.3706 27.0343C28.3574 27.0474 28.3443 27.0606 28.3246 27.0737C28.0157 27.3432 28.0157 27.9347 28.3246 28.2042C28.3377 28.2174 28.3509 28.2305 28.3706 28.2436Z" fill="#FFCB24"/>
<path d="M31.315 26.9487C30.8353 26.9487 30.8353 27.698 31.315 27.698C31.7948 27.698 31.7948 26.9487 31.315 26.9487Z" fill="#FFCB24"/>
<path d="M32.6821 29.019C31.6502 29.019 31.6502 30.6162 32.6821 30.6162C33.714 30.6162 33.714 29.019 32.6821 29.019Z" fill="#FFCB24"/>
<path d="M33.0041 27.4878C32.1825 27.4878 32.1825 28.7694 33.0041 28.7694C33.8257 28.7694 33.8257 27.4878 33.0041 27.4878Z" fill="#FFCB24"/>
<path d="M32.6821 22.8477C30.3488 22.8477 30.3423 26.4757 32.6821 26.4757C35.0219 26.4757 35.0219 22.8477 32.6821 22.8477Z" fill="#FFCB24"/>
<path d="M29.8624 26.1602C30.2371 26.1602 30.2437 25.5752 29.8624 25.5752C29.4812 25.5752 29.4812 26.1602 29.8624 26.1602Z" fill="#FFCB24"/>
</g>
<g style="mix-blend-mode:multiply" opacity="0.42">
<path d="M57.1057 67.975C54.0691 70.3674 50.5594 72.0237 46.8591 73.1542C61.8445 72.9044 73.9116 60.6861 73.9116 45.6415C73.9116 32.9762 65.3542 22.3221 53.7142 19.1147C54.01 19.2396 54.3058 19.3842 54.5884 19.5485C56.008 20.3635 57.1648 21.6057 57.9929 23.0188C58.7685 24.3531 59.268 25.8647 59.2943 27.4093C59.3403 29.8411 58.2164 32.1678 56.7442 34.1001C53.8654 37.8793 49.6853 40.4295 46.2215 43.6829C45.1436 44.6951 44.0657 45.9439 44.092 47.4227C44.1183 48.7043 45.0056 49.8348 46.0704 50.5446C47.1417 51.2545 48.3839 51.6291 49.5867 52.0892C52.2814 53.1145 54.8053 54.5999 57.0136 56.4533C58.9788 58.1031 60.8126 60.3837 60.5365 62.9273C60.313 65.0042 58.7422 66.6736 57.0991 67.9684L57.1057 67.975Z" fill="#FFB817"/>
<path d="M46.7737 18.1289C46.6422 18.1289 46.5173 18.1157 46.3859 18.1157C45.8732 18.1157 45.3606 18.1354 44.8479 18.1617C45.5183 18.1683 46.1953 18.1486 46.7737 18.1289Z" fill="#FFB817"/>
</g>
<g style="mix-blend-mode:multiply" opacity="0.35">
<path d="M67.0499 27.4685C68.9757 31.228 70.0733 35.487 70.0733 39.9957C70.0733 55.198 57.7498 67.5215 42.5475 67.5215C34.3121 67.5215 26.9311 63.9001 21.8834 58.1688C26.4448 67.068 35.6989 73.1608 46.3859 73.1608C61.5881 73.1608 73.9117 60.8373 73.9117 45.635C73.9117 38.6681 71.3155 32.3124 67.0499 27.4619V27.4685Z" fill="#FFCD5C"/>
</g>
<g style="mix-blend-mode:multiply" opacity="0.39">
<path d="M64.1121 24.5896C64.5458 26.5285 64.7825 28.5462 64.7825 30.6166C64.7825 45.8189 52.4589 58.1424 37.2567 58.1424C30.5067 58.1424 24.3219 55.704 19.5305 51.6684C22.2778 63.9657 33.254 73.1606 46.3859 73.1606C61.5882 73.1606 73.9117 60.8371 73.9117 45.6349C73.9117 37.1891 70.0996 29.6307 64.1121 24.583V24.5896Z" fill="#FFB817"/>
</g>
<g style="mix-blend-mode:overlay" opacity="0.61">
<path d="M67.0631 27.4879C62.022 21.7501 54.6279 18.1221 46.3859 18.1221C42.8105 18.1221 39.3993 18.8122 36.2708 20.0478C36.2445 20.061 36.2116 20.0675 36.1853 20.0807C35.8764 20.2056 35.5741 20.3304 35.2652 20.4685C35.2389 20.4816 35.2126 20.4948 35.1797 20.5079C34.2727 20.9154 33.392 21.3689 32.5376 21.8618C32.485 21.8881 32.439 21.921 32.3864 21.9473C32.1498 22.0853 31.9132 22.2365 31.6832 22.3811C31.5846 22.4468 31.4794 22.5125 31.3808 22.5783C31.1639 22.7163 30.947 22.8609 30.7367 23.012C30.625 23.0909 30.5198 23.1632 30.4146 23.2421C29.7508 23.7153 29.1067 24.2214 28.4889 24.7538C28.3509 24.8721 28.2128 24.9838 28.0814 25.1087C27.9237 25.2467 27.7725 25.3913 27.6147 25.5359C27.4767 25.6673 27.3387 25.7988 27.2007 25.9302C27.0561 26.0748 26.9115 26.2129 26.7669 26.3575C26.6223 26.5086 26.4777 26.6598 26.3397 26.811C21.7126 31.7338 18.8667 38.3589 18.8667 45.6544C18.8667 52.95 21.9098 60.0483 26.8392 65.0237C22.5802 60.1798 19.9906 53.8241 19.9906 46.8704C19.9906 39.9166 22.5933 33.515 26.8852 28.6644C28.41 30.5573 30.7498 31.7667 33.3723 31.7667C37.9796 31.7667 41.7194 28.0335 41.7194 23.4195C41.7194 22.2431 41.4697 21.1323 41.0359 20.1201C43.1194 19.614 45.2883 19.3446 47.523 19.3446C55.1668 19.3446 62.0811 22.4665 67.0697 27.4945L67.0631 27.4879Z" fill="#FFC747"/>
</g>
<g style="mix-blend-mode:screen" opacity="0.2">
<path d="M20.4113 36.532C23.0863 42.3224 28.9424 46.3448 35.7384 46.3448C45.0583 46.3448 52.6167 38.7864 52.6167 29.4665C52.6167 25.1286 50.9801 21.1785 48.292 18.188C47.661 18.142 47.0235 18.1157 46.3859 18.1157C34.3779 18.1157 24.1707 25.8056 20.4113 36.532Z" fill="#FFB817"/>
</g>
<path style="mix-blend-mode:multiply" opacity="0.91" d="M50.7435 72.8178C65.7542 70.4134 75.9738 56.2957 73.5694 41.285C71.1651 26.2743 57.0474 16.0547 42.0367 18.4591C27.0259 20.8634 16.8064 34.9811 19.2107 49.9919C21.6151 65.0026 35.7328 75.2221 50.7435 72.8178Z" fill="url(#paint2_linear_172_30809)"/>
<path style="mix-blend-mode:screen" opacity="0.68" d="M37.2567 42.9072C43.8885 42.9072 49.2647 37.537 49.2647 30.9124C49.2647 24.2878 43.8885 18.9175 37.2567 18.9175C30.6248 18.9175 25.2487 24.2878 25.2487 30.9124C25.2487 37.537 30.6248 42.9072 37.2567 42.9072Z" fill="url(#paint3_radial_172_30809)"/>
<path style="mix-blend-mode:screen" opacity="0.25" d="M71.6836 34.6587C71.7624 37.8924 71.2629 41.1918 70.1193 44.4189C65.0782 58.6287 49.4552 66.0689 35.2323 61.0277C27.8973 58.4316 22.3698 53.0158 19.4253 46.4433C19.6816 57.4391 26.6222 67.6463 37.6115 71.5372C51.8345 76.5784 67.4574 69.1382 72.4986 54.9284C74.9435 48.047 74.4506 40.8369 71.6836 34.6587Z" fill="url(#paint4_linear_172_30809)"/>
<path style="mix-blend-mode:screen" opacity="0.37" d="M57.8747 20.9023C60.0962 23.2553 61.9365 26.0355 63.2445 29.2035C69.0086 43.1372 62.3769 59.1019 48.4234 64.8595C41.233 67.8303 33.5037 67.4951 26.9049 64.5769C34.4568 72.5756 46.4451 75.5333 57.2306 71.0771C71.1775 65.3196 77.8158 49.3549 72.0517 35.4211C69.2584 28.6711 64.066 23.6431 57.8747 20.9023Z" fill="url(#paint5_linear_172_30809)"/>
</g>
<defs>
<radialGradient id="paint0_radial_172_30809" cx="0" cy="0" r="1" gradientUnits="userSpaceOnUse" gradientTransform="translate(46.4982 45.6419) scale(45.62)">
<stop stop-color="#FFB300"/>
<stop offset="0.21" stop-color="#B57F00"/>
<stop offset="0.42" stop-color="#755200"/>
<stop offset="0.61" stop-color="#422E00"/>
<stop offset="0.78" stop-color="#1E1500"/>
<stop offset="0.91" stop-color="#080500"/>
<stop offset="1"/>
</radialGradient>
<radialGradient id="paint1_radial_172_30809" cx="0" cy="0" r="1" gradientUnits="userSpaceOnUse" gradientTransform="translate(1.20684 0.350493) scale(35.8203)">
<stop stop-color="#FFB300"/>
<stop offset="0.21" stop-color="#B57F00"/>
<stop offset="0.42" stop-color="#755200"/>
<stop offset="0.61" stop-color="#422E00"/>
<stop offset="0.78" stop-color="#1E1500"/>
<stop offset="0.91" stop-color="#080500"/>
<stop offset="1"/>
</radialGradient>
<linearGradient id="paint2_linear_172_30809" x1="26.929" y1="26.1753" x2="65.8516" y2="65.0979" gradientUnits="userSpaceOnUse">
<stop stop-color="white"/>
<stop offset="1" stop-color="#DD3D02"/>
</linearGradient>
<radialGradient id="paint3_radial_172_30809" cx="0" cy="0" r="1" gradientUnits="userSpaceOnUse" gradientTransform="translate(37.2173 30.9124) scale(11.9949)">
<stop stop-color="#ECECEC"/>
<stop offset="0.47" stop-color="#F1F1F1"/>
<stop offset="1" stop-color="white"/>
</radialGradient>
<linearGradient id="paint4_linear_172_30809" x1="44.1743" y1="35.0738" x2="53.1465" y2="72.4936" gradientUnits="userSpaceOnUse">
<stop offset="0.24" stop-color="white"/>
<stop offset="0.38" stop-color="#FFFEFB"/>
<stop offset="0.48" stop-color="#FFFDF2"/>
<stop offset="0.57" stop-color="#FFFCE2"/>
<stop offset="0.66" stop-color="#FFFACB"/>
<stop offset="0.74" stop-color="#FFF8AD"/>
<stop offset="0.82" stop-color="#FFF589"/>
<stop offset="0.89" stop-color="#FFF25E"/>
<stop offset="0.97" stop-color="#FFEE2D"/>
<stop offset="1" stop-color="#FFEC14"/>
</linearGradient>
<linearGradient id="paint5_linear_172_30809" x1="37.7007" y1="39.594" x2="69.4215" y2="61.426" gradientUnits="userSpaceOnUse">
<stop offset="0.24" stop-color="white"/>
<stop offset="0.47" stop-color="#FFFEFC"/>
<stop offset="0.58" stop-color="#FFFEF5"/>
<stop offset="0.66" stop-color="#FFFDE8"/>
<stop offset="0.73" stop-color="#FFFBD6"/>
<stop offset="0.79" stop-color="#FFF9BE"/>
<stop offset="0.84" stop-color="#FFF7A1"/>
<stop offset="0.89" stop-color="#FFF47E"/>
<stop offset="0.94" stop-color="#FFF155"/>
<stop offset="0.98" stop-color="#FFED29"/>
<stop offset="1" stop-color="#FFEC14"/>
</linearGradient>
<clipPath id="clip0_172_30809">
<rect width="91.24" height="91.24" fill="white" transform="translate(0.877686 0.0214844)"/>
</clipPath>
</defs>
</svg>
