<svg width="93" height="92" viewBox="0 0 93 92" fill="none" xmlns="http://www.w3.org/2000/svg">
<g clip-path="url(#clip0_172_30143)">
<path style="mix-blend-mode:screen" opacity="0.54" d="M53.9467 90.6443C78.8031 86.5338 95.6209 63.0516 91.5104 38.1952C87.3999 13.3389 63.9177 -3.47896 39.0613 0.631528C14.205 4.74201 -2.61286 28.2243 1.49762 53.0806C5.60811 77.937 29.0904 94.7548 53.9467 90.6443Z" fill="url(#paint0_radial_172_30143)"/>
<path d="M66.4177 65.5805C77.4294 54.5688 77.4294 36.7153 66.4177 25.7036C55.406 14.6919 37.5525 14.6919 26.5407 25.7036C15.529 36.7153 15.529 54.5688 26.5408 65.5805C37.5525 76.5923 55.406 76.5923 66.4177 65.5805Z" fill="#4FB3FF"/>
<path d="M74.6733 45.6412C74.6733 33.0656 66.4468 22.4247 55.0784 18.7871C55.5821 23.0403 55.7659 29.5719 54.215 33.1296C51.8245 38.5899 49.4421 44.0423 43.646 42.5073C37.8498 40.9723 34.2682 39.4374 29.6633 42.5073C27.0011 44.2821 22.0604 43.7145 18.5667 41.6759C18.3828 42.971 18.2869 44.2981 18.2869 45.6412C18.2869 61.2149 30.9105 73.8385 46.4841 73.8385C62.0577 73.8385 74.6813 61.2149 74.6813 45.6412H74.6733Z" fill="#41AAF9"/>
<path d="M64.8157 24.2314C62.3933 27.5492 58.6918 33.0256 56.941 37.7345C54.2148 45.0656 48.9303 50.5259 42.2787 48.6472C35.9389 46.8564 23.6431 46.7764 18.9263 51.6452C21.6764 64.3328 32.9649 73.8384 46.4759 73.8384C62.0496 73.8384 74.6732 61.2148 74.6732 45.6412C74.6732 37.0709 70.8437 29.404 64.8157 24.2314Z" fill="#2BA1F9"/>
<path d="M46.476 73.8384C62.0496 73.8384 74.6732 61.2148 74.6732 45.6411C74.6732 38.4619 71.987 31.9143 67.566 26.9336C63.9124 36.0475 66.4147 43.6904 60.011 49.6705C52.3361 56.8337 41.2555 50.0142 33.9243 52.0609C29.8071 53.2121 24.8983 55.6745 20.3813 56.322C24.5945 66.6032 34.6918 73.8464 46.484 73.8464L46.476 73.8384Z" fill="#41AAF9"/>
<path d="M42.9585 66.8912C38.3935 68.3862 33.6847 68.2503 29.8232 68.3942C34.4921 71.8159 40.2403 73.8386 46.4762 73.8386C62.0498 73.8386 74.6734 61.215 74.6734 45.6414C74.6734 41.1244 73.6021 36.8552 71.7154 33.0737C70.6121 35.5041 69.6288 38.4621 69.0451 42.0038C66.9985 54.4515 51.8246 63.9972 42.9585 66.8992V66.8912Z" fill="#4FB3FF"/>
<path d="M20.9729 33.6013C21.1808 33.7932 21.4046 33.961 21.6684 34.049C22.1881 34.2249 22.7557 34.1289 23.2834 34.001C24.8024 33.6253 26.2494 32.9697 27.7844 32.6499C29.3193 32.3301 31.0302 32.3861 32.2934 33.3055C33.1888 33.961 33.7724 34.9924 34.7158 35.592C35.835 36.3115 37.2581 36.3035 38.5772 36.1516C40.6878 35.9117 42.8224 35.3281 44.4853 34.001C45.9163 32.8578 46.8837 31.2428 47.6831 29.5879C49.4819 25.8544 50.5053 21.3454 48.7064 17.6119C48.6905 17.5799 48.6745 17.556 48.6585 17.532C47.939 17.476 47.2114 17.436 46.4759 17.436C35.2114 17.436 25.4899 24.0396 20.9729 33.5933V33.6013Z" fill="#2BA1F9"/>
<path d="M46.6039 57.3617L39.3847 57.2897C34.6918 57.2417 25.9056 56.2344 22.2201 59.896C22.2041 59.912 22.1881 59.928 22.1721 59.9439C23.835 62.7581 25.9696 65.2684 28.4719 67.347C34.6918 65.1405 40.9116 62.934 47.1315 60.7274C48.1308 60.3757 49.346 59.6721 49.1542 58.6328C48.9703 57.6095 47.6352 57.3697 46.5959 57.3617H46.6039Z" fill="#4FB3FF"/>
<path d="M25.9058 26.3663C26.2975 26.4783 26.7212 26.5262 27.121 26.5022C28.0883 26.4463 29.0397 26.1585 30.007 26.0865C30.9744 26.0146 32.0457 26.1985 32.7012 26.918C33.101 27.3577 33.3008 27.9413 33.6286 28.437C34.4441 29.6841 36.035 30.2757 37.522 30.1798C39.009 30.0839 40.4001 29.3883 41.6073 28.5089C42.8465 27.6055 44.0377 26.0545 43.3821 24.6715C43.1423 24.1678 42.6626 23.6881 42.7985 23.1445C42.9025 22.7048 43.3581 22.4649 43.7339 22.2251C45.2769 21.2338 45.9564 19.2671 45.7006 17.4683C37.8978 17.6841 30.8944 21.0579 25.9138 26.3743L25.9058 26.3663Z" fill="#41AAF9"/>
<path d="M46.476 73.8388C62.0497 73.8388 74.6733 61.2152 74.6733 45.6416C74.6733 42.8514 74.2655 40.1492 73.506 37.6069C71.9231 38.6303 70.652 40.1492 70.0124 41.9161C69.005 44.7062 69.4847 47.7842 69.5087 50.7502C69.5407 53.7242 68.8851 57.05 66.4228 58.7209C65.7752 59.1606 65.0317 59.4564 64.3841 59.9041C61.6499 61.7908 61.0104 66.028 57.9564 67.3232C56.5413 67.9228 54.8864 67.7309 53.4634 68.3065C51.8964 68.9461 50.7372 70.4731 49.0743 70.7769C47.5233 71.0647 46.0283 70.2092 44.5093 69.7695C41.7352 68.9781 38.7452 69.6096 36.035 70.601C35.5313 70.7849 35.0277 70.9847 34.532 71.1926C38.1536 72.8875 42.1989 73.8388 46.468 73.8388H46.476Z" fill="#41AAF9"/>
<path d="M34.54 59.3924C32.3015 58.6649 26.8651 60.2958 23.6353 62.1665C24.2428 62.998 24.8824 63.8054 25.578 64.5649C32.4214 62.0066 44.2455 59.984 43.9897 59.2165C43.6459 58.1852 37.1702 60.2478 34.548 59.3924H34.54Z" fill="#2BA1F9"/>
<path d="M68.6053 46.6245C68.2376 49.5026 68.1896 52.4926 67.1823 55.2428C66.087 58.2408 63.3848 60.847 60.8265 62.6618C56.4055 65.7957 51.041 66.955 45.9884 68.6498C43.2142 69.5772 40.3042 70.7365 37.9377 72.5193C39.025 72.863 40.1363 73.1429 41.2795 73.3507C48.091 70.0569 56.2855 69.4813 62.3535 64.6285C66.3508 61.4306 69.141 57.3294 69.8605 52.2208C70.5081 47.6318 70.1643 41.6038 73.698 38.2301C73.586 37.8064 73.4581 37.3906 73.3302 36.9829C70.2443 39.0056 69.093 42.867 68.6213 46.6165L68.6053 46.6245Z" fill="#70C1FF"/>
<path d="M37.5939 48.7113C38.7211 49.191 39.8244 49.7026 40.8797 50.3022C42.0549 50.9658 43.1821 51.7733 44.4613 52.237C48.5546 53.724 52.5039 52.133 55.486 49.223C59.0916 45.6973 59.8191 41.4921 61.2101 36.8472C62.4333 32.7619 64.368 29.3562 66.8064 26.1183C66.6225 25.9265 66.4307 25.7346 66.2388 25.5427C64.448 27.6054 63.0329 30.0437 61.9217 32.4581C59.891 36.8792 59.6112 42.3156 56.5812 46.193C53.7111 49.8625 48.4906 52.4848 44.0775 50.0544C44.4373 50.0544 44.7971 50.0544 45.1648 50.0224C47.7711 49.8066 50.2894 48.7593 52.3121 47.0964C54.9743 44.9058 56.2055 41.7559 57.6125 38.702C59.1395 35.3842 60.5466 31.9944 62.1775 28.7246C62.953 27.1736 63.8404 25.6546 64.9676 24.3675C64.5999 24.0477 64.2241 23.7359 63.8324 23.4321C61.394 25.8545 59.883 29.3082 58.412 32.4022C55.5019 38.5341 53.2554 46.9765 45.3487 47.8719C39.1608 48.5754 33.6845 43.6507 27.5286 46.5128C24.9303 47.72 22.8597 49.7826 20.4213 51.2536C19.9496 51.5414 19.4699 51.7813 18.9902 51.9811C19.1581 52.7007 19.342 53.4042 19.5579 54.0997C21.7084 53.0684 23.5232 51.5014 25.4899 50.0944C28.8157 47.712 31.7977 47.0884 35.803 48.1757C36.4026 48.3356 36.9943 48.5194 37.5859 48.6953L37.5939 48.7113Z" fill="#70C1FF"/>
<path d="M23.8191 35.1126C25.5859 34.2971 27.3047 33.1619 29.3274 33.0979C31.2861 33.034 32.4533 34.2571 33.8204 35.4404C35.5393 36.9274 37.2901 37.8068 39.6245 37.3991C44.2135 36.5916 48.1629 32.8821 49.8018 28.6129C50.7052 26.2545 50.905 23.6722 50.4653 21.1858C50.2735 20.0746 49.9297 18.7874 49.402 17.5962C48.4427 17.5003 47.4673 17.4443 46.484 17.4443C47.0036 18.3957 47.5713 19.3311 47.883 20.4343C48.4747 22.497 48.5146 24.7115 47.947 26.7821C46.9477 30.4437 43.9896 33.6655 40.3521 34.8408C36.0269 36.2398 34.2761 31.6269 30.3187 31.1872C28.7997 31.0193 27.3287 31.419 25.9297 31.9867C25.2101 32.2825 23.891 33.3218 23.1475 33.3537C22.1722 33.3937 21.6365 33.1619 21.3807 32.7861C21.0209 33.4897 20.6851 34.2092 20.3813 34.9527C21.3007 35.7522 22.5799 35.6802 23.8191 35.1126Z" fill="#70C1FF"/>
<path d="M38.9771 69.6734C45.2849 66.8513 51.6566 64.293 57.165 60.0078C61.8818 56.3383 65.7992 51.6134 67.8379 45.9452C69.2529 41.9958 70.1963 37.6547 72.163 33.9931C72.0191 33.6813 71.8752 33.3775 71.7233 33.0737C69.8845 35.8399 68.7173 39.1257 67.7259 42.3715C65.4155 49.9425 61.0024 55.7706 54.3988 60.1517C48.131 64.3089 40.9597 66.1317 34.3162 69.4815C33.8205 69.7293 33.3088 70.0092 32.8052 70.305C33.5807 70.7367 34.3721 71.1284 35.1876 71.4802C36.4348 70.8246 37.7059 70.233 38.9771 69.6654V69.6734Z" fill="#70C1FF"/>
<path d="M24.3307 45.4257C30.1348 44.4743 36.7144 38.2224 42.4786 42.6115C42.6145 42.7155 42.8064 42.5156 42.7104 42.3797C38.9529 37.1352 32.4692 40.4929 27.7844 42.2598C24.5145 43.4989 21.6285 43.5229 18.4466 42.5716C18.3586 43.363 18.3107 44.1705 18.2947 44.9859C20.2374 45.5136 22.2281 45.7694 24.3307 45.4257Z" fill="#70C1FF"/>
<path d="M52.1363 31.4028C54.2629 27.3015 53.8791 22.2489 52.1443 18.0197C51.8884 17.9717 51.6326 17.9318 51.3848 17.8838C52.9277 22.2409 52.528 26.51 51.4008 31.099C51.2968 31.5307 51.9204 31.8265 52.1363 31.4108V31.4028Z" fill="#70C1FF"/>
<path d="M49.6658 33.4013C47.8111 35.4079 45.6205 36.5432 43.3421 37.9582C43.0143 38.1581 43.2301 38.6698 43.6059 38.5738C46.2041 37.9502 48.4906 35.8876 50.1455 33.8809C50.4173 33.5532 49.9696 33.0735 49.6658 33.4013Z" fill="#70C1FF"/>
<g style="mix-blend-mode:multiply" opacity="0.42">
<path d="M65.0476 24.4316C67.1263 28.365 68.3175 32.85 68.3175 37.6069C68.3175 53.1805 55.6939 65.8041 40.1202 65.8041C33.005 65.8041 26.5133 63.1659 21.5486 58.8168C26.2814 67.7548 35.6672 73.8388 46.484 73.8388C62.0576 73.8388 74.6812 61.2152 74.6812 45.6415C74.6812 37.1832 70.9557 29.5962 65.0556 24.4316H65.0476Z" fill="#4FB3FF"/>
</g>
<g style="mix-blend-mode:multiply" opacity="0.26">
<path d="M62.4893 22.4328C63.4807 25.3109 64.0243 28.3888 64.0243 31.5947C64.0243 47.1683 51.4007 59.7919 35.8271 59.7919C29.879 59.7919 24.3627 57.9452 19.8137 54.7953C23.6192 65.8679 34.1162 73.8306 46.484 73.8306C62.0576 73.8306 74.6812 61.207 74.6812 45.6334C74.6812 36.0078 69.8524 27.5174 62.4973 22.4248L62.4893 22.4328Z" fill="#4398D8"/>
</g>
<g style="mix-blend-mode:overlay" opacity="0.35">
<path d="M19.2302 38.3661C22.4681 44.1942 28.6879 48.1356 35.8272 48.1356C46.3082 48.1356 54.8065 39.6373 54.8065 29.1562C54.8065 24.9031 53.4075 20.9777 51.0411 17.8118C49.554 17.5719 48.0351 17.436 46.4841 17.436C33.4288 17.436 22.4441 26.3101 19.2382 38.3581L19.2302 38.3661Z" fill="#9DBEFF"/>
</g>
<g style="mix-blend-mode:multiply" opacity="0.26">
<path d="M65.8792 25.1909C69.0611 29.7559 70.9319 35.3042 70.9319 41.2922C70.9319 56.8658 58.3083 69.4894 42.7346 69.4894C35.2116 69.4894 28.3842 66.5394 23.3315 61.7426C28.4242 69.0497 36.8905 73.8385 46.4761 73.8385C62.0498 73.8385 74.6734 61.2149 74.6734 45.6413C74.6734 37.5907 71.2916 30.3315 65.8792 25.1909Z" fill="#6399C3"/>
</g>
<g style="mix-blend-mode:lighten" opacity="0.28">
<path d="M66.223 25.5188C61.9539 21.3216 56.3176 18.4435 49.9139 17.652C48.5947 17.4921 47.2836 17.4282 45.9965 17.4522C45.7087 17.4522 45.4289 17.4681 45.141 17.4761C45.0851 17.4761 45.0211 17.4761 44.9652 17.4841C44.4375 17.5081 43.9099 17.5561 43.3902 17.612C43.3502 17.612 43.3023 17.62 43.2623 17.628C42.9825 17.66 42.6947 17.7 42.4149 17.74C42.3989 17.74 42.3909 17.74 42.3749 17.74C41.8312 17.8199 41.3036 17.9158 40.768 18.0278C40.704 18.0438 40.648 18.0518 40.5841 18.0677C39.7766 18.2436 38.9771 18.4515 38.1857 18.6913C38.1217 18.7153 38.0578 18.7313 37.9858 18.7553C37.2023 19.0031 36.4348 19.2829 35.6833 19.5947C35.6194 19.6187 35.5554 19.6507 35.4995 19.6747C35.0038 19.8825 34.5241 20.1064 34.0444 20.3382C33.7726 20.4741 33.5328 20.5941 33.2929 20.722C33.245 20.746 33.197 20.7779 33.141 20.8019C32.7013 21.0418 32.2696 21.2896 31.8379 21.5454C31.7899 21.5774 31.742 21.6014 31.694 21.6334C31.4621 21.7773 31.2303 21.9212 31.0065 22.0731C30.9905 22.0811 30.9745 22.0891 30.9665 22.1051C30.5268 22.3929 30.1031 22.6967 29.6793 23.0085C29.6234 23.0484 29.5674 23.0884 29.5114 23.1284C28.8639 23.6161 28.2403 24.1277 27.6407 24.6634C27.5847 24.7113 27.5368 24.7593 27.4888 24.8073C26.8892 25.3509 26.3136 25.9265 25.7619 26.5181C25.722 26.5661 25.674 26.6141 25.634 26.662C25.2743 27.0538 24.9225 27.4615 24.5867 27.8772C24.3949 28.1171 24.219 28.3329 24.0511 28.5568C24.0271 28.5887 23.9951 28.6287 23.9711 28.6607C23.6593 29.0684 23.3635 29.4921 23.0757 29.9159C23.0438 29.9558 23.0198 30.0038 22.9878 30.0438C20.6294 33.5854 19.0304 37.7107 18.4788 42.2117C17.2636 52.1011 21.3249 61.4149 28.4482 67.339C22.4122 61.3989 19.0944 52.8286 20.2056 43.7706C20.7173 39.6054 22.1244 35.768 24.187 32.4182C26.1617 34.1051 28.624 35.2483 31.3902 35.5921C38.8972 36.5115 45.7247 31.179 46.652 23.672C46.8439 22.0971 46.756 20.5461 46.4362 19.0751C48.1391 18.9711 49.8739 19.0111 51.6327 19.227C57.205 19.9145 62.1937 22.185 66.207 25.5268L66.223 25.5188Z" fill="white"/>
</g>
<path style="mix-blend-mode:multiply" d="M66.4177 65.581C77.4294 54.5693 77.4294 36.7158 66.4177 25.7041C55.406 14.6924 37.5525 14.6924 26.5407 25.7041C15.529 36.7158 15.529 54.5693 26.5408 65.581C37.5525 76.5927 55.406 76.5927 66.4177 65.581Z" fill="url(#paint1_linear_172_30143)"/>
<path style="mix-blend-mode:overlay" opacity="0.6" d="M66.4177 65.581C77.4294 54.5693 77.4294 36.7158 66.4177 25.7041C55.406 14.6924 37.5525 14.6924 26.5407 25.7041C15.529 36.7158 15.529 54.5693 26.5408 65.581C37.5525 76.5927 55.406 76.5927 66.4177 65.581Z" fill="url(#paint2_linear_172_30143)"/>
<path opacity="0.48" d="M38.993 40.3811C44.6226 40.3811 49.1862 35.8174 49.1862 30.1878C49.1862 24.5583 44.6226 19.9946 38.993 19.9946C33.3635 19.9946 28.7998 24.5583 28.7998 30.1878C28.7998 35.8174 33.3635 40.3811 38.993 40.3811Z" fill="url(#paint3_radial_172_30143)"/>
<path style="mix-blend-mode:screen" opacity="0.49" d="M72.2029 34.0729C72.2829 37.4147 71.7712 40.8204 70.588 44.1542C65.3835 58.8325 49.2662 66.5153 34.588 61.3108C27.017 58.6246 21.3168 53.0363 18.2788 46.2408C18.5426 57.6013 25.7059 68.1383 37.0503 72.1596C51.7285 77.3641 67.8458 69.6812 73.0504 55.003C75.5687 47.8957 75.065 40.4527 72.2029 34.0649V34.0729Z" fill="url(#paint4_linear_172_30143)"/>
<path style="mix-blend-mode:screen" opacity="0.15" d="M57.9564 19.8667C60.2509 22.2971 62.1457 25.1752 63.4968 28.445C69.4448 42.8354 62.6014 59.3284 48.2029 65.2765C40.7839 68.3464 32.8052 68.0027 26.0017 64.9807C33.7965 73.2472 46.1643 76.2932 57.2929 71.6962C71.6833 65.7482 78.5348 49.2551 72.5867 34.8647C69.7086 27.8934 64.3442 22.6968 57.9564 19.8667Z" fill="url(#paint5_linear_172_30143)"/>
</g>
<defs>
<radialGradient id="paint0_radial_172_30143" cx="0" cy="0" r="1" gradientUnits="userSpaceOnUse" gradientTransform="translate(46.5014 45.6424) scale(45.6176)">
<stop stop-color="#ACFFFB"/>
<stop offset="0.17" stop-color="#7FBCB9"/>
<stop offset="0.33" stop-color="#588381"/>
<stop offset="0.49" stop-color="#385452"/>
<stop offset="0.64" stop-color="#202F2E"/>
<stop offset="0.78" stop-color="#0E1515"/>
<stop offset="0.9" stop-color="#030505"/>
<stop offset="1"/>
</radialGradient>
<linearGradient id="paint1_linear_172_30143" x1="26.5419" y1="25.7067" x2="66.4194" y2="65.5842" gradientUnits="userSpaceOnUse">
<stop stop-color="white"/>
<stop offset="1" stop-color="#003EE7"/>
</linearGradient>
<linearGradient id="paint2_linear_172_30143" x1="70.4494" y1="60.5016" x2="22.5324" y2="30.7521" gradientUnits="userSpaceOnUse">
<stop stop-color="white"/>
<stop offset="1" stop-color="#ECECEC"/>
</linearGradient>
<radialGradient id="paint3_radial_172_30143" cx="0" cy="0" r="1" gradientUnits="userSpaceOnUse" gradientTransform="translate(38.993 30.1878) scale(10.1932)">
<stop stop-color="#ECECEC"/>
<stop offset="0.55" stop-color="#EEEEEE"/>
<stop offset="0.84" stop-color="#F6F6F6"/>
<stop offset="1" stop-color="white"/>
</radialGradient>
<linearGradient id="paint4_linear_172_30143" x1="43.8107" y1="34.5094" x2="53.0745" y2="73.1473" gradientUnits="userSpaceOnUse">
<stop offset="0.24" stop-color="white"/>
<stop offset="0.92" stop-color="white"/>
<stop offset="1" stop-color="white"/>
</linearGradient>
<linearGradient id="paint5_linear_172_30143" x1="37.1529" y1="39.1835" x2="69.8792" y2="61.7155" gradientUnits="userSpaceOnUse">
<stop offset="0.24" stop-color="white"/>
<stop offset="0.92" stop-color="white"/>
<stop offset="1" stop-color="white"/>
</linearGradient>
<clipPath id="clip0_172_30143">
<rect width="91.2353" height="91.2353" fill="white" transform="translate(0.882324 0.0239258)"/>
</clipPath>
</defs>
</svg>
