<svg width="92" height="93" viewBox="0 0 92 93" fill="none" xmlns="http://www.w3.org/2000/svg">
<g clip-path="url(#clip0_172_30238)">
<path style="mix-blend-mode:screen" opacity="0.54" d="M76.8954 78.8566C94.7102 61.0418 94.7102 32.1584 76.8954 14.3436C59.0806 -3.47125 30.1971 -3.47125 12.3823 14.3436C-5.43252 32.1584 -5.43252 61.0418 12.3823 78.8566C30.1971 96.6714 59.0806 96.6714 76.8954 78.8566Z" fill="url(#paint0_radial_172_30238)"/>
<path d="M44.5976 74.6107C60.0689 74.6107 72.611 62.0687 72.611 46.5973C72.611 31.126 60.0689 18.584 44.5976 18.584C29.1262 18.584 16.5842 31.126 16.5842 46.5973C16.5842 62.0687 29.1262 74.6107 44.5976 74.6107Z" fill="#E7A993"/>
<g style="mix-blend-mode:multiply" opacity="0.66">
<path d="M19.894 39.5137C22.5722 39.4817 24.7468 38.7942 27.1692 37.7629C27.7288 37.523 27.393 36.7235 26.8814 36.6996C24.6668 36.6036 22.5562 36.4517 20.3337 36.5477C19.7341 36.5717 19.0865 36.5637 18.439 36.5637C18.0712 37.515 17.7594 38.4824 17.4956 39.4817C18.3111 39.5537 19.1505 39.5137 19.894 39.5057V39.5137Z" fill="#B2AFFF"/>
<path d="M52.6242 26.6423C49.3544 30.4078 45.413 33.5817 41.0959 36.06C36.8987 38.4744 32.3737 40.2573 27.6009 41.1207C24.5629 41.6723 20.4456 42.3039 17.0479 41.5124C16.936 42.12 16.84 42.7356 16.7681 43.3592C18.8867 43.8389 21.2531 43.8389 22.868 43.8069C28.7841 43.695 34.6122 42.128 39.9367 39.5937C45.3091 37.0354 50.2498 33.3019 54.2311 28.8888C55.7581 27.2019 57.5729 24.9714 58.972 22.549C58.1405 22.0534 57.2851 21.5977 56.3977 21.1899C55.3744 23.1566 54.0633 24.9714 52.6162 26.6343L52.6242 26.6423Z" fill="#B2AFFF"/>
<path d="M33.8287 26.2904C36.4989 25.2111 41.0719 22.1411 41.9513 18.7114C40.976 18.7994 40.0166 18.9433 39.0812 19.1271C39.0013 19.303 38.9053 19.4869 38.8014 19.6548C37.7301 21.4376 35.9553 22.7248 34.1805 23.7321C32.1099 24.9073 28.4083 26.4183 25.3543 26.2504C24.9226 26.6581 24.5069 27.0739 24.1072 27.5056C27.1691 28.425 31.2304 27.3457 33.8287 26.2904Z" fill="#B2AFFF"/>
<path d="M27.6569 52.9288C34.7721 52.2332 41.3837 49.547 47.6436 46.1892C53.3518 43.1193 58.6283 39.2259 62.6816 34.1253C63.9767 32.5023 65.2479 30.7195 66.2712 28.8408C64.8881 27.1539 63.3051 25.6269 61.5623 24.2998C60.0753 26.8581 58.2205 29.2485 56.4137 31.1672C52.6802 35.1326 48.1152 38.2185 43.3184 40.7529C38.2818 43.4151 32.8934 45.6456 27.2252 46.501C24.451 46.9168 21.5729 47.0207 18.7668 46.8688C18.0313 46.8288 17.3037 46.7569 16.5842 46.6769C16.5842 48.6996 16.8161 50.6663 17.2318 52.569C20.7255 53.2405 24.435 53.2326 27.6649 52.9208L27.6569 52.9288Z" fill="#B2AFFF"/>
<path d="M71.9393 52.6888C72.0593 52.1292 72.1712 51.5696 72.2671 51.002C67.7102 54.7115 62.7375 57.9174 57.5249 60.6355C52.4083 63.2978 47.0519 65.5363 41.5596 67.3031C37.7381 68.5343 33.8047 69.6695 29.8074 70.3891C30.439 70.7808 31.0865 71.1485 31.7501 71.4923C40.912 70.1092 49.9859 66.3517 57.8527 62.1066C62.8334 59.4204 67.5662 56.2784 71.9473 52.6888H71.9393Z" fill="#B2AFFF"/>
<path d="M43.7661 22.1414C41.5915 24.8036 38.6654 26.7703 35.5635 28.1774C31.1185 30.2 25.9779 31.703 21.0532 31.4072C20.7014 31.9588 20.3576 32.5185 20.0378 33.0941C25.4422 33.7896 31.806 31.8869 36.1072 30.0881C39.8487 28.5211 43.3503 26.2746 45.9086 23.0768C46.796 21.9655 47.7954 20.4625 48.5069 18.8636C47.6515 18.7436 46.788 18.6557 45.9086 18.6157C45.373 19.8869 44.6215 21.0781 43.7581 22.1414H43.7661Z" fill="#B2AFFF"/>
<path d="M54.8148 60.3558C61.1786 57.0939 67.5024 52.3851 72.603 46.8527C72.603 46.7648 72.603 46.6849 72.603 46.5969C72.603 45.6855 72.555 44.7821 72.4671 43.8867C70.8441 45.7895 69.1812 47.6442 67.3185 49.3791C63.6489 52.8008 59.6516 55.8548 55.2705 58.3171C50.6016 60.9394 45.557 62.8101 40.4004 64.2092C35.6116 65.5043 30.2631 66.9913 25.1865 66.7995C25.6662 67.2632 26.1539 67.7029 26.6655 68.1346C30.5589 68.1905 34.7402 66.9594 38.2738 66.1519C43.974 64.8488 49.5863 63.026 54.7988 60.3558H54.8148Z" fill="#B2AFFF"/>
<path d="M30.8946 64.3455C38.8573 63.3141 46.4523 60.524 53.4556 56.6386C59.7634 53.1369 65.7434 48.7159 70.5962 43.3594C71.1239 42.7758 71.6435 42.1762 72.1472 41.5766C71.4996 37.995 70.1725 34.6532 68.2937 31.6792C66.8387 33.9577 65.1758 36.0683 63.2971 38.027C59.0039 42.536 53.9433 46.1736 48.4989 49.1556C42.8467 52.2575 36.6988 54.576 30.295 55.5033C26.8733 55.999 23.3317 56.087 19.886 55.7991C19.2784 55.7512 18.6708 55.6712 18.0552 55.5913C19.1984 58.957 20.9572 62.035 23.2037 64.6892C25.762 64.7932 28.3124 64.6892 30.8946 64.3455Z" fill="#B2AFFF"/>
<path d="M45.477 26.6266C43.5983 28.0097 42.2232 29.8005 40.1126 30.9677C37.954 32.159 35.4037 32.7905 33.517 34.3895C32.5816 35.1809 33.6049 36.5081 34.6282 36.2922C37.2185 35.7566 40.0087 33.9418 42.3031 32.5987C44.1659 31.5034 46.2445 29.7126 46.5963 27.4821C46.6842 26.9144 46.0766 26.1869 45.477 26.6266Z" fill="#B2AFFF"/>
</g>
<path d="M68.2538 36.8998C68.3098 36.2762 67.6223 35.8765 67.0866 36.0124C64.4564 36.652 62.2019 40.6333 60.547 42.656C58.1326 45.606 54.9187 47.6606 51.8088 49.7952C51.3931 50.075 51.6329 50.7945 52.1605 50.6346C55.8941 49.5554 58.7242 47.069 61.6902 44.6546C63.9767 42.7919 67.966 40.0257 68.2538 36.8998Z" fill="#E79174"/>
<path d="M41.3437 39.5219C37.754 41.3367 34.1884 42.488 30.247 43.2155C28.2644 43.5752 26.2897 43.8311 24.283 44.0069C22.8839 44.1269 22.1324 44.0709 21.0612 44.9183C20.8133 45.1102 20.9332 45.494 21.1571 45.6459C23.6115 47.2368 29.0478 45.7738 31.766 45.0862C35.4276 44.1588 38.9533 42.5999 41.7434 40.0336C42.0232 39.7698 41.6634 39.362 41.3517 39.5219H41.3437Z" fill="#E79174"/>
<g style="mix-blend-mode:multiply" opacity="0.63">
<path d="M52.4724 67.7433C52.0327 68.0391 51.625 68.3829 51.2652 68.7746C50.8814 69.1904 51.3851 69.9259 51.8888 69.5821C52.2565 69.3343 52.6483 69.1184 53.072 68.9745C53.5277 68.8146 53.8315 68.5348 54.2232 68.263C54.591 68.0151 54.4391 67.4875 54.0074 67.4555C53.4397 67.4075 52.9521 67.4155 52.4644 67.7433H52.4724Z" fill="#E79174"/>
<path d="M53.8714 36.9078C52.904 37.1876 52.2564 37.7313 51.449 38.3229C50.6175 38.9225 49.8101 39.5461 48.9946 40.1697C48.6508 40.4335 48.379 40.8492 48.5309 41.3049C48.6269 41.5927 48.7548 41.7286 48.9946 41.9045C49.2584 42.0964 49.7461 42.0964 50.0099 41.9045C51.6409 40.7373 53.6795 39.3862 54.439 37.4755C54.5749 37.1397 54.1832 36.8199 53.8714 36.9078Z" fill="#E79174"/>
<path d="M38.2659 47.0609C41.6396 46.7411 45.1573 45.0222 47.6596 42.7038C48.2192 42.1841 47.6436 41.1208 46.8921 41.3847C43.7582 42.5119 40.5124 44.2547 37.994 46.4053C37.7542 46.6132 37.9381 47.0849 38.2659 47.0529V47.0609Z" fill="#E79174"/>
<path d="M61.5622 49.747C61.866 49.3553 61.6102 48.5638 61.0106 48.7957C57.9006 49.9869 55.2384 52.2094 52.3203 53.8083C48.9066 55.6791 45.373 57.3899 41.7434 58.797C41.2317 58.9969 41.4236 59.7724 41.9752 59.6364C45.5808 58.7251 49.0825 57.5898 52.4163 55.9429C55.5982 54.368 59.3237 52.6091 61.5622 49.755V49.747Z" fill="#E79174"/>
<path d="M51.7288 19.7671C50.4017 21.8298 48.6189 23.5006 47.2118 25.4913C46.7562 26.1389 47.6516 26.9863 48.2911 26.5706C50.5856 25.0756 52.4004 22.7172 53.7115 20.1109C53.1119 19.903 52.4963 19.7112 51.8727 19.5513C51.8248 19.6232 51.7848 19.7032 51.7368 19.7751L51.7288 19.7671Z" fill="#E79174"/>
<path d="M60.1872 30.2401C58.988 31.8231 57.4451 33.1662 56.3018 34.7651C55.8781 35.3647 56.6936 36.0603 57.2692 35.7325C60.531 33.8537 62.5936 29.7365 63.8008 26.2108C63.577 26.0029 63.3611 25.7951 63.1293 25.5952C62.2898 27.2421 61.3065 28.7611 60.1872 30.2321V30.2401Z" fill="#E79174"/>
<path d="M66.719 58.4051C64.1287 60.132 60.8349 61.3232 58.6363 63.5297C58.1407 64.0254 58.4765 65.0807 59.2519 65.0087C62.6097 64.7209 65.8076 62.3465 68.5178 60.4917C68.7416 60.3398 68.9655 60.1799 69.1893 60.0201C70.0528 58.4451 70.7643 56.7822 71.3079 55.0474C69.8129 56.2226 68.2859 57.3578 66.719 58.3971V58.4051Z" fill="#E79174"/>
<path d="M36.6828 26.9782C40.2564 25.7151 43.6302 22.3573 44.7974 18.5918C44.7335 18.5918 44.6695 18.5918 44.5976 18.5918C44.0139 18.5918 43.4463 18.6158 42.8707 18.6478C42.3111 19.839 41.5596 20.9262 40.6322 21.9016C39.2171 23.3886 37.4103 24.4519 36.1472 26.0748C35.8514 26.4506 36.0992 27.1861 36.6748 26.9782H36.6828Z" fill="#E79174"/>
<path d="M32.4297 33.9177C33.0133 33.51 32.8774 32.3987 32.0299 32.4547C29.4157 32.6226 26.9134 33.7018 24.2671 33.9657C22.7002 34.1256 21.1092 34.1575 19.5183 34.1096C19.2065 34.7252 18.9267 35.3567 18.6628 35.9963C23.3397 36.5959 28.8641 36.428 32.4297 33.9177Z" fill="#E79174"/>
<path d="M48.5309 70.5571C49.2424 69.9495 48.4429 69.0381 47.7154 69.15C45.1731 69.5258 42.7587 70.9728 40.2724 71.7003C38.6335 72.18 36.9786 72.6277 35.3157 73.0275C36.6108 73.4832 37.9539 73.8429 39.329 74.1067C42.7587 73.5871 46.1884 72.5638 48.5309 70.5571Z" fill="#E79174"/>
<path d="M30.327 59.1728C33.5169 58.6132 36.7068 57.9496 39.8007 56.9903C42.2871 56.2228 45.6288 55.3833 47.1638 53.1448C47.4836 52.6731 47.0599 51.9776 46.5083 52.0016C44.1019 52.1055 41.9033 53.6405 39.6168 54.384C36.8507 55.2794 33.9966 55.911 31.1425 56.4626C26.8733 57.2861 22.828 57.5339 18.6868 57.2621C19.0705 58.1975 19.5102 59.1168 19.9899 59.9963C23.4276 60.2681 27.0092 59.7484 30.327 59.1728Z" fill="#E79174"/>
<path d="M35.6275 20.063C33.0452 20.9344 30.6388 22.1736 28.4563 23.7166C29.9673 23.7885 31.5742 23.5007 32.8054 22.8451C33.8127 22.3095 34.9959 21.2542 35.6275 20.063Z" fill="#E79174"/>
</g>
<g style="mix-blend-mode:multiply" opacity="0.36">
<path d="M44.6135 18.584C45.5249 19.1996 46.4363 19.7592 46.828 21.1183C47.1238 22.1416 47.0119 23.2369 46.7561 24.2762C45.7727 28.2416 42.8227 31.4234 41.2637 35.2049C40.824 36.2602 40.5282 37.5474 41.1918 38.4748C41.7994 39.3222 42.9746 39.5141 44.0219 39.538C48.8107 39.65 53.4556 37.8672 58.2444 37.6113C60.5389 37.4914 63.0013 37.7792 64.7681 39.2422C66.0952 40.3375 66.8707 41.9524 67.5183 43.5514C68.6695 46.4295 69.5249 49.4355 70.0526 52.4894C70.2844 53.8485 70.4683 55.2396 70.7801 56.5827C71.9633 53.4808 72.6109 50.123 72.6109 46.6133C72.6109 31.1436 60.0752 18.608 44.6135 18.6V18.584Z" fill="#E7A993"/>
</g>
<g style="mix-blend-mode:multiply" opacity="0.36">
<path d="M44.5977 74.6106C50.058 74.6106 55.1426 73.0436 59.4518 70.3414C58.9641 70.2535 58.4764 70.1576 57.9887 70.0376C56.8855 69.7658 55.7502 69.3821 54.9348 68.5906C53.2399 66.9357 53.4877 64.0896 54.5191 61.963C55.5504 59.8284 57.2053 58.0376 58.1167 55.8551C58.3565 55.2875 58.5404 54.6639 58.3885 54.0643C58.0367 52.6652 56.2059 52.3454 54.7589 52.4094C51.7929 52.5373 48.8428 53.1049 46.0367 54.0723C44.8535 54.48 43.6783 54.9597 42.4391 55.0716C41.1919 55.1755 39.8328 54.8398 39.0493 53.8644C38.1619 52.7532 38.058 50.9144 36.7309 50.3867C36.1313 50.1469 35.4517 50.2748 34.8202 50.4347C30.1593 51.6339 25.3385 54.3841 20.8455 52.6492C19.0067 51.9377 17.6076 50.5546 16.6562 48.8438C17.7995 63.2662 29.8555 74.6106 44.5737 74.6106H44.5977Z" fill="#E7A993"/>
</g>
<g style="mix-blend-mode:multiply" opacity="0.15">
<path d="M60.1711 23.3169C60.5788 25.2196 60.7947 27.1863 60.7947 29.209C60.7947 44.6787 48.251 57.2223 32.7813 57.2223C27.0172 57.2223 21.6607 55.4795 17.1997 52.4895C19.9019 65.1371 31.1344 74.6188 44.5895 74.6188C60.0592 74.6188 72.6028 62.0751 72.6028 46.6054C72.6028 36.8999 67.6621 28.3455 60.1631 23.3169H60.1711Z" fill="#E7A993"/>
</g>
<g style="mix-blend-mode:multiply" opacity="0.15">
<path d="M63.2092 25.667C65.048 29.3925 66.0793 33.5897 66.0793 38.0268C66.0793 53.4965 53.5357 66.0401 38.066 66.0401C30.9187 66.0401 24.4031 63.3619 19.4543 58.9568C24.0193 68.2307 33.565 74.6104 44.5976 74.6104C60.0673 74.6104 72.611 62.0668 72.611 46.5971C72.611 38.2666 68.9734 30.7996 63.2092 25.667Z" fill="#E7A993"/>
</g>
<g style="mix-blend-mode:screen" opacity="0.45">
<path d="M63.0333 25.5154C58.1086 21.2062 51.6569 18.584 44.5976 18.584C42.9427 18.584 41.3278 18.7359 39.7608 19.0077C39.7048 19.0157 39.6569 19.0237 39.6009 19.0397C39.0733 19.1356 38.5456 19.2475 38.026 19.3675C38.002 19.3675 37.986 19.3755 37.962 19.3835C36.3071 19.7832 34.7162 20.3348 33.1972 21.0144C33.1492 21.0384 33.0932 21.0623 33.0453 21.0863C32.5736 21.3022 32.1099 21.526 31.6542 21.7659C31.6302 21.7819 31.5982 21.7899 31.5743 21.8058C30.1112 22.5733 28.7281 23.4687 27.433 24.4761C27.385 24.516 27.3291 24.556 27.2811 24.596C26.8894 24.8998 26.5056 25.2196 26.1379 25.5474C26.1059 25.5793 26.0739 25.6033 26.0419 25.6353C25.2185 26.3628 24.435 27.1463 23.6995 27.9697C23.3477 28.3695 23.004 28.7692 22.6762 29.1849C22.6362 29.2409 22.5962 29.2889 22.5483 29.3448C22.2445 29.7286 21.9567 30.1203 21.6688 30.528C21.6369 30.568 21.6129 30.608 21.5809 30.648C18.431 35.1809 16.5842 40.6813 16.5842 46.6133C16.5842 55.9431 21.1492 64.2096 28.1685 69.3022C22.3004 64.1697 18.5909 56.6307 18.5909 48.2203C18.5909 43.5434 19.7421 39.1463 21.7648 35.2689C23.9793 36.9558 26.7375 37.9631 29.7355 37.9631C36.9946 37.9631 42.8867 32.079 42.8867 24.8118C42.8867 23.3248 42.6309 21.8938 42.1752 20.5587C43.6222 20.3268 45.1013 20.2069 46.6043 20.2069C52.7442 20.2069 58.4204 22.1896 63.0333 25.5394V25.5154Z" fill="#E7A993"/>
</g>
<g style="mix-blend-mode:screen" opacity="0.25">
<path d="M17.6074 39.0983C21.0931 43.4634 26.4495 46.2696 32.4695 46.2696C42.9665 46.2696 51.4809 37.7632 51.4809 27.2582C51.4809 24.3162 50.8093 21.526 49.6181 19.0397C47.9872 18.7439 46.3163 18.584 44.5975 18.584C31.726 18.584 20.8852 27.2662 17.6074 39.0983Z" fill="#E7A993"/>
</g>
<path style="mix-blend-mode:multiply" opacity="0.76" d="M44.5976 74.6107C60.0689 74.6107 72.611 62.0687 72.611 46.5973C72.611 31.126 60.0689 18.584 44.5976 18.584C29.1262 18.584 16.5842 31.126 16.5842 46.5973C16.5842 62.0687 29.1262 74.6107 44.5976 74.6107Z" fill="url(#paint1_linear_172_30238)"/>
<path style="mix-blend-mode:screen" opacity="0.15" d="M70.3245 34.8932C70.4045 38.235 69.8928 41.6408 68.7096 44.9745C63.505 59.6528 47.3878 67.3357 32.7095 62.1311C25.1386 59.4449 19.4384 53.8566 16.4004 47.0612C16.6642 58.4216 23.8274 68.9586 35.1719 72.9799C49.8501 78.1844 65.9674 70.5016 71.1719 55.8233C73.6903 48.716 73.1866 41.273 70.3245 34.8853V34.8932Z" fill="url(#paint2_linear_172_30238)"/>
<path style="mix-blend-mode:screen" opacity="0.15" d="M56.102 20.6387C58.3964 23.0691 60.2912 25.9471 61.6423 29.209C67.5903 43.5994 60.7469 60.0924 46.3484 66.0405C38.9294 69.1104 30.9507 68.7666 24.1472 65.7527C31.942 74.0191 44.3098 77.0651 55.4384 72.4682C69.8288 66.5201 76.6803 50.0271 70.7322 35.6367C67.8541 28.6653 62.4897 23.4688 56.102 20.6387Z" fill="url(#paint3_linear_172_30238)"/>
<g opacity="0.72">
<path d="M20.3744 61.0597C20.2375 60.7639 20.1222 60.4601 19.9998 60.1563C9.61936 67.3035 7.80415 70.0726 7.27108 72.1193C7.22786 72.2871 7.22065 72.4231 7.24947 72.487L7.28548 72.559C7.3215 72.6469 7.49439 72.7189 7.56643 72.7428C8.87749 73.2225 15.6489 73.3424 47.5898 54.7148C66.8163 43.5063 79.9269 32.7455 83.4855 28.3164C83.9249 27.7728 83.4999 26.9173 82.8515 27.0373C80.215 27.5169 76.0204 28.7186 68.4998 32.1563C68.615 32.3721 68.7303 32.58 68.8384 32.8038C75.0407 30.0057 78.0972 29.3317 78.5654 30.3151C79.5019 32.2898 65.5844 42.459 47.4745 53.036C29.3718 63.6129 13.9344 70.5843 12.998 68.6096C12.4865 67.5303 13.711 65.7845 20.3744 61.0597Z" fill="url(#paint4_linear_172_30238)"/>
<path d="M66.9998 29.6561C67.1076 29.8233 67.2082 30.0064 67.316 30.1815C76.8716 25.7635 82.465 24.0055 84.6851 24.8175C85.4251 25.0881 85.8849 25.6931 85.9424 26.4892C85.9999 27.2932 86.1867 29.7529 74.7127 38.8039C67.3197 44.631 57.8575 50.9834 48.0719 56.6751C43.9479 59.0712 39.5437 61.5708 35.197 63.9111C22.6382 70.6775 10.4817 76.21 6.53732 74.7692C5.67516 74.4587 5.25126 73.8776 5.05009 73.4398C4.83455 73.002 4.64056 72.2935 4.89202 71.3144C5.8404 67.6844 10.5912 63.5598 18.8751 57.892C18.832 57.7567 18.7817 57.6293 18.7386 57.5019C4.84341 67.2057 -1.23651 73.7025 0.142951 76.6001C2.11874 80.7554 24.0248 72.2776 49.0706 57.6781C74.1236 43.0707 92.8325 27.8663 90.8567 23.711C89.5491 20.9567 80.9525 23.1923 66.9998 29.6561Z" fill="url(#paint5_linear_172_30238)"/>
<path d="M72.6009 33.0331C72.8026 33.0012 71.7149 34.4162 71.6789 34.4562C71.225 34.9359 70.6704 35.3516 70.1733 35.7673C68.8046 36.9106 67.3711 37.9739 65.9232 38.9892C63.8773 40.4202 61.6226 41.5874 59.7641 43.3223C59.5552 43.5222 59.7857 43.826 60.009 43.738C64.3888 42.0671 69.2657 38.3736 72.6298 34.8559C73.1124 34.3523 73.9192 33.6407 73.5446 32.8013C73.2997 32.2497 72.8891 32.1537 72.4136 32.4175C72.1039 32.5854 72.2696 33.0891 72.6009 33.0411V33.0331Z" fill="url(#paint6_linear_172_30238)"/>
<path d="M89.0249 29.9073C82.5921 38.0059 73.7388 42.5069 66.2543 49.1585C66.0453 49.3424 66.2759 49.7341 66.5136 49.5982C71.0879 46.968 75.3812 43.4263 79.6314 40.1885C82.9234 37.6782 88.0164 34.6402 89.5076 30.2671C89.6084 29.9713 89.2266 29.6515 89.0249 29.9073Z" fill="url(#paint7_linear_172_30238)"/>
<path d="M61.9178 51.8525C58.741 53.8032 54.9591 55.5061 52.1352 58.0404C51.984 58.1763 52.1136 58.4881 52.3081 58.4322C55.7875 57.4088 59.2236 54.6667 62.1987 52.4841C62.5301 52.2443 62.2924 51.6207 61.9178 51.8525Z" fill="url(#paint8_linear_172_30238)"/>
<path d="M39.8097 64.6759C34.6663 67.7058 29.1483 70.0723 24.0914 73.2142C23.8176 73.3821 23.9329 73.9177 24.2715 73.8298C29.8687 72.3667 35.0985 68.3214 40.033 65.1875C40.3139 65.0036 40.105 64.5 39.8097 64.6759Z" fill="url(#paint9_linear_172_30238)"/>
<path d="M17.4425 64.7722C16.5997 64.8681 15.5191 66.563 16.4124 67.2985C16.8662 67.6743 17.5577 67.3385 18.0188 67.1786C18.8688 66.8748 19.8557 66.555 20.4824 65.8275C20.6409 65.6436 20.5184 65.3638 20.2951 65.3958C19.5676 65.4757 18.912 65.8755 18.2277 66.1393C17.9611 66.2432 17.1615 66.7389 16.9598 66.2992C16.8302 66.0194 17.4209 65.2838 17.5938 65.1239C17.745 64.988 17.6082 64.7482 17.4425 64.7722Z" fill="url(#paint10_linear_172_30238)"/>
<path d="M1.12641 78.7949C2.44467 79.8342 4.80746 80.0021 6.09691 78.7949C6.21937 78.6829 6.15454 78.4111 5.98165 78.4191C5.23968 78.4191 4.56254 78.8268 3.82777 78.9228C2.96333 79.0427 2.09169 78.9468 1.3137 78.4831C1.12641 78.3711 0.939114 78.651 1.12641 78.8029V78.7949Z" fill="url(#paint11_linear_172_30238)"/>
<path d="M6.37048 72.9505C7.27814 74.4455 9.23032 74.5814 10.527 73.654C10.6566 73.5581 10.6062 73.3342 10.4405 73.3582C9.04303 73.5741 7.68154 73.9018 6.47133 72.8305C6.39929 72.7666 6.33446 72.8785 6.37768 72.9505H6.37048Z" fill="url(#paint12_linear_172_30238)"/>
<path d="M12.0976 73.6863C14.4099 73.1587 17.277 72.687 19.294 71.2559C19.4741 71.128 19.4741 70.7363 19.2076 70.7443C16.7943 70.7762 14.1434 72.1353 11.9247 73.1187C11.6365 73.2466 11.795 73.7583 12.0976 73.6943V73.6863Z" fill="url(#paint13_linear_172_30238)"/>
<path d="M20.4322 54.9865C18.2711 55.8259 16.0092 57.4728 14.2803 59.1437C14.0498 59.3676 14.3019 59.8153 14.5829 59.6474C16.6287 58.4322 18.8474 56.9612 20.6051 55.2823C20.7492 55.1464 20.5907 54.9305 20.4322 54.9945V54.9865Z" fill="url(#paint14_linear_172_30238)"/>
<path d="M78.8608 26.7175C79.9341 26.5257 81.0579 26.2698 82.1456 26.2458C82.6139 26.2298 83.1686 26.2378 83.608 26.4457C84.2275 26.7335 84.3067 27.3171 84.6165 27.8688C84.6885 27.9967 84.8398 28.0526 84.9479 27.9407C85.9347 26.9574 84.4292 25.6702 83.6008 25.4224C81.9295 24.9347 80.2583 25.6143 78.7455 26.3338C78.551 26.4217 78.6591 26.7495 78.8608 26.7175Z" fill="url(#paint15_linear_172_30238)"/>
<path d="M84.1195 28.9477C83.8818 29.0516 83.7233 29.2435 83.5793 29.4753C83.4496 29.6752 83.3127 29.947 83.2839 30.1949C83.2695 30.3468 83.4208 30.5226 83.5649 30.4747C84.0475 30.3068 84.4581 29.6912 84.4293 29.1236C84.4221 28.9477 84.2348 28.8997 84.1195 28.9477Z" fill="url(#paint16_linear_172_30238)"/>
</g>
</g>
<defs>
<radialGradient id="paint0_radial_172_30238" cx="0" cy="0" r="1" gradientUnits="userSpaceOnUse" gradientTransform="translate(44.6434 46.5973) scale(45.6176)">
<stop stop-color="#ACFFFB"/>
<stop offset="0.17" stop-color="#7FBCB9"/>
<stop offset="0.33" stop-color="#588381"/>
<stop offset="0.49" stop-color="#385452"/>
<stop offset="0.64" stop-color="#202F2E"/>
<stop offset="0.78" stop-color="#0E1515"/>
<stop offset="0.9" stop-color="#030505"/>
<stop offset="1"/>
</radialGradient>
<linearGradient id="paint1_linear_172_30238" x1="24.7868" y1="26.7865" x2="64.4084" y2="66.4082" gradientUnits="userSpaceOnUse">
<stop stop-color="#FF0000"/>
<stop offset="0.11" stop-color="#F20006"/>
<stop offset="0.3" stop-color="#D20118"/>
<stop offset="0.56" stop-color="#9D0236"/>
<stop offset="0.87" stop-color="#54045D"/>
<stop offset="1" stop-color="#340570"/>
</linearGradient>
<linearGradient id="paint2_linear_172_30238" x1="41.9423" y1="35.3289" x2="51.2061" y2="73.9668" gradientUnits="userSpaceOnUse">
<stop offset="0.24" stop-color="white"/>
<stop offset="0.92" stop-color="white"/>
<stop offset="1" stop-color="white"/>
</linearGradient>
<linearGradient id="paint3_linear_172_30238" x1="35.2995" y1="39.958" x2="68.0227" y2="62.4827" gradientUnits="userSpaceOnUse">
<stop offset="0.24" stop-color="white"/>
<stop offset="0.92" stop-color="white"/>
<stop offset="1" stop-color="white"/>
</linearGradient>
<linearGradient id="paint4_linear_172_30238" x1="6.72718" y1="71.2855" x2="87.3197" y2="35.9927" gradientUnits="userSpaceOnUse">
<stop stop-color="#FFB6A0"/>
<stop offset="0.15" stop-color="#F2ACA1"/>
<stop offset="0.42" stop-color="#D293A5"/>
<stop offset="0.77" stop-color="#9D6AAA"/>
<stop offset="0.99" stop-color="#7A4FAF"/>
</linearGradient>
<linearGradient id="paint5_linear_172_30238" x1="-0.489602" y1="75.169" x2="95.0486" y2="33.2618" gradientUnits="userSpaceOnUse">
<stop stop-color="#FFB6A0"/>
<stop offset="0.15" stop-color="#F2ACA1"/>
<stop offset="0.42" stop-color="#D293A5"/>
<stop offset="0.77" stop-color="#9D6AAA"/>
<stop offset="0.99" stop-color="#7A4FAF"/>
</linearGradient>
<linearGradient id="paint6_linear_172_30238" x1="59.2239" y1="41.9567" x2="74.3316" y2="35.3407" gradientUnits="userSpaceOnUse">
<stop stop-color="#FFB6A0"/>
<stop offset="0.15" stop-color="#F2ACA1"/>
<stop offset="0.42" stop-color="#D293A5"/>
<stop offset="0.77" stop-color="#9D6AAA"/>
<stop offset="0.99" stop-color="#7A4FAF"/>
</linearGradient>
<linearGradient id="paint7_linear_172_30238" x1="65.1696" y1="46.5363" x2="91.4066" y2="35.0467" gradientUnits="userSpaceOnUse">
<stop stop-color="#FFB6A0"/>
<stop offset="0.15" stop-color="#F2ACA1"/>
<stop offset="0.42" stop-color="#D293A5"/>
<stop offset="0.77" stop-color="#9D6AAA"/>
<stop offset="0.99" stop-color="#7A4FAF"/>
</linearGradient>
<linearGradient id="paint8_linear_172_30238" x1="52.1633" y1="57.987" x2="62.607" y2="53.4135" gradientUnits="userSpaceOnUse">
<stop stop-color="#FFB6A0"/>
<stop offset="0.15" stop-color="#F2ACA1"/>
<stop offset="0.42" stop-color="#D293A5"/>
<stop offset="0.77" stop-color="#9D6AAA"/>
<stop offset="0.99" stop-color="#7A4FAF"/>
</linearGradient>
<linearGradient id="paint9_linear_172_30238" x1="24.3153" y1="73.7539" x2="40.6529" y2="66.5994" gradientUnits="userSpaceOnUse">
<stop stop-color="#FFB6A0"/>
<stop offset="0.15" stop-color="#F2ACA1"/>
<stop offset="0.42" stop-color="#D293A5"/>
<stop offset="0.77" stop-color="#9D6AAA"/>
<stop offset="0.99" stop-color="#7A4FAF"/>
</linearGradient>
<linearGradient id="paint10_linear_172_30238" x1="16.432" y1="66.7442" x2="20.1148" y2="65.1315" gradientUnits="userSpaceOnUse">
<stop stop-color="#FFB6A0"/>
<stop offset="0.15" stop-color="#F2ACA1"/>
<stop offset="0.42" stop-color="#D293A5"/>
<stop offset="0.77" stop-color="#9D6AAA"/>
<stop offset="0.99" stop-color="#7A4FAF"/>
</linearGradient>
<linearGradient id="paint11_linear_172_30238" x1="1.6476" y1="79.7497" x2="5.68663" y2="77.981" gradientUnits="userSpaceOnUse">
<stop stop-color="#FFB6A0"/>
<stop offset="0.15" stop-color="#F2ACA1"/>
<stop offset="0.42" stop-color="#D293A5"/>
<stop offset="0.77" stop-color="#9D6AAA"/>
<stop offset="0.99" stop-color="#7A4FAF"/>
</linearGradient>
<linearGradient id="paint12_linear_172_30238" x1="6.88537" y1="74.0976" x2="10.1112" y2="72.6849" gradientUnits="userSpaceOnUse">
<stop stop-color="#FFB6A0"/>
<stop offset="0.15" stop-color="#F2ACA1"/>
<stop offset="0.42" stop-color="#D293A5"/>
<stop offset="0.77" stop-color="#9D6AAA"/>
<stop offset="0.99" stop-color="#7A4FAF"/>
</linearGradient>
<linearGradient id="paint13_linear_172_30238" x1="12.2991" y1="74.0047" x2="19.1876" y2="70.9881" gradientUnits="userSpaceOnUse">
<stop stop-color="#FFB6A0"/>
<stop offset="0.15" stop-color="#F2ACA1"/>
<stop offset="0.42" stop-color="#D293A5"/>
<stop offset="0.77" stop-color="#9D6AAA"/>
<stop offset="0.99" stop-color="#7A4FAF"/>
</linearGradient>
<linearGradient id="paint14_linear_172_30238" x1="14.2878" y1="58.994" x2="20.921" y2="56.0893" gradientUnits="userSpaceOnUse">
<stop stop-color="#FFB6A0"/>
<stop offset="0.15" stop-color="#F2ACA1"/>
<stop offset="0.42" stop-color="#D293A5"/>
<stop offset="0.77" stop-color="#9D6AAA"/>
<stop offset="0.99" stop-color="#7A4FAF"/>
</linearGradient>
<linearGradient id="paint15_linear_172_30238" x1="79.617" y1="28.3528" x2="84.4961" y2="26.2162" gradientUnits="userSpaceOnUse">
<stop stop-color="#FFB6A0"/>
<stop offset="0.15" stop-color="#F2ACA1"/>
<stop offset="0.42" stop-color="#D293A5"/>
<stop offset="0.77" stop-color="#9D6AAA"/>
<stop offset="0.99" stop-color="#7A4FAF"/>
</linearGradient>
<linearGradient id="paint16_linear_172_30238" x1="83.3831" y1="29.9656" x2="84.4046" y2="29.5183" gradientUnits="userSpaceOnUse">
<stop stop-color="#FFB6A0"/>
<stop offset="0.15" stop-color="#F2ACA1"/>
<stop offset="0.42" stop-color="#D293A5"/>
<stop offset="0.77" stop-color="#9D6AAA"/>
<stop offset="0.99" stop-color="#7A4FAF"/>
</linearGradient>
<clipPath id="clip0_172_30238">
<rect width="91" height="92" fill="white" transform="translate(0.266846 0.641602)"/>
</clipPath>
</defs>
</svg>
