<svg width="92" height="92" viewBox="0 0 92 92" fill="none" xmlns="http://www.w3.org/2000/svg">
<g clip-path="url(#clip0_172_30349)">
<path style="mix-blend-mode:screen" opacity="0.43" d="M53.4806 90.6443C78.337 86.5338 95.1548 63.0516 91.0444 38.1952C86.9339 13.3389 63.4516 -3.47896 38.5953 0.631528C13.7389 4.74201 -3.07893 28.2243 1.03156 53.0806C5.14204 77.937 28.6243 94.7548 53.4806 90.6443Z" fill="url(#paint0_radial_172_30349)"/>
<path d="M46.0339 73.8465C61.5052 73.8465 74.0472 61.3045 74.0472 45.8332C74.0472 30.3618 61.5052 17.8198 46.0339 17.8198C30.5625 17.8198 18.0205 30.3618 18.0205 45.8332C18.0205 61.3045 30.5625 73.8465 46.0339 73.8465Z" fill="#FF2424"/>
<path d="M65.8127 25.9982C64.2858 26.1102 62.7908 26.6698 61.4397 27.4293C58.7534 28.9323 56.459 31.2427 55.2758 34.0888C54.0925 36.935 54.1165 40.3247 55.6115 43.0109C56.371 44.362 57.4583 45.4973 58.5616 46.5925C59.369 47.392 60.2325 48.2394 60.4563 49.3507C60.7441 50.7578 59.9127 52.1808 58.8174 53.1162C56.6748 54.947 53.429 55.3627 50.8947 54.1235C49.0399 53.2121 47.6488 51.5652 45.858 50.5179C43.3397 49.0469 40.0779 48.943 37.4716 50.2461C34.8653 51.5492 32.9946 54.2274 32.6668 57.1215C32.5069 58.5606 32.6348 60.1835 31.6595 61.2548C30.7721 62.2221 29.2051 62.414 28.4616 63.4933C27.6781 64.6285 28.1498 66.1395 28.2777 67.5146C33.1065 71.472 39.2864 73.8464 46.0179 73.8464C61.4876 73.8464 74.0313 61.3027 74.0313 45.833C74.0313 38.0782 70.8814 31.0669 65.7968 25.9902L65.8127 25.9982Z" fill="#E72121"/>
<path d="M66.1725 26.3742C65.3331 26.742 64.5416 27.1897 63.846 27.6613C60.0246 30.2756 57.0346 35.1444 58.7454 39.4535C60.0805 42.8193 63.846 44.754 65.1732 48.1277C66.3004 50.9898 65.381 54.3556 63.4863 56.778C61.5995 59.2004 58.8734 60.8313 56.1072 62.1744C52.9093 63.7333 49.0799 64.9645 45.882 63.4056C43.8194 62.3982 42.3643 60.3596 40.2378 59.4962C37.4236 58.3529 33.826 59.8559 32.6588 62.6621C32.1871 63.8053 32.0752 65.0844 31.4996 66.1797C31.0119 67.1071 30.2444 67.8106 29.333 68.3303C33.9939 71.792 39.7741 73.8466 46.0259 73.8466C61.4956 73.8466 74.0393 61.303 74.0393 45.8333C74.0393 38.2703 71.0333 31.4109 66.1645 26.3662L66.1725 26.3742Z" fill="#D80B0B"/>
<path d="M64.2458 31.7224C64.3658 30.4593 63.1826 29.9156 61.7435 31.6025C60.6402 32.9057 59.449 35.0322 60.8641 36.6072C61.3038 37.0949 61.9354 37.2388 62.3511 36.6312C62.6069 36.2554 62.6549 35.7518 62.7109 35.312C62.7988 34.6325 62.9107 34.1688 63.3265 33.6092C63.6782 33.1455 64.1739 32.442 64.2379 31.7144L64.2458 31.7224Z" fill="#E72121"/>
<path d="M64.4536 37.4787C64.3497 37.3108 64.2058 37.1989 64.0379 37.1269C64.0139 37.063 63.9739 37.007 63.926 36.959C63.7021 36.7352 63.3983 36.7831 63.1745 36.959C62.8147 37.2468 62.6948 37.7905 62.9026 38.1982C63.0945 38.5899 63.5902 38.7818 64.0059 38.6379C64.4776 38.47 64.7334 37.9184 64.4536 37.4787Z" fill="#E72121"/>
<path d="M30.0607 49.5189C28.2219 49.351 27.0467 51.2058 26.3511 52.6528C25.5037 54.4117 25.2159 56.5702 26.1273 58.377C26.6309 59.3764 27.4304 59.8081 28.2858 59.7521C28.9494 60.008 29.7089 59.6882 30.0766 58.9207C31.108 58.0093 30.9401 56.7301 30.8441 55.475C31.2599 54.5636 32.1553 53.916 32.483 52.9966C33.0427 51.4217 31.6196 49.6628 30.0607 49.5269V49.5189Z" fill="#E72121"/>
<path d="M58.8014 48.3517C58.4336 47.3364 57.4103 47.1205 56.4829 47.5043C55.2277 48.0239 51.7341 50.998 53.6928 52.405C54.6521 53.0926 55.7874 52.405 56.5549 51.7655C56.7707 51.5816 57.0265 51.3897 57.2744 51.1818C57.4103 51.1978 57.5542 51.1659 57.6901 51.0539C58.4736 50.3984 59.1931 49.423 58.8014 48.3437V48.3517Z" fill="#E72121"/>
<path d="M54.5243 46.4569C54.7561 46.6088 55.0119 46.7287 55.2678 46.8406C55.5556 46.9606 55.9713 46.8966 56.0433 46.5209C56.0752 46.345 56.0832 46.1771 56.0672 46.0172C56.2591 45.3696 55.5956 44.5062 54.892 44.2104C54.7721 44.1384 54.6522 44.0825 54.5243 44.0425C54.0526 43.9146 53.6049 44.1864 53.421 44.6181C53.2211 45.0818 53.349 45.5855 53.7008 45.9372C53.8847 46.1211 54.1885 46.321 54.5163 46.4569H54.5243Z" fill="#E72121"/>
<path d="M34.7774 47.7199C34.7134 47.6559 34.6575 47.6079 34.5855 47.56C33.882 47.0563 32.9626 47.472 32.6908 48.3035C32.6668 48.3754 32.6508 48.4554 32.6428 48.5353C32.307 49.2549 32.299 50.1183 33.0505 50.6219C33.906 51.1896 34.7614 50.542 34.9852 49.6786C35.305 49.063 35.2491 48.2155 34.7774 47.7279V47.7199Z" fill="#E72121"/>
<path d="M31.7395 46.6888C31.6595 46.6088 31.5556 46.5609 31.4517 46.5369C31.2438 46.4649 31.0199 46.4649 30.7961 46.5369C30.4523 46.6568 30.1805 46.9526 30.0846 47.3044C30.0286 47.5042 30.0206 47.7681 30.1325 47.9519C30.2524 48.1518 30.5003 48.2397 30.7081 48.2957C31.0359 48.3836 31.4117 48.3677 31.6915 48.1598C31.9953 48.1598 32.2191 47.912 32.2271 47.6321C32.2431 47.2404 32.0433 46.8966 31.7395 46.6808V46.6888Z" fill="#E72121"/>
<path d="M47.6409 54.947C47.6409 54.947 47.5929 54.8751 47.5609 54.8351C46.4976 53.3241 44.7388 51.4134 43.9233 53.0843C43.5076 53.9317 44.0673 54.979 44.6429 55.5946C45.2904 56.2821 46.1619 56.6179 47.0653 56.7858C47.3051 56.8417 47.5449 56.8977 47.7768 56.9377C48.2405 57.0256 48.5842 56.5939 48.3764 56.1622C48.2645 55.9304 47.9926 55.4667 47.6329 54.947H47.6409Z" fill="#FF2424"/>
<path d="M49.4956 54.931C49.3197 54.9151 49.1198 55.043 49.0399 55.1949C48.896 55.4667 48.888 55.7865 49.0399 56.0583C49.1998 56.3381 49.4556 56.474 49.7674 56.514C49.8074 56.514 49.8474 56.514 49.8873 56.514C49.9193 56.53 49.9593 56.546 49.9913 56.562C50.407 56.6979 50.7108 56.2821 50.6388 55.9144C50.5349 55.3548 50.0312 54.995 49.4876 54.947L49.4956 54.931Z" fill="#FF2424"/>
<path d="M49.6715 57.6655C49.5676 57.6575 49.4636 57.6495 49.3677 57.6415C49.0879 57.6176 48.8241 57.9054 48.84 58.1692C48.856 58.473 49.0719 58.6729 49.3677 58.6968C49.4716 58.7048 49.5756 58.7128 49.6715 58.7208C49.9513 58.7448 50.2151 58.457 50.1991 58.1932C50.1832 57.8894 49.9673 57.6895 49.6715 57.6655Z" fill="#FF2424"/>
<path d="M34.3536 55.8588C33.5302 56.2745 33.4103 57.3618 33.9459 58.0493C34.0818 58.2172 34.3376 58.2412 34.5295 58.1533C35.321 58.0573 35.2091 56.7462 35.1291 56.1786C35.0731 55.8188 34.6174 55.7229 34.3536 55.8588Z" fill="#FF2424"/>
<path d="M34.7856 54.1636C34.7856 54.1636 34.7216 54.2275 34.6816 54.2675C34.4818 54.4674 34.4818 54.8111 34.6816 55.019C34.8815 55.2269 35.2253 55.2189 35.4331 55.019C35.4651 54.987 35.4971 54.955 35.5371 54.9151C35.7369 54.7152 35.7369 54.3714 35.5371 54.1636C35.3372 53.9637 34.9934 53.9637 34.7856 54.1636Z" fill="#FF2424"/>
<path d="M61.3678 45.4973C61.128 45.0895 60.6962 44.8577 60.3525 44.5459C60.0087 44.2261 59.9847 43.7384 59.6489 43.4106C59.3052 43.0749 58.7535 42.9629 58.3698 43.2827C57.3625 44.1222 58.6976 45.1775 59.2892 45.7211C59.7609 46.2647 60.3605 46.7204 60.9521 46.5765C61.4398 46.4566 61.5996 45.905 61.3598 45.4973H61.3678Z" fill="#FF2424"/>
<path d="M48.5203 62.5423C49.3038 62.8541 50.8707 63.07 51.4464 62.2545C51.7262 61.8628 51.6462 61.3511 51.3424 60.9994C51.0546 60.6636 50.6469 60.5597 50.2232 60.5357C49.7195 60.3678 49.1599 60.3598 48.6402 60.5357C48.2085 60.6876 47.7768 60.9754 47.7128 61.463C47.6489 61.9827 48.0646 62.3505 48.5043 62.5263L48.5203 62.5423Z" fill="#D80B0B"/>
<path d="M55.5397 29.7798C55.9474 29.9877 56.3311 29.8598 56.6909 29.6359C57.2985 29.2442 57.7782 28.6926 58.4178 28.3168C59.1613 27.8771 60.8721 27.3574 60.7922 26.2142C60.7202 25.2309 59.2172 25.079 58.4977 25.2229C57.7782 25.3668 57.0427 25.8145 56.4671 26.3821C56.1313 26.6299 55.8195 26.9177 55.5477 27.2455C54.98 27.9411 54.4764 29.2362 55.5477 29.7718L55.5397 29.7798Z" fill="#D80B0B"/>
<path d="M54.7242 32.5059C54.9001 32.5139 55.0759 32.434 55.2119 32.2581C55.3638 32.0423 55.4597 31.7864 55.4917 31.5226C55.4997 31.4666 55.4997 31.4107 55.4917 31.3627C55.4917 31.3227 55.4917 31.2828 55.4917 31.2428C55.4677 30.947 55.2678 30.7231 54.964 30.7151C54.5963 30.6991 54.2445 30.931 54.0926 31.2668C53.9167 31.6505 53.9487 32.0582 54.2365 32.378C54.3564 32.5139 54.5483 32.5539 54.7242 32.5139V32.5059Z" fill="#D80B0B"/>
<path d="M62.3912 26.2144C62.5191 26.2463 62.663 26.2383 62.7909 26.2144C62.9908 26.1584 63.1427 25.9745 63.1667 25.7747C63.1747 25.7027 63.1667 25.6387 63.1507 25.5828C63.2066 25.3989 63.1667 25.183 63.0228 25.0391C62.8149 24.8313 62.4791 24.8393 62.2713 25.0391C62.2393 25.0711 62.2073 25.1031 62.1673 25.1351C62.0234 25.1751 61.8955 25.255 61.7916 25.3589C61.5917 25.5668 61.5837 25.9026 61.7916 26.1104C61.9435 26.2623 62.1833 26.3023 62.3752 26.2224L62.3912 26.2144Z" fill="#D80B0B"/>
<path d="M27.7021 60.2478C27.2624 60.1279 26.6468 60.2558 26.1831 60.5516C25.9992 60.6476 25.8473 60.7835 25.7354 60.9674C25.6235 61.1273 25.5435 61.3031 25.5355 61.495C25.4796 62.2705 26.271 62.7822 26.9906 62.7822C27.4542 62.8141 27.9659 62.6463 28.2697 62.3345C28.9652 61.6389 28.6375 60.4877 27.6941 60.2399L27.7021 60.2478Z" fill="#D80B0B"/>
<path d="M25.1999 58.5448C25 58.3529 24.6643 58.3529 24.4644 58.5528C24.2245 58.7926 24.1686 59.1604 24.3045 59.4642C24.3125 59.4961 24.3285 59.5281 24.3525 59.5601C24.3685 59.5841 24.3764 59.6001 24.3924 59.6161C24.4084 59.64 24.4324 59.672 24.4564 59.696C24.7922 60.0398 25.3358 59.9838 25.5756 59.5601C25.7915 59.1764 25.6076 58.6807 25.1999 58.5528V58.5448Z" fill="#D80B0B"/>
<path d="M58.5056 55.6508C58.3937 55.8027 58.2898 55.9946 58.1858 56.1944C57.5782 57.0978 57.4024 57.9293 58.1539 58.281C58.1858 58.297 58.2098 58.297 58.2418 58.313C58.3697 58.4169 58.5296 58.5049 58.7375 58.5608C60.4963 59.0245 65.6449 54.0918 62.9587 53.1484C62.8627 53.1165 62.7508 53.1005 62.6309 53.0925C62.5189 53.0125 62.375 52.9726 62.1992 53.0285C60.7121 53.4842 59.401 54.3716 58.4976 55.6588L58.5056 55.6508Z" fill="#D80B0B"/>
<path d="M62.4711 51.3894C62.5271 51.4613 62.583 51.5333 62.639 51.6052C62.7909 51.7811 62.9268 51.909 63.0547 52.021C63.2945 52.2288 63.7263 52.2368 63.8861 51.917C64.134 51.4214 64.2299 50.7578 63.9981 50.2382C63.9581 50.1422 63.9181 50.0463 63.8702 49.9663C63.6703 49.6465 63.3425 49.3747 62.9508 49.4307C62.575 49.4787 62.2872 49.7984 62.1913 50.1502C62.1913 50.1662 62.1913 50.1742 62.1913 50.1902C62.1433 50.3181 62.1113 50.462 62.1113 50.6139C62.1113 50.9257 62.2632 51.1975 62.4791 51.3894H62.4711Z" fill="#D80B0B"/>
<path d="M60.928 52.301C61.2798 52.6928 61.9673 52.421 61.9673 51.8933C61.9673 51.3657 61.2958 51.1178 60.928 51.4856C60.8241 51.5895 60.7761 51.7334 60.7761 51.8773C60.7601 52.0292 60.8161 52.1811 60.92 52.301H60.928Z" fill="#D80B0B"/>
<path d="M41.1812 21.1614C40.7255 21.1854 40.2698 21.1774 39.8301 21.0495C39.5743 20.9776 39.2785 20.9856 38.9427 21.0975C36.5523 21.9209 34.3538 23.0961 32.3871 24.6951C30.7721 26.0142 28.4777 28.0608 28.5256 30.3473C28.5736 32.5778 30.956 33.5132 32.8747 33.0655C35.489 32.4499 37.9913 30.2754 40.07 28.6764C41.6369 27.4772 44.451 25.5585 44.6269 23.352C44.7788 21.4173 42.8601 21.0575 41.1732 21.1534L41.1812 21.1614Z" fill="#E72121"/>
<path d="M23.6649 33.0417C23.4411 33.3055 23.2092 33.6173 23.0014 33.9371C22.9854 33.9611 22.9694 33.9931 22.9454 34.0171C22.9134 34.065 22.8815 34.121 22.8495 34.1689C22.8415 34.1849 22.8335 34.2009 22.8255 34.2169C22.4657 34.8245 22.2019 35.4961 22.2019 36.1436C22.2019 36.7512 22.4417 37.2309 22.8015 37.5587C23.1053 37.9504 23.593 38.2063 24.0807 38.2063C24.2405 38.2063 24.3845 38.1743 24.5204 38.1343C26.7669 37.9904 28.6936 34.5287 27.0467 32.7699C26.0234 31.6746 24.5523 31.9544 23.6569 33.0337L23.6649 33.0417Z" fill="#E72121"/>
<path d="M31.4917 34.7446C31.4198 34.7287 31.3558 34.7207 31.2839 34.7047C31.1879 34.6567 31.092 34.6167 30.9961 34.5927C30.6123 34.4888 30.1087 34.5368 29.7729 34.7526C29.4371 34.9685 29.1333 35.2963 29.0454 35.704C29.0454 35.736 29.0454 35.76 29.0374 35.784C28.7815 36.2716 28.7815 36.8632 29.0613 37.3429C29.3572 37.8546 29.8608 38.0864 30.4364 38.1264C30.8601 38.1584 31.3638 38.0225 31.7156 37.7826C31.7875 37.7347 31.8515 37.6787 31.9154 37.6307C32.4511 37.3029 32.7229 36.6794 32.643 36.0718C32.563 35.4482 32.1153 34.9205 31.5077 34.7526L31.4917 34.7446Z" fill="#E72121"/>
<path d="M48.2565 20.4022C47.8487 20.2823 47.3451 20.2983 46.9853 20.5461C46.4737 20.8899 46.2578 21.3855 46.3537 21.9931C46.3697 22.0891 46.4097 22.177 46.4577 22.257C46.4577 22.8566 46.5776 23.4562 46.9773 23.8639C47.481 24.3755 48.3444 24.3196 48.8401 23.8319C49.1359 23.5361 49.3198 23.1364 49.3997 22.7286C49.5756 21.7773 49.2878 20.714 48.2645 20.4102L48.2565 20.4022Z" fill="#E72121"/>
<path d="M45.2505 25.8703C44.7229 26.2781 43.8675 26.7497 43.7555 27.4613C43.6916 27.6132 43.6516 27.7731 43.6676 27.9489C43.6996 28.3727 43.9714 28.9003 44.4511 28.9723C44.6749 29.0042 44.8828 29.0522 45.1066 28.9723C45.1626 28.9563 45.2266 28.9243 45.2825 28.9003C45.6183 28.8284 45.9141 28.6365 46.1699 28.3567C46.3538 28.1568 46.5377 27.9569 46.7216 27.7571C47.1293 27.3094 47.1932 26.6618 46.8175 26.1741C46.4897 25.7504 45.7382 25.4946 45.2585 25.8623L45.2505 25.8703Z" fill="#E72121"/>
<path d="M21.9621 39.5496C21.0267 41.5003 22.01 43.6749 24.4484 42.7075C24.9441 42.5076 25.7835 41.6602 26.3432 41.8601C26.7829 42.02 27.2465 42.9793 27.6943 43.2751C28.8535 44.0666 30.2525 44.0746 31.5957 43.8987C34.2819 43.5549 36.7842 42.2518 38.3192 39.9733C39.1666 38.7182 39.0147 37.1112 40.2139 36.2238C41.549 35.2325 43.2119 34.6569 43.2999 32.8101C43.3159 32.4343 43.068 31.9307 42.7083 31.7788C41.4851 31.2591 40.9095 31.491 39.7582 32.1146C38.7189 32.6742 37.3838 33.2418 36.5364 34.1052C35.7369 34.9287 35.6889 35.896 35.4091 36.9354C35.1293 37.9667 34.4737 38.7741 33.6263 39.4137C32.7789 40.0533 31.7156 40.7408 30.6763 41.0046C29.2532 41.3644 28.8455 40.6209 27.8382 39.8934C27.1986 39.4297 26.4551 39.2138 25.6556 39.4217C24.8401 39.6376 23.0813 41.5963 23.0573 39.8294C23.0573 39.2698 22.2179 38.974 21.9461 39.5256L21.9621 39.5496Z" fill="#E72121"/>
<path d="M50.9987 21.9053C52.8615 24.1998 49.6316 25.9586 48.4324 27.4216C47.1933 28.9326 47.4971 30.1638 48.0807 31.8587C48.6083 33.4096 47.665 34.0412 46.4658 34.8087C45.6583 35.3284 44.8508 35.864 44.1393 36.5036C42.6043 37.8787 41.3012 39.6855 40.9654 41.7481C40.8855 42.2118 41.0054 42.8194 41.4931 43.0432C41.581 43.0832 41.6769 43.1232 41.7649 43.1551C42.1087 43.2831 42.6523 43.1551 42.8841 42.8593C44.579 40.7248 45.9541 38.814 48.2166 37.2311C50.1753 35.856 51.8861 33.9932 51.0067 31.4269C50.8548 30.9872 50.3432 30.3637 50.3352 29.908C50.3352 29.2124 50.9748 28.7887 51.4384 28.381C52.2539 27.6455 52.9894 26.91 53.4531 25.8946C54.3485 23.9359 53.7489 21.8573 51.9501 20.6741C51.1586 20.1544 50.4871 21.2577 51.0067 21.8973L50.9987 21.9053Z" fill="#E72121"/>
<path d="M21.93 46.4729C21.8501 46.5369 22.1619 47.3444 22.2658 47.5123C22.5136 47.92 22.8894 48.2398 23.3051 48.4556C24.2884 48.9593 25.3437 48.8394 26.1752 48.1358C26.447 47.904 26.5589 47.4403 26.447 47.1045C26.1912 46.329 25.5676 46.3131 24.88 46.457C24.2485 46.5849 24.1525 46.369 23.8567 45.8494C23.5289 45.2737 23.0173 44.7541 22.2978 44.7861C21.6342 44.818 21.0906 45.2737 20.9467 45.9133C20.8108 46.5209 21.4663 46.8247 21.914 46.4729H21.93Z" fill="#E72121"/>
<path d="M21.3384 49.6386C21.4023 50.1742 21.5942 50.6379 21.9859 51.0217C22.5216 51.5413 23.393 51.5653 23.8727 50.9657C24.1365 50.6379 24.1525 50.2622 23.8727 49.9344C24.0646 50.1583 23.7927 49.8065 23.7688 49.7745C23.5929 49.5427 23.3291 49.3988 23.0572 49.3108C23.0333 49.3108 23.0173 49.3028 22.9933 49.2948C22.9133 49.2629 22.9133 49.2708 22.9933 49.2948C23.0732 49.3268 23.0732 49.3268 22.9933 49.2948C22.9773 49.2868 22.9533 49.2708 22.9373 49.2628C22.8734 49.2149 22.8654 49.2149 22.9213 49.2628C22.9773 49.3108 22.9773 49.3028 22.9213 49.2549C22.9053 49.2389 22.8893 49.2229 22.8734 49.2069C22.9373 49.2948 22.9453 49.3028 22.8893 49.2229C22.6895 48.9271 22.3217 48.7272 21.954 48.8391C21.6342 48.9431 21.3064 49.2708 21.3464 49.6386H21.3384Z" fill="#E72121"/>
<g style="mix-blend-mode:multiply" opacity="0.28">
<path d="M58.4737 20.73C60.3364 24.4795 61.3837 28.7007 61.3837 33.1697C61.3837 48.6394 48.8401 61.1831 33.3704 61.1831C28.9014 61.1831 24.6802 60.1278 20.9307 58.273C25.5116 67.5069 35.0333 73.8546 46.034 73.8546C61.5037 73.8546 74.0473 61.311 74.0473 45.8413C74.0473 34.8406 67.6995 25.3189 58.4657 20.738L58.4737 20.73Z" fill="#B70909"/>
</g>
<g style="mix-blend-mode:multiply" opacity="0.28">
<path d="M64.7494 24.9912C67.0279 29.0445 68.331 33.7134 68.331 38.6941C68.331 54.1638 55.7874 66.7075 40.3177 66.7075C33.1224 66.7075 26.5668 63.9973 21.6101 59.5362C26.4069 68.0745 35.5528 73.8547 46.0419 73.8547C61.5116 73.8547 74.0552 61.311 74.0552 45.8413C74.0552 37.5588 70.4576 30.1238 64.7494 24.9912Z" fill="#B70909"/>
</g>
<g style="mix-blend-mode:overlay" opacity="0.92">
<path d="M65.4611 25.6626C60.4244 20.8098 53.581 17.8198 46.034 17.8198C43.2199 17.8198 40.4937 18.2435 37.9354 19.011C37.7355 19.075 37.5356 19.1389 37.3358 19.2029C37.1759 19.2589 37.016 19.3068 36.8561 19.3628C36.5523 19.4667 36.2565 19.5787 35.9607 19.6906C35.8088 19.7465 35.6569 19.8105 35.505 19.8665C35.2492 19.9704 34.9933 20.0823 34.7375 20.1942C34.5456 20.2822 34.3538 20.3621 34.1619 20.4501C33.97 20.538 33.7781 20.634 33.5783 20.7299C33.4344 20.8018 33.2985 20.8738 33.1546 20.9457C32.8588 21.0976 32.563 21.2575 32.2751 21.4174C32.1552 21.4894 32.0353 21.5533 31.9074 21.6253C31.6036 21.8012 31.2998 21.9851 31.004 22.1769C30.8921 22.2489 30.7801 22.3128 30.6762 22.3848C30.4843 22.5127 30.2925 22.6326 30.1086 22.7685C30.0446 22.8085 29.9807 22.8565 29.9167 22.9044C29.5809 23.1443 29.2452 23.3921 28.9174 23.64C28.8374 23.7039 28.7575 23.7679 28.6695 23.8318C28.3577 24.0797 28.054 24.3275 27.7502 24.5913C27.6782 24.6473 27.6142 24.7112 27.5423 24.7672C26.9827 25.2549 26.447 25.7745 25.9274 26.3022C25.9114 26.3182 25.8874 26.3422 25.8714 26.3581C25.5436 26.7019 25.2158 27.0537 24.904 27.4134C24.8721 27.4534 24.8401 27.4854 24.8081 27.5254C24.4803 27.9011 24.1685 28.2849 23.8647 28.6766C20.1952 33.4174 18.0046 39.3575 18.0046 45.8092C18.0046 54.5474 22.01 62.3502 28.2778 67.4908C22.9853 62.3982 19.6915 55.2429 19.6915 47.3202C19.6915 43.6666 20.403 40.1729 21.6742 36.9751C23.6649 38.3821 26.0873 39.2136 28.7095 39.2136C35.449 39.2136 40.9174 33.7452 40.9174 27.0057C40.9174 24.6793 40.2618 22.5047 39.1266 20.6499C41.8288 19.7785 44.7149 19.3068 47.7049 19.3068C54.4364 19.3068 60.6163 21.6813 65.4451 25.6386L65.4611 25.6626Z" fill="#FFF2C8"/>
</g>
<g style="mix-blend-mode:overlay">
<path d="M42.1885 26.5739C42.1885 28.8603 44.0432 30.7151 46.3297 30.7151C48.6162 30.7151 50.471 28.8603 50.471 26.5739C50.471 24.2874 48.6162 22.4326 46.3297 22.4326C44.0432 22.4326 42.1885 24.2874 42.1885 26.5739Z" fill="#FFF2C8"/>
</g>
<g style="mix-blend-mode:overlay">
<path d="M41.0771 34.5445C41.0771 36.0395 42.2843 37.2467 43.7794 37.2467C45.2744 37.2467 46.4816 36.0395 46.4816 34.5445C46.4816 33.0495 45.2744 31.8423 43.7794 31.8423C42.2843 31.8423 41.0771 33.0495 41.0771 34.5445Z" fill="#FFF2C8"/>
</g>
<g style="mix-blend-mode:lighten" opacity="0.14">
<path d="M61.4556 22.4487C57.0345 19.5307 51.7341 17.8198 46.0419 17.8198C42.1485 17.8198 38.4389 18.6193 35.0652 20.0583C33.9859 20.522 32.9466 21.0497 31.9392 21.6333C31.8353 21.6972 31.7234 21.7532 31.6195 21.8172C31.3716 21.9691 31.1318 22.121 30.8919 22.2809C30.764 22.3608 30.6441 22.4407 30.5162 22.5207C30.2843 22.6726 30.0605 22.8325 29.8366 23.0004C29.7087 23.0883 29.5808 23.1763 29.4529 23.2722C29.229 23.4321 29.0132 23.6 28.8053 23.7679C28.6774 23.8638 28.5495 23.9597 28.4296 24.0637C28.2217 24.2316 28.0139 24.4154 27.806 24.5913C27.6861 24.6952 27.5662 24.7992 27.4462 24.9031C27.2384 25.087 27.0385 25.2709 26.8386 25.4547C26.7267 25.5667 26.6068 25.6706 26.4949 25.7825C26.295 25.9744 26.1031 26.1743 25.9113 26.3661C25.8073 26.4781 25.6954 26.59 25.5915 26.7019C25.3996 26.9098 25.2157 27.1176 25.0238 27.3255C24.9279 27.4374 24.832 27.5493 24.728 27.6613C24.5442 27.8771 24.3603 28.101 24.1844 28.3168C24.0965 28.4288 24.0085 28.5407 23.9206 28.6526C23.7447 28.8845 23.5608 29.1163 23.3929 29.3561C23.313 29.4601 23.241 29.572 23.1611 29.6839C22.9852 29.9318 22.8173 30.1796 22.6494 30.4274C22.5855 30.5314 22.5215 30.6273 22.4576 30.7312C22.2897 30.9951 22.1218 31.2669 21.9539 31.5387C21.9059 31.6266 21.85 31.7146 21.802 31.8025C21.6341 32.0903 21.4662 32.3861 21.3063 32.6819C21.2743 32.7459 21.2424 32.8099 21.2104 32.8658C19.1797 36.7432 18.0205 41.1563 18.0205 45.8412C18.0205 56.0504 23.4809 64.9804 31.6434 69.8732C24.0565 64.8605 19.0438 56.2582 19.0438 46.4808C19.0438 42.2596 19.9872 38.2542 21.6581 34.6646C23.4009 35.9997 25.6234 36.8072 28.0378 36.8072C33.6661 36.8072 38.2311 32.4581 38.2311 27.0937C38.2311 24.7032 37.3197 22.5127 35.8167 20.8258C39.2624 19.3148 43.0598 18.4674 47.0572 18.4674C52.3257 18.4674 57.2424 19.9224 61.4556 22.4487Z" fill="#FFF2C8"/>
</g>
<path style="mix-blend-mode:multiply" d="M72.0077 56.1355C77.8034 41.7907 70.8729 25.4637 56.5282 19.668C42.1834 13.8723 25.8563 20.8028 20.0606 35.1476C14.265 49.4923 21.1954 65.8194 35.5402 71.6151C49.885 77.4108 66.212 70.4803 72.0077 56.1355Z" fill="url(#paint1_linear_172_30349)"/>
<g style="mix-blend-mode:overlay" opacity="0.22">
<path d="M18.0205 38.9658C18.0205 42.4994 18.8919 45.8252 20.4269 48.7592C23.313 50.4861 26.6867 51.4854 30.3003 51.4854C40.9173 51.4854 49.5275 42.8752 49.5275 32.2582C49.5275 26.7339 47.1931 21.7612 43.4676 18.2515C42.0845 17.9637 40.6455 17.8198 39.1824 17.8198C27.5022 17.8198 18.0365 27.2855 18.0365 38.9658H18.0205Z" fill="white"/>
</g>
<g style="mix-blend-mode:overlay" opacity="0.19">
<path d="M32.411 30.8914C34.1242 30.8914 35.513 29.5026 35.513 27.7894C35.513 26.0763 34.1242 24.6875 32.411 24.6875C30.6979 24.6875 29.3091 26.0763 29.3091 27.7894C29.3091 29.5026 30.6979 30.8914 32.411 30.8914Z" fill="white"/>
</g>
<g style="mix-blend-mode:overlay" opacity="0.19">
<path d="M29.3411 29.8841C29.3411 30.3557 29.7248 30.7315 30.1885 30.7315C30.6522 30.7315 31.0359 30.3477 31.0359 29.8841C31.0359 29.4204 30.6522 29.0366 30.1885 29.0366C29.7248 29.0366 29.3411 29.4204 29.3411 29.8841Z" fill="white"/>
</g>
<g style="mix-blend-mode:overlay" opacity="0.19">
<path d="M33.6741 32.6818C34.853 32.6818 35.8087 31.7261 35.8087 30.5472C35.8087 29.3683 34.853 28.4126 33.6741 28.4126C32.4952 28.4126 31.5396 29.3683 31.5396 30.5472C31.5396 31.7261 32.4952 32.6818 33.6741 32.6818Z" fill="white"/>
</g>
<path style="mix-blend-mode:hard-light" opacity="0.17" d="M71.7369 34.113C71.8168 37.4547 71.3051 40.8605 70.1219 44.1943C64.9174 58.8725 48.8001 66.5554 34.1219 61.3508C26.5509 58.6646 20.8507 53.0764 17.8127 46.2809C18.0766 57.6413 25.2398 68.1783 36.5843 72.1996C51.2625 77.4042 67.3798 69.7213 72.5843 55.043C75.1026 47.9358 74.599 40.4927 71.7369 34.105V34.113Z" fill="url(#paint2_linear_172_30349)"/>
<path style="mix-blend-mode:hard-light" opacity="0.17" d="M57.4904 19.9064C59.7849 22.3368 61.6796 25.2149 63.0307 28.4767C68.9787 42.8672 62.1353 59.3602 47.7369 65.3082C40.3178 68.3782 32.3391 68.0344 25.5356 65.0124C33.3305 73.2789 45.6982 76.3249 56.8268 71.728C71.2172 65.7799 78.0687 49.2869 72.1207 34.8965C69.2426 27.9251 63.8781 22.7286 57.4904 19.8984V19.9064Z" fill="url(#paint3_linear_172_30349)"/>
<g style="mix-blend-mode:overlay" opacity="0.19">
<path d="M68.8588 29.604C71.7129 33.9931 73.3758 39.2216 73.3758 44.8499C73.3758 60.3196 60.8321 72.8632 45.3624 72.8632C35.9447 72.8632 27.6142 68.2103 22.5376 61.0871C27.5343 68.7699 36.1925 73.8546 46.034 73.8546C61.5037 73.8546 74.0473 61.3109 74.0473 45.8412C74.0473 39.7892 72.1206 34.185 68.8588 29.604Z" fill="white"/>
</g>
</g>
<defs>
<radialGradient id="paint0_radial_172_30349" cx="0" cy="0" r="1" gradientUnits="userSpaceOnUse" gradientTransform="translate(46.0354 45.6424) scale(45.6176)">
<stop stop-color="#FF0000"/>
<stop offset="0.15" stop-color="#D90000"/>
<stop offset="1"/>
</radialGradient>
<linearGradient id="paint1_linear_172_30349" x1="26.2235" y1="25.8308" x2="65.8451" y2="65.4525" gradientUnits="userSpaceOnUse">
<stop stop-color="#FF0000"/>
<stop offset="1" stop-color="#930005"/>
</linearGradient>
<linearGradient id="paint2_linear_172_30349" x1="43.3463" y1="34.5531" x2="52.61" y2="73.191" gradientUnits="userSpaceOnUse">
<stop offset="0.24" stop-color="white"/>
<stop offset="0.92" stop-color="white"/>
<stop offset="1" stop-color="white"/>
</linearGradient>
<linearGradient id="paint3_linear_172_30349" x1="36.6842" y1="39.2183" x2="69.4105" y2="61.7504" gradientUnits="userSpaceOnUse">
<stop offset="0.24" stop-color="white"/>
<stop offset="0.92" stop-color="white"/>
<stop offset="1" stop-color="white"/>
</linearGradient>
<clipPath id="clip0_172_30349">
<rect width="91.2353" height="91.2353" fill="white" transform="translate(0.41626 0.0239258)"/>
</clipPath>
</defs>
</svg>
