<svg width="92" height="92" viewBox="0 0 92 92" fill="none" xmlns="http://www.w3.org/2000/svg">
<g clip-path="url(#clip0_172_30294)">
<path style="mix-blend-mode:screen" opacity="0.54" d="M46.3455 91.2672C71.5417 91.2672 91.9672 70.8417 91.9672 45.6456C91.9672 20.4494 71.5417 0.0239258 46.3455 0.0239258C21.1494 0.0239258 0.723877 20.4494 0.723877 45.6456C0.723877 70.8417 21.1494 91.2672 46.3455 91.2672Z" fill="url(#paint0_radial_172_30294)"/>
<mask id="mask0_172_30294" style="mask-type:luminance" maskUnits="userSpaceOnUse" x="17" y="16" width="58" height="59">
<path d="M73.0208 56.0042C78.7617 41.2721 71.4728 24.6755 56.7407 18.9346C42.0086 13.1938 25.412 20.4826 19.6711 35.2148C13.9302 49.9469 21.2191 66.5435 35.9512 72.2844C50.6834 78.0252 67.28 70.7364 73.0208 56.0042Z" fill="white"/>
</mask>
<g mask="url(#mask0_172_30294)">
<path d="M73.0208 56.0042C78.7617 41.2721 71.4728 24.6755 56.7407 18.9346C42.0086 13.1938 25.412 20.4826 19.6711 35.2148C13.9302 49.9469 21.2191 66.5435 35.9512 72.2844C50.6834 78.0252 67.28 70.7364 73.0208 56.0042Z" fill="#F1AC5E"/>
<path d="M74.9742 45.6058C74.9742 41.6979 74.1894 37.9662 72.772 34.5708C71.8271 36.8771 70.2174 38.9031 68.0633 40.1764C65.9732 41.4177 63.4747 42.0183 61.6969 43.6759C60.0072 45.2535 59.1904 47.5678 57.6048 49.2415C52.8401 54.2625 43.9432 51.3876 38.0653 55.0313C35.815 56.4247 34.2054 58.6749 31.9712 60.1003C29.3045 61.798 26.0132 62.1664 22.842 61.9342C28.0152 69.3656 36.6078 74.2265 46.3456 74.2265C62.1614 74.2265 74.9742 61.4057 74.9742 45.5978V45.6058Z" fill="#F19B3A"/>
<path d="M47.803 51.2512C49.8771 51.8198 54.2254 51.2912 56.6438 48.5365C59.0622 45.7817 57.5728 43.9719 55.2584 45.1491C52.9361 46.3263 45.5687 50.6426 47.803 51.2592V51.2512Z" fill="#F19B3A"/>
<path d="M11.8871 45.9179C10.9341 47.4795 12.2474 49.1612 13.4406 50.1622C15.1704 51.6196 17.4046 52.1322 19.6308 51.8759C24.788 51.2913 28.3275 46.7508 32.7319 44.4765C35.1023 43.2593 37.4166 43.1472 40.0352 43.3233C43.1424 43.5316 46.0012 43.4835 48.9482 42.4024C51.3586 41.5215 53.6248 40.2723 56.1394 39.6797C58.79 39.0551 61.3206 38.7988 63.6429 37.2533C67.9512 34.3784 70.1694 29.5976 70.6899 24.5606C70.9222 22.2623 71.2345 18.4825 68.3996 17.6096C65.6209 16.7528 64.6999 19.9159 64.732 22.0541C64.8201 26.8509 62.8501 32.0561 57.741 33.2733C55.2345 33.8739 52.9121 34.2983 50.5338 35.3233C47.8431 36.4845 45.4407 37.6937 42.4377 37.6777C39.3145 37.6617 36.2635 37.2533 33.2284 38.2623C30.2254 39.2633 27.6789 41.0811 25.2044 43.003C23.2024 44.5646 21.0402 46.5105 18.4296 46.935C17.5087 47.0871 16.3556 47.0391 15.4667 46.6787C14.4737 46.2703 13.9371 45.5015 12.824 45.3734C12.4556 45.3334 12.0713 45.6136 11.8951 45.9099L11.8871 45.9179Z" fill="#F18913"/>
<path d="M63.7949 34.915C60.1913 34.6267 55.6588 37.3014 53.0081 39.5677C51.2303 41.0812 49.7489 43.0752 47.6508 44.1883C45.3925 45.3815 42.7018 45.1412 40.2914 45.886C35.6067 47.3434 32.4275 50.5226 29.6247 54.3985C28.3034 56.2243 26.95 58.0101 24.956 59.1472C22.8419 60.3484 20.3434 60.8129 17.965 61.1412C15.5787 61.4696 13.1282 61.7098 10.7258 61.5416C9.00408 61.4215 5.83291 60.5326 5.08015 62.863C4.35143 65.1292 7.23431 66.4265 8.91599 66.7709C11.6627 67.3314 14.5456 67.0111 17.2924 66.6748C22.0091 66.0982 26.7739 65.1452 30.4015 61.854C33.909 58.6748 35.5827 53.894 39.8189 51.4836C42.2213 50.1142 44.9601 50.0181 47.5066 49.0812C50.0211 48.1522 51.919 46.3985 53.6728 44.4285C55.4185 42.4746 57.0361 40.929 59.3024 39.5757C61.1122 38.4866 63.0742 37.6057 64.2914 35.8119C64.5557 35.4195 64.1953 34.9711 63.7949 34.939V34.915Z" fill="#F18913"/>
<path d="M16.0191 28.5885C12.8479 31.8638 13.1282 40.1761 19.1903 39.3913C22.2733 38.9909 25.0681 36.6286 27.8309 35.3473C29.3845 34.6266 31.0982 33.9939 32.8359 33.9779C34.4696 33.9619 36.0151 34.5465 37.6087 34.8108C43.6067 35.8038 50.8379 33.1931 56.0271 30.2862C58.6057 28.8448 60.9761 26.7547 62.1533 23.9919C63.4025 21.085 63.2023 17.049 60.7599 14.8067C59.9591 14.07 58.7899 13.6376 57.7088 13.9979C55.3625 14.7827 55.1703 17.073 55.859 19.1391C56.6357 21.4694 56.2514 22.9749 54.1853 24.4804C50.3895 27.2352 44.7999 29.5895 40.1072 29.9979C37.6487 30.2142 35.2864 29.3093 32.8359 29.3893C30.5136 29.4614 28.3034 30.2062 26.2293 31.1911C25.0601 31.7437 23.939 32.4004 22.8259 33.057C21.6727 33.7297 20.3034 34.8108 18.9981 35.1071C17.4605 35.4594 17.5006 34.1141 17.4926 32.8808C17.4846 31.6796 17.7168 30.4944 17.7248 29.2932C17.7328 28.4364 16.6197 27.9719 16.0191 28.5885Z" fill="#F19B3A"/>
<path d="M50.6617 13.2694C48.7799 14.3345 48.6597 17.0172 47.9871 18.867C47.0902 21.3255 45.4806 23.6398 43.6868 25.5297C41.8769 27.4436 39.3624 28.9571 36.8239 29.6698C34.3494 30.3585 31.4665 30.2224 29.1842 31.3996C28.2553 31.88 28.5356 33.2734 29.4645 33.5537C32.1072 34.3385 35.4385 33.3855 38.0651 32.841C41.1963 32.2004 44.1112 31.3755 46.8339 29.6138C51.8709 26.3465 55.0261 20.2444 53.2243 14.3185C52.896 13.2374 51.6627 12.7089 50.6617 13.2774V13.2694Z" fill="#F19B3A"/>
<path d="M78.1292 29.5497C73.3324 43.3795 62.6497 54.8069 48.0511 58.0102C44.2473 58.843 40.3074 58.859 36.5356 59.852C33.1162 60.7489 30.0491 62.5267 26.8379 63.9601C23.4105 65.4816 20.0952 66.1543 16.4595 65.0092C12.896 63.888 9.98904 61.3815 6.47352 60.1163C5.60065 59.8039 4.91997 60.885 5.32838 61.6138C8.21126 66.7469 14.8419 70.3024 20.6877 70.1663C27.1822 70.0142 32.3474 65.5377 38.5296 64.1763C41.8529 63.4476 45.2804 63.3595 48.6117 62.6628C51.6868 62.0222 54.6657 60.9971 57.5246 59.7078C63.1863 57.1533 68.4315 53.2774 72.3234 48.4166C76.7198 42.9311 79.4586 36.829 80.3715 29.854C80.5476 28.5166 78.5296 28.4125 78.1372 29.5497H78.1292Z" fill="#F18913"/>
<path d="M27.9511 72.8648C33.5727 70.4784 39.9951 70.2782 45.9691 69.5174C51.6308 68.7967 57.1163 67.3873 62.2975 64.9529C67.3906 62.5665 72.0993 59.2752 76.0392 55.2632C79.8751 51.3553 83.3585 46.8547 84.3836 41.3933C84.6078 40.1841 83.1664 39.6075 82.4536 40.5765C79.2664 44.9168 76.5918 49.5775 72.7319 53.3893C68.7519 57.3212 64.0112 60.4283 58.878 62.6465C53.6969 64.8808 48.3235 66.09 42.7579 66.8908C37.2084 67.6916 32.0192 68.5645 27.4866 72.072C27.0142 72.4323 27.3985 73.097 27.9511 72.8648Z" fill="#F1AC5E"/>
<path d="M65.7649 43.011C65.2124 42.6346 64.2834 43.2112 63.819 43.5395C63.2904 43.9159 62.4096 44.5805 62.7779 45.3253C63.1063 45.998 63.883 45.7737 64.3875 45.4854C65.1723 45.037 65.9091 44.5005 66.6298 43.9479C67.0062 43.6516 66.7739 43.003 66.3495 42.8989C65.0682 42.5946 63.0502 43.1471 63.0182 44.7487C63.0102 45.3013 63.6748 45.5175 64.0592 45.1811C64.6438 44.6606 65.0923 43.8999 66.0212 44.1161C65.9251 43.7637 65.837 43.4194 65.7409 43.067C65.3325 43.3873 64.9161 43.6836 64.4836 43.9639C64.2434 44.1161 64.0032 44.2682 63.7629 44.4124C63.6909 44.4524 63.6188 44.4924 63.5547 44.5405C63.7309 45.029 63.8991 45.1571 64.0672 44.9329C64.2354 44.8368 64.3875 44.6126 64.5477 44.4844C64.7239 44.3403 64.9241 44.2122 65.1163 44.092C65.4446 43.8758 65.789 43.7637 65.9171 43.3713C65.9651 43.2352 65.885 43.091 65.7729 43.019L65.7649 43.011Z" fill="#F1AC5E"/>
<path d="M62.746 46.5589C62.3696 46.5428 62.0413 46.671 61.793 46.9593C61.4647 47.3356 61.6969 47.8802 62.1854 47.9122C62.7139 47.9523 63.0903 47.4878 63.1303 46.9993C63.1464 46.743 62.9381 46.5188 62.7059 46.4467C62.1053 46.2626 61.1844 46.8632 61.4326 47.5438C61.5127 47.7601 61.7049 47.9523 61.9532 47.9362C62.2094 47.9202 62.3936 47.8481 62.5698 47.664C62.6899 47.5358 62.4977 47.712 62.6338 47.6079C62.6979 47.5759 62.7059 47.5679 62.6579 47.5919C62.7299 47.5759 62.794 47.5438 62.8501 47.4958C62.5618 47.3276 62.2735 47.1675 61.9852 46.9993C61.9852 46.8872 62.0813 46.7991 62.1934 46.7911C62.3696 47.0313 62.5538 47.2636 62.7299 47.5038C62.754 47.4237 62.8661 47.2235 62.9221 47.1835C63.1784 46.9913 63.1063 46.5749 62.754 46.5589H62.746Z" fill="#F1AC5E"/>
<path d="M65.3725 26.5224C64.892 27.0349 64.9401 27.4353 64.7799 28.132C64.5317 29.181 64.1072 30.182 63.5387 31.0949C62.4656 32.8167 60.912 34.122 59.4065 35.4433C59.1823 35.6355 59.4706 35.9638 59.7108 35.8357C61.6888 34.8027 63.4666 33.3292 64.6518 31.4153C65.4045 30.2061 66.6618 27.7716 65.5407 26.5224C65.5006 26.4743 65.4125 26.4743 65.3725 26.5224Z" fill="#F1AC5E"/>
<path d="M56.812 39.0073C54.3536 39.9842 52.9041 41.8421 51.0943 43.692C48.5878 46.2545 45.4807 47.1594 42.3255 48.6249C41.9812 48.7851 42.2374 49.2816 42.5738 49.2095C45.2885 48.6089 48.1474 47.4397 50.3336 45.702C52.7199 43.8041 54.3055 41.0093 57.0202 39.5118C57.2845 39.3676 57.1003 38.8952 56.812 39.0073Z" fill="#F1AC5E"/>
<path d="M28.8959 65.834C31.2423 65.2094 33.3324 63.9361 35.7428 63.3996C38.2253 62.855 40.7638 62.6789 43.2863 62.4787C47.6667 62.1343 52.8639 61.9501 56.3634 58.9632C56.8279 58.5628 56.3314 57.786 55.7788 57.9541C53.3124 58.7069 50.91 59.5477 48.3474 59.9561C45.6487 60.3806 42.91 60.4687 40.1952 60.7409C36.3995 61.1173 30.6897 61.6298 28.2713 65.0172C27.983 65.4256 28.4635 65.9461 28.8959 65.834Z" fill="#F1AC5E"/>
<path d="M65.4125 51.1793C64.0591 51.836 63.1623 53.0051 62.0411 53.9661C61.0321 54.839 59.2543 55.5357 58.6297 56.7449C58.4375 57.1132 58.6858 57.4656 59.0702 57.5136C60.3915 57.6818 61.7849 56.3845 62.7378 55.5917C64.0271 54.5106 64.876 53.1653 65.9731 51.916C66.3254 51.5156 65.893 50.9551 65.4125 51.1873V51.1793Z" fill="#F1AC5E"/>
<path d="M20.2234 36.9571C22.0172 37.9661 23.5948 36.5487 25.0603 35.5237C27.4386 33.866 29.9692 32.3285 32.9401 32.2164C35.759 32.1043 38.5377 32.785 41.3726 32.6408C43.8631 32.5127 46.3215 32.0722 48.5157 30.839C48.9402 30.5988 48.788 29.798 48.2515 29.862C45.6969 30.1663 43.1744 30.7589 40.5878 30.823C38.0252 30.8871 35.4867 30.3025 32.9321 30.4386C30.9221 30.5507 29.0322 31.1753 27.2865 32.1683C25.2204 33.3535 22.826 36.3485 20.3676 36.3565C20.0553 36.3565 19.9271 36.797 20.2074 36.9491L20.2234 36.9571Z" fill="#F1AC5E"/>
<path d="M60.0872 18.5788C60.0872 18.5788 60.0631 18.5628 60.0471 18.5548C59.5506 18.2745 58.934 18.4427 58.6377 18.9232C57.8289 20.2205 57.7648 22.0303 57.0761 23.4397C56.2433 25.1294 55.1782 26.3146 53.897 27.6599C53.4886 28.0843 53.905 28.693 54.4415 28.5969C56.7478 28.1804 58.8779 26.2505 59.8789 24.1844C60.4235 23.0713 61.6567 19.4517 60.0872 18.5788Z" fill="#F18913"/>
<path d="M19.6787 43.6997C19.6787 43.6997 19.6787 43.7478 19.6867 43.7798C19.7268 44.1161 19.967 44.3163 20.3113 44.2523C21.8729 43.972 23.2423 42.6106 24.3874 41.6096C25.2122 40.8809 26.0451 40.2563 27.0301 39.7518C28.0871 39.2152 29.1522 38.983 30.0651 38.2142C30.7618 37.6296 30.1452 36.5886 29.3764 36.5486C27.0701 36.4124 24.5476 38.2703 23.1141 39.952C22.3534 40.8409 21.7528 41.8899 20.8879 42.6907C20.9039 42.6747 19.6467 43.3714 19.6867 43.7077L19.6787 43.6997Z" fill="#F18913"/>
<path d="M72.3475 28.6529C70.7379 30.0223 69.9451 32.3606 68.792 34.1144C67.5507 35.9963 66.0773 37.686 64.6358 39.3997C64.3155 39.7761 64.6118 40.3446 65.1243 40.2325C67.4546 39.704 69.0963 38.2145 70.4897 36.3086C71.8751 34.4187 73.5808 31.5759 73.5728 29.1574C73.5728 28.5008 72.804 28.2605 72.3475 28.6529Z" fill="#F18913"/>
<path d="M36.776 75.1952C38.2975 74.2263 40.5638 74.2103 42.3175 73.914C44.2955 73.5776 46.2895 73.3134 48.2515 72.8809C51.6949 72.1362 55.1384 70.8469 57.6369 68.2603C57.9732 67.908 57.6369 67.2833 57.1484 67.4275C53.3686 68.5646 49.5488 69.4055 45.6729 70.1582C42.1173 70.8549 38.3536 71.1112 35.807 73.938C35.2304 74.5866 35.9752 75.6998 36.776 75.1872V75.1952Z" fill="#F18913"/>
<path d="M16.2993 57.2895C18.9339 58.5388 21.6006 57.738 24.027 56.3366C26.4294 54.9432 29.5525 52.6209 30.4975 49.9142C30.8178 48.9852 29.7367 48.4407 29 48.769C26.8458 49.738 25.4124 52.0603 23.4825 53.4297C21.5766 54.783 19.014 55.9042 16.6516 55.9922C16.011 56.0163 15.6346 56.9772 16.2993 57.2895Z" fill="#F19B3A"/>
<path d="M32.4356 47.8558C33.0922 47.6636 33.7569 47.5676 34.3975 47.3193C35.0141 47.0791 35.7669 46.9429 36.1353 46.3583C36.3595 46.006 36.1993 45.5335 35.863 45.3173C35.1983 44.9009 34.1733 45.2933 33.5246 45.6216C32.8039 45.99 32.3795 46.5746 31.9631 47.2392C31.7709 47.5515 32.0912 47.9599 32.4356 47.8558Z" fill="#F19B3A"/>
<path d="M44.4637 15.7117C42.0292 18.018 41.0042 21.6056 37.5848 22.8309C34.838 23.8158 31.787 23.5196 28.9922 24.3924C27.799 24.7688 25.0763 26.2983 23.827 25.3774C22.9942 24.7608 23.1784 23.4475 22.2574 22.8629C19.9832 21.4054 18.9101 24.921 19.5587 26.5466C20.5678 29.0771 23.3065 29.998 25.845 29.6697C27.6308 29.4375 29.1363 28.6046 30.818 28.0441C32.2995 27.5556 33.837 27.3554 35.3666 27.0831C38.1453 26.5946 40.6679 25.7218 42.6138 23.5756C44.3195 21.7097 46.6178 18.6667 45.6408 16.024C45.4567 15.5356 44.8801 15.3354 44.4717 15.7197L44.4637 15.7117Z" fill="#F19B3A"/>
<path d="M25.2283 23.4076C23.5386 25.1373 24.6917 26.3786 26.8459 26.2104C29.0561 26.0422 31.2663 25.6819 33.4605 25.3936C35.0701 25.1854 36.7598 25.0813 38.2973 24.5447C40.8119 23.6638 43.8149 21.3495 44.0951 18.5067C44.3194 16.1924 42.0131 13.2294 39.6187 14.847C38.7938 15.3996 38.938 16.6088 39.8909 16.9291C40.4195 16.9852 40.7398 17.3055 40.8599 17.8821C41.5806 18.5467 41.5086 19.2194 40.6357 19.9081C40.1712 20.4847 39.4185 21.1093 38.8099 21.5097C37.6727 22.2704 36.4395 22.5187 35.1182 22.7269C33.6367 22.9591 32.1552 23.1513 30.6737 23.3836C30.3534 23.4316 25.6687 24.2164 25.7728 23.7199C25.8369 23.4236 25.4765 23.1673 25.2363 23.4076H25.2283Z" fill="#F18913"/>
<path d="M37.2483 17.6818C36.904 17.8339 36.7518 18.0662 36.4715 18.2744C35.7989 18.7709 35.1102 18.7789 34.3094 18.891C33.1002 19.0672 31.923 19.6117 30.6898 19.4515C30.8259 20.4365 30.954 21.4295 31.0902 22.4145C32.5316 21.9741 41.0681 19.8519 37.5847 16.9611C36.1672 15.7839 34.5416 17.2253 33.2603 17.882C32.2753 18.3865 31.2743 18.8189 30.2093 19.1392C29.1682 19.4515 28.4395 19.4996 27.903 20.5246C27.7028 20.909 27.6948 21.5096 28.0711 21.8059C29.3764 22.863 30.7378 22.2624 32.2033 21.7338C32.908 21.4776 33.6047 21.1893 34.2774 20.8529C34.7578 20.6127 36.0391 19.4435 36.5516 19.4596C36.2073 19.3154 35.8629 19.1713 35.5186 19.0351L35.7668 19.2353C35.6227 18.891 35.4866 18.5466 35.3424 18.2103C35.4545 18.0581 35.5666 17.898 35.6707 17.7458C35.3905 17.866 35.1102 17.9781 34.8299 18.0902C34.3334 18.2904 33.8449 18.4826 33.3484 18.6668C32.3474 19.0351 31.3384 19.3074 30.2894 19.5236C28.4956 19.9 29.1282 22.3184 30.6898 22.4866C31.8109 22.6067 32.7158 22.2624 33.7728 21.942C34.7899 21.6297 35.927 21.6137 36.88 21.1172C38.0091 20.5326 39.3304 18.923 38.0972 17.8019C37.8409 17.5697 37.5526 17.5617 37.2483 17.6898V17.6818Z" fill="#F18913"/>
<path d="M49.4845 17.93C49.1402 19.5236 48.2032 21.0932 48.4355 22.7508C48.4835 23.0872 48.94 23.4395 49.2843 23.3915C51.8469 23.0712 52.4075 20.0361 52.0711 17.922C51.8629 16.6087 49.7568 16.6808 49.4845 17.922V17.93Z" fill="#F18913"/>
<path d="M47.6107 23.7918C47.4586 23.8879 47.2984 23.9679 47.1462 24.064C46.9621 24.1762 46.8339 24.3603 46.6898 24.5125C46.4175 24.7928 46.1452 25.2813 46.1532 25.6897C46.1532 25.994 46.3855 26.1782 46.6738 26.2102C46.906 26.2342 47.1142 26.1301 47.3224 26.034C47.6027 25.9059 47.7709 25.7457 47.9631 25.4975C48.0992 25.3133 48.2433 25.1291 48.2994 24.9049C48.3555 24.6967 48.3715 24.4644 48.3955 24.2482C48.4435 23.8558 47.923 23.6076 47.6187 23.7998L47.6107 23.7918Z" fill="#F18913"/>
<path d="M45.0482 26.8027C44.6318 27.147 44.1833 27.4033 43.7109 27.6515C43.4866 27.7716 43.3425 27.9478 43.1423 28.108C42.9101 28.2921 42.6778 28.3802 42.5497 28.6605C42.4136 28.9648 42.5257 29.2371 42.838 29.3652C43.3425 29.5734 44.2714 29.189 44.6558 28.8767C45.1443 28.4763 45.5607 27.9958 45.9291 27.4833C46.3215 26.9308 45.5047 26.4263 45.0482 26.8027Z" fill="#F18913"/>
<path d="M31.5467 37.4056C31.8511 37.4937 32.1153 37.4056 32.4116 37.3736C32.5638 37.3575 32.7319 37.3656 32.8841 37.3255C33.0282 37.2855 33.1884 37.1974 33.3245 37.1493C34.1814 36.837 34.0052 35.6919 33.1163 35.5958C32.6919 35.5557 32.3716 35.5958 31.9792 35.772C31.6428 35.9161 31.3225 36.0602 31.1383 36.3886C30.9141 36.781 31.1223 37.2855 31.5548 37.4136L31.5467 37.4056Z" fill="#F18913"/>
<path d="M35.2463 36.5885C35.4865 36.5725 35.6707 36.5404 35.8709 36.3883C36.023 36.2682 36.1352 36.124 36.1031 35.9158C36.0391 35.4514 35.4545 35.4353 35.1021 35.5234C34.5255 35.6676 34.6296 36.6205 35.2463 36.5805V36.5885Z" fill="#F18913"/>
<path d="M61.777 27.868C61.5207 27.9001 61.3205 27.9801 61.1364 28.1803C61.0162 28.3085 60.9041 28.4526 60.792 28.5887C60.5838 28.837 60.3596 29.0772 60.3516 29.4216C60.3516 29.7099 60.4717 30.0222 60.7359 30.1663C60.9922 30.3185 61.3606 30.2945 61.6168 30.1423C61.8411 30.0142 61.9772 29.7579 62.1133 29.5417C62.2094 29.3896 62.3135 29.2454 62.3936 29.0852C62.5378 28.805 62.5217 28.5487 62.4657 28.2524C62.4016 27.9321 62.0573 27.828 61.777 27.86V27.868Z" fill="#F18913"/>
<path d="M59.1102 30.2785C58.894 30.3666 58.6137 30.4227 58.4696 30.6149C58.3495 30.775 58.3014 30.9912 58.2293 31.1754C58.1733 31.3356 58.3254 31.5518 58.5016 31.5278C58.6938 31.5038 58.918 31.5038 59.1022 31.4317C59.3264 31.3356 59.4466 31.0873 59.5827 30.8951C59.7829 30.6069 59.4466 30.1504 59.1102 30.2785Z" fill="#F18913"/>
<path d="M59.3025 43.3797C59.1504 43.4117 59.5187 43.3236 59.3666 43.3557C59.2224 43.3797 59.5668 43.3797 59.6388 43.3797C59.9191 43.3797 60.1353 43.2195 60.3756 43.0914C60.3916 43.0914 60.5277 43.0193 60.4396 43.0594C60.5437 43.0113 60.6559 42.9793 60.76 42.9313C61.1043 42.7871 61.3926 42.5549 61.4647 42.1625C61.3205 42.3467 61.1844 42.5309 61.0402 42.715C61.1283 42.651 61.2084 42.5869 61.3045 42.5309C61.9852 42.0824 61.7289 41.0173 60.8881 40.9933C60.784 40.9933 60.6799 40.9933 60.5758 40.9933C60.7279 41.0334 60.8881 41.0814 61.0402 41.1214C60.4076 40.665 59.6949 41.1775 59.2304 41.6099C58.9742 41.8502 58.75 42.1064 58.7419 42.4828C58.7419 42.5469 58.766 42.8912 58.758 42.7471C58.758 42.667 58.758 42.9313 58.758 42.9713C58.774 43.2676 59.0222 43.4518 59.3105 43.3957L59.3025 43.3797Z" fill="#F19B3A"/>
<path d="M45.2964 50.707C44.5196 50.707 43.903 50.8432 43.1583 51.0834C42.838 51.1875 42.5337 51.3076 42.2293 51.4598C41.7969 51.668 41.7569 51.8041 41.4526 52.1645C41.2524 52.4047 41.3965 52.709 41.6928 52.7411C42.1252 52.7971 42.2053 52.8692 42.6378 52.7731C42.9981 52.693 43.3345 52.5729 43.6788 52.4448C44.3595 52.1965 44.928 51.9643 45.5367 51.5639C45.913 51.3236 45.7769 50.707 45.3044 50.707H45.2964Z" fill="#F19B3A"/>
</g>
<g style="mix-blend-mode:multiply" opacity="0.61">
<path d="M67.2545 26.0578C67.8792 28.4122 68.2155 30.8786 68.2155 33.4252C68.2155 49.241 55.3947 62.0538 39.5869 62.0538C31.3306 62.0538 23.8992 58.5543 18.6699 52.9647C21.9212 65.201 33.0763 74.226 46.3376 74.226C62.1534 74.226 74.9663 61.4052 74.9663 45.5974C74.9663 38.0378 72.0353 31.1669 67.2465 26.0498L67.2545 26.0578Z" fill="#F1AC5E"/>
</g>
<g style="mix-blend-mode:multiply" opacity="0.82">
<path d="M65.3806 24.2241C67.9432 28.5164 69.4247 33.5294 69.4247 38.8948C69.4247 54.7106 56.6039 67.5234 40.796 67.5234C33.4847 67.5234 26.814 64.7767 21.761 60.2682C26.758 68.6286 35.8951 74.2342 46.3456 74.2342C62.1614 74.2342 74.9742 61.4133 74.9742 45.6055C74.9742 37.101 71.2665 29.4694 65.3806 24.2241Z" fill="#F1AC5E"/>
</g>
<g style="mix-blend-mode:screen" opacity="0.25">
<path d="M69.1523 28.3C72.2114 32.8566 73.9892 38.334 73.9892 44.2279C73.9892 60.0438 61.1684 72.8566 45.3605 72.8566C36.0472 72.8566 27.7829 68.4121 22.5537 61.5252C27.6949 69.1809 36.4316 74.226 46.3455 74.226C62.1613 74.226 74.9742 61.4051 74.9742 45.5973C74.9742 39.0948 72.804 33.1048 69.1523 28.292V28.3Z" fill="#F1AC5E"/>
</g>
<g style="mix-blend-mode:screen" opacity="0.58">
<path d="M66.9102 25.6978C61.705 20.3244 54.4177 16.9771 46.3456 16.9771C45.3446 16.9771 44.3596 17.0251 43.3907 17.1292C42.8782 17.1853 42.3657 17.2493 41.8692 17.3294C41.725 17.3534 41.5889 17.3775 41.4447 17.4095C41.0844 17.4735 40.724 17.5376 40.3717 17.6097C40.1955 17.6497 40.0273 17.6898 39.8591 17.7298C39.5388 17.8019 39.2185 17.882 38.8982 17.97C38.714 18.0181 38.5378 18.0741 38.3617 18.1222C38.0573 18.2103 37.753 18.3064 37.4487 18.4025C37.2726 18.4585 37.0964 18.5226 36.9202 18.5787C36.6159 18.6828 36.3196 18.7949 36.0233 18.907C35.8551 18.971 35.687 19.0351 35.5188 19.1072C35.2065 19.2353 34.9022 19.3634 34.6059 19.5076C34.4537 19.5716 34.3096 19.6357 34.1574 19.7078C33.8211 19.8679 33.4928 20.0361 33.1644 20.2043C33.0603 20.2603 32.9482 20.3164 32.8441 20.3724C31.9632 20.8449 31.1064 21.3654 30.2816 21.926C30.2255 21.966 30.1775 22.0061 30.1214 22.0381C29.7691 22.2784 29.4247 22.5266 29.0884 22.7829C28.9843 22.8629 28.8882 22.943 28.7841 23.0231C28.4958 23.2473 28.2155 23.4715 27.9352 23.7038C27.8231 23.7999 27.711 23.896 27.5989 24.0001C27.3426 24.2243 27.0784 24.4565 26.8301 24.6888C26.718 24.7929 26.6059 24.905 26.4938 25.0091C26.2455 25.2493 26.0053 25.4896 25.765 25.7378C25.6609 25.8499 25.5568 25.954 25.4527 26.0661C25.2125 26.3224 24.9803 26.5867 24.748 26.8589C24.6599 26.963 24.5638 27.0671 24.4758 27.1713C24.2275 27.4675 23.9873 27.7719 23.747 28.0762C23.683 28.1562 23.6189 28.2363 23.5548 28.3244C23.2585 28.7168 22.9702 29.1092 22.698 29.5176C19.5749 34.1062 17.749 39.6397 17.749 45.6057C17.749 54.1502 21.4968 61.8139 27.4307 67.0592C22.4417 61.91 19.3666 54.887 19.3666 47.1512C19.3666 41.2814 21.1364 35.8279 24.1634 31.2874C26.3496 33.4816 29.3767 34.8429 32.724 34.8429C39.4027 34.8429 44.8161 29.4295 44.8161 22.7508C44.8161 21.3574 44.5759 20.0281 44.1434 18.7789C45.4087 18.6107 46.69 18.5146 47.9953 18.5146C55.2666 18.5146 61.8972 21.2293 66.9503 25.6978H66.9102Z" fill="#F1AC5E"/>
</g>
<g style="mix-blend-mode:screen" opacity="0.25">
<path d="M44.5036 17.041C30.0812 17.9539 18.5576 29.5495 17.7568 44.004C21.1602 47.2472 25.7729 49.2332 30.8419 49.2332C41.3324 49.2332 49.8369 40.7287 49.8369 30.2382C49.8369 25.1131 47.8029 20.4604 44.4956 17.041H44.5036Z" fill="#F1AC5E"/>
</g>
<g style="mix-blend-mode:screen" opacity="0.5">
<path d="M46.4897 24.2562C46.4897 25.6656 47.6349 26.8108 49.0443 26.8108C50.4537 26.8108 51.5989 25.6656 51.5989 24.2562C51.5989 22.8468 50.4537 21.7017 49.0443 21.7017C47.6349 21.7017 46.4897 22.8468 46.4897 24.2562Z" fill="#F1AC5E"/>
</g>
<g style="mix-blend-mode:screen" opacity="0.5">
<path d="M45.0884 30.1421C45.0884 31.047 45.8251 31.7838 46.73 31.7838C47.6349 31.7838 48.3717 31.047 48.3717 30.1421C48.3717 29.2372 47.6349 28.5005 46.73 28.5005C45.8251 28.5005 45.0884 29.2372 45.0884 30.1421Z" fill="#F1AC5E"/>
</g>
<path style="mix-blend-mode:multiply" opacity="0.51" d="M73.0208 56.0042C78.7617 41.2721 71.4728 24.6755 56.7407 18.9346C42.0086 13.1938 25.412 20.4826 19.6711 35.2148C13.9302 49.9469 21.2191 66.5435 35.9512 72.2844C50.6834 78.0252 67.28 70.7364 73.0208 56.0042Z" fill="url(#paint1_linear_172_30294)"/>
<path style="mix-blend-mode:screen" opacity="0.32" d="M72.0834 34.4743C72.1635 37.8217 71.651 41.2331 70.4658 44.5724C65.2525 59.2751 49.1084 66.9708 34.4057 61.7576C26.8221 59.0669 21.1124 53.4693 18.0693 46.6625C18.3336 58.0419 25.5088 68.5965 36.8722 72.6245C51.5749 77.8377 67.719 70.142 72.9322 55.4393C75.4548 48.3202 74.9503 40.8647 72.0834 34.4663V34.4743Z" fill="url(#paint2_linear_172_30294)"/>
<path style="mix-blend-mode:screen" opacity="0.32" d="M57.813 20.2441C60.1113 22.6786 62.0092 25.5615 63.3625 28.8367C69.3205 43.2512 62.4656 59.7717 48.0432 65.7297C40.6117 68.8047 32.6198 68.4604 25.8049 65.4334C33.6127 73.7136 46.0011 76.7647 57.1483 72.1601C71.5627 66.2021 78.4256 49.6816 72.4676 35.2672C69.5847 28.2842 64.2114 23.079 57.813 20.2441Z" fill="url(#paint3_linear_172_30294)"/>
</g>
<defs>
<radialGradient id="paint0_radial_172_30294" cx="0" cy="0" r="1" gradientUnits="userSpaceOnUse" gradientTransform="translate(46.3455 45.6456) scale(45.6217)">
<stop stop-color="#ACFFFB"/>
<stop offset="0.17" stop-color="#7FBCB9"/>
<stop offset="0.33" stop-color="#588381"/>
<stop offset="0.49" stop-color="#385452"/>
<stop offset="0.64" stop-color="#202F2E"/>
<stop offset="0.78" stop-color="#0E1515"/>
<stop offset="0.9" stop-color="#030505"/>
<stop offset="1"/>
</radialGradient>
<linearGradient id="paint1_linear_172_30294" x1="26.1084" y1="25.3681" x2="66.5969" y2="65.8566" gradientUnits="userSpaceOnUse">
<stop stop-color="#FFF100"/>
<stop offset="1" stop-color="#EC8D66"/>
</linearGradient>
<linearGradient id="paint2_linear_172_30294" x1="43.6558" y1="34.9136" x2="52.9425" y2="73.6186" gradientUnits="userSpaceOnUse">
<stop offset="0.24" stop-color="white"/>
<stop offset="0.92" stop-color="white"/>
<stop offset="1" stop-color="white"/>
</linearGradient>
<linearGradient id="paint3_linear_172_30294" x1="36.968" y1="39.5923" x2="69.7563" y2="62.1589" gradientUnits="userSpaceOnUse">
<stop offset="0.24" stop-color="white"/>
<stop offset="0.39" stop-color="#FFFDFB"/>
<stop offset="0.5" stop-color="#FFFAF2"/>
<stop offset="0.6" stop-color="#FFF4E2"/>
<stop offset="0.7" stop-color="#FFECCB"/>
<stop offset="0.78" stop-color="#FFE1AD"/>
<stop offset="0.87" stop-color="#FFD389"/>
<stop offset="0.95" stop-color="#FFC45F"/>
<stop offset="1" stop-color="#FFB940"/>
</linearGradient>
<clipPath id="clip0_172_30294">
<rect width="91.2353" height="91.2353" fill="white" transform="translate(0.723877 0.0239258)"/>
</clipPath>
</defs>
</svg>
