<svg width="93" height="92" viewBox="0 0 93 92" fill="none" xmlns="http://www.w3.org/2000/svg">
<g clip-path="url(#clip0_172_30437)">
<path style="mix-blend-mode:screen" opacity="0.69" d="M46.4217 91.2592C71.6175 91.2592 92.0427 70.8355 92.0427 45.6416C92.0427 20.4476 71.6175 0.0239258 46.4217 0.0239258C21.226 0.0239258 0.800781 20.4476 0.800781 45.6416C0.800781 70.8355 21.226 91.2592 46.4217 91.2592Z" fill="url(#paint0_radial_172_30437)"/>
<mask id="mask0_172_30437" style="mask-type:luminance" maskUnits="userSpaceOnUse" x="18" y="18" width="56" height="56">
<path d="M71.9798 56.0026C77.6575 41.8728 70.8165 25.8113 56.6999 20.1283C42.5834 14.4453 26.537 21.2928 20.8593 35.4226C15.1816 49.5524 22.0227 65.6138 36.1392 71.2968C50.2558 76.9798 66.3022 70.1324 71.9798 56.0026Z" fill="white"/>
</mask>
<g mask="url(#mask0_172_30437)">
<path d="M71.9798 56.0026C77.6575 41.8728 70.8165 25.8113 56.6999 20.1283C42.5834 14.4453 26.537 21.2928 20.8593 35.4226C15.1816 49.5524 22.0227 65.6138 36.1392 71.2968C50.2558 76.9798 66.3022 70.1324 71.9798 56.0026Z" fill="#EEE9FF"/>
<path opacity="0.71" d="M63.9794 27.7775C64.1175 29.18 63.1834 30.4442 62.7755 31.794C62.6506 32.1957 62.5848 32.6632 62.815 33.0122C63.0058 33.3019 63.361 33.4402 63.6899 33.5521C65.624 34.204 67.933 34.8361 68.6632 36.7456C69.0908 37.8518 68.9197 39.2938 69.8539 40.0247C70.8867 40.8346 72.4063 40.1037 73.3536 39.1885C74.314 38.2666 75.1166 37.0946 75.2613 35.7711C75.3994 34.4673 74.8863 33.1965 74.3864 31.985C72.7747 28.0935 71.0972 24.1033 68.1764 21.081C66.1897 19.0266 62.9861 23.1617 61.6572 24.4325C62.7163 25.3412 63.8478 26.3947 63.9794 27.7906V27.7775Z" fill="#C8C6D3"/>
<path opacity="0.71" d="M65.0188 41.0587C65.0714 41.0982 65.1372 41.1114 65.1964 41.1179C67.9593 41.3418 67.1962 35.8569 65.2359 35.1063C64.0254 34.6453 63.0584 35.6857 63.1111 36.8709C63.1703 38.3788 64.6043 39.3928 64.9135 40.8216C64.9333 40.9072 64.953 40.9994 65.0188 41.0521V41.0587Z" fill="#C8C6D3"/>
<path opacity="0.71" d="M68.9329 47.8536C69.1763 48.1302 69.617 48.0775 69.9591 47.9458C71.1366 47.4783 71.9523 46.2141 71.8931 44.9498C71.7944 42.7638 68.9592 40.8345 67.2488 42.7835C66.637 43.4815 66.5449 44.6272 67.1435 45.3383C67.4725 45.7268 67.9593 45.9638 68.2684 46.3655C68.5184 46.6947 68.6303 47.1095 68.7618 47.5046C68.8013 47.6297 68.8473 47.7548 68.9329 47.8536Z" fill="#C8C6D3"/>
<path opacity="0.71" d="M64.8477 54.6624C65.1569 54.8731 65.6503 54.7677 65.8674 55.0706C66.0582 55.334 65.9266 55.7686 66.1897 55.9661C66.42 56.1439 66.7489 55.9661 66.9594 55.7554C67.6304 55.1035 68.0383 54.1817 68.0646 53.2467C68.0646 53.0821 68.0646 52.9109 67.9988 52.7594C67.808 52.3183 67.1831 51.9298 67.1831 51.9298C66.7423 51.6862 66.17 51.7849 65.749 52.0746C65.3345 52.3644 65.0451 52.7989 64.8149 53.2467C64.5715 53.7076 64.4202 54.3726 64.8477 54.6624Z" fill="#C8C6D3"/>
<path opacity="0.71" d="M58.2628 51.936C58.9273 52.2323 59.7167 52.2125 60.3613 51.8833C60.8152 51.6528 61.2099 51.2775 61.7165 51.1919C61.7559 51.1853 61.7954 51.1787 61.8349 51.1787C62.348 51.1392 62.8808 51.3697 63.3808 51.2182C64.0452 51.0141 64.3412 50.1581 64.0913 49.5129C63.4269 47.7548 60.8218 47.7153 59.3877 48.3211C58.2628 48.7951 56.2893 51.0602 58.2628 51.9425V51.936Z" fill="#C8C6D3"/>
<path opacity="0.71" d="M61.4336 53.3058C61.302 53.5099 61.2165 53.7667 61.2955 53.9971C61.3612 54.1815 61.5257 54.3132 61.7033 54.3856C62.2362 54.6029 62.9269 54.2671 63.0782 53.7074C63.2032 53.2465 62.94 52.7329 62.5256 52.5156C62.0783 52.6341 61.677 52.9107 61.4336 53.3058Z" fill="#C8C6D3"/>
<path opacity="0.71" d="M62.2493 52.417C62.3479 52.4302 62.44 52.4697 62.5255 52.5158C62.5716 52.5026 62.6176 52.4828 62.6637 52.4763L62.2427 52.417H62.2493Z" fill="#C8C6D3"/>
<path opacity="0.71" d="M74.018 50.0596C73.347 50.0859 72.7089 50.369 72.1497 50.7509C71.6235 51.1131 71.1301 51.6004 70.9919 52.2259C70.8801 52.7395 71.0182 53.2728 70.9788 53.793C70.8472 55.5116 68.854 56.8219 69.1697 58.5207C69.3079 59.2647 69.867 59.8442 70.4393 60.338C71.0248 60.845 71.7024 61.3389 72.4786 61.385C73.222 61.4245 73.939 61.0426 74.4785 60.5356C75.1889 59.8639 75.6757 58.9619 75.8402 58.0005C75.9718 57.2433 75.906 56.4663 76.0046 55.7091C76.1099 54.8992 76.4059 54.1156 76.4651 53.2992C76.5835 51.7781 75.7284 50.0069 74.018 50.0727V50.0596Z" fill="#C8C6D3"/>
<path opacity="0.71" d="M65.3542 58.0138C64.2556 57.5858 62.8479 57.7109 62.1045 58.6196C61.7295 59.0739 61.5651 59.6599 61.4072 60.2328C61.2362 60.8451 61.0717 61.4575 60.9007 62.0699C60.8349 62.3135 60.7625 62.5703 60.8217 62.8205C60.9928 63.5843 62.0585 63.6436 62.6834 64.1176C63.1505 64.4732 63.3544 65.0856 63.3807 65.665C63.407 66.251 63.2755 66.8305 63.1965 67.4099C63.1307 67.8708 63.1044 68.3778 63.3873 68.7466C63.6504 69.0956 64.1241 69.2272 64.5582 69.1877C64.9924 69.1482 65.4003 68.9639 65.795 68.7795C66.6238 68.3976 67.4593 68.0091 68.1434 67.4033C68.8276 66.7976 69.3407 65.9416 69.321 65.0329C69.3078 64.5061 69.1236 63.9991 68.9329 63.5053C68.0711 61.2205 67.8737 59.0212 65.3542 58.0138Z" fill="#C8C6D3"/>
<path opacity="0.71" d="M59.3284 57.408C59.1706 57.3224 58.9798 57.3356 58.8022 57.3685C57.7562 57.5595 56.8155 58.1192 55.9077 58.6723L56.2958 58.534C55.9472 58.6986 55.638 58.9488 55.4472 59.278C55.1512 59.785 55.1512 60.4698 55.513 60.9242C55.8748 61.3785 56.6116 61.5234 57.0721 61.1678C57.3747 60.9373 57.5194 60.562 57.7496 60.2525C58.072 59.8245 58.5522 59.5546 58.9469 59.199C59.3416 58.8435 59.6837 58.3299 59.5784 57.8031C59.5455 57.6385 59.46 57.4805 59.3153 57.4014L59.3284 57.408Z" fill="#C8C6D3"/>
<path opacity="0.71" d="M45.7968 24.1166C45.9876 24.0968 46.185 24.0639 46.3692 24.1298C46.8954 24.3076 46.9217 25.045 47.277 25.473C47.6454 25.9142 48.3427 25.9405 48.8492 25.6837C51.3687 24.38 49.1847 21.1338 47.027 20.9692C44.843 20.8046 42.0274 24.5117 45.8034 24.1232L45.7968 24.1166Z" fill="#C8C6D3"/>
<path opacity="0.71" d="M41.6788 37.371C42.3695 36.7521 42.9879 36.0541 43.5207 35.2903C43.9483 34.678 44.3298 33.9932 44.3364 33.2425C44.3496 31.9717 43.3102 30.9577 42.2708 30.2334C41.3762 29.6079 40.3631 29.0613 39.2711 29.0679C38.5606 29.0679 37.883 29.3116 37.1857 29.4564C36.0345 29.6935 34.8438 29.6671 33.686 29.891C32.8835 30.0424 32.0678 30.3585 31.456 30.8787C29.4956 31.8532 27.8642 33.4862 26.9366 35.4747C26.5354 36.3373 26.2657 37.3315 26.588 38.227C27.1932 39.8797 29.4627 40.3209 30.3113 41.8683C31.0547 43.2247 30.5219 45.1144 31.5481 46.2667C32.548 47.3795 34.3439 47.0832 35.7582 46.5894C37.7449 45.8914 39.896 44.6799 40.2644 42.6057C40.5078 41.223 39.896 39.669 40.6196 38.4641C40.8828 38.0295 41.2906 37.7003 41.6722 37.3644L41.6788 37.371Z" fill="#C8C6D3"/>
<path opacity="0.71" d="M33.0611 25.9536C32.4362 26.2367 31.9888 26.9018 32.0086 27.5866C32.798 27.5602 33.5874 27.5273 34.3768 27.501C34.6004 27.4944 34.8373 27.4812 35.0412 27.3759C35.5017 27.1257 35.5543 26.4145 35.2254 26.0129C34.8965 25.6046 34.311 25.4861 33.7913 25.5783C33.2782 25.6705 32.8111 25.9339 32.3572 26.1972L33.0611 25.9602V25.9536Z" fill="#C8C6D3"/>
<path opacity="0.71" d="M27.2524 30.5165C27.134 30.9247 27.3906 31.4581 27.8116 31.4581C28.0418 31.4581 28.2458 31.3066 28.43 31.1618C28.9036 30.7864 29.3707 30.4111 29.8443 30.0358C29.9956 29.9173 30.1535 29.7856 30.193 29.6012C30.2456 29.3576 30.0614 29.1008 29.8246 29.0152C29.5878 28.9296 29.3246 28.9757 29.0878 29.0547C28.4102 29.2983 27.8905 29.8383 27.3972 30.365L28.0484 29.5485C27.7195 29.8119 27.3709 30.1082 27.259 30.5165H27.2524Z" fill="#C8C6D3"/>
<path opacity="0.71" d="M62.2427 45.0093C63.2031 45.0093 63.2031 43.5146 62.2427 43.5146C61.2822 43.5146 61.2822 45.0093 62.2427 45.0093Z" fill="#C8C6D3"/>
<path opacity="0.71" d="M62.3546 41.8817C63.5913 41.8817 63.5913 39.959 62.3546 39.959C61.1178 39.959 61.1178 41.8817 62.3546 41.8817Z" fill="#C8C6D3"/>
<path opacity="0.71" d="M57.7168 46.4711C59.3745 45.4505 60.6047 43.857 60.0784 41.7039C59.7889 40.5055 58.8088 39.4059 57.4931 39.9656C56.184 40.5253 55.888 42.0002 55.8156 43.2447C55.7498 44.3114 55.3288 44.5484 54.6381 45.2595C54.2434 45.6678 53.8487 46.1287 53.7171 46.7015C53.4737 47.7551 54.171 48.9008 55.342 48.7427C56.3748 48.5979 57.1116 47.439 57.7168 46.4711Z" fill="#C8C6D3"/>
<path opacity="0.71" d="M60.039 54.4052C59.414 54.1353 58.5523 53.8587 57.8089 53.9575C57.7234 53.9575 57.6313 53.9575 57.5392 53.9575C56.7695 54.0167 55.8749 54.4381 55.8354 55.3271C55.8025 56.104 56.4604 56.6901 57.2169 56.6901C57.5918 56.6901 57.8944 56.5254 58.2431 56.3938C58.6773 56.2291 59.1114 56.137 59.5719 56.1172C60.3942 56.0777 60.9402 54.7871 60.039 54.3986V54.4052Z" fill="#C8C6D3"/>
<path opacity="0.71" d="M55.9999 53.095C56.1775 53.0555 56.3485 52.9567 56.4669 52.8118C56.8485 52.4563 56.5788 51.7122 56.013 51.7188C55.6512 51.7188 55.296 51.9427 55.2302 52.318C55.1447 52.7987 55.5065 53.1871 55.9999 53.0884V53.095Z" fill="#C8C6D3"/>
<path opacity="0.71" d="M46.6191 40.8543C47.3362 39.9457 48.29 38.958 47.8361 37.7069C47.402 36.5085 45.9218 36.232 44.8693 36.7258C43.8233 37.2197 42.9353 38.3193 42.6195 39.4255C42.5603 39.6296 42.5471 39.8337 42.5537 40.0378C42.5142 40.1432 42.4813 40.2485 42.4616 40.3539C42.2643 41.3152 42.6919 42.3951 43.7247 42.6387C45.0732 42.9548 45.9021 41.763 46.6191 40.8543Z" fill="#C8C6D3"/>
<path opacity="0.71" d="M42.4812 45.47C42.5668 45.4042 42.6325 45.3252 42.6852 45.233C42.6983 45.2066 42.7049 45.1935 42.7115 45.1737C43.0009 44.9432 43.0799 44.5613 43.0141 44.1531C42.9352 43.7185 42.3563 43.4025 41.9484 43.5473C41.3103 43.7778 40.7775 44.3441 40.9748 45.0684C41.1656 45.7597 41.9813 45.898 42.4878 45.47H42.4812Z" fill="#C8C6D3"/>
<path opacity="0.71" d="M49.4544 42.6387C49.1452 41.9868 48.3558 41.7827 47.7308 42.0856C46.9875 42.4411 46.527 43.2181 45.9942 43.8107C45.9152 43.8963 45.8297 43.9753 45.7442 44.0544C45.731 44.0544 45.7113 44.0544 45.6981 44.0544C44.4811 44.2848 42.8892 46.2141 44.6193 47.0042C45.4942 47.4059 46.2244 46.8199 46.8954 46.3128C47.5861 45.7861 48.4084 45.2922 48.9939 44.6404C49.4807 44.0939 49.7899 43.3432 49.461 42.6387H49.4544Z" fill="#C8C6D3"/>
<path opacity="0.71" d="M23.3185 27.7049C25.1144 28.4227 27.2392 28.7124 28.9759 27.6523C30.3969 26.7831 31.9822 24.8604 32.0678 23.1024C32.6861 22.2003 32.8374 21.1599 31.8704 20.0998C31.4033 19.5796 30.3574 19.6455 30.0022 20.2908C29.489 20.3368 28.943 20.5936 28.522 20.9426C26.8445 22.3254 25.2986 23.8925 23.7856 25.4662C23.4698 25.6308 23.2593 25.8942 23.1672 26.2037C23.0291 26.5 23.0225 26.8292 23.1278 27.1189C22.983 27.3099 23.0291 27.5996 23.3185 27.7181V27.7049Z" fill="#C8C6D3"/>
<path opacity="0.71" d="M29.2193 46.4577C29.1338 46.0034 29.0351 45.549 29.0154 45.0881C29.0088 44.8247 29.022 44.5482 28.9562 44.2914C28.7391 43.4881 27.7129 43.1325 26.9103 43.3498C26.8051 43.3761 26.6998 43.4156 26.6011 43.4552C26.2262 43.3498 25.8907 43.7054 25.6736 44.0544C25.4039 44.2848 25.1539 44.5416 24.9171 44.7984L25.5091 44.3375C25.1802 44.9169 24.8645 45.5161 24.7987 46.1812C24.7263 46.912 25.0487 47.7351 25.7262 48.0117C25.7789 48.0314 25.8315 48.038 25.8841 48.0512C26.0486 48.9796 26.6011 49.9212 27.3971 50.3228C27.4958 50.7311 27.8773 51.0669 28.3444 50.9088C28.8181 50.7442 29.147 50.4743 29.3377 50.1121C29.693 49.7961 29.9166 49.3417 29.9758 48.8413C30.0811 47.9195 29.6075 47.3071 29.2457 46.5104C29.2391 46.4906 29.2325 46.4709 29.2259 46.4511L29.2193 46.4577Z" fill="#C8C6D3"/>
<path opacity="0.71" d="M45.7112 33.1174C45.9612 33.8285 47.0795 34.1446 47.4611 33.3478C47.6979 32.854 47.7637 32.3404 47.6387 31.8202C47.6387 31.7873 47.6321 31.7544 47.6321 31.7149C47.7637 30.9247 47.54 30.0819 46.7835 29.6671C46.0007 29.2391 45.1323 29.8646 45.1784 30.7206C45.1981 31.0828 45.3823 31.412 45.5468 31.7215C45.5862 31.8005 45.6389 31.8795 45.6783 31.9651C45.6652 32.0375 45.6652 32.11 45.6586 32.1429C45.606 32.4721 45.5994 32.7882 45.7112 33.1108V33.1174Z" fill="#C8C6D3"/>
<path opacity="0.71" d="M25.2066 49.9939C24.3514 49.4079 23.3844 49.9413 23.0357 50.817C22.6476 51.7849 22.6871 52.8977 23.0094 53.9578C23.141 55.5974 23.8185 57.1711 25.3973 57.6649C26.2986 57.9415 27.4432 57.5398 27.7656 56.5916C28.2195 55.255 26.8643 54.3858 26.2788 53.385C25.6539 52.3117 26.3644 50.7907 25.2066 50.0005V49.9939Z" fill="#C8C6D3"/>
<path opacity="0.71" d="M22.8581 49.1114C23.6146 49.2101 24.2659 48.6636 24.3777 47.9261C24.4303 47.5706 24.3645 47.2084 24.1606 46.9055C23.9698 46.6158 23.6606 46.4315 23.6475 46.0561C23.6146 45.4438 22.7989 44.9763 22.3384 45.5162C21.9569 45.9639 21.6411 46.4512 21.5029 47.0241C21.378 47.5574 21.4108 48.3476 21.9371 48.6439C21.9766 48.6702 22.0161 48.6768 22.0621 48.69C22.2726 48.9072 22.5555 49.0653 22.8581 49.1048V49.1114Z" fill="#C8C6D3"/>
<path opacity="0.71" d="M24.1934 42.6522C23.9171 42.6917 23.8053 42.9024 23.7066 43.1328C23.6014 43.3896 23.7987 43.7057 24.0356 43.8045C24.3053 43.9164 24.5816 43.811 24.746 43.574C24.8973 43.3501 24.8907 43.1263 24.7723 42.8892C24.6671 42.6653 24.4105 42.6258 24.1934 42.6522Z" fill="#C8C6D3"/>
<path opacity="0.71" d="M23.437 39.544C23.7198 37.1011 21.5819 35.264 19.8781 33.8813C19.411 33.4994 18.6808 33.9669 19.0097 34.5529C19.0229 34.5792 19.0426 34.6056 19.0623 34.6385C18.4637 34.6714 17.8717 35.0994 17.9572 35.7644C17.9966 36.041 18.023 36.311 18.0427 36.5809C17.4309 38.0361 16.9046 39.5045 16.5494 41.065C16.4113 41.6774 16.7402 42.0856 17.1678 42.2173C16.8257 43.8766 16.8389 45.5359 17.0625 47.2215C17.0757 47.3335 17.0888 47.4388 17.102 47.5376C17.3059 48.9072 19.3123 48.4594 19.3913 47.2281C19.536 45.0618 20.5491 43.9622 21.9108 42.4214C22.641 41.5918 23.2988 40.6765 23.4304 39.544H23.437Z" fill="#C8C6D3"/>
<path opacity="0.71" d="M21.0754 33.2099C22.0358 33.684 22.8844 34.3424 23.5159 35.2182C23.8712 35.6857 24.45 35.9293 24.9961 35.6067C25.0092 35.6001 25.0224 35.5869 25.0355 35.5737C25.1671 35.5342 25.2921 35.4815 25.3908 35.4025C25.8183 35.0667 25.8776 34.5531 25.6539 34.0725C25.5421 33.8288 25.3842 33.6181 25.2131 33.4272C24.2395 32.0444 22.7068 30.1547 21.0754 31.353C20.4833 31.7876 20.2859 32.8148 21.0754 33.2099Z" fill="#C8C6D3"/>
<path opacity="0.71" d="M25.371 29.5949C25.2987 29.641 25.2329 29.6936 25.1671 29.7463C25.1408 29.7595 25.1145 29.7661 25.0947 29.7792C24.904 29.8978 24.7921 30.069 24.7527 30.2599C24.6803 30.4179 24.6474 30.5957 24.6671 30.7933C24.6737 30.8723 24.6935 30.9447 24.7263 31.0106C24.7329 31.0566 24.7395 31.1027 24.7461 31.1422C24.825 31.4056 25.1276 31.6097 25.4039 31.5176C25.7789 31.3925 26.1341 31.2081 26.2788 30.813C26.3578 30.6023 26.3512 30.3719 26.2788 30.1612C26.292 29.7134 25.8052 29.292 25.371 29.5817V29.5949Z" fill="#C8C6D3"/>
<path opacity="0.71" d="M26.3578 41.5456C26.9696 41.3678 27.1011 40.6962 26.8972 40.1629C26.667 39.5571 26.1144 39.0171 25.7263 38.5036C25.2789 37.9044 24.3053 38.2336 24.4829 39.0303C24.5487 39.3135 24.6277 39.5307 24.8513 39.7019C24.7921 40.6699 25.325 41.8419 26.3644 41.5456H26.3578Z" fill="#C8C6D3"/>
<path opacity="0.71" d="M68.7356 49.1048C68.7356 48.4463 68.2751 48.0381 67.7291 47.7616C67.1699 47.4718 66.6963 47.1624 66.3477 46.6224C65.9201 45.9706 64.953 46.2405 64.907 47.0109C64.8675 47.7813 65.2293 48.5188 65.7951 49.0324C66.2556 49.4538 66.9002 49.9015 67.5318 49.7633C67.6896 49.7962 67.8541 49.8093 68.0317 49.8028C68.4067 49.783 68.729 49.4999 68.729 49.1048H68.7356Z" fill="#C8C6D3"/>
<path opacity="0.71" d="M76.5243 44.6142C76.6624 44.4627 76.7545 44.2652 76.7611 44.015C76.7808 43.4355 76.7216 42.8759 76.6032 42.3096C76.544 42.0133 76.3598 41.8223 76.1296 41.7236C76.1033 41.638 76.0835 41.5589 76.0572 41.4733C75.8993 40.94 75.4454 40.7556 75.0244 40.8281C74.7218 40.6832 74.3468 40.6964 74.064 40.9729C73.8929 40.9005 73.6824 40.9071 73.4982 41.0849C72.6233 41.9277 72.722 43.3631 72.9654 44.4693C73.2154 45.5755 73.9258 46.6027 75.0836 46.8529C75.6494 46.9714 76.2546 46.4842 76.0638 45.8718C76.0572 45.8455 76.0441 45.8126 76.0309 45.7862C76.0901 45.7533 76.1427 45.7138 76.2019 45.6809C76.5374 45.4767 76.669 45.0092 76.5177 44.6668C76.5177 44.6471 76.5243 44.6339 76.5309 44.6142H76.5243Z" fill="#C8C6D3"/>
<path opacity="0.71" d="M48.1585 61.1217C47.7046 60.1933 47.3362 59.0673 46.3363 58.5801C45.6324 58.2311 44.7377 58.3233 44.1983 58.9225C43.6983 59.4756 43.6128 60.1801 43.7576 60.911C43.5865 61.5958 43.626 62.3399 43.9023 63.0642C44.468 64.5786 45.8955 65.5663 47.4546 65.7902C48.5466 66.6659 50.2241 67.1532 51.1779 66.047C51.8358 65.2897 51.2964 64.1572 50.7109 63.5382C49.8491 62.6362 48.7374 62.3069 48.1585 61.1283V61.1217Z" fill="#C8C6D3"/>
<path opacity="0.71" d="M48.8689 59.0012C47.9677 59.2514 48.0664 60.4498 48.6453 60.97C48.9281 61.2268 49.3623 61.4112 49.7438 61.3058C50.1583 61.1939 50.4346 60.7264 50.4346 60.3115C50.4346 59.7848 50.0464 59.2185 49.5399 59.1C49.3623 58.9749 49.1452 58.9222 48.8689 59.0012Z" fill="#C8C6D3"/>
<path opacity="0.71" d="M41.7971 60.1802C41.409 60.2658 41.113 60.6148 41.0801 61.023C41.034 61.5959 41.4156 62.0634 41.9418 62.2346C42.1589 62.3004 42.4813 62.2346 42.626 62.0502C42.9944 61.5893 43.1325 61.0757 42.9944 60.4963C42.8628 59.9432 42.1786 59.8312 41.7905 60.1802H41.7971Z" fill="#C8C6D3"/>
<g style="mix-blend-mode:multiply" opacity="0.43">
<path d="M51.9936 38.7673C55.6709 32.4725 51.2831 22.2072 43.7509 21.7463C40.613 21.5554 38.0212 23.0171 35.6201 24.8015C33.9426 25.6904 32.3967 26.8559 31.1665 28.074C27.476 31.7153 23.5948 37.9772 24.7658 43.3765C26.1867 49.9281 33.7847 51.752 39.179 48.9207C41.4945 47.7091 43.2181 45.7008 45.2574 44.114C47.5137 42.3559 50.4872 41.3616 52.0002 38.7673H51.9936Z" fill="#E2E0E2"/>
<path d="M64.1899 39.4587C59.5784 39.4456 57.776 43.1131 56.4735 46.8137C55.2433 47.9989 53.9539 49.1051 52.6054 50.0006C49.3754 52.1537 45.4087 53.9908 44.5074 58.1588C43.3102 63.6964 48.29 67.0084 53.2435 66.5278C57.6312 66.1063 61.4599 63.433 64.7161 60.628C67.9066 57.8823 70.2683 54.2081 70.9327 50.0269C71.6892 45.2992 69.8933 39.4719 64.1833 39.4521L64.1899 39.4587Z" fill="#E2E0E2"/>
</g>
</g>
<g style="mix-blend-mode:multiply" opacity="0.46">
<path d="M60.927 55.65C60.0389 56.9077 59.1113 58.139 58.3877 59.5217C56.9339 62.2872 56.0458 65.3227 54.5394 68.0619C53.4671 70.0109 52.0725 71.7558 50.2174 73.0134C63.6373 71.1632 73.9719 59.6468 73.9719 45.7074C73.9719 30.4773 61.6374 18.1313 46.4217 18.1313C44.139 18.1313 41.9287 18.4145 39.8104 18.9347C39.4355 20.2318 39.271 21.5421 39.3368 22.6813C39.5473 26.2698 41.7182 29.3909 44.9218 30.9844C47.5137 32.2815 50.0858 31.8008 52.8093 32.2486C55.3156 32.6568 57.743 33.4931 59.6968 35.1655C64.5516 39.3204 65.6239 45.9378 63.2425 51.7191C62.6505 53.1545 61.8085 54.4121 60.9335 55.65H60.927Z" fill="#E2E0E2"/>
</g>
<g style="mix-blend-mode:multiply" opacity="0.46">
<path d="M38.1659 68.5621C35.2517 65.2698 33.4492 60.6673 34.5939 56.4202C35.6004 52.6802 38.7185 49.6908 39.2579 45.8521C39.6526 43.0207 38.4554 40.0182 36.2187 38.2469C34.6531 37.0024 32.6598 36.3506 31.1863 35.0007C28.8181 32.8344 28.2457 29.18 29.1536 26.105C29.4496 25.1108 29.8838 24.1692 30.4035 23.2803C23.4238 28.2845 18.8716 36.4625 18.8716 45.7072C18.8716 59.989 29.7193 71.7359 43.6194 73.1384C41.6261 71.8149 39.7513 70.3465 38.1659 68.5555V68.5621Z" fill="#E2E0E2"/>
</g>
<g style="mix-blend-mode:multiply" opacity="0.14">
<path d="M61.2691 22.4902C61.6244 24.2549 61.8085 26.0722 61.8085 27.9422C61.8085 43.1723 49.4741 55.5183 34.2584 55.5183C28.7852 55.5183 23.6935 53.9182 19.411 51.1659C21.9371 63.7818 33.0677 73.2899 46.4152 73.2899C61.6309 73.2899 73.9654 60.9439 73.9654 45.7139C73.9654 35.9622 68.9 27.3957 61.2691 22.4968V22.4902Z" fill="#E2E0E2"/>
</g>
<g style="mix-blend-mode:multiply" opacity="0.67">
<path d="M66.8542 27.218C68.5843 30.8263 69.5579 34.8692 69.5579 39.136C69.5579 54.366 57.2234 66.712 42.0077 66.712C33.9032 66.712 26.6143 63.2091 21.5687 57.6254C26.0091 66.8832 35.4688 73.2768 46.4152 73.2768C61.6309 73.2768 73.9654 60.9308 73.9654 45.7008C73.9654 38.5895 71.2748 32.1037 66.8542 27.2114V27.218Z" fill="#E2E0E2"/>
</g>
<g style="mix-blend-mode:overlay" opacity="0.65">
<path d="M46.4218 18.1313C44.843 18.1313 43.3036 18.2696 41.7972 18.5264C41.7117 18.5396 41.6262 18.5593 41.5472 18.5725C41.0802 18.6581 40.6197 18.7503 40.1592 18.8556C40.0802 18.8754 40.0013 18.8886 39.9289 18.9083C38.337 19.2968 36.7976 19.817 35.3241 20.4689C35.2451 20.5018 35.1728 20.5413 35.0938 20.5742C34.6794 20.7652 34.265 20.9627 33.8571 21.1734C33.7848 21.2129 33.7124 21.2458 33.64 21.2853C32.6862 21.7858 31.7652 22.3389 30.8771 22.9446C30.4495 23.2344 30.0351 23.5438 29.6272 23.8599C29.5549 23.9126 29.4891 23.9652 29.4233 24.0245C29.0746 24.3011 28.726 24.5842 28.3905 24.8805C28.3247 24.9398 28.2589 24.9924 28.1931 25.0517C27.3906 25.7562 26.6341 26.5135 25.9236 27.3036C25.5815 27.6855 25.2526 28.0806 24.9303 28.4822C24.8777 28.5547 24.8184 28.6205 24.7658 28.6929C24.4895 29.0419 24.2264 29.4041 23.9633 29.7662C23.9106 29.8386 23.8646 29.9111 23.812 29.9769C23.2002 30.8527 22.6344 31.7679 22.1279 32.7161C20.0557 36.5878 18.8848 41.006 18.8848 45.7074C18.8848 52.8516 21.6016 59.3571 26.0486 64.256C22.4042 59.581 20.2333 53.7076 20.2333 47.3206C20.2333 42.5007 21.4701 37.9705 23.6409 34.033C25.8184 35.6528 28.5089 36.6141 31.4297 36.6141C38.6462 36.6141 44.5009 30.7539 44.5009 23.5307C44.5009 22.3125 44.3299 21.1339 44.0207 20.0145C45.2508 19.8433 46.5073 19.7511 47.7835 19.7511C55.8617 19.7511 63.1242 23.2278 68.1633 28.772C63.1242 22.2994 55.2631 18.1313 46.4349 18.1313H46.4218Z" fill="#F0DDF1"/>
</g>
<g style="mix-blend-mode:screen" opacity="0.22">
<path d="M19.3254 40.7426C22.9106 45.2925 28.4628 48.2161 34.6991 48.2161C45.5139 48.2161 54.2829 39.4389 54.2829 28.6139C54.2829 24.9661 53.2829 21.5487 51.5462 18.6186C49.8819 18.3025 48.1716 18.1313 46.4217 18.1313C32.9032 18.1313 21.6673 27.883 19.3254 40.7361V40.7426Z" fill="#F0DDF1"/>
</g>
<path style="mix-blend-mode:multiply" d="M46.4218 73.1516C61.6373 73.1516 73.9719 60.8054 73.9719 45.5755C73.9719 30.3457 61.6373 17.9995 46.4218 17.9995C31.2062 17.9995 18.8716 30.3457 18.8716 45.5755C18.8716 60.8054 31.2062 73.1516 46.4218 73.1516Z" fill="url(#paint1_linear_172_30437)"/>
<path style="mix-blend-mode:color-dodge" opacity="0.68" d="M38.7126 45.0377C45.2585 43.9812 49.7094 37.8133 48.6538 31.2612C47.5983 24.7092 41.4362 20.2542 34.8903 21.3107C28.3443 22.3672 23.8935 28.5351 24.949 35.0872C26.0045 41.6392 32.1667 46.0942 38.7126 45.0377Z" fill="url(#paint2_radial_172_30437)"/>
<path style="mix-blend-mode:screen" opacity="0.29" d="M71.4919 34.4414C71.5708 37.7008 71.0709 41.0325 69.9197 44.2853C64.8412 58.6198 49.1123 66.1196 34.7912 61.0363C27.4037 58.4157 21.845 52.9571 18.8782 46.3199C19.1413 57.4083 26.1209 67.7065 37.1923 71.6374C51.5134 76.7207 67.2423 69.2209 72.3208 54.8864C74.7811 47.9397 74.2811 40.6704 71.4985 34.4414H71.4919Z" fill="url(#paint3_linear_172_30437)"/>
<path style="mix-blend-mode:screen" opacity="0.22" d="M57.5918 20.5679C59.8285 22.9383 61.6836 25.7499 62.9993 28.9434C68.8014 43.0014 62.1243 59.1072 48.0795 64.9147C40.8368 67.9107 33.0546 67.5749 26.417 64.6316C34.0216 72.7042 46.0929 75.6804 56.9472 71.1898C70.992 65.3822 77.669 49.2764 71.8669 35.2185C69.0579 28.4101 63.8281 23.34 57.5918 20.5679Z" fill="url(#paint4_linear_172_30437)"/>
<path style="mix-blend-mode:multiply" opacity="0.81" d="M46.4218 73.1516C61.6373 73.1516 73.9719 60.8054 73.9719 45.5755C73.9719 30.3457 61.6373 17.9995 46.4218 17.9995C31.2062 17.9995 18.8716 30.3457 18.8716 45.5755C18.8716 60.8054 31.2062 73.1516 46.4218 73.1516Z" fill="url(#paint5_linear_172_30437)"/>
</g>
<defs>
<radialGradient id="paint0_radial_172_30437" cx="0" cy="0" r="1" gradientUnits="userSpaceOnUse" gradientTransform="translate(46.3757 45.6416) scale(45.5749 45.6176)">
<stop stop-color="#AAFDF9"/>
<stop offset="0.23" stop-color="#77B1AE"/>
<stop offset="0.43" stop-color="#4D7270"/>
<stop offset="0.62" stop-color="#2B4140"/>
<stop offset="0.78" stop-color="#131D1D"/>
<stop offset="0.91" stop-color="#050707"/>
<stop offset="1"/>
</radialGradient>
<linearGradient id="paint1_linear_172_30437" x1="26.9432" y1="26.0787" x2="65.9368" y2="65.0358" gradientUnits="userSpaceOnUse">
<stop stop-color="white"/>
<stop offset="0.03" stop-color="#F9F9F9"/>
<stop offset="0.25" stop-color="#CDD2D2"/>
<stop offset="0.46" stop-color="#AAB3B3"/>
<stop offset="0.66" stop-color="#929D9D"/>
<stop offset="0.85" stop-color="#838F8F"/>
<stop offset="1" stop-color="#7E8B8B"/>
</linearGradient>
<radialGradient id="paint2_radial_172_30437" cx="0" cy="0" r="1" gradientUnits="userSpaceOnUse" gradientTransform="translate(36.8069 33.1737) scale(12.0055 12.0168)">
<stop stop-color="#ECECEC"/>
<stop offset="0.47" stop-color="#F1F1F1"/>
<stop offset="1" stop-color="white"/>
</radialGradient>
<linearGradient id="paint3_linear_172_30437" x1="43.7928" y1="34.8764" x2="52.8489" y2="72.6055" gradientUnits="userSpaceOnUse">
<stop offset="0.24" stop-color="white"/>
<stop offset="0.92" stop-color="white"/>
<stop offset="1" stop-color="white"/>
</linearGradient>
<linearGradient id="paint4_linear_172_30437" x1="37.292" y1="39.4419" x2="69.2424" y2="61.4171" gradientUnits="userSpaceOnUse">
<stop offset="0.24" stop-color="white"/>
<stop offset="0.92" stop-color="white"/>
<stop offset="1" stop-color="white"/>
</linearGradient>
<linearGradient id="paint5_linear_172_30437" x1="26.9432" y1="26.0787" x2="65.9368" y2="65.0358" gradientUnits="userSpaceOnUse">
<stop stop-color="white"/>
<stop offset="0.03" stop-color="#F9F9F9"/>
<stop offset="0.25" stop-color="#CDD2D2"/>
<stop offset="0.46" stop-color="#AAB3B3"/>
<stop offset="0.66" stop-color="#929D9D"/>
<stop offset="0.85" stop-color="#838F8F"/>
<stop offset="1" stop-color="#7E8B8B"/>
</linearGradient>
<clipPath id="clip0_172_30437">
<rect width="91.2353" height="91.2353" fill="white" transform="translate(0.800781 0.0239258)"/>
</clipPath>
</defs>
</svg>
