<svg xmlns="http://www.w3.org/2000/svg" width="21" height="20" viewBox="0 0 21 20" fill="none">
<path d="M15.7857 13.9728C15.2555 14.0996 14.702 14.1667 14.1329 14.1667C10.2209 14.1667 7.04956 10.9954 7.04956 7.08334C7.04956 6.68044 7.0832 6.28541 7.14782 5.90088C7.11766 5.92989 7.08649 5.9566 7.05368 5.98151C6.81984 6.15903 6.5286 6.22492 5.94613 6.35671L5.41584 6.4767C3.36611 6.94047 2.34124 7.17235 2.09741 7.95645C1.85358 8.74054 2.55227 9.55756 3.94964 11.1916L4.31116 11.6144C4.70825 12.0787 4.90679 12.3109 4.99611 12.5981C5.08543 12.8853 5.05542 13.1951 4.99538 13.8146L4.94072 14.3787C4.72946 16.5588 4.62383 17.6489 5.26218 18.1335C5.90054 18.6181 6.86012 18.1763 8.77928 17.2927L9.2758 17.064C9.82116 16.8129 10.0939 16.6874 10.3829 16.6874C10.6719 16.6874 10.9446 16.8129 11.49 17.064L11.9865 17.2926C13.9057 18.1763 14.8652 18.6181 15.5036 18.1335C16.142 17.6489 16.0363 16.5588 15.8251 14.3787L15.7857 13.9728Z" fill="#FFBA07"/>
<path d="M8.01041 4.50694L7.73733 4.99682C7.43738 5.5349 7.2874 5.80395 7.05356 5.98146C7.08638 5.95655 7.11754 5.92984 7.1477 5.90084C7.08308 6.28536 7.04944 6.6804 7.04944 7.0833C7.04944 10.9953 10.2208 14.1666 14.1328 14.1666C14.7019 14.1666 15.2553 14.0995 15.7856 13.9728L15.7703 13.8146C15.7103 13.1951 15.6802 12.8853 15.7696 12.5981C15.8589 12.3108 16.0574 12.0787 16.4545 11.6143L16.816 11.1916C18.2134 9.55752 18.9121 8.74049 18.6683 7.9564C18.4244 7.17231 17.3996 6.94042 15.3498 6.47665L14.8195 6.35667C14.2371 6.22488 13.9458 6.15898 13.712 5.98146C13.4781 5.80395 13.3282 5.53491 13.0282 4.99682L12.7551 4.50694C11.6996 2.6134 11.1718 1.66663 10.3828 1.66663C9.59372 1.66663 9.06595 2.6134 8.01041 4.50694Z" fill="#FFBA07"/>
</svg>