<svg width="13" height="13" viewBox="0 0 13 13" fill="none" xmlns="http://www.w3.org/2000/svg">
<path d="M9.7417 9.02528C9.42354 9.10133 9.09147 9.1416 8.75 9.1416C6.40279 9.1416 4.5 7.23881 4.5 4.8916C4.5 4.64987 4.52018 4.41284 4.55895 4.18213C4.54086 4.19953 4.52216 4.21556 4.50247 4.23051C4.36217 4.33702 4.18743 4.37656 3.83794 4.45563L3.51977 4.52762C2.28993 4.80588 1.67501 4.94501 1.52871 5.41547C1.38241 5.88593 1.80162 6.37614 2.64005 7.35657L2.85696 7.61022C3.09521 7.88882 3.21434 8.02813 3.26793 8.20046C3.32152 8.3728 3.30351 8.55866 3.26749 8.93038L3.2347 9.2688C3.10794 10.5769 3.04456 11.231 3.42757 11.5217C3.81059 11.8125 4.38634 11.5474 5.53783 11.0172L5.83574 10.88C6.16296 10.7294 6.32657 10.654 6.5 10.654C6.67343 10.654 6.83704 10.7294 7.16426 10.88L7.46216 11.0172C8.61366 11.5474 9.18941 11.8125 9.57243 11.5217C9.95544 11.231 9.89206 10.5769 9.7653 9.2688L9.7417 9.02528Z" fill="rgb(90, 90, 90)"/>
<path d="M5.07651 3.34579L4.91266 3.63972C4.73269 3.96257 4.64271 4.124 4.5024 4.23051C4.52209 4.21556 4.54079 4.19953 4.55888 4.18213C4.52011 4.41285 4.49993 4.64987 4.49993 4.89161C4.49993 7.23882 6.40272 9.14161 8.74993 9.14161C9.0914 9.14161 9.42346 9.10133 9.74163 9.02528L9.73244 8.93038C9.69641 8.55866 9.67841 8.3728 9.732 8.20046C9.78559 8.02812 9.90471 7.88882 10.143 7.61021L10.3599 7.35656C11.1983 6.37614 11.6175 5.88592 11.4712 5.41547C11.3249 4.94501 10.71 4.80588 9.48016 4.52762L9.16199 4.45563C8.8125 4.37655 8.63776 4.33702 8.49746 4.23051C8.35715 4.124 8.26717 3.96257 8.0872 3.63972L7.92335 3.34579C7.29002 2.20966 6.97336 1.6416 6.49993 1.6416C6.0265 1.6416 5.70984 2.20967 5.07651 3.34579Z" fill="rgb(90, 90, 90)"/>
</svg>
