<svg width="54" height="60" viewBox="0 0 54 60" fill="none" xmlns="http://www.w3.org/2000/svg">
<path d="M9.521 3.46191H44.48C49.46 3.46191 53.5 7.59479 53.5 12.6917V34.6141C53.5 48.6348 42.393 60.0002 28.691 60.0002H25.31C11.607 60.0002 0.5 48.6348 0.5 34.6151V12.6928C0.5 7.5948 4.539 3.46191 9.521 3.46191Z" fill="#E3E3E3"/>
<path d="M9.521 3.46191H44.48C49.46 3.46191 53.5 7.59479 53.5 12.6917V27.1141C53.5 40.1778 43.15 50.7684 30.383 50.7684H23.617C10.85 50.7694 0.5 40.1799 0.5 27.1151V12.6928C0.5 7.5948 4.539 3.46191 9.521 3.46191Z" fill="#E5E5E5"/>
<path d="M9.521 5.76915C7.653 5.76915 6.138 7.31898 6.138 9.23085V31.1542C6.138 41.9868 14.721 50.7692 25.308 50.7692H28.691C39.279 50.7692 47.861 41.9868 47.861 31.1542V9.23085C47.861 7.31898 46.347 5.76915 44.479 5.76915H9.521ZM9.521 0H44.48C49.46 0 53.5 4.13288 53.5 9.23085V31.1542C53.5 45.1729 42.393 56.5383 28.691 56.5383H25.31C11.607 56.5383 0.5 45.1729 0.5 31.1542V9.23085C0.5 4.13288 4.539 0 9.521 0Z" fill="#EFEFEF"/>
<g opacity="0.8">
<path d="M27.1319 31.7056C31.7424 31.7056 35.4799 28.0641 35.4799 23.572C35.4799 19.08 31.7424 15.4385 27.1319 15.4385C22.5215 15.4385 18.7839 19.08 18.7839 23.572C18.7839 28.0641 22.5215 31.7056 27.1319 31.7056Z" fill="#CFCFCF"/>
<path fill-rule="evenodd" clip-rule="evenodd" d="M23.4809 27.3427C25.4969 23.4143 28.7659 23.4132 30.7809 27.3427L33.7939 33.2115C35.8099 37.14 33.9099 40.3251 29.5589 40.3251H24.7039C20.3489 40.3251 18.4529 37.14 20.4689 33.2115L23.4809 27.3427Z" fill="#CFCFCF"/>
</g>
</svg>
